G04*
G04 #@! TF.GenerationSoftware,Altium Limited,Altium Designer,23.7.1 (13)*
G04*
G04 Layer_Color=32896*
%FSLAX44Y44*%
%MOMM*%
G71*
G04*
G04 #@! TF.SameCoordinates,F0151953-7860-4C4B-BC48-228A45E59CF9*
G04*
G04*
G04 #@! TF.FilePolarity,Positive*
G04*
G01*
G75*
%ADD10C,0.2000*%
%ADD12C,0.2540*%
%ADD13C,0.1270*%
D10*
X861140Y218440D02*
G03*
X861140Y218440I-1000J0D01*
G01*
X426450Y779780D02*
G03*
X426450Y779780I-1000J0D01*
G01*
X1680410D02*
G03*
X1680410Y779780I-1000J0D01*
G01*
D12*
X1094867Y461137D02*
Y476372D01*
X1087250D01*
X1084710Y473833D01*
Y468755D01*
X1087250Y466215D01*
X1094867D01*
X1072014Y476372D02*
X1077093D01*
X1079632Y473833D01*
Y463676D01*
X1077093Y461137D01*
X1072014D01*
X1069475Y463676D01*
Y473833D01*
X1072014Y476372D01*
X1064397D02*
Y461137D01*
X1059318Y466215D01*
X1054240Y461137D01*
Y476372D01*
X1039005D02*
X1049162D01*
Y461137D01*
X1039005D01*
X1049162Y468755D02*
X1044083D01*
X1033927Y461137D02*
Y476372D01*
X1026309D01*
X1023770Y473833D01*
Y468755D01*
X1026309Y466215D01*
X1033927D01*
X1028848D02*
X1023770Y461137D01*
X1018692Y476372D02*
Y461137D01*
X1011074D01*
X1008535Y463676D01*
Y466215D01*
X1011074Y468755D01*
X1018692D01*
X1011074D01*
X1008535Y471294D01*
Y473833D01*
X1011074Y476372D01*
X1018692D01*
X995839D02*
X1000917D01*
X1003457Y473833D01*
Y463676D01*
X1000917Y461137D01*
X995839D01*
X993300Y463676D01*
Y473833D01*
X995839Y476372D01*
X980604D02*
X985682D01*
X988222Y473833D01*
Y463676D01*
X985682Y461137D01*
X980604D01*
X978065Y463676D01*
Y473833D01*
X980604Y476372D01*
X962830Y473833D02*
X965369Y476372D01*
X970447D01*
X972986Y473833D01*
Y471294D01*
X970447Y468755D01*
X965369D01*
X962830Y466215D01*
Y463676D01*
X965369Y461137D01*
X970447D01*
X972986Y463676D01*
X957751Y476372D02*
X947595D01*
X952673D01*
Y461137D01*
X927281D02*
X922203D01*
X924742D01*
Y476372D01*
X927281Y473833D01*
X914585D02*
X912046Y476372D01*
X906968D01*
X904429Y473833D01*
Y463676D01*
X906968Y461137D01*
X912046D01*
X914585Y463676D01*
Y473833D01*
X899350D02*
X896811Y476372D01*
X891733D01*
X889193Y473833D01*
Y463676D01*
X891733Y461137D01*
X896811D01*
X899350Y463676D01*
Y473833D01*
X884115D02*
X881576Y476372D01*
X876498D01*
X873959Y473833D01*
Y463676D01*
X876498Y461137D01*
X881576D01*
X884115Y463676D01*
Y473833D01*
X858723D02*
X861263Y476372D01*
X866341D01*
X868880Y473833D01*
Y463676D01*
X866341Y461137D01*
X861263D01*
X858723Y463676D01*
X1517949Y726878D02*
X1520489Y729417D01*
X1525567D01*
X1528106Y726878D01*
Y724339D01*
X1525567Y721800D01*
X1520489D01*
X1517949Y719261D01*
Y716722D01*
X1520489Y714183D01*
X1525567D01*
X1528106Y716722D01*
X1505253Y714183D02*
Y729417D01*
X1512871Y721800D01*
X1502714D01*
X440220Y726438D02*
X442759Y728978D01*
X447837D01*
X450377Y726438D01*
Y723899D01*
X447837Y721360D01*
X442759D01*
X440220Y718821D01*
Y716282D01*
X442759Y713743D01*
X447837D01*
X450377Y716282D01*
X435141Y713743D02*
X430063D01*
X432602D01*
Y728978D01*
X435141Y726438D01*
D13*
X866140Y90170D02*
Y450850D01*
X1094740D01*
Y90170D02*
Y450850D01*
X866140Y90170D02*
X1094740D01*
X287960Y816580D02*
X336960D01*
X369960D01*
X418960D01*
Y711280D02*
Y816580D01*
X287960Y711280D02*
X418960D01*
X287960D02*
Y816580D01*
X1541920D02*
X1590920D01*
X1623920D01*
X1672920D01*
Y711280D02*
Y816580D01*
X1541920Y711280D02*
X1672920D01*
X1541920D02*
Y816580D01*
M02*
