G04*
G04 #@! TF.GenerationSoftware,Altium Limited,Altium Designer,23.7.1 (13)*
G04*
G04 Layer_Color=65535*
%FSLAX44Y44*%
%MOMM*%
G71*
G04*
G04 #@! TF.SameCoordinates,F0151953-7860-4C4B-BC48-228A45E59CF9*
G04*
G04*
G04 #@! TF.FilePolarity,Positive*
G04*
G01*
G75*
%ADD10C,0.2000*%
%ADD11C,0.2500*%
%ADD12C,0.2540*%
%ADD13C,0.1270*%
G36*
X991084Y279805D02*
X991299D01*
Y279590D01*
X991513D01*
Y278090D01*
X991299D01*
Y277876D01*
X991084D01*
Y277662D01*
X990870D01*
Y277447D01*
X990227D01*
Y277233D01*
X990013D01*
Y277447D01*
X989370D01*
Y277662D01*
X989155D01*
Y278090D01*
X988941D01*
Y278948D01*
X989155D01*
Y279162D01*
Y279376D01*
X989370D01*
Y279590D01*
X989584D01*
Y279805D01*
X989798D01*
Y280019D01*
X991084D01*
Y279805D01*
D02*
G37*
G36*
X986155Y275733D02*
X986369D01*
Y275519D01*
X986584D01*
Y275304D01*
X986798D01*
Y275090D01*
X987012D01*
Y273161D01*
X986798D01*
Y272733D01*
X986584D01*
Y272518D01*
X986369D01*
Y272304D01*
X986155D01*
Y272090D01*
X985726D01*
Y271875D01*
X984012D01*
Y272090D01*
X983798D01*
Y272304D01*
X983583D01*
Y272518D01*
X983369D01*
Y272947D01*
X983155D01*
Y274447D01*
X983369D01*
Y274876D01*
X983583D01*
Y275304D01*
X983798D01*
Y275519D01*
X984012D01*
Y275733D01*
X984441D01*
Y275947D01*
X986155D01*
Y275733D01*
D02*
G37*
G36*
X1014444Y289449D02*
X1015087D01*
Y289235D01*
X1015516D01*
Y289020D01*
X1015944D01*
Y288806D01*
X1016159D01*
Y288592D01*
X1016373D01*
Y288377D01*
X1016587D01*
Y288163D01*
X1016802D01*
Y287949D01*
X1017016D01*
Y287734D01*
X1017230D01*
Y287520D01*
X1017445D01*
Y287092D01*
X1017659D01*
Y286877D01*
X1017873D01*
Y286448D01*
X1018087D01*
Y285806D01*
X1018302D01*
Y285163D01*
X1018516D01*
Y284305D01*
X1018730D01*
Y282162D01*
X1018945D01*
Y280448D01*
X1018730D01*
Y277876D01*
X1018516D01*
Y276590D01*
X1018302D01*
Y275304D01*
X1018087D01*
Y274447D01*
X1017873D01*
Y273375D01*
X1017659D01*
Y272518D01*
X1017445D01*
Y271875D01*
X1017230D01*
Y271018D01*
X1017016D01*
Y270375D01*
X1016802D01*
Y269518D01*
X1016587D01*
Y268875D01*
X1016373D01*
Y268232D01*
X1016159D01*
Y267589D01*
X1015944D01*
Y266946D01*
X1015730D01*
Y266303D01*
X1015516D01*
Y265875D01*
X1015302D01*
Y265446D01*
X1015087D01*
Y264803D01*
X1014873D01*
Y264374D01*
X1014659D01*
Y263946D01*
X1014444D01*
Y263517D01*
X1014230D01*
Y262874D01*
X1014016D01*
Y262446D01*
X1013801D01*
Y262017D01*
X1013587D01*
Y261588D01*
X1013373D01*
Y261160D01*
X1013158D01*
Y260731D01*
X1012944D01*
Y260088D01*
X1012730D01*
Y259660D01*
X1012515D01*
Y259231D01*
X1012301D01*
Y258802D01*
X1012087D01*
Y258159D01*
X1011872D01*
Y257731D01*
X1011658D01*
Y257302D01*
X1011444D01*
Y256873D01*
X1011229D01*
Y256445D01*
X1011015D01*
Y256016D01*
X1010801D01*
Y255588D01*
X1010587D01*
Y255159D01*
X1010372D01*
Y254730D01*
X1010158D01*
Y254302D01*
X1009944D01*
Y253873D01*
X1009729D01*
Y253444D01*
X1009515D01*
Y253016D01*
X1009301D01*
Y252587D01*
X1009086D01*
Y252159D01*
X1008872D01*
Y251730D01*
X1008658D01*
Y251301D01*
X1008444D01*
Y250873D01*
X1008229D01*
Y250444D01*
X1008015D01*
Y250015D01*
X1007801D01*
Y249587D01*
X1007586D01*
Y249158D01*
X1007372D01*
Y248944D01*
X1007158D01*
Y248515D01*
X1006943D01*
Y248087D01*
X1006729D01*
Y247658D01*
X1006515D01*
Y247229D01*
X1006300D01*
Y246801D01*
X1006086D01*
Y246372D01*
X1005872D01*
Y246158D01*
X1005657D01*
Y245729D01*
X1005443D01*
Y245301D01*
X1005229D01*
Y244872D01*
X1005014D01*
Y244443D01*
X1004800D01*
Y244229D01*
X1004586D01*
Y243800D01*
X1004371D01*
Y243372D01*
X1004157D01*
Y242943D01*
X1003943D01*
Y242514D01*
X1003729D01*
Y242300D01*
X1003514D01*
Y241871D01*
X1003300D01*
Y241443D01*
X1003086D01*
Y241229D01*
X1002871D01*
Y240800D01*
X1002657D01*
Y240371D01*
X1002443D01*
Y239943D01*
X1002228D01*
Y239728D01*
X1002014D01*
Y239300D01*
X1001800D01*
Y238871D01*
X1001585D01*
Y238657D01*
X1001371D01*
Y238228D01*
X1001157D01*
Y238014D01*
X1000943D01*
Y237585D01*
X1000728D01*
Y237157D01*
X1000514D01*
Y236942D01*
X1000300D01*
Y236514D01*
X1000085D01*
Y236085D01*
X999871D01*
Y235871D01*
X999657D01*
Y235442D01*
X999442D01*
Y235228D01*
X999228D01*
Y234799D01*
X999014D01*
Y234585D01*
X998799D01*
Y234156D01*
X998585D01*
Y233942D01*
X998371D01*
Y233728D01*
X998157D01*
Y233299D01*
X997942D01*
Y233085D01*
X997728D01*
Y232656D01*
X997514D01*
Y232442D01*
X997299D01*
Y232013D01*
X997085D01*
Y231799D01*
X996871D01*
Y231370D01*
X996656D01*
Y231156D01*
X996442D01*
Y230727D01*
X996228D01*
Y230513D01*
X996013D01*
Y230084D01*
X995799D01*
Y229870D01*
X995585D01*
Y229656D01*
X995370D01*
Y229227D01*
X995156D01*
Y229013D01*
X994942D01*
Y228799D01*
X994727D01*
Y228370D01*
X994513D01*
Y228155D01*
X994299D01*
Y227941D01*
X994084D01*
Y227513D01*
X993870D01*
Y227298D01*
X993656D01*
Y227084D01*
X993442D01*
Y226870D01*
X993013D01*
Y226655D01*
X992370D01*
Y226441D01*
X991727D01*
Y226655D01*
X990870D01*
Y226870D01*
X990656D01*
Y227084D01*
X990441D01*
Y227298D01*
X990227D01*
Y227513D01*
X990013D01*
Y229441D01*
X990227D01*
Y229870D01*
X990441D01*
Y230084D01*
X990656D01*
Y230513D01*
X990870D01*
Y230727D01*
X991084D01*
Y230942D01*
X991299D01*
Y231370D01*
X991513D01*
Y231584D01*
X991727D01*
Y232013D01*
X991941D01*
Y232227D01*
X992156D01*
Y232442D01*
X992370D01*
Y232870D01*
X992584D01*
Y233085D01*
X992799D01*
Y233513D01*
X993013D01*
Y233728D01*
X993227D01*
Y233942D01*
X993442D01*
Y234371D01*
X993656D01*
Y234585D01*
X992370D01*
Y234371D01*
X991513D01*
Y234156D01*
X990656D01*
Y233942D01*
X989798D01*
Y233728D01*
X988941D01*
Y233513D01*
X988084D01*
Y233299D01*
X987226D01*
Y233085D01*
X986584D01*
Y232870D01*
X985941D01*
Y232656D01*
X985512D01*
Y232442D01*
X985083D01*
Y232227D01*
X984655D01*
Y232013D01*
X984226D01*
Y231799D01*
X983798D01*
Y231584D01*
X983369D01*
Y231370D01*
X983155D01*
Y231156D01*
X982726D01*
Y230942D01*
X982512D01*
Y230727D01*
X982083D01*
Y230513D01*
X981869D01*
Y230299D01*
X981654D01*
Y229870D01*
X981869D01*
Y229656D01*
X982083D01*
Y229441D01*
X982297D01*
Y229227D01*
X982726D01*
Y229013D01*
X982940D01*
Y228799D01*
X983155D01*
Y228584D01*
X983369D01*
Y228370D01*
X983798D01*
Y228155D01*
X984012D01*
Y227941D01*
X984226D01*
Y227727D01*
X984441D01*
Y227513D01*
X984655D01*
Y227298D01*
X985083D01*
Y227084D01*
X985298D01*
Y226870D01*
X985512D01*
Y226655D01*
X985941D01*
Y226441D01*
X986155D01*
Y226227D01*
X986369D01*
Y226012D01*
X986584D01*
Y225798D01*
X987012D01*
Y225584D01*
X987226D01*
Y225369D01*
X987441D01*
Y225155D01*
X987869D01*
Y224941D01*
X988084D01*
Y224727D01*
X988298D01*
Y224512D01*
X988727D01*
Y224298D01*
X988941D01*
Y224084D01*
X989370D01*
Y223869D01*
X989584D01*
Y223655D01*
X989798D01*
Y223441D01*
X990227D01*
Y223226D01*
X990441D01*
Y223012D01*
X990870D01*
Y222798D01*
X991084D01*
Y222583D01*
X991299D01*
Y222369D01*
X991727D01*
Y222155D01*
X991941D01*
Y221940D01*
X992370D01*
Y221726D01*
X992584D01*
Y221512D01*
X993013D01*
Y221297D01*
X993227D01*
Y221083D01*
X993656D01*
Y220869D01*
X993870D01*
Y220655D01*
X994299D01*
Y220440D01*
X994727D01*
Y220226D01*
X994942D01*
Y220012D01*
X995370D01*
Y219797D01*
X995585D01*
Y219583D01*
X996013D01*
Y219369D01*
X996442D01*
Y219154D01*
X996656D01*
Y218940D01*
X997085D01*
Y218726D01*
X997514D01*
Y218512D01*
X997728D01*
Y218297D01*
X998157D01*
Y218083D01*
X998585D01*
Y217868D01*
X998799D01*
Y217654D01*
X999228D01*
Y217440D01*
X999657D01*
Y217226D01*
X1000085D01*
Y217011D01*
X1000514D01*
Y216797D01*
X1000728D01*
Y216583D01*
X1001157D01*
Y216368D01*
X1001585D01*
Y216154D01*
X1002014D01*
Y215940D01*
X1002443D01*
Y215725D01*
X1002871D01*
Y215511D01*
X1003300D01*
Y215297D01*
X1003729D01*
Y215082D01*
X1004157D01*
Y214868D01*
X1004586D01*
Y214654D01*
X1005229D01*
Y214440D01*
X1005657D01*
Y214225D01*
X1006086D01*
Y214011D01*
X1006515D01*
Y213797D01*
X1007158D01*
Y213582D01*
X1007586D01*
Y213368D01*
X1008229D01*
Y213154D01*
X1008658D01*
Y212939D01*
X1009301D01*
Y212725D01*
X1009729D01*
Y212511D01*
X1010372D01*
Y212296D01*
X1011015D01*
Y212082D01*
X1011658D01*
Y211868D01*
X1012515D01*
Y211653D01*
X1013158D01*
Y211439D01*
X1014016D01*
Y211225D01*
X1015087D01*
Y211010D01*
X1016159D01*
Y210796D01*
X1018087D01*
Y210582D01*
X1020445D01*
Y210796D01*
X1021945D01*
Y211010D01*
X1022588D01*
Y211225D01*
X1023231D01*
Y211439D01*
X1023660D01*
Y211653D01*
X1024088D01*
Y211868D01*
X1024517D01*
Y212082D01*
X1024731D01*
Y212296D01*
X1024946D01*
Y212511D01*
X1025160D01*
Y212725D01*
X1025374D01*
Y212939D01*
X1025589D01*
Y213368D01*
X1025803D01*
Y213582D01*
X1026017D01*
Y214011D01*
X1026231D01*
Y214654D01*
X1026446D01*
Y215511D01*
X1026660D01*
Y219583D01*
X1026446D01*
Y220655D01*
X1026231D01*
Y221512D01*
X1026017D01*
Y222155D01*
X1025803D01*
Y222798D01*
X1025589D01*
Y223441D01*
X1025374D01*
Y224084D01*
X1025160D01*
Y224727D01*
X1024946D01*
Y225798D01*
X1025160D01*
Y226012D01*
X1025374D01*
Y226227D01*
X1025589D01*
Y226441D01*
X1026446D01*
Y226227D01*
X1026874D01*
Y226012D01*
X1027089D01*
Y225798D01*
X1027303D01*
Y225584D01*
X1027517D01*
Y224941D01*
X1027732D01*
Y224512D01*
X1027946D01*
Y223869D01*
X1028160D01*
Y223441D01*
X1028374D01*
Y222798D01*
X1028589D01*
Y222155D01*
X1028803D01*
Y221512D01*
X1029017D01*
Y220655D01*
X1029232D01*
Y219583D01*
X1029446D01*
Y218297D01*
X1029660D01*
Y214868D01*
X1029446D01*
Y213797D01*
X1029232D01*
Y213154D01*
X1029017D01*
Y212511D01*
X1028803D01*
Y212082D01*
X1028589D01*
Y211653D01*
X1028374D01*
Y211225D01*
X1028160D01*
Y211010D01*
X1027946D01*
Y210582D01*
X1027732D01*
Y210368D01*
X1027517D01*
Y210153D01*
X1027303D01*
Y209939D01*
X1027089D01*
Y209725D01*
X1026874D01*
Y209510D01*
X1026660D01*
Y209296D01*
X1026446D01*
Y209082D01*
X1026017D01*
Y208867D01*
X1025803D01*
Y208653D01*
X1025374D01*
Y208439D01*
X1025160D01*
Y208225D01*
X1024731D01*
Y208010D01*
X1024088D01*
Y207796D01*
X1023660D01*
Y207582D01*
X1023017D01*
Y207367D01*
X1022160D01*
Y207153D01*
X1021088D01*
Y206939D01*
X1015087D01*
Y207153D01*
X1013587D01*
Y207367D01*
X1012301D01*
Y207582D01*
X1011444D01*
Y207796D01*
X1010587D01*
Y208010D01*
X1009729D01*
Y208225D01*
X1008872D01*
Y208439D01*
X1008229D01*
Y208653D01*
X1007586D01*
Y208867D01*
X1006943D01*
Y209082D01*
X1006300D01*
Y209296D01*
X1005657D01*
Y209510D01*
X1005014D01*
Y209725D01*
X1004371D01*
Y209939D01*
X1003943D01*
Y210153D01*
X1003300D01*
Y210368D01*
X1002871D01*
Y210582D01*
X1002443D01*
Y210796D01*
X1001800D01*
Y211010D01*
X1001371D01*
Y211225D01*
X1000943D01*
Y211439D01*
X1000514D01*
Y211653D01*
X999871D01*
Y211868D01*
X999442D01*
Y212082D01*
X999014D01*
Y212296D01*
X998585D01*
Y212511D01*
X998157D01*
Y212725D01*
X997728D01*
Y212939D01*
X997299D01*
Y213154D01*
X996871D01*
Y213368D01*
X996442D01*
Y213582D01*
X996013D01*
Y213797D01*
X995799D01*
Y214011D01*
X995370D01*
Y214225D01*
X994942D01*
Y214440D01*
X994513D01*
Y214654D01*
X994084D01*
Y214868D01*
X993870D01*
Y215082D01*
X993442D01*
Y215297D01*
X993013D01*
Y215511D01*
X992799D01*
Y215725D01*
X992370D01*
Y215940D01*
X991941D01*
Y216154D01*
X991727D01*
Y216368D01*
X991299D01*
Y216583D01*
X990870D01*
Y216797D01*
X990656D01*
Y217011D01*
X990227D01*
Y217226D01*
X990013D01*
Y217440D01*
X989584D01*
Y217654D01*
X989155D01*
Y217868D01*
X988941D01*
Y218083D01*
X988512D01*
Y218297D01*
X988298D01*
Y218512D01*
X987869D01*
Y218726D01*
X987655D01*
Y218940D01*
X987441D01*
Y219154D01*
X987012D01*
Y219369D01*
X986798D01*
Y219583D01*
X986369D01*
Y219797D01*
X986155D01*
Y220012D01*
X985726D01*
Y220226D01*
X985512D01*
Y220440D01*
X985298D01*
Y220655D01*
X984869D01*
Y220869D01*
X984655D01*
Y221083D01*
X984226D01*
Y221297D01*
X984012D01*
Y221512D01*
X983798D01*
Y221726D01*
X983369D01*
Y221940D01*
X983155D01*
Y222155D01*
X982940D01*
Y222369D01*
X982726D01*
Y222583D01*
X982297D01*
Y222798D01*
X982083D01*
Y223012D01*
X981869D01*
Y223226D01*
X981440D01*
Y223441D01*
X981226D01*
Y223655D01*
X981012D01*
Y223869D01*
X980797D01*
Y224084D01*
X980368D01*
Y224298D01*
X980154D01*
Y224512D01*
X979940D01*
Y224727D01*
X979726D01*
Y224941D01*
X979511D01*
Y225155D01*
X979083D01*
Y225369D01*
X978868D01*
Y225584D01*
X978654D01*
Y225155D01*
X978440D01*
Y224298D01*
X978225D01*
Y223655D01*
X978011D01*
Y222798D01*
X977797D01*
Y222155D01*
X977582D01*
Y221512D01*
X977368D01*
Y221083D01*
X977154D01*
Y220440D01*
X976939D01*
Y220012D01*
X976725D01*
Y219583D01*
X976511D01*
Y218940D01*
X976297D01*
Y218512D01*
X976082D01*
Y218083D01*
X975868D01*
Y217654D01*
X975654D01*
Y217226D01*
X975439D01*
Y217011D01*
X975225D01*
Y216583D01*
X975011D01*
Y216154D01*
X974796D01*
Y215940D01*
X974582D01*
Y215511D01*
X974368D01*
Y215297D01*
X974154D01*
Y215082D01*
X973939D01*
Y214654D01*
X973725D01*
Y214440D01*
X973511D01*
Y214225D01*
X973296D01*
Y214011D01*
X973082D01*
Y213797D01*
X972868D01*
Y213582D01*
X972653D01*
Y213368D01*
X972439D01*
Y213154D01*
X972225D01*
Y212939D01*
X972010D01*
Y212725D01*
X971796D01*
Y212511D01*
X971582D01*
Y212296D01*
X971367D01*
Y212082D01*
X970939D01*
Y211868D01*
X970724D01*
Y211653D01*
X970296D01*
Y211439D01*
X969867D01*
Y211225D01*
X969439D01*
Y211010D01*
X968796D01*
Y210796D01*
X968153D01*
Y210582D01*
X964938D01*
Y210796D01*
X964081D01*
Y211010D01*
X963438D01*
Y211225D01*
X963009D01*
Y211439D01*
X962581D01*
Y211653D01*
X962152D01*
Y211868D01*
X961938D01*
Y212082D01*
X961509D01*
Y212296D01*
X961295D01*
Y212511D01*
X961080D01*
Y212725D01*
X960652D01*
Y212939D01*
X960437D01*
Y213154D01*
X960223D01*
Y213368D01*
X960009D01*
Y213797D01*
X959794D01*
Y214011D01*
X959580D01*
Y214225D01*
X959366D01*
Y214440D01*
X958937D01*
Y214654D01*
X958509D01*
Y214868D01*
X958080D01*
Y215082D01*
X957866D01*
Y215297D01*
X957651D01*
Y215511D01*
X957223D01*
Y215725D01*
X957009D01*
Y215940D01*
X956794D01*
Y216154D01*
X956580D01*
Y216368D01*
X956366D01*
Y216583D01*
X956151D01*
Y216797D01*
X955937D01*
Y217226D01*
X955723D01*
Y217440D01*
X955508D01*
Y217654D01*
X955294D01*
Y218083D01*
X955080D01*
Y218512D01*
X954865D01*
Y218940D01*
X954651D01*
Y219369D01*
X954437D01*
Y219797D01*
X954222D01*
Y220440D01*
X954008D01*
Y221083D01*
X953794D01*
Y221726D01*
X953579D01*
Y222583D01*
X953365D01*
Y223441D01*
X953151D01*
Y224512D01*
X952936D01*
Y226012D01*
X952722D01*
Y228584D01*
X952508D01*
Y233513D01*
X952722D01*
Y237157D01*
X952936D01*
Y238871D01*
X953151D01*
Y240371D01*
X953365D01*
Y241443D01*
X953579D01*
Y242300D01*
X953794D01*
Y243157D01*
X954008D01*
Y243800D01*
X954222D01*
Y244658D01*
X954437D01*
Y245301D01*
X954651D01*
Y245729D01*
X954865D01*
Y246801D01*
X954651D01*
Y247229D01*
X954437D01*
Y247872D01*
X954222D01*
Y248301D01*
X954008D01*
Y248729D01*
X953794D01*
Y249373D01*
X953579D01*
Y250015D01*
X953365D01*
Y250658D01*
X953151D01*
Y251516D01*
X952936D01*
Y252373D01*
X952722D01*
Y253873D01*
X952508D01*
Y256231D01*
X952722D01*
Y257516D01*
X952936D01*
Y257731D01*
X953151D01*
Y257088D01*
X953365D01*
Y256659D01*
X953579D01*
Y256016D01*
X953794D01*
Y255373D01*
X954008D01*
Y254730D01*
X954222D01*
Y254302D01*
X954437D01*
Y253444D01*
X954651D01*
Y252801D01*
X954865D01*
Y252373D01*
X955080D01*
Y251730D01*
X955294D01*
Y251301D01*
X955508D01*
Y250658D01*
X955723D01*
Y250230D01*
X955937D01*
Y249801D01*
X956151D01*
Y249373D01*
X956366D01*
Y249158D01*
X956580D01*
Y248729D01*
X956794D01*
Y248301D01*
X957009D01*
Y247872D01*
X957223D01*
Y247658D01*
X957437D01*
Y247229D01*
X957651D01*
Y247015D01*
X957866D01*
Y246801D01*
X958080D01*
Y246372D01*
X958294D01*
Y246158D01*
X958509D01*
Y245944D01*
X958723D01*
Y245729D01*
X958937D01*
Y245515D01*
X959152D01*
Y245301D01*
X959366D01*
Y245086D01*
X959580D01*
Y244872D01*
X960009D01*
Y244658D01*
X960223D01*
Y244443D01*
X960652D01*
Y244229D01*
X960866D01*
Y244872D01*
X960652D01*
Y245086D01*
X960437D01*
Y245515D01*
X960223D01*
Y245944D01*
X960009D01*
Y246372D01*
X959794D01*
Y246801D01*
X959580D01*
Y247229D01*
X959366D01*
Y247658D01*
X959152D01*
Y248087D01*
X958937D01*
Y248515D01*
X958723D01*
Y249158D01*
X958509D01*
Y249587D01*
X958294D01*
Y250015D01*
X958080D01*
Y250444D01*
X957866D01*
Y251087D01*
X957651D01*
Y251516D01*
X957437D01*
Y252159D01*
X957223D01*
Y252587D01*
X957009D01*
Y253230D01*
X956794D01*
Y253659D01*
X956580D01*
Y254302D01*
X956366D01*
Y254730D01*
X956151D01*
Y255373D01*
X955937D01*
Y255802D01*
X955723D01*
Y256445D01*
X955508D01*
Y257088D01*
X955294D01*
Y257731D01*
X955080D01*
Y258374D01*
X954865D01*
Y259445D01*
X954651D01*
Y260945D01*
X954437D01*
Y263946D01*
X954651D01*
Y265232D01*
X954865D01*
Y266089D01*
X955080D01*
Y266732D01*
X955294D01*
Y267160D01*
X955508D01*
Y267589D01*
X955723D01*
Y268018D01*
X955937D01*
Y268446D01*
X956151D01*
Y268661D01*
X956366D01*
Y268875D01*
X956580D01*
Y269089D01*
X956794D01*
Y269518D01*
X957009D01*
Y269732D01*
X957223D01*
Y269946D01*
X957651D01*
Y270161D01*
X957866D01*
Y270375D01*
X958080D01*
Y270589D01*
X958509D01*
Y270804D01*
X958723D01*
Y271018D01*
X959152D01*
Y271232D01*
X959580D01*
Y271447D01*
X960009D01*
Y271661D01*
X960652D01*
Y271875D01*
X961295D01*
Y272090D01*
X962366D01*
Y272304D01*
X964509D01*
Y272518D01*
X966010D01*
Y272304D01*
X968367D01*
Y272090D01*
X969653D01*
Y271875D01*
X970724D01*
Y271661D01*
X971582D01*
Y271447D01*
X972439D01*
Y271232D01*
X973082D01*
Y271018D01*
X973939D01*
Y270804D01*
X974582D01*
Y270589D01*
X975225D01*
Y270375D01*
X975868D01*
Y270161D01*
X976511D01*
Y269946D01*
X976939D01*
Y269732D01*
X977582D01*
Y269518D01*
X978011D01*
Y269303D01*
X978654D01*
Y269089D01*
X979083D01*
Y268875D01*
X979511D01*
Y268661D01*
X980154D01*
Y268446D01*
X980583D01*
Y268232D01*
X981012D01*
Y268018D01*
X981440D01*
Y267803D01*
X981869D01*
Y267589D01*
X982297D01*
Y267375D01*
X982726D01*
Y267160D01*
X983155D01*
Y266946D01*
X983583D01*
Y266732D01*
X984012D01*
Y266518D01*
X984441D01*
Y266303D01*
X984869D01*
Y266089D01*
X985298D01*
Y265875D01*
X985726D01*
Y265660D01*
X986155D01*
Y265446D01*
X986369D01*
Y265232D01*
X986798D01*
Y265017D01*
X987226D01*
Y264803D01*
X987655D01*
Y264589D01*
X987869D01*
Y264374D01*
X988298D01*
Y264160D01*
X988727D01*
Y263946D01*
X988941D01*
Y264160D01*
X989155D01*
Y264374D01*
X989370D01*
Y264589D01*
X989584D01*
Y264803D01*
X989798D01*
Y265017D01*
X990227D01*
Y265232D01*
X990441D01*
Y265446D01*
X990656D01*
Y265660D01*
X991084D01*
Y265875D01*
X991299D01*
Y266089D01*
X991727D01*
Y266303D01*
X992156D01*
Y266518D01*
X992799D01*
Y266732D01*
X993227D01*
Y266946D01*
X993870D01*
Y267160D01*
X994942D01*
Y267375D01*
X999657D01*
Y267160D01*
X1000728D01*
Y266946D01*
X1001371D01*
Y266732D01*
X1002228D01*
Y266518D01*
X1002657D01*
Y266303D01*
X1003300D01*
Y266089D01*
X1003729D01*
Y265875D01*
X1004371D01*
Y265660D01*
X1004800D01*
Y265446D01*
X1005229D01*
Y265232D01*
X1005657D01*
Y265017D01*
X1005872D01*
Y264803D01*
X1006300D01*
Y264589D01*
X1006729D01*
Y264374D01*
X1006943D01*
Y264160D01*
X1007372D01*
Y263946D01*
X1007801D01*
Y263731D01*
X1008015D01*
Y263517D01*
X1008444D01*
Y263303D01*
X1008658D01*
Y263088D01*
X1008872D01*
Y262874D01*
X1009301D01*
Y262660D01*
X1009515D01*
Y262446D01*
X1009729D01*
Y262231D01*
X1010158D01*
Y262660D01*
X1010372D01*
Y263303D01*
X1010587D01*
Y263731D01*
X1010801D01*
Y264160D01*
X1011015D01*
Y264589D01*
X1011229D01*
Y265232D01*
X1011444D01*
Y265660D01*
X1011658D01*
Y266089D01*
X1011872D01*
Y266732D01*
X1012087D01*
Y267160D01*
X1012301D01*
Y267589D01*
X1012515D01*
Y268232D01*
X1012730D01*
Y268875D01*
X1012944D01*
Y269303D01*
X1013158D01*
Y269946D01*
X1013373D01*
Y270589D01*
X1013587D01*
Y271018D01*
X1013801D01*
Y271661D01*
X1014016D01*
Y272304D01*
X1014230D01*
Y272947D01*
X1014444D01*
Y273804D01*
X1014659D01*
Y274447D01*
X1014873D01*
Y275090D01*
X1015087D01*
Y275947D01*
X1015302D01*
Y276805D01*
X1015516D01*
Y277876D01*
X1015730D01*
Y279162D01*
X1015944D01*
Y280876D01*
X1016159D01*
Y283020D01*
X1015944D01*
Y284305D01*
X1015730D01*
Y284948D01*
X1015516D01*
Y285377D01*
X1015302D01*
Y285806D01*
X1015087D01*
Y286020D01*
X1014873D01*
Y286234D01*
X1014659D01*
Y286448D01*
X1014230D01*
Y286663D01*
X1013587D01*
Y286877D01*
X1011229D01*
Y286663D01*
X1010372D01*
Y286448D01*
X1009515D01*
Y286234D01*
X1009086D01*
Y286020D01*
X1008444D01*
Y285806D01*
X1008015D01*
Y285591D01*
X1007586D01*
Y285377D01*
X1007158D01*
Y285163D01*
X1006729D01*
Y284948D01*
X1006300D01*
Y284734D01*
X1005872D01*
Y284520D01*
X1005657D01*
Y284305D01*
X1005229D01*
Y284091D01*
X1004800D01*
Y283877D01*
X1004586D01*
Y283662D01*
X1004157D01*
Y283448D01*
X1003943D01*
Y283234D01*
X1003514D01*
Y283020D01*
X1003300D01*
Y282805D01*
X1002871D01*
Y282591D01*
X1002657D01*
Y282377D01*
X1002228D01*
Y282162D01*
X1002014D01*
Y281948D01*
X1001800D01*
Y281734D01*
X1001371D01*
Y281519D01*
X1001157D01*
Y281305D01*
X1000943D01*
Y281091D01*
X1000514D01*
Y280876D01*
X1000300D01*
Y280662D01*
X1000085D01*
Y280448D01*
X999657D01*
Y280233D01*
X999442D01*
Y280019D01*
X999228D01*
Y279805D01*
X999014D01*
Y279590D01*
X998799D01*
Y279376D01*
X998371D01*
Y279162D01*
X998157D01*
Y278948D01*
X997942D01*
Y278733D01*
X997728D01*
Y278519D01*
X997514D01*
Y278305D01*
X997299D01*
Y278090D01*
X996871D01*
Y277876D01*
X996656D01*
Y277662D01*
X996442D01*
Y277447D01*
X996228D01*
Y277233D01*
X996013D01*
Y277019D01*
X995799D01*
Y276805D01*
X995585D01*
Y276590D01*
X995370D01*
Y276376D01*
X995156D01*
Y276161D01*
X994942D01*
Y275947D01*
X994513D01*
Y275733D01*
X994299D01*
Y275519D01*
X994084D01*
Y275304D01*
X993870D01*
Y275090D01*
X993656D01*
Y274876D01*
X993442D01*
Y274661D01*
X993227D01*
Y274447D01*
X993013D01*
Y274233D01*
X992799D01*
Y274018D01*
X992584D01*
Y273804D01*
X992370D01*
Y273590D01*
X992156D01*
Y273375D01*
X991941D01*
Y273161D01*
X991727D01*
Y272947D01*
X991513D01*
Y272733D01*
X991299D01*
Y272518D01*
X991084D01*
Y272304D01*
X990870D01*
Y272090D01*
X990656D01*
Y271875D01*
X990441D01*
Y271447D01*
X990227D01*
Y271232D01*
X990013D01*
Y271018D01*
X989798D01*
Y270804D01*
X989584D01*
Y270589D01*
X989370D01*
Y270375D01*
X989155D01*
Y270161D01*
X988941D01*
Y269946D01*
X988727D01*
Y269732D01*
X988512D01*
Y269518D01*
X988298D01*
Y269303D01*
X988084D01*
Y269089D01*
X987012D01*
Y270161D01*
X987226D01*
Y270375D01*
X987441D01*
Y270589D01*
X987655D01*
Y270804D01*
X987869D01*
Y271018D01*
X988084D01*
Y271447D01*
X988298D01*
Y271661D01*
X988512D01*
Y271875D01*
X988727D01*
Y272090D01*
X988941D01*
Y272304D01*
X989155D01*
Y272518D01*
X989370D01*
Y272733D01*
X989584D01*
Y272947D01*
X989798D01*
Y273161D01*
X990013D01*
Y273590D01*
X990227D01*
Y273804D01*
X990441D01*
Y274018D01*
X990656D01*
Y274233D01*
X990870D01*
Y274447D01*
X991084D01*
Y274661D01*
X991299D01*
Y274876D01*
X991513D01*
Y275090D01*
X991727D01*
Y275304D01*
X991941D01*
Y275519D01*
X992156D01*
Y275733D01*
X992370D01*
Y275947D01*
X992584D01*
Y276161D01*
X992799D01*
Y276376D01*
X993013D01*
Y276590D01*
X993227D01*
Y276805D01*
X993442D01*
Y277019D01*
X993656D01*
Y277233D01*
X993870D01*
Y277447D01*
X994084D01*
Y277662D01*
X994299D01*
Y277876D01*
X994513D01*
Y278090D01*
X994727D01*
Y278305D01*
X994942D01*
Y278519D01*
X995156D01*
Y278733D01*
X995370D01*
Y278948D01*
X995585D01*
Y279162D01*
X995799D01*
Y279376D01*
X996013D01*
Y279590D01*
X996228D01*
Y279805D01*
X996442D01*
Y280019D01*
X996656D01*
Y280233D01*
X996871D01*
Y280448D01*
X997085D01*
Y280662D01*
X997299D01*
Y280876D01*
X997514D01*
Y281091D01*
X997728D01*
Y281305D01*
X997942D01*
Y281519D01*
X998371D01*
Y281734D01*
X998585D01*
Y281948D01*
X998799D01*
Y282162D01*
X999014D01*
Y282377D01*
X999228D01*
Y282591D01*
X999442D01*
Y282805D01*
X999657D01*
Y283020D01*
X1000085D01*
Y283234D01*
X1000300D01*
Y283448D01*
X1000514D01*
Y283662D01*
X1000728D01*
Y283877D01*
X1001157D01*
Y284091D01*
X1001371D01*
Y284305D01*
X1001585D01*
Y284520D01*
X1001800D01*
Y284734D01*
X1002228D01*
Y284948D01*
X1002443D01*
Y285163D01*
X1002657D01*
Y285377D01*
X1003086D01*
Y285591D01*
X1003300D01*
Y285806D01*
X1003729D01*
Y286020D01*
X1003943D01*
Y286234D01*
X1004371D01*
Y286448D01*
X1004586D01*
Y286663D01*
X1005014D01*
Y286877D01*
X1005229D01*
Y287092D01*
X1005657D01*
Y287306D01*
X1005872D01*
Y287520D01*
X1006300D01*
Y287734D01*
X1006729D01*
Y287949D01*
X1007158D01*
Y288163D01*
X1007586D01*
Y288377D01*
X1008015D01*
Y288592D01*
X1008444D01*
Y288806D01*
X1008872D01*
Y289020D01*
X1009515D01*
Y289235D01*
X1010158D01*
Y289449D01*
X1011015D01*
Y289663D01*
X1014444D01*
Y289449D01*
D02*
G37*
G36*
X1022588Y253444D02*
X1023017D01*
Y253230D01*
X1023231D01*
Y253016D01*
X1023445D01*
Y252801D01*
X1023874D01*
Y252587D01*
X1024088D01*
Y252373D01*
X1024303D01*
Y252159D01*
X1024517D01*
Y251944D01*
X1024731D01*
Y251730D01*
X1024946D01*
Y251516D01*
X1025160D01*
Y251301D01*
X1025374D01*
Y251087D01*
X1025589D01*
Y250658D01*
X1025803D01*
Y250444D01*
X1026017D01*
Y250230D01*
X1026231D01*
Y249801D01*
X1026446D01*
Y249587D01*
X1026660D01*
Y249158D01*
X1026874D01*
Y248944D01*
X1027089D01*
Y248515D01*
X1027303D01*
Y248087D01*
X1027517D01*
Y247444D01*
X1027732D01*
Y246801D01*
X1027946D01*
Y246158D01*
X1028160D01*
Y244872D01*
X1028374D01*
Y242729D01*
X1028160D01*
Y241443D01*
X1027946D01*
Y240800D01*
X1027732D01*
Y240157D01*
X1027517D01*
Y239728D01*
X1027303D01*
Y239300D01*
X1027089D01*
Y238871D01*
X1026874D01*
Y238657D01*
X1026660D01*
Y238228D01*
X1026231D01*
Y238871D01*
X1026446D01*
Y242943D01*
X1026231D01*
Y244229D01*
X1026017D01*
Y245301D01*
X1025803D01*
Y246158D01*
X1025589D01*
Y246372D01*
Y246801D01*
X1025374D01*
Y247444D01*
X1025160D01*
Y247872D01*
X1024946D01*
Y248515D01*
X1024731D01*
Y248944D01*
X1024517D01*
Y249373D01*
X1024303D01*
Y249801D01*
X1024088D01*
Y250230D01*
X1023874D01*
Y250658D01*
X1023660D01*
Y251087D01*
X1023445D01*
Y251516D01*
X1023231D01*
Y251944D01*
X1023017D01*
Y252159D01*
X1022802D01*
Y252587D01*
X1022588D01*
Y252801D01*
X1022374D01*
Y253230D01*
X1022160D01*
Y253659D01*
X1022588D01*
Y253444D01*
D02*
G37*
G36*
X1024946Y230942D02*
X1025160D01*
Y230727D01*
X1025374D01*
Y230513D01*
X1025589D01*
Y230299D01*
X1025803D01*
Y228799D01*
X1025589D01*
Y228584D01*
X1025374D01*
Y228370D01*
X1024946D01*
Y228155D01*
X1024303D01*
Y228370D01*
X1023874D01*
Y228584D01*
X1023660D01*
Y228799D01*
X1023445D01*
Y229227D01*
X1023231D01*
Y230299D01*
X1023445D01*
Y230727D01*
X1023660D01*
Y230942D01*
X1023874D01*
Y231156D01*
X1024946D01*
Y230942D01*
D02*
G37*
G36*
X998799Y228155D02*
X998585D01*
Y228370D01*
X998799D01*
Y228155D01*
D02*
G37*
G36*
X1019159Y270161D02*
X1019373D01*
Y269518D01*
X1019588D01*
Y265660D01*
X1019373D01*
Y264160D01*
X1019159D01*
Y262874D01*
X1018945D01*
Y261803D01*
X1018730D01*
Y260731D01*
X1018516D01*
Y259874D01*
X1018302D01*
Y259016D01*
X1018087D01*
Y257945D01*
X1017873D01*
Y257302D01*
X1017659D01*
Y256445D01*
X1017445D01*
Y255588D01*
X1017230D01*
Y254730D01*
X1017445D01*
Y254516D01*
X1017659D01*
Y254302D01*
X1017873D01*
Y254087D01*
X1018087D01*
Y253659D01*
X1018302D01*
Y253444D01*
X1018516D01*
Y253230D01*
X1018730D01*
Y252801D01*
X1018945D01*
Y252587D01*
X1019159D01*
Y252373D01*
X1019373D01*
Y251944D01*
X1019588D01*
Y251730D01*
X1019802D01*
Y251301D01*
X1020016D01*
Y251087D01*
X1020231D01*
Y250658D01*
X1020445D01*
Y250444D01*
X1020659D01*
Y250015D01*
X1020874D01*
Y249587D01*
X1021088D01*
Y249373D01*
X1021302D01*
Y248944D01*
X1021516D01*
Y248515D01*
X1021731D01*
Y248087D01*
X1021945D01*
Y247658D01*
X1022160D01*
Y247229D01*
X1022374D01*
Y246586D01*
X1022588D01*
Y245944D01*
X1022802D01*
Y245515D01*
X1023017D01*
Y244658D01*
X1023231D01*
Y243800D01*
X1023445D01*
Y239943D01*
X1023231D01*
Y239086D01*
X1023017D01*
Y238442D01*
X1022802D01*
Y236942D01*
X1023017D01*
Y235871D01*
X1022802D01*
Y234156D01*
X1022588D01*
Y233299D01*
X1022374D01*
Y232656D01*
X1022160D01*
Y232227D01*
X1021945D01*
Y231799D01*
X1021731D01*
Y231370D01*
X1021516D01*
Y231156D01*
X1021302D01*
Y230942D01*
X1021088D01*
Y230513D01*
X1020874D01*
Y230299D01*
X1020659D01*
Y230084D01*
X1020445D01*
Y229870D01*
X1020231D01*
Y229656D01*
X1020016D01*
Y229441D01*
X1019802D01*
Y229227D01*
X1019373D01*
Y229013D01*
X1019159D01*
Y228799D01*
X1018730D01*
Y228584D01*
X1018302D01*
Y228370D01*
X1017873D01*
Y228155D01*
X1017230D01*
Y227941D01*
X1016159D01*
Y227727D01*
X1012730D01*
Y227941D01*
X1011658D01*
Y228155D01*
X1010587D01*
Y228370D01*
X1009944D01*
Y228584D01*
X1009301D01*
Y228799D01*
X1008658D01*
Y229013D01*
X1008229D01*
Y229227D01*
X1007586D01*
Y229441D01*
X1007158D01*
Y229656D01*
X1006729D01*
Y229870D01*
X1006300D01*
Y230084D01*
X1005872D01*
Y230299D01*
X1005443D01*
Y230513D01*
X1005014D01*
Y230727D01*
X1004586D01*
Y230942D01*
X1004157D01*
Y231156D01*
X1003943D01*
Y231370D01*
X1003514D01*
Y231584D01*
X1003086D01*
Y231799D01*
X1002657D01*
Y231584D01*
X1002443D01*
Y231370D01*
X1002228D01*
Y230942D01*
X1002014D01*
Y230727D01*
X1001800D01*
Y230513D01*
X1001585D01*
Y230299D01*
X1001371D01*
Y230084D01*
X1001157D01*
Y229870D01*
X1000943D01*
Y229656D01*
X1000728D01*
Y229441D01*
X1000300D01*
Y229227D01*
X1000085D01*
Y229013D01*
X999871D01*
Y228799D01*
X999657D01*
Y228584D01*
X999228D01*
Y228370D01*
X998799D01*
Y228799D01*
X999014D01*
Y229227D01*
X999228D01*
Y229656D01*
X999442D01*
Y229870D01*
X999657D01*
Y230299D01*
X999871D01*
Y230513D01*
X1000085D01*
Y230942D01*
X1000300D01*
Y231370D01*
X1000514D01*
Y231799D01*
X1000728D01*
Y232227D01*
X1000943D01*
Y232442D01*
X1001157D01*
Y232870D01*
X1001371D01*
Y233299D01*
X1001585D01*
Y233728D01*
X1001800D01*
Y233942D01*
X1002014D01*
Y234371D01*
X1002228D01*
Y234799D01*
X1002443D01*
Y235228D01*
X1002657D01*
Y235657D01*
X1002871D01*
Y235871D01*
X1003086D01*
Y236514D01*
X1003300D01*
Y236728D01*
X1003514D01*
Y237157D01*
X1003729D01*
Y237585D01*
X1003943D01*
Y238014D01*
X1004157D01*
Y238442D01*
X1004371D01*
Y238657D01*
X1004586D01*
Y239086D01*
X1004800D01*
Y239514D01*
X1005014D01*
Y239943D01*
X1005229D01*
Y240371D01*
X1005443D01*
Y240800D01*
X1005657D01*
Y241014D01*
X1005872D01*
Y241443D01*
X1006086D01*
Y241871D01*
X1006300D01*
Y242300D01*
X1006515D01*
Y242729D01*
X1006729D01*
Y242943D01*
X1006943D01*
Y243372D01*
X1007158D01*
Y243800D01*
X1007372D01*
Y244229D01*
X1007586D01*
Y244658D01*
X1007801D01*
Y245086D01*
X1008015D01*
Y245515D01*
X1008229D01*
Y245729D01*
X1008444D01*
Y246158D01*
X1008658D01*
Y246586D01*
X1008872D01*
Y247015D01*
X1009086D01*
Y247444D01*
X1009301D01*
Y247872D01*
X1009515D01*
Y248301D01*
X1009729D01*
Y248729D01*
X1009944D01*
Y248944D01*
X1010158D01*
Y249373D01*
X1010372D01*
Y249801D01*
X1010587D01*
Y250230D01*
X1010801D01*
Y250658D01*
X1011015D01*
Y251087D01*
X1011229D01*
Y251516D01*
X1011444D01*
Y251944D01*
X1011658D01*
Y252373D01*
X1011872D01*
Y252801D01*
X1012087D01*
Y253230D01*
X1012301D01*
Y253659D01*
X1012515D01*
Y254087D01*
X1012730D01*
Y254516D01*
X1012944D01*
Y254945D01*
X1013158D01*
Y255373D01*
X1013373D01*
Y255802D01*
X1013587D01*
Y256231D01*
X1013801D01*
Y256445D01*
X1014016D01*
Y256873D01*
X1014230D01*
Y257302D01*
X1014444D01*
Y257731D01*
X1014659D01*
Y258374D01*
X1014873D01*
Y258802D01*
X1015087D01*
Y259231D01*
X1015302D01*
Y259660D01*
X1015516D01*
Y260088D01*
X1015730D01*
Y260731D01*
X1015944D01*
Y261160D01*
X1016159D01*
Y261588D01*
X1016373D01*
Y262231D01*
X1016587D01*
Y262660D01*
X1016802D01*
Y263517D01*
X1017016D01*
Y264160D01*
X1017230D01*
Y264803D01*
X1017445D01*
Y265232D01*
X1017659D01*
Y265875D01*
X1017873D01*
Y266518D01*
X1018087D01*
Y267160D01*
X1018302D01*
Y268018D01*
X1018516D01*
Y268661D01*
X1018730D01*
Y269518D01*
X1018945D01*
Y270375D01*
X1019159D01*
Y270161D01*
D02*
G37*
G36*
X950365Y241229D02*
X950151D01*
Y240586D01*
X949936D01*
Y239943D01*
X949722D01*
Y238871D01*
X949508D01*
Y237800D01*
X949293D01*
Y236299D01*
X949079D01*
Y233942D01*
X948865D01*
Y230084D01*
Y229870D01*
X949079D01*
Y227298D01*
X949293D01*
Y225584D01*
X949508D01*
Y224298D01*
X949722D01*
Y223226D01*
X949936D01*
Y222369D01*
X950151D01*
Y221512D01*
X950365D01*
Y220655D01*
X950579D01*
Y220012D01*
X950793D01*
Y219154D01*
X951008D01*
Y218512D01*
X951222D01*
Y218083D01*
X951436D01*
Y217654D01*
X951008D01*
Y217868D01*
X950793D01*
Y218083D01*
X950579D01*
Y218297D01*
X950151D01*
Y218512D01*
X949936D01*
Y218726D01*
X949722D01*
Y219154D01*
X949508D01*
Y219369D01*
X949293D01*
Y219583D01*
X949079D01*
Y219797D01*
X948865D01*
Y220226D01*
X948650D01*
Y220655D01*
X948436D01*
Y220869D01*
X948222D01*
Y221297D01*
X948007D01*
Y221726D01*
X947793D01*
Y222155D01*
X947579D01*
Y222583D01*
X947364D01*
Y223012D01*
X947150D01*
Y223655D01*
X946936D01*
Y224298D01*
X946721D01*
Y224941D01*
X946507D01*
Y225584D01*
X946293D01*
Y226441D01*
X946078D01*
Y227513D01*
X945864D01*
Y229013D01*
X945650D01*
Y233085D01*
X945864D01*
Y234371D01*
X946078D01*
Y235442D01*
X946293D01*
Y236085D01*
X946507D01*
Y236728D01*
X946721D01*
Y237157D01*
X946936D01*
Y237585D01*
X947150D01*
Y238014D01*
X947364D01*
Y238442D01*
X947579D01*
Y238871D01*
X947793D01*
Y239086D01*
X948007D01*
Y239514D01*
X948222D01*
Y239728D01*
X948436D01*
Y239943D01*
X948650D01*
Y240157D01*
X948865D01*
Y240371D01*
X949079D01*
Y240586D01*
X949293D01*
Y240800D01*
X949508D01*
Y241014D01*
X949722D01*
Y241229D01*
X949936D01*
Y241443D01*
X950151D01*
Y241657D01*
X950365D01*
Y241229D01*
D02*
G37*
G36*
X981654Y219154D02*
X982297D01*
Y218940D01*
X982726D01*
Y218726D01*
X982940D01*
Y218512D01*
X983155D01*
Y218297D01*
X983369D01*
Y218083D01*
X983583D01*
Y217868D01*
X983798D01*
Y217654D01*
X984012D01*
Y217011D01*
X984226D01*
Y216154D01*
X984012D01*
Y215725D01*
X983798D01*
Y215511D01*
X983583D01*
Y215297D01*
X983155D01*
Y215082D01*
X981012D01*
Y215297D01*
X980368D01*
Y215511D01*
X980154D01*
Y215725D01*
X979726D01*
Y215940D01*
X979511D01*
Y216154D01*
X979297D01*
Y216368D01*
X979083D01*
Y216583D01*
X978868D01*
Y216797D01*
X978654D01*
Y217440D01*
X978440D01*
Y218297D01*
X978654D01*
Y218726D01*
X978868D01*
Y218940D01*
X979083D01*
Y219154D01*
X979297D01*
Y219369D01*
X981654D01*
Y219154D01*
D02*
G37*
G36*
X988512Y215511D02*
X988941D01*
Y215297D01*
X989155D01*
Y215082D01*
X989370D01*
Y214654D01*
X989584D01*
Y213582D01*
X989370D01*
Y213154D01*
X989155D01*
Y212939D01*
X988941D01*
Y212725D01*
X988084D01*
Y212511D01*
X987655D01*
Y212725D01*
X987012D01*
Y212939D01*
X986584D01*
Y213154D01*
X986369D01*
Y213368D01*
X986155D01*
Y214011D01*
X985941D01*
Y214440D01*
X986155D01*
Y215082D01*
X986369D01*
Y215297D01*
X986584D01*
Y215511D01*
X987012D01*
Y215725D01*
X988512D01*
Y215511D01*
D02*
G37*
G36*
X934978Y198030D02*
X935094Y198019D01*
X935210Y198009D01*
X935348Y197998D01*
X935644Y197956D01*
X935971Y197892D01*
X936299Y197797D01*
X936616Y197681D01*
X936626D01*
X936648Y197660D01*
X936700Y197649D01*
X936753Y197618D01*
X936817Y197575D01*
X936901Y197533D01*
X937081Y197428D01*
X937292Y197280D01*
X937503Y197100D01*
X937704Y196899D01*
X937884Y196656D01*
X937894Y196646D01*
X937905Y196624D01*
X937926Y196593D01*
X937958Y196540D01*
X937990Y196476D01*
X938032Y196403D01*
X938064Y196308D01*
X938116Y196212D01*
X938201Y195991D01*
X938275Y195726D01*
X938338Y195441D01*
X938370Y195124D01*
X937134Y195029D01*
Y195040D01*
X937123Y195071D01*
Y195114D01*
X937113Y195177D01*
X937091Y195261D01*
X937070Y195346D01*
X937007Y195547D01*
X936922Y195769D01*
X936796Y196001D01*
X936648Y196223D01*
X936553Y196318D01*
X936447Y196413D01*
X936436Y196424D01*
X936426Y196434D01*
X936383Y196455D01*
X936341Y196487D01*
X936278Y196519D01*
X936204Y196561D01*
X936119Y196603D01*
X936024Y196656D01*
X935908Y196698D01*
X935781Y196741D01*
X935644Y196783D01*
X935496Y196815D01*
X935327Y196846D01*
X935147Y196868D01*
X934957Y196889D01*
X934650D01*
X934566Y196878D01*
X934471D01*
X934365Y196868D01*
X934238Y196857D01*
X934112Y196836D01*
X933826Y196783D01*
X933552Y196709D01*
X933287Y196603D01*
X933161Y196529D01*
X933055Y196455D01*
X933044D01*
X933034Y196434D01*
X932970Y196381D01*
X932886Y196286D01*
X932791Y196159D01*
X932696Y196012D01*
X932611Y195832D01*
X932548Y195642D01*
X932537Y195536D01*
X932527Y195420D01*
Y195409D01*
Y195399D01*
X932537Y195335D01*
X932548Y195240D01*
X932569Y195124D01*
X932622Y194987D01*
X932685Y194839D01*
X932770Y194701D01*
X932896Y194564D01*
X932918Y194553D01*
X932939Y194532D01*
X932981Y194501D01*
X933034Y194469D01*
X933097Y194437D01*
X933182Y194395D01*
X933277Y194342D01*
X933393Y194289D01*
X933531Y194236D01*
X933689Y194184D01*
X933869Y194120D01*
X934080Y194057D01*
X934302Y193993D01*
X934555Y193919D01*
X934841Y193856D01*
X934862D01*
X934915Y193846D01*
X934989Y193824D01*
X935094Y193793D01*
X935221Y193771D01*
X935369Y193729D01*
X935527Y193698D01*
X935697Y193645D01*
X936056Y193550D01*
X936415Y193454D01*
X936584Y193402D01*
X936732Y193349D01*
X936880Y193296D01*
X936996Y193243D01*
X937007D01*
X937038Y193222D01*
X937081Y193201D01*
X937134Y193169D01*
X937208Y193137D01*
X937292Y193085D01*
X937472Y192969D01*
X937683Y192831D01*
X937884Y192662D01*
X938085Y192461D01*
X938169Y192356D01*
X938254Y192250D01*
Y192239D01*
X938275Y192218D01*
X938296Y192187D01*
X938317Y192144D01*
X938349Y192092D01*
X938380Y192017D01*
X938465Y191848D01*
X938539Y191648D01*
X938602Y191415D01*
X938645Y191151D01*
X938666Y190866D01*
Y190855D01*
Y190834D01*
Y190792D01*
X938655Y190739D01*
Y190665D01*
X938645Y190591D01*
X938613Y190390D01*
X938560Y190168D01*
X938475Y189925D01*
X938359Y189672D01*
X938296Y189534D01*
X938211Y189408D01*
Y189397D01*
X938190Y189376D01*
X938169Y189344D01*
X938127Y189291D01*
X938032Y189175D01*
X937884Y189017D01*
X937704Y188848D01*
X937482Y188668D01*
X937229Y188499D01*
X936933Y188340D01*
X936922D01*
X936891Y188319D01*
X936848Y188309D01*
X936785Y188277D01*
X936711Y188256D01*
X936616Y188224D01*
X936510Y188182D01*
X936383Y188150D01*
X936257Y188118D01*
X936109Y188076D01*
X935792Y188023D01*
X935443Y187981D01*
X935063Y187960D01*
X934936D01*
X934841Y187971D01*
X934725D01*
X934598Y187981D01*
X934450Y187992D01*
X934281Y188013D01*
X933932Y188055D01*
X933562Y188118D01*
X933192Y188214D01*
X932833Y188340D01*
X932822D01*
X932791Y188361D01*
X932749Y188383D01*
X932685Y188414D01*
X932611Y188457D01*
X932527Y188499D01*
X932326Y188626D01*
X932104Y188784D01*
X931871Y188985D01*
X931639Y189217D01*
X931438Y189492D01*
X931428Y189503D01*
X931417Y189524D01*
X931396Y189566D01*
X931364Y189629D01*
X931322Y189704D01*
X931280Y189788D01*
X931227Y189894D01*
X931185Y190010D01*
X931132Y190126D01*
X931090Y190264D01*
X931005Y190570D01*
X930942Y190898D01*
X930921Y191077D01*
X930910Y191257D01*
X932125Y191362D01*
Y191352D01*
Y191331D01*
X932136Y191288D01*
X932146Y191236D01*
X932157Y191172D01*
X932167Y191109D01*
X932210Y190929D01*
X932262Y190739D01*
X932326Y190538D01*
X932410Y190337D01*
X932516Y190147D01*
X932527Y190126D01*
X932579Y190073D01*
X932654Y189989D01*
X932759Y189883D01*
X932896Y189756D01*
X933065Y189640D01*
X933266Y189513D01*
X933499Y189397D01*
X933509D01*
X933531Y189387D01*
X933562Y189376D01*
X933615Y189355D01*
X933678Y189334D01*
X933752Y189302D01*
X933837Y189281D01*
X933932Y189260D01*
X934154Y189207D01*
X934418Y189154D01*
X934693Y189122D01*
X934999Y189112D01*
X935126D01*
X935189Y189122D01*
X935263D01*
X935432Y189143D01*
X935633Y189165D01*
X935855Y189196D01*
X936077Y189249D01*
X936288Y189323D01*
X936299D01*
X936309Y189334D01*
X936341Y189344D01*
X936383Y189365D01*
X936479Y189418D01*
X936605Y189482D01*
X936743Y189566D01*
X936891Y189672D01*
X937017Y189788D01*
X937134Y189925D01*
X937144Y189946D01*
X937176Y189989D01*
X937229Y190073D01*
X937281Y190179D01*
X937324Y190306D01*
X937377Y190443D01*
X937408Y190602D01*
X937419Y190760D01*
Y190771D01*
Y190781D01*
Y190834D01*
X937408Y190929D01*
X937387Y191035D01*
X937355Y191162D01*
X937303Y191299D01*
X937239Y191436D01*
X937144Y191563D01*
X937134Y191574D01*
X937091Y191616D01*
X937028Y191679D01*
X936933Y191764D01*
X936817Y191848D01*
X936658Y191943D01*
X936479Y192039D01*
X936267Y192134D01*
X936246Y192144D01*
X936225Y192155D01*
X936183Y192165D01*
X936140Y192176D01*
X936077Y192197D01*
X935992Y192229D01*
X935908Y192250D01*
X935792Y192282D01*
X935675Y192324D01*
X935527Y192356D01*
X935369Y192398D01*
X935189Y192451D01*
X934999Y192493D01*
X934777Y192556D01*
X934534Y192609D01*
X934524D01*
X934481Y192620D01*
X934408Y192641D01*
X934323Y192662D01*
X934207Y192694D01*
X934080Y192725D01*
X933953Y192768D01*
X933805Y192810D01*
X933488Y192905D01*
X933182Y193011D01*
X933034Y193064D01*
X932896Y193116D01*
X932770Y193169D01*
X932664Y193222D01*
X932654D01*
X932632Y193243D01*
X932601Y193264D01*
X932548Y193286D01*
X932421Y193359D01*
X932273Y193465D01*
X932093Y193603D01*
X931924Y193750D01*
X931755Y193930D01*
X931618Y194120D01*
Y194131D01*
X931607Y194141D01*
X931586Y194173D01*
X931565Y194215D01*
X931512Y194331D01*
X931449Y194480D01*
X931385Y194659D01*
X931333Y194870D01*
X931290Y195103D01*
X931280Y195346D01*
Y195357D01*
Y195378D01*
Y195420D01*
X931290Y195473D01*
Y195536D01*
X931301Y195610D01*
X931333Y195800D01*
X931385Y196012D01*
X931449Y196234D01*
X931555Y196476D01*
X931692Y196719D01*
Y196730D01*
X931713Y196751D01*
X931734Y196783D01*
X931766Y196825D01*
X931871Y196941D01*
X932009Y197089D01*
X932178Y197248D01*
X932389Y197406D01*
X932632Y197565D01*
X932918Y197702D01*
X932928D01*
X932949Y197713D01*
X933002Y197734D01*
X933055Y197755D01*
X933129Y197776D01*
X933224Y197808D01*
X933330Y197840D01*
X933446Y197871D01*
X933573Y197903D01*
X933710Y197935D01*
X934006Y197987D01*
X934344Y198030D01*
X934703Y198040D01*
X934883D01*
X934978Y198030D01*
D02*
G37*
G36*
X986130D02*
X986236Y198019D01*
X986352Y198009D01*
X986489Y197998D01*
X986785Y197956D01*
X987113Y197892D01*
X987440Y197808D01*
X987768Y197692D01*
X987778D01*
X987810Y197681D01*
X987852Y197660D01*
X987905Y197628D01*
X987979Y197597D01*
X988064Y197554D01*
X988254Y197449D01*
X988476Y197311D01*
X988698Y197153D01*
X988909Y196963D01*
X989110Y196741D01*
X989120Y196730D01*
X989131Y196709D01*
X989152Y196677D01*
X989194Y196635D01*
X989226Y196572D01*
X989279Y196498D01*
X989332Y196413D01*
X989385Y196308D01*
X989448Y196202D01*
X989501Y196086D01*
X989564Y195948D01*
X989628Y195811D01*
X989744Y195494D01*
X989849Y195145D01*
X988677Y194828D01*
Y194839D01*
X988666Y194860D01*
X988655Y194902D01*
X988634Y194955D01*
X988613Y195008D01*
X988592Y195082D01*
X988529Y195251D01*
X988444Y195441D01*
X988349Y195631D01*
X988243Y195821D01*
X988127Y195991D01*
X988117Y196012D01*
X988064Y196064D01*
X987990Y196138D01*
X987895Y196244D01*
X987757Y196350D01*
X987599Y196466D01*
X987409Y196572D01*
X987197Y196677D01*
X987187D01*
X987166Y196688D01*
X987134Y196698D01*
X987092Y196719D01*
X987039Y196741D01*
X986965Y196762D01*
X986806Y196815D01*
X986606Y196857D01*
X986384Y196899D01*
X986130Y196931D01*
X985866Y196941D01*
X985718D01*
X985644Y196931D01*
X985549D01*
X985454Y196920D01*
X985338Y196910D01*
X985105Y196878D01*
X984841Y196825D01*
X984587Y196762D01*
X984334Y196667D01*
X984323D01*
X984302Y196656D01*
X984270Y196635D01*
X984228Y196614D01*
X984112Y196561D01*
X983964Y196476D01*
X983795Y196371D01*
X983626Y196244D01*
X983446Y196107D01*
X983288Y195948D01*
X983267Y195927D01*
X983224Y195874D01*
X983150Y195779D01*
X983066Y195663D01*
X982971Y195525D01*
X982865Y195357D01*
X982770Y195177D01*
X982685Y194987D01*
Y194976D01*
X982675Y194944D01*
X982654Y194902D01*
X982633Y194828D01*
X982601Y194744D01*
X982569Y194648D01*
X982537Y194532D01*
X982506Y194405D01*
X982464Y194268D01*
X982432Y194110D01*
X982379Y193782D01*
X982337Y193412D01*
X982316Y193021D01*
Y193011D01*
Y192969D01*
Y192894D01*
X982326Y192810D01*
Y192694D01*
X982337Y192567D01*
X982358Y192419D01*
X982368Y192260D01*
X982421Y191912D01*
X982506Y191553D01*
X982611Y191183D01*
X982759Y190834D01*
X982770Y190823D01*
X982781Y190792D01*
X982802Y190749D01*
X982844Y190686D01*
X982886Y190623D01*
X982950Y190538D01*
X983087Y190348D01*
X983277Y190137D01*
X983499Y189915D01*
X983753Y189714D01*
X983901Y189619D01*
X984059Y189534D01*
X984070D01*
X984101Y189513D01*
X984144Y189492D01*
X984207Y189471D01*
X984292Y189439D01*
X984387Y189397D01*
X984492Y189365D01*
X984608Y189323D01*
X984735Y189281D01*
X984883Y189249D01*
X985190Y189175D01*
X985528Y189133D01*
X985887Y189112D01*
X985972D01*
X986035Y189122D01*
X986109D01*
X986193Y189133D01*
X986289Y189143D01*
X986405Y189154D01*
X986648Y189186D01*
X986923Y189249D01*
X987218Y189323D01*
X987514Y189429D01*
X987525D01*
X987546Y189439D01*
X987588Y189460D01*
X987652Y189482D01*
X987715Y189513D01*
X987789Y189555D01*
X987969Y189640D01*
X988169Y189746D01*
X988370Y189862D01*
X988560Y189978D01*
X988729Y190116D01*
Y191943D01*
X985866D01*
Y193095D01*
X989997D01*
Y189471D01*
X989987Y189460D01*
X989955Y189439D01*
X989902Y189397D01*
X989828Y189344D01*
X989744Y189281D01*
X989638Y189217D01*
X989522Y189133D01*
X989395Y189048D01*
X989258Y188964D01*
X989099Y188869D01*
X988772Y188678D01*
X988412Y188499D01*
X988032Y188340D01*
X988021D01*
X987990Y188319D01*
X987937Y188309D01*
X987852Y188277D01*
X987768Y188256D01*
X987652Y188224D01*
X987535Y188182D01*
X987398Y188150D01*
X987240Y188118D01*
X987081Y188076D01*
X986732Y188023D01*
X986352Y187981D01*
X985961Y187960D01*
X985824D01*
X985718Y187971D01*
X985591Y187981D01*
X985443Y187992D01*
X985274Y188013D01*
X985095Y188034D01*
X984904Y188066D01*
X984693Y188108D01*
X984482Y188161D01*
X984249Y188224D01*
X984027Y188288D01*
X983805Y188372D01*
X983573Y188467D01*
X983351Y188573D01*
X983341Y188583D01*
X983298Y188605D01*
X983235Y188636D01*
X983161Y188689D01*
X983066Y188752D01*
X982950Y188826D01*
X982823Y188922D01*
X982685Y189027D01*
X982548Y189143D01*
X982400Y189281D01*
X982252Y189418D01*
X982104Y189577D01*
X981967Y189756D01*
X981830Y189936D01*
X981692Y190137D01*
X981576Y190348D01*
X981565Y190359D01*
X981555Y190401D01*
X981523Y190464D01*
X981481Y190549D01*
X981439Y190665D01*
X981386Y190792D01*
X981333Y190940D01*
X981280Y191109D01*
X981227Y191288D01*
X981174Y191489D01*
X981122Y191711D01*
X981079Y191933D01*
X981037Y192176D01*
X981005Y192419D01*
X980995Y192683D01*
X980984Y192947D01*
Y192969D01*
Y193011D01*
Y193085D01*
X980995Y193190D01*
X981005Y193317D01*
X981016Y193465D01*
X981037Y193634D01*
X981058Y193814D01*
X981090Y194014D01*
X981132Y194226D01*
X981238Y194670D01*
X981301Y194902D01*
X981386Y195135D01*
X981470Y195367D01*
X981576Y195599D01*
X981587Y195610D01*
X981608Y195652D01*
X981639Y195716D01*
X981682Y195800D01*
X981745Y195906D01*
X981819Y196022D01*
X981914Y196149D01*
X982009Y196297D01*
X982125Y196445D01*
X982252Y196593D01*
X982390Y196741D01*
X982548Y196899D01*
X982707Y197047D01*
X982886Y197185D01*
X983076Y197322D01*
X983277Y197438D01*
X983288Y197449D01*
X983330Y197459D01*
X983393Y197491D01*
X983478Y197533D01*
X983584Y197575D01*
X983710Y197628D01*
X983858Y197681D01*
X984017Y197745D01*
X984196Y197797D01*
X984397Y197850D01*
X984608Y197903D01*
X984841Y197945D01*
X985073Y197987D01*
X985327Y198019D01*
X985591Y198030D01*
X985855Y198040D01*
X986035D01*
X986130Y198030D01*
D02*
G37*
G36*
X1010264Y188118D02*
X1009017D01*
Y196286D01*
X1006164Y188118D01*
X1005002D01*
X1002191Y196424D01*
Y188118D01*
X1000944D01*
Y197871D01*
X1002878D01*
X1005192Y190961D01*
Y190950D01*
X1005202Y190919D01*
X1005223Y190866D01*
X1005245Y190802D01*
X1005266Y190728D01*
X1005297Y190633D01*
X1005371Y190422D01*
X1005445Y190189D01*
X1005519Y189946D01*
X1005593Y189725D01*
X1005625Y189619D01*
X1005657Y189524D01*
Y189534D01*
X1005667Y189545D01*
X1005678Y189577D01*
X1005688Y189619D01*
X1005710Y189682D01*
X1005731Y189746D01*
X1005752Y189830D01*
X1005783Y189915D01*
X1005815Y190020D01*
X1005857Y190137D01*
X1005900Y190264D01*
X1005942Y190411D01*
X1005995Y190559D01*
X1006048Y190728D01*
X1006111Y190898D01*
X1006174Y191088D01*
X1008520Y197871D01*
X1010264D01*
Y188118D01*
D02*
G37*
G36*
X1043336Y197861D02*
X1043463D01*
X1043590Y197850D01*
X1043875Y197840D01*
X1044161Y197808D01*
X1044446Y197776D01*
X1044573Y197745D01*
X1044689Y197723D01*
X1044700D01*
X1044731Y197713D01*
X1044773Y197702D01*
X1044826Y197681D01*
X1044900Y197660D01*
X1044985Y197639D01*
X1045186Y197565D01*
X1045407Y197470D01*
X1045640Y197353D01*
X1045883Y197206D01*
X1046115Y197026D01*
X1046126Y197015D01*
X1046147Y196994D01*
X1046189Y196963D01*
X1046242Y196910D01*
X1046306Y196846D01*
X1046380Y196762D01*
X1046464Y196677D01*
X1046549Y196572D01*
X1046644Y196455D01*
X1046739Y196329D01*
X1046834Y196191D01*
X1046929Y196043D01*
X1047109Y195716D01*
X1047267Y195357D01*
Y195346D01*
X1047288Y195314D01*
X1047299Y195251D01*
X1047331Y195177D01*
X1047362Y195082D01*
X1047394Y194965D01*
X1047426Y194839D01*
X1047468Y194691D01*
X1047500Y194522D01*
X1047531Y194342D01*
X1047563Y194152D01*
X1047595Y193951D01*
X1047626Y193740D01*
X1047637Y193518D01*
X1047658Y193042D01*
Y193032D01*
Y192990D01*
Y192937D01*
Y192852D01*
X1047648Y192757D01*
Y192641D01*
X1047637Y192514D01*
X1047626Y192377D01*
X1047595Y192070D01*
X1047542Y191743D01*
X1047478Y191405D01*
X1047394Y191066D01*
Y191056D01*
X1047383Y191024D01*
X1047362Y190982D01*
X1047352Y190929D01*
X1047320Y190855D01*
X1047288Y190771D01*
X1047214Y190570D01*
X1047119Y190348D01*
X1047003Y190105D01*
X1046876Y189872D01*
X1046728Y189651D01*
Y189640D01*
X1046707Y189629D01*
X1046686Y189598D01*
X1046654Y189555D01*
X1046580Y189460D01*
X1046464Y189334D01*
X1046337Y189186D01*
X1046189Y189038D01*
X1046020Y188900D01*
X1045841Y188763D01*
X1045830D01*
X1045820Y188752D01*
X1045756Y188710D01*
X1045650Y188657D01*
X1045513Y188583D01*
X1045344Y188510D01*
X1045143Y188425D01*
X1044911Y188351D01*
X1044668Y188277D01*
X1044657D01*
X1044636Y188266D01*
X1044604D01*
X1044552Y188256D01*
X1044488Y188245D01*
X1044404Y188224D01*
X1044319Y188214D01*
X1044224Y188203D01*
X1043992Y188171D01*
X1043727Y188140D01*
X1043432Y188129D01*
X1043115Y188118D01*
X1039596D01*
Y197871D01*
X1043231D01*
X1043336Y197861D01*
D02*
G37*
G36*
X1038571Y188118D02*
X1037102D01*
X1035972Y191066D01*
X1031872D01*
X1030815Y188118D01*
X1029452D01*
X1033182Y197871D01*
X1034577D01*
X1038571Y188118D01*
D02*
G37*
G36*
X1025648Y197861D02*
X1025891Y197850D01*
X1026134Y197829D01*
X1026367Y197808D01*
X1026483Y197797D01*
X1026578Y197776D01*
X1026589D01*
X1026610Y197766D01*
X1026652D01*
X1026694Y197755D01*
X1026758Y197734D01*
X1026832Y197723D01*
X1027001Y197670D01*
X1027191Y197607D01*
X1027392Y197523D01*
X1027593Y197428D01*
X1027783Y197311D01*
X1027793D01*
X1027804Y197301D01*
X1027867Y197248D01*
X1027952Y197174D01*
X1028068Y197068D01*
X1028184Y196941D01*
X1028322Y196772D01*
X1028448Y196593D01*
X1028565Y196371D01*
Y196360D01*
X1028575Y196339D01*
X1028596Y196308D01*
X1028617Y196265D01*
X1028639Y196212D01*
X1028660Y196138D01*
X1028723Y195980D01*
X1028776Y195779D01*
X1028829Y195557D01*
X1028860Y195304D01*
X1028871Y195040D01*
Y195029D01*
Y194987D01*
Y194923D01*
X1028860Y194828D01*
X1028850Y194722D01*
X1028829Y194606D01*
X1028808Y194469D01*
X1028776Y194310D01*
X1028734Y194152D01*
X1028681Y193983D01*
X1028617Y193814D01*
X1028533Y193634D01*
X1028448Y193454D01*
X1028343Y193275D01*
X1028216Y193106D01*
X1028079Y192937D01*
X1028068Y192926D01*
X1028036Y192905D01*
X1027994Y192863D01*
X1027920Y192799D01*
X1027836Y192736D01*
X1027719Y192662D01*
X1027582Y192588D01*
X1027423Y192514D01*
X1027233Y192430D01*
X1027032Y192356D01*
X1026789Y192282D01*
X1026536Y192218D01*
X1026240Y192165D01*
X1025923Y192123D01*
X1025585Y192092D01*
X1025205Y192081D01*
X1022711D01*
Y188118D01*
X1021422D01*
Y197871D01*
X1025437D01*
X1025648Y197861D01*
D02*
G37*
G36*
X1019425Y196719D02*
X1013655D01*
Y193740D01*
X1019055D01*
Y192588D01*
X1013655D01*
Y189270D01*
X1019647D01*
Y188118D01*
X1012366D01*
Y197871D01*
X1019425D01*
Y196719D01*
D02*
G37*
G36*
X999961Y188118D02*
X998493D01*
X997362Y191066D01*
X993262D01*
X992206Y188118D01*
X990843D01*
X994573Y197871D01*
X995967D01*
X999961Y188118D01*
D02*
G37*
G36*
X972351Y197861D02*
X972468D01*
X972605Y197850D01*
X972764Y197840D01*
X973081Y197808D01*
X973408Y197755D01*
X973725Y197692D01*
X973862Y197649D01*
X974000Y197607D01*
X974010D01*
X974032Y197597D01*
X974063Y197575D01*
X974116Y197554D01*
X974243Y197491D01*
X974391Y197396D01*
X974570Y197269D01*
X974750Y197100D01*
X974930Y196910D01*
X975088Y196677D01*
Y196667D01*
X975109Y196646D01*
X975130Y196614D01*
X975152Y196561D01*
X975183Y196498D01*
X975215Y196424D01*
X975257Y196339D01*
X975299Y196244D01*
X975373Y196022D01*
X975437Y195779D01*
X975479Y195504D01*
X975500Y195209D01*
Y195198D01*
Y195166D01*
Y195103D01*
X975490Y195040D01*
X975479Y194944D01*
X975469Y194839D01*
X975447Y194722D01*
X975416Y194596D01*
X975331Y194321D01*
X975278Y194173D01*
X975215Y194025D01*
X975141Y193877D01*
X975046Y193729D01*
X974940Y193592D01*
X974824Y193454D01*
X974813Y193444D01*
X974792Y193423D01*
X974750Y193391D01*
X974697Y193338D01*
X974623Y193286D01*
X974539Y193222D01*
X974433Y193148D01*
X974306Y193074D01*
X974169Y193000D01*
X974021Y192926D01*
X973852Y192852D01*
X973662Y192778D01*
X973461Y192715D01*
X973239Y192652D01*
X972996Y192599D01*
X972742Y192556D01*
X972753D01*
X972764Y192546D01*
X972827Y192514D01*
X972922Y192461D01*
X973038Y192398D01*
X973165Y192324D01*
X973292Y192250D01*
X973419Y192155D01*
X973524Y192070D01*
X973535Y192060D01*
X973545Y192049D01*
X973577Y192017D01*
X973619Y191975D01*
X973672Y191922D01*
X973736Y191859D01*
X973873Y191711D01*
X974032Y191521D01*
X974211Y191299D01*
X974401Y191045D01*
X974592Y190771D01*
X976282Y188118D01*
X974666D01*
X973376Y190147D01*
X973366Y190158D01*
X973355Y190189D01*
X973324Y190232D01*
X973281Y190295D01*
X973239Y190369D01*
X973176Y190454D01*
X973049Y190644D01*
X972901Y190866D01*
X972753Y191088D01*
X972594Y191299D01*
X972447Y191489D01*
Y191500D01*
X972425Y191510D01*
X972383Y191563D01*
X972320Y191648D01*
X972225Y191743D01*
X972130Y191848D01*
X972013Y191954D01*
X971897Y192060D01*
X971791Y192134D01*
X971781Y192144D01*
X971739Y192165D01*
X971686Y192197D01*
X971612Y192239D01*
X971517Y192282D01*
X971422Y192324D01*
X971316Y192366D01*
X971200Y192398D01*
X971189D01*
X971157Y192409D01*
X971105Y192419D01*
X971031Y192430D01*
X970925D01*
X970798Y192440D01*
X970650Y192451D01*
X968991D01*
Y188118D01*
X967702D01*
Y197871D01*
X972235D01*
X972351Y197861D01*
D02*
G37*
G36*
X966656Y188118D02*
X965187D01*
X964057Y191066D01*
X959957D01*
X958900Y188118D01*
X957537D01*
X961267Y197871D01*
X962662D01*
X966656Y188118D01*
D02*
G37*
G36*
X952254Y189270D02*
X957062D01*
Y188118D01*
X950965D01*
Y197871D01*
X952254D01*
Y189270D01*
D02*
G37*
G36*
X944921Y198030D02*
X945048Y198019D01*
X945185Y198009D01*
X945333Y197987D01*
X945502Y197956D01*
X945692Y197924D01*
X945883Y197882D01*
X946083Y197829D01*
X946295Y197766D01*
X946506Y197692D01*
X946717Y197607D01*
X946918Y197512D01*
X947129Y197396D01*
X947140Y197385D01*
X947182Y197364D01*
X947235Y197332D01*
X947309Y197280D01*
X947404Y197216D01*
X947499Y197132D01*
X947616Y197036D01*
X947742Y196931D01*
X947880Y196804D01*
X948017Y196667D01*
X948154Y196519D01*
X948292Y196360D01*
X948419Y196191D01*
X948556Y196001D01*
X948672Y195800D01*
X948788Y195589D01*
X948799Y195578D01*
X948810Y195536D01*
X948841Y195473D01*
X948873Y195388D01*
X948926Y195282D01*
X948968Y195145D01*
X949021Y194997D01*
X949074Y194828D01*
X949127Y194648D01*
X949179Y194448D01*
X949232Y194226D01*
X949274Y194004D01*
X949306Y193761D01*
X949338Y193507D01*
X949348Y193254D01*
X949359Y192979D01*
Y192958D01*
Y192916D01*
Y192831D01*
X949348Y192725D01*
X949338Y192599D01*
X949327Y192451D01*
X949306Y192282D01*
X949285Y192092D01*
X949253Y191891D01*
X949211Y191679D01*
X949169Y191458D01*
X949105Y191236D01*
X949031Y191003D01*
X948957Y190781D01*
X948862Y190549D01*
X948757Y190327D01*
X948746Y190316D01*
X948725Y190274D01*
X948693Y190211D01*
X948651Y190137D01*
X948588Y190042D01*
X948514Y189925D01*
X948419Y189799D01*
X948323Y189661D01*
X948207Y189524D01*
X948080Y189376D01*
X947933Y189228D01*
X947785Y189080D01*
X947626Y188943D01*
X947446Y188805D01*
X947256Y188668D01*
X947056Y188552D01*
X947045Y188541D01*
X947003Y188531D01*
X946950Y188499D01*
X946865Y188457D01*
X946760Y188414D01*
X946643Y188361D01*
X946506Y188309D01*
X946348Y188256D01*
X946178Y188203D01*
X945999Y188150D01*
X945798Y188097D01*
X945597Y188055D01*
X945154Y187981D01*
X944921Y187971D01*
X944689Y187960D01*
X944551D01*
X944456Y187971D01*
X944340Y187981D01*
X944192Y187992D01*
X944044Y188013D01*
X943864Y188044D01*
X943685Y188076D01*
X943484Y188118D01*
X943283Y188171D01*
X943072Y188235D01*
X942861Y188309D01*
X942649Y188404D01*
X942438Y188499D01*
X942227Y188615D01*
X942216Y188626D01*
X942184Y188647D01*
X942121Y188689D01*
X942047Y188742D01*
X941963Y188805D01*
X941857Y188890D01*
X941741Y188985D01*
X941614Y189091D01*
X941476Y189217D01*
X941350Y189355D01*
X941212Y189503D01*
X941075Y189661D01*
X940938Y189841D01*
X940811Y190020D01*
X940695Y190221D01*
X940578Y190432D01*
X940568Y190443D01*
X940557Y190485D01*
X940525Y190549D01*
X940494Y190633D01*
X940452Y190739D01*
X940409Y190866D01*
X940356Y191003D01*
X940303Y191172D01*
X940251Y191341D01*
X940198Y191531D01*
X940156Y191732D01*
X940113Y191943D01*
X940050Y192387D01*
X940039Y192630D01*
X940029Y192863D01*
Y192873D01*
Y192894D01*
Y192926D01*
Y192969D01*
X940039Y193032D01*
Y193095D01*
X940050Y193264D01*
X940071Y193465D01*
X940103Y193708D01*
X940135Y193962D01*
X940187Y194247D01*
X940261Y194553D01*
X940346Y194860D01*
X940452Y195177D01*
X940578Y195494D01*
X940726Y195811D01*
X940895Y196107D01*
X941096Y196403D01*
X941329Y196667D01*
X941339Y196677D01*
X941392Y196730D01*
X941466Y196793D01*
X941561Y196878D01*
X941698Y196984D01*
X941846Y197100D01*
X942026Y197227D01*
X942237Y197353D01*
X942470Y197480D01*
X942723Y197607D01*
X942998Y197723D01*
X943304Y197829D01*
X943621Y197913D01*
X943960Y197977D01*
X944319Y198030D01*
X944699Y198040D01*
X944826D01*
X944921Y198030D01*
D02*
G37*
%LPC*%
G36*
X998371Y260945D02*
X996871D01*
Y260731D01*
X996442D01*
Y260517D01*
X996013D01*
Y260302D01*
X995799D01*
Y260088D01*
X995585D01*
Y259874D01*
X995370D01*
Y259659D01*
X995156D01*
Y259445D01*
X994942D01*
Y259016D01*
X994727D01*
Y257088D01*
X994942D01*
Y256873D01*
X995156D01*
Y256659D01*
X995370D01*
Y256445D01*
X995585D01*
Y256230D01*
X997514D01*
Y256445D01*
X997942D01*
Y256659D01*
X998371D01*
Y256873D01*
X998585D01*
Y257088D01*
X998799D01*
Y257302D01*
X999014D01*
Y257516D01*
Y257731D01*
X999228D01*
Y257945D01*
X999442D01*
Y260088D01*
X999228D01*
Y260302D01*
X999014D01*
Y260517D01*
X998799D01*
Y260731D01*
X998371D01*
Y260945D01*
D02*
G37*
G36*
X967938Y269732D02*
X964938D01*
Y269518D01*
X963438D01*
Y269303D01*
X962581D01*
Y269089D01*
X961938D01*
Y268875D01*
X961509D01*
Y268661D01*
X961080D01*
Y268446D01*
X960652D01*
Y268232D01*
X960223D01*
Y268018D01*
X960009D01*
Y267803D01*
X959794D01*
Y267589D01*
X959580D01*
Y267375D01*
X959366D01*
Y267160D01*
X959152D01*
Y266732D01*
X958937D01*
Y266517D01*
X958723D01*
Y266089D01*
X958509D01*
Y265446D01*
X958294D01*
Y264589D01*
X958080D01*
Y261803D01*
X958294D01*
Y260517D01*
X958509D01*
Y259659D01*
X958723D01*
Y259016D01*
X958937D01*
Y258374D01*
X959152D01*
Y257731D01*
X959366D01*
Y257088D01*
X959580D01*
Y256659D01*
X959794D01*
Y256230D01*
X960009D01*
Y255588D01*
X960223D01*
Y255159D01*
X960437D01*
Y254730D01*
X960652D01*
Y254302D01*
X961080D01*
Y254516D01*
X961509D01*
Y254730D01*
X961938D01*
Y254945D01*
X962366D01*
Y255159D01*
X962795D01*
Y255373D01*
X963438D01*
Y255588D01*
X964081D01*
Y255802D01*
X965152D01*
Y256016D01*
X969653D01*
Y255802D01*
X970724D01*
Y255588D01*
X971582D01*
Y255373D01*
X972439D01*
Y255159D01*
X973296D01*
Y254945D01*
X974154D01*
Y254730D01*
X975225D01*
Y254516D01*
X979297D01*
Y254730D01*
X979726D01*
Y254945D01*
X980154D01*
Y255159D01*
X980583D01*
Y255373D01*
X981012D01*
Y255588D01*
X981226D01*
Y255802D01*
X981654D01*
Y256016D01*
X981869D01*
Y256230D01*
X982297D01*
Y256445D01*
X982512D01*
Y256659D01*
X982726D01*
Y256873D01*
X982940D01*
Y257088D01*
X983155D01*
Y257302D01*
X983583D01*
Y257516D01*
X983798D01*
Y257731D01*
X984012D01*
Y257945D01*
X984226D01*
Y258374D01*
X984441D01*
Y258588D01*
X984655D01*
Y258802D01*
X984869D01*
Y259016D01*
X985083D01*
Y259231D01*
X985298D01*
Y259659D01*
X985512D01*
Y259874D01*
X985726D01*
Y260302D01*
X985941D01*
Y260517D01*
X986155D01*
Y260731D01*
X986369D01*
Y261160D01*
X986584D01*
Y261374D01*
X986798D01*
Y261803D01*
X987012D01*
Y262017D01*
X987226D01*
Y262231D01*
X987441D01*
Y262446D01*
X987655D01*
Y262874D01*
X987226D01*
Y263088D01*
X986798D01*
Y263303D01*
X986369D01*
Y263517D01*
X985941D01*
Y263731D01*
X985512D01*
Y263946D01*
X985083D01*
Y264160D01*
X984655D01*
Y264374D01*
X984226D01*
Y264589D01*
X983798D01*
Y264803D01*
X983369D01*
Y265017D01*
X982940D01*
Y265232D01*
X982512D01*
Y265446D01*
X982083D01*
Y265660D01*
X981440D01*
Y265875D01*
X981012D01*
Y266089D01*
X980583D01*
Y266303D01*
X979940D01*
Y266517D01*
X979511D01*
Y266732D01*
X978868D01*
Y266946D01*
X978440D01*
Y267160D01*
X977797D01*
Y267375D01*
X977154D01*
Y267589D01*
X976511D01*
Y267803D01*
X975868D01*
Y268018D01*
X975225D01*
Y268232D01*
X974582D01*
Y268446D01*
X973725D01*
Y268661D01*
X972868D01*
Y268875D01*
X972010D01*
Y269089D01*
X970939D01*
Y269303D01*
X969653D01*
Y269518D01*
X967938D01*
Y269732D01*
D02*
G37*
G36*
X994299Y254087D02*
X993013D01*
Y253873D01*
X992370D01*
Y253659D01*
X992156D01*
Y253444D01*
X991727D01*
Y253230D01*
X991513D01*
Y253016D01*
X991299D01*
Y252587D01*
X991084D01*
Y252373D01*
X990870D01*
Y251516D01*
X990656D01*
Y250873D01*
X990870D01*
Y250230D01*
X991084D01*
Y249801D01*
X991513D01*
Y249587D01*
X991941D01*
Y249372D01*
X993442D01*
Y249587D01*
X993870D01*
Y249801D01*
X994299D01*
Y250015D01*
X994513D01*
Y250230D01*
X994727D01*
Y250444D01*
X994942D01*
Y250658D01*
X995156D01*
Y251087D01*
X995370D01*
Y251730D01*
X995585D01*
Y252801D01*
X995370D01*
Y253230D01*
X995156D01*
Y253444D01*
X994942D01*
Y253659D01*
X994727D01*
Y253873D01*
X994299D01*
Y254087D01*
D02*
G37*
G36*
X1000728Y251516D02*
X999014D01*
Y251301D01*
X998585D01*
Y251087D01*
X998157D01*
Y250873D01*
X997942D01*
Y250658D01*
X997728D01*
Y250444D01*
X997514D01*
Y250015D01*
X997299D01*
Y249587D01*
X997085D01*
Y247872D01*
X997299D01*
Y247658D01*
X997514D01*
Y247444D01*
X997728D01*
Y247229D01*
X997942D01*
Y247015D01*
X999871D01*
Y247229D01*
X1000300D01*
Y247444D01*
X1000728D01*
Y247658D01*
X1000943D01*
Y247872D01*
X1001157D01*
Y248087D01*
X1001371D01*
Y248515D01*
X1001585D01*
Y248944D01*
X1001800D01*
Y250444D01*
X1001585D01*
Y250873D01*
X1001371D01*
Y251087D01*
X1001157D01*
Y251301D01*
X1000728D01*
Y251516D01*
D02*
G37*
G36*
X988727Y244229D02*
X987869D01*
Y244015D01*
X987441D01*
Y243800D01*
X986798D01*
Y243586D01*
X986369D01*
Y243372D01*
X985941D01*
Y243157D01*
X985512D01*
Y242729D01*
X985298D01*
Y242086D01*
X985512D01*
Y241871D01*
X985726D01*
Y241657D01*
X986798D01*
Y241871D01*
X987226D01*
Y242086D01*
X987869D01*
Y242300D01*
X988298D01*
Y242514D01*
X988727D01*
Y242729D01*
X988941D01*
Y242943D01*
X989155D01*
Y243800D01*
X988941D01*
Y244015D01*
X988727D01*
Y244229D01*
D02*
G37*
G36*
X983798Y242086D02*
X982726D01*
Y241871D01*
X982297D01*
Y241657D01*
X981654D01*
Y241443D01*
X981226D01*
Y241229D01*
X980797D01*
Y241014D01*
X980583D01*
Y240800D01*
X980368D01*
Y239943D01*
X980583D01*
Y239728D01*
X981012D01*
Y239514D01*
X981440D01*
Y239728D01*
X982083D01*
Y239943D01*
X982512D01*
Y240157D01*
X983155D01*
Y240371D01*
X983583D01*
Y240586D01*
X984012D01*
Y241014D01*
X984226D01*
Y241657D01*
X984012D01*
Y241871D01*
X983798D01*
Y242086D01*
D02*
G37*
G36*
X967938Y243372D02*
X966010D01*
Y243157D01*
X965581D01*
Y242943D01*
X965152D01*
Y242729D01*
X964938D01*
Y242514D01*
X964724D01*
Y242300D01*
X964509D01*
Y241871D01*
X964295D01*
Y241657D01*
X964081D01*
Y241014D01*
X963867D01*
Y239514D01*
X964081D01*
Y238657D01*
X964295D01*
Y237800D01*
X963652D01*
Y237585D01*
X963223D01*
Y237371D01*
X962795D01*
Y237157D01*
X962366D01*
Y236942D01*
X961938D01*
Y236728D01*
X961723D01*
Y236514D01*
X961509D01*
Y236299D01*
X961295D01*
Y236085D01*
X961080D01*
Y235656D01*
X960866D01*
Y235228D01*
X960652D01*
Y233299D01*
X960866D01*
Y232870D01*
X961080D01*
Y232656D01*
X961295D01*
Y232442D01*
X961723D01*
Y232227D01*
X962366D01*
Y232013D01*
X963223D01*
Y232227D01*
X964081D01*
Y232442D01*
X964509D01*
Y232656D01*
X964938D01*
Y232870D01*
X965581D01*
Y233085D01*
X965795D01*
Y232656D01*
X966010D01*
Y232013D01*
X966224D01*
Y231156D01*
X966438D01*
Y230727D01*
X966653D01*
Y230513D01*
X966867D01*
Y230299D01*
X967296D01*
Y230084D01*
X967724D01*
Y229870D01*
X969010D01*
Y230084D01*
X969653D01*
Y230299D01*
X970081D01*
Y230513D01*
X970296D01*
Y230727D01*
X970510D01*
Y230942D01*
X970724D01*
Y231156D01*
X970939D01*
Y231370D01*
X971153D01*
Y231584D01*
X971367D01*
Y232227D01*
X971582D01*
Y233942D01*
X971367D01*
Y234799D01*
X971153D01*
Y235442D01*
X971367D01*
Y235656D01*
X972010D01*
Y235871D01*
X972439D01*
Y236085D01*
X972868D01*
Y236299D01*
X973296D01*
Y236514D01*
X973725D01*
Y236728D01*
X973939D01*
Y236942D01*
X974154D01*
Y237157D01*
X974368D01*
Y237585D01*
X974582D01*
Y238014D01*
X974796D01*
Y238871D01*
X975011D01*
Y239300D01*
X974796D01*
Y240157D01*
X974582D01*
Y240371D01*
X974368D01*
Y240586D01*
X974154D01*
Y240800D01*
X973939D01*
Y241014D01*
X973511D01*
Y241229D01*
X971796D01*
Y241014D01*
X971153D01*
Y240800D01*
X970724D01*
Y240586D01*
X970081D01*
Y240371D01*
X969653D01*
Y240800D01*
X969439D01*
Y241657D01*
X969224D01*
Y242300D01*
X969010D01*
Y242514D01*
X968796D01*
Y242729D01*
X968581D01*
Y242943D01*
X968367D01*
Y243157D01*
X967938D01*
Y243372D01*
D02*
G37*
%LPD*%
G36*
X968153Y266518D02*
X969867D01*
Y266303D01*
X970939D01*
Y266089D01*
X971582D01*
Y265875D01*
X972225D01*
Y265660D01*
X972868D01*
Y265446D01*
X973296D01*
Y265232D01*
X973725D01*
Y265017D01*
X974154D01*
Y264803D01*
X974582D01*
Y264589D01*
X974796D01*
Y264374D01*
X975225D01*
Y264160D01*
X975439D01*
Y263946D01*
X975868D01*
Y263731D01*
X976082D01*
Y263517D01*
X976297D01*
Y263303D01*
X976511D01*
Y263088D01*
X975654D01*
Y263303D01*
X974796D01*
Y263517D01*
X974154D01*
Y263731D01*
X973082D01*
Y263946D01*
X972010D01*
Y264160D01*
X970081D01*
Y264374D01*
X967724D01*
Y264160D01*
X966224D01*
Y263946D01*
X965152D01*
Y263731D01*
X964509D01*
Y263517D01*
X963867D01*
Y263303D01*
X963438D01*
Y263088D01*
X963009D01*
Y262874D01*
X962581D01*
Y262660D01*
X962152D01*
Y262446D01*
X961723D01*
Y262231D01*
X961509D01*
Y262017D01*
X961080D01*
Y263303D01*
X961295D01*
Y263946D01*
X961509D01*
Y264160D01*
X961723D01*
Y264589D01*
X961938D01*
Y264803D01*
X962152D01*
Y265017D01*
X962366D01*
Y265232D01*
X962581D01*
Y265446D01*
X963009D01*
Y265660D01*
X963438D01*
Y265875D01*
X963867D01*
Y266089D01*
X964295D01*
Y266303D01*
X965152D01*
Y266518D01*
X966653D01*
Y266732D01*
X968153D01*
Y266518D01*
D02*
G37*
G36*
X991941Y252159D02*
X991727D01*
Y252373D01*
X991941D01*
Y252159D01*
D02*
G37*
G36*
X994513Y250873D02*
X994299D01*
Y251087D01*
X994513D01*
Y250873D01*
D02*
G37*
G36*
X994299Y250658D02*
X994084D01*
Y250873D01*
X994299D01*
Y250658D01*
D02*
G37*
G36*
X991727Y251087D02*
X991941D01*
Y250658D01*
X992370D01*
Y250444D01*
X993656D01*
Y250658D01*
X994084D01*
Y250444D01*
X993870D01*
Y250230D01*
X993442D01*
Y250015D01*
X991941D01*
Y250230D01*
X991727D01*
Y250444D01*
X991513D01*
Y250873D01*
X991299D01*
Y251730D01*
X991513D01*
Y252159D01*
X991727D01*
Y251087D01*
D02*
G37*
G36*
X998157Y249587D02*
X997942D01*
Y248515D01*
X998157D01*
Y248301D01*
X998371D01*
Y248087D01*
X998799D01*
Y247872D01*
X999442D01*
Y248087D01*
X1000085D01*
Y248301D01*
X1000300D01*
Y248515D01*
X1000728D01*
Y248301D01*
X1000514D01*
Y248087D01*
X1000300D01*
Y247872D01*
X999871D01*
Y247658D01*
X999442D01*
Y247444D01*
X998371D01*
Y247658D01*
X997942D01*
Y247872D01*
X997728D01*
Y248301D01*
X997514D01*
Y249373D01*
X997728D01*
Y249801D01*
X998157D01*
Y249587D01*
D02*
G37*
%LPC*%
G36*
X1043136Y196719D02*
X1040885D01*
Y189270D01*
X1043125D01*
X1043210Y189281D01*
X1043305D01*
X1043516Y189291D01*
X1043759Y189312D01*
X1044013Y189344D01*
X1044256Y189387D01*
X1044478Y189439D01*
X1044488D01*
X1044499Y189450D01*
X1044530Y189460D01*
X1044573Y189471D01*
X1044668Y189513D01*
X1044795Y189566D01*
X1044932Y189640D01*
X1045080Y189725D01*
X1045228Y189830D01*
X1045355Y189946D01*
X1045365Y189957D01*
X1045376Y189968D01*
X1045429Y190031D01*
X1045513Y190137D01*
X1045619Y190274D01*
X1045724Y190454D01*
X1045841Y190665D01*
X1045957Y190908D01*
X1046063Y191183D01*
Y191193D01*
X1046073Y191215D01*
X1046084Y191257D01*
X1046105Y191320D01*
X1046126Y191394D01*
X1046147Y191489D01*
X1046168Y191595D01*
X1046200Y191711D01*
X1046221Y191838D01*
X1046242Y191986D01*
X1046263Y192134D01*
X1046284Y192303D01*
X1046316Y192662D01*
X1046327Y193064D01*
Y193085D01*
Y193127D01*
Y193211D01*
X1046316Y193317D01*
Y193444D01*
X1046306Y193592D01*
X1046284Y193750D01*
X1046263Y193930D01*
X1046200Y194310D01*
X1046115Y194701D01*
X1045989Y195071D01*
X1045904Y195251D01*
X1045820Y195409D01*
X1045809Y195420D01*
X1045798Y195441D01*
X1045767Y195483D01*
X1045724Y195547D01*
X1045682Y195610D01*
X1045619Y195684D01*
X1045481Y195853D01*
X1045302Y196043D01*
X1045090Y196223D01*
X1044858Y196392D01*
X1044731Y196455D01*
X1044594Y196519D01*
X1044583D01*
X1044573Y196529D01*
X1044541Y196540D01*
X1044499Y196551D01*
X1044435Y196561D01*
X1044372Y196582D01*
X1044287Y196603D01*
X1044192Y196624D01*
X1044087Y196635D01*
X1043960Y196656D01*
X1043823Y196677D01*
X1043675Y196688D01*
X1043506Y196698D01*
X1043326Y196709D01*
X1043136Y196719D01*
D02*
G37*
G36*
X1033848Y196857D02*
Y196846D01*
X1033837Y196815D01*
X1033827Y196762D01*
X1033816Y196698D01*
X1033795Y196603D01*
X1033774Y196508D01*
X1033742Y196392D01*
X1033710Y196265D01*
X1033679Y196128D01*
X1033636Y195980D01*
X1033541Y195663D01*
X1033436Y195325D01*
X1033319Y194976D01*
X1032242Y192113D01*
X1035570D01*
X1034545Y194818D01*
Y194828D01*
X1034524Y194870D01*
X1034503Y194934D01*
X1034471Y195029D01*
X1034429Y195124D01*
X1034387Y195251D01*
X1034334Y195388D01*
X1034281Y195536D01*
X1034175Y195864D01*
X1034059Y196202D01*
X1033943Y196540D01*
X1033848Y196857D01*
D02*
G37*
G36*
X1025511Y196719D02*
X1022711D01*
Y193233D01*
X1025342D01*
X1025426Y193243D01*
X1025532D01*
X1025648Y193254D01*
X1025786Y193275D01*
X1025923Y193296D01*
X1026219Y193349D01*
X1026515Y193433D01*
X1026652Y193486D01*
X1026779Y193550D01*
X1026906Y193613D01*
X1027011Y193698D01*
X1027022Y193708D01*
X1027032Y193719D01*
X1027064Y193750D01*
X1027096Y193782D01*
X1027180Y193888D01*
X1027276Y194036D01*
X1027371Y194226D01*
X1027455Y194448D01*
X1027519Y194712D01*
X1027529Y194849D01*
X1027540Y195008D01*
Y195018D01*
Y195040D01*
Y195071D01*
Y195114D01*
X1027519Y195230D01*
X1027497Y195367D01*
X1027466Y195536D01*
X1027402Y195705D01*
X1027328Y195885D01*
X1027223Y196054D01*
X1027212Y196075D01*
X1027170Y196128D01*
X1027096Y196202D01*
X1027011Y196286D01*
X1026885Y196381D01*
X1026747Y196476D01*
X1026589Y196561D01*
X1026409Y196624D01*
X1026399D01*
X1026346Y196635D01*
X1026261Y196656D01*
X1026134Y196677D01*
X1026060D01*
X1025976Y196688D01*
X1025870Y196698D01*
X1025765Y196709D01*
X1025638D01*
X1025511Y196719D01*
D02*
G37*
G36*
X995238Y196857D02*
Y196846D01*
X995228Y196815D01*
X995217Y196762D01*
X995207Y196698D01*
X995185Y196603D01*
X995164Y196508D01*
X995133Y196392D01*
X995101Y196265D01*
X995069Y196128D01*
X995027Y195980D01*
X994932Y195663D01*
X994826Y195325D01*
X994710Y194976D01*
X993632Y192113D01*
X996961D01*
X995936Y194818D01*
Y194828D01*
X995915Y194870D01*
X995893Y194934D01*
X995862Y195029D01*
X995819Y195124D01*
X995777Y195251D01*
X995724Y195388D01*
X995671Y195536D01*
X995566Y195864D01*
X995450Y196202D01*
X995333Y196540D01*
X995238Y196857D01*
D02*
G37*
G36*
X972278Y196793D02*
X968991D01*
Y193571D01*
X971908D01*
X971982Y193581D01*
X972066D01*
X972267Y193592D01*
X972489Y193613D01*
X972721Y193645D01*
X972943Y193687D01*
X973144Y193750D01*
X973155D01*
X973165Y193761D01*
X973228Y193782D01*
X973313Y193824D01*
X973429Y193888D01*
X973545Y193972D01*
X973672Y194067D01*
X973799Y194194D01*
X973905Y194331D01*
X973915Y194353D01*
X973947Y194405D01*
X973989Y194480D01*
X974042Y194596D01*
X974084Y194722D01*
X974127Y194870D01*
X974158Y195040D01*
X974169Y195209D01*
Y195219D01*
Y195240D01*
Y195272D01*
X974158Y195325D01*
Y195378D01*
X974148Y195452D01*
X974105Y195610D01*
X974042Y195790D01*
X973958Y195980D01*
X973831Y196159D01*
X973746Y196255D01*
X973662Y196339D01*
X973651Y196350D01*
X973641Y196360D01*
X973609Y196381D01*
X973567Y196413D01*
X973514Y196445D01*
X973440Y196487D01*
X973366Y196529D01*
X973271Y196572D01*
X973165Y196614D01*
X973049Y196646D01*
X972922Y196688D01*
X972785Y196719D01*
X972626Y196751D01*
X972457Y196772D01*
X972278Y196793D01*
D02*
G37*
G36*
X961933Y196857D02*
Y196846D01*
X961922Y196815D01*
X961912Y196762D01*
X961901Y196698D01*
X961880Y196603D01*
X961859Y196508D01*
X961827Y196392D01*
X961796Y196265D01*
X961764Y196128D01*
X961722Y195980D01*
X961627Y195663D01*
X961521Y195325D01*
X961405Y194976D01*
X960327Y192113D01*
X963655D01*
X962630Y194818D01*
Y194828D01*
X962609Y194870D01*
X962588Y194934D01*
X962556Y195029D01*
X962514Y195124D01*
X962472Y195251D01*
X962419Y195388D01*
X962366Y195536D01*
X962261Y195864D01*
X962144Y196202D01*
X962028Y196540D01*
X961933Y196857D01*
D02*
G37*
G36*
X944879Y196931D02*
X944636D01*
X944572Y196920D01*
X944467D01*
X944351Y196899D01*
X944213Y196878D01*
X944065Y196846D01*
X943896Y196815D01*
X943717Y196762D01*
X943526Y196698D01*
X943326Y196624D01*
X943135Y196529D01*
X942935Y196424D01*
X942734Y196297D01*
X942533Y196149D01*
X942343Y195980D01*
X942332Y195969D01*
X942301Y195938D01*
X942248Y195874D01*
X942195Y195800D01*
X942110Y195695D01*
X942036Y195568D01*
X941941Y195409D01*
X941857Y195240D01*
X941762Y195029D01*
X941667Y194797D01*
X941593Y194543D01*
X941519Y194258D01*
X941455Y193951D01*
X941402Y193613D01*
X941371Y193243D01*
X941360Y192842D01*
Y192820D01*
Y192768D01*
X941371Y192673D01*
Y192546D01*
X941392Y192398D01*
X941413Y192229D01*
X941434Y192039D01*
X941476Y191838D01*
X941529Y191616D01*
X941593Y191383D01*
X941667Y191162D01*
X941762Y190929D01*
X941867Y190697D01*
X941994Y190475D01*
X942132Y190264D01*
X942301Y190063D01*
X942311Y190052D01*
X942343Y190020D01*
X942396Y189968D01*
X942470Y189904D01*
X942565Y189830D01*
X942681Y189746D01*
X942808Y189651D01*
X942956Y189566D01*
X943114Y189471D01*
X943304Y189376D01*
X943495Y189291D01*
X943706Y189217D01*
X943928Y189154D01*
X944171Y189101D01*
X944414Y189069D01*
X944678Y189059D01*
X944741D01*
X944815Y189069D01*
X944921Y189080D01*
X945048Y189091D01*
X945185Y189112D01*
X945354Y189143D01*
X945523Y189186D01*
X945714Y189238D01*
X945904Y189302D01*
X946105Y189387D01*
X946305Y189492D01*
X946506Y189608D01*
X946707Y189735D01*
X946897Y189894D01*
X947077Y190073D01*
X947087Y190084D01*
X947119Y190126D01*
X947161Y190179D01*
X947225Y190264D01*
X947299Y190369D01*
X947383Y190496D01*
X947467Y190644D01*
X947552Y190823D01*
X947637Y191014D01*
X947732Y191236D01*
X947806Y191468D01*
X947880Y191732D01*
X947943Y192017D01*
X947985Y192313D01*
X948017Y192641D01*
X948028Y192979D01*
Y192990D01*
Y193032D01*
Y193095D01*
X948017Y193180D01*
Y193286D01*
X948006Y193402D01*
X947996Y193539D01*
X947975Y193687D01*
X947933Y194014D01*
X947859Y194363D01*
X947753Y194712D01*
X947616Y195061D01*
Y195071D01*
X947594Y195103D01*
X947573Y195145D01*
X947542Y195209D01*
X947499Y195282D01*
X947446Y195367D01*
X947320Y195568D01*
X947151Y195790D01*
X946950Y196012D01*
X946717Y196234D01*
X946443Y196434D01*
X946432Y196445D01*
X946411Y196455D01*
X946369Y196476D01*
X946305Y196508D01*
X946231Y196551D01*
X946147Y196593D01*
X946052Y196635D01*
X945935Y196688D01*
X945809Y196730D01*
X945682Y196772D01*
X945386Y196857D01*
X945058Y196910D01*
X944879Y196931D01*
D02*
G37*
%LPD*%
D10*
X1136380Y791120D02*
G03*
X1136380Y791120I-1000J0D01*
G01*
X651700Y359560D02*
G03*
X651700Y359560I-1000J0D01*
G01*
X1190180D02*
G03*
X1190180Y359560I-1000J0D01*
G01*
X1392450Y779780D02*
G03*
X1392450Y779780I-1000J0D01*
G01*
X426450Y779780D02*
G03*
X426450Y779780I-1000J0D01*
G01*
X460585Y466090D02*
X546852Y552357D01*
X616856Y482354D02*
X633119Y466090D01*
X581501Y517709D02*
X598471Y500738D01*
X546852Y552357D02*
X563116Y536093D01*
X546852Y379823D02*
X633119Y466090D01*
X530589Y396087D02*
X546852Y379823D01*
X495233Y431442D02*
X512204Y414471D01*
X460585Y466090D02*
X476849Y449826D01*
X920710Y322540D02*
X943710D01*
X969710D02*
X993710D01*
X1019710D02*
X1042710D01*
Y444540D01*
X920710D02*
X943710D01*
X969710D02*
X993710D01*
X1019710D02*
X1042710D01*
X920710Y322540D02*
Y444540D01*
X299882Y317909D02*
X301438Y319465D01*
X272941Y344850D02*
X274497Y346406D01*
X289346Y361255D02*
X290902Y362811D01*
X316287Y334314D02*
X317843Y335870D01*
X272941Y344850D02*
X299882Y317909D01*
X290902Y362811D02*
X317843Y335870D01*
X557226Y621696D02*
X558782Y623251D01*
X584167Y594755D02*
X585723Y596310D01*
X567762Y578350D02*
X569318Y579905D01*
X540821Y605291D02*
X542377Y606846D01*
X558782Y623251D02*
X585723Y596310D01*
X540821Y605291D02*
X567762Y578350D01*
X314960Y673100D02*
X353060D01*
X314960Y698500D02*
X353060D01*
X314960Y673100D02*
Y675300D01*
X353060Y673100D02*
Y675300D01*
Y696300D02*
Y698500D01*
X314960Y696300D02*
Y698500D01*
X1621790Y660400D02*
X1659890D01*
X1621790Y685800D02*
X1659890D01*
X1621790Y660400D02*
Y662600D01*
X1659890Y660400D02*
Y662600D01*
Y683600D02*
Y685800D01*
X1621790Y683600D02*
Y685800D01*
X342475Y347980D02*
X358738Y331717D01*
X377123Y313332D02*
X394094Y296362D01*
X412479Y277977D02*
X428742Y261713D01*
X515009Y347980D01*
X428742Y434247D02*
X445005Y417984D01*
X463391Y399599D02*
X480361Y382629D01*
X498746Y364244D02*
X515009Y347980D01*
X342475D02*
X428742Y434247D01*
X342475Y584200D02*
X358738Y567937D01*
X377123Y549552D02*
X394094Y532582D01*
X412479Y514197D02*
X428742Y497933D01*
X515009Y584200D01*
X428742Y670467D02*
X445005Y654204D01*
X463391Y635819D02*
X480361Y618849D01*
X498746Y600464D02*
X515009Y584200D01*
X342475D02*
X428742Y670467D01*
X1446105Y347980D02*
X1532372Y434247D01*
X1602376Y364244D02*
X1618639Y347980D01*
X1567021Y399599D02*
X1583991Y382629D01*
X1532372Y434247D02*
X1548636Y417984D01*
X1532372Y261713D02*
X1618639Y347980D01*
X1516109Y277977D02*
X1532372Y261713D01*
X1480753Y313332D02*
X1497724Y296362D01*
X1446105Y347980D02*
X1462368Y331717D01*
X1446105Y584200D02*
X1532372Y670467D01*
X1602376Y600464D02*
X1618639Y584200D01*
X1567021Y635819D02*
X1583991Y618849D01*
X1532372Y670467D02*
X1548636Y654204D01*
X1532372Y497933D02*
X1618639Y584200D01*
X1516109Y514197D02*
X1532372Y497933D01*
X1480753Y549552D02*
X1497724Y532582D01*
X1446105Y584200D02*
X1462368Y567937D01*
X1327995Y466090D02*
X1414262Y552357D01*
X1484266Y482354D02*
X1500529Y466090D01*
X1448911Y517709D02*
X1465881Y500738D01*
X1414262Y552357D02*
X1430526Y536093D01*
X1414262Y379823D02*
X1500529Y466090D01*
X1397999Y396087D02*
X1414262Y379823D01*
X1362643Y431442D02*
X1379614Y414471D01*
X1327995Y466090D02*
X1344259Y449826D01*
X1564215Y466090D02*
X1650482Y552357D01*
X1720486Y482354D02*
X1736749Y466090D01*
X1685130Y517709D02*
X1702101Y500738D01*
X1650482Y552357D02*
X1666746Y536093D01*
X1650482Y379823D02*
X1736749Y466090D01*
X1634219Y396087D02*
X1650482Y379823D01*
X1598864Y431442D02*
X1615834Y414471D01*
X1564215Y466090D02*
X1580479Y449826D01*
X622890Y672620D02*
X667670D01*
X673890Y631350D02*
Y653890D01*
X620110Y612620D02*
X667670D01*
X613890Y631350D02*
Y653620D01*
X1298530Y672620D02*
X1343310D01*
X1349530Y631350D02*
Y653890D01*
X1295750Y612620D02*
X1343310D01*
X1289530Y631350D02*
Y653620D01*
X224365Y466090D02*
X240629Y449826D01*
X259014Y431442D02*
X275984Y414471D01*
X294369Y396087D02*
X310632Y379823D01*
X396899Y466090D01*
X310632Y552357D02*
X326896Y536093D01*
X345280Y517709D02*
X362251Y500738D01*
X380636Y482354D02*
X396899Y466090D01*
X224365D02*
X310632Y552357D01*
X1678997Y336246D02*
X1680553Y334690D01*
X1652056Y309305D02*
X1653612Y307749D01*
X1635651Y325710D02*
X1637207Y324154D01*
X1662592Y352651D02*
X1664148Y351095D01*
X1653612Y307749D02*
X1680553Y334690D01*
X1635651Y325710D02*
X1662592Y352651D01*
X1381651Y588600D02*
X1383207Y587044D01*
X1408592Y615541D02*
X1410148Y613985D01*
X1424997Y599136D02*
X1426553Y597580D01*
X1398056Y572195D02*
X1399612Y570639D01*
X1381651Y588600D02*
X1408592Y615541D01*
X1399612Y570639D02*
X1426553Y597580D01*
D11*
X473326Y426669D02*
G03*
X473326Y426669I-1250J0D01*
G01*
X957960Y302790D02*
G03*
X957960Y302790I-1250J0D01*
G01*
X355216Y308559D02*
G03*
X355216Y308559I-1250J0D01*
G01*
Y544779D02*
G03*
X355216Y544779I-1250J0D01*
G01*
X1458846Y308559D02*
G03*
X1458846Y308559I-1250J0D01*
G01*
Y544779D02*
G03*
X1458846Y544779I-1250J0D01*
G01*
X1340736Y426669D02*
G03*
X1340736Y426669I-1250J0D01*
G01*
X1576956D02*
G03*
X1576956Y426669I-1250J0D01*
G01*
X599640Y665120D02*
G03*
X599640Y665120I-1250J0D01*
G01*
X1275280D02*
G03*
X1275280Y665120I-1250J0D01*
G01*
X237106Y426669D02*
G03*
X237106Y426669I-1250J0D01*
G01*
D12*
X1313180Y770890D02*
G03*
X1313180Y770890I-25400J0D01*
G01*
X1300228Y792827D02*
G03*
X1300228Y748953I15936J-21937D01*
G01*
X1141982Y436533D02*
G03*
X1141982Y480407I-15936J21937D01*
G01*
X1179830Y458470D02*
G03*
X1179830Y458470I-25400J0D01*
G01*
X1316990Y770890D02*
X1324610D01*
X1285240Y746760D02*
Y795020D01*
X1156970Y434340D02*
Y482600D01*
X1117600Y458470D02*
X1125220D01*
X316230Y255265D02*
Y240030D01*
X323848D01*
X326387Y242569D01*
Y252726D01*
X323848Y255265D01*
X316230D01*
X331465Y240030D02*
Y255265D01*
X339083D01*
X341622Y252726D01*
Y247647D01*
X339083Y245108D01*
X331465D01*
X346700Y240030D02*
Y250187D01*
X351778Y255265D01*
X356857Y250187D01*
Y240030D01*
Y247647D01*
X346700D01*
X361935Y255265D02*
Y240030D01*
X369553D01*
X372092Y242569D01*
Y252726D01*
X369553Y255265D01*
X361935D01*
X731520Y815333D02*
Y800098D01*
X739137D01*
X741677Y802637D01*
Y805177D01*
X739137Y807716D01*
X731520D01*
X739137D01*
X741677Y810255D01*
Y812794D01*
X739137Y815333D01*
X731520D01*
X749294Y800098D02*
X754373D01*
X756912Y802637D01*
Y807716D01*
X754373Y810255D01*
X749294D01*
X746755Y807716D01*
Y802637D01*
X749294Y800098D01*
X764529Y810255D02*
X769608D01*
X772147Y807716D01*
Y800098D01*
X764529D01*
X761990Y802637D01*
X764529Y805177D01*
X772147D01*
X777225Y810255D02*
Y800098D01*
Y805177D01*
X779764Y807716D01*
X782304Y810255D01*
X784843D01*
X802617Y815333D02*
Y800098D01*
X794999D01*
X792460Y802637D01*
Y807716D01*
X794999Y810255D01*
X802617D01*
X822930Y815333D02*
Y800098D01*
X830548D01*
X833087Y802637D01*
Y812794D01*
X830548Y815333D01*
X822930D01*
X845783Y800098D02*
X840705D01*
X838166Y802637D01*
Y807716D01*
X840705Y810255D01*
X845783D01*
X848322Y807716D01*
Y805177D01*
X838166D01*
X853401Y800098D02*
X861018D01*
X863557Y802637D01*
X861018Y805177D01*
X855940D01*
X853401Y807716D01*
X855940Y810255D01*
X863557D01*
X868636Y800098D02*
X873714D01*
X871175D01*
Y810255D01*
X868636D01*
X886410Y795020D02*
X888949D01*
X891488Y797559D01*
Y810255D01*
X883871D01*
X881331Y807716D01*
Y802637D01*
X883871Y800098D01*
X891488D01*
X896567D02*
Y810255D01*
X904184D01*
X906723Y807716D01*
Y800098D01*
X919419D02*
X914341D01*
X911802Y802637D01*
Y807716D01*
X914341Y810255D01*
X919419D01*
X921958Y807716D01*
Y805177D01*
X911802D01*
X937194Y815333D02*
Y800098D01*
X929576D01*
X927037Y802637D01*
Y807716D01*
X929576Y810255D01*
X937194D01*
X957507Y815333D02*
Y800098D01*
X965124D01*
X967664Y802637D01*
Y805177D01*
X965124Y807716D01*
X957507D01*
X965124D01*
X967664Y810255D01*
Y812794D01*
X965124Y815333D01*
X957507D01*
X972742Y810255D02*
Y802637D01*
X975281Y800098D01*
X982899D01*
Y797559D01*
X980359Y795020D01*
X977820D01*
X982899Y800098D02*
Y810255D01*
X987977D02*
X990516D01*
Y807716D01*
X987977D01*
Y810255D01*
Y802637D02*
X990516D01*
Y800098D01*
X987977D01*
Y802637D01*
X1026065D02*
Y812794D01*
X1023525Y815333D01*
X1018447D01*
X1015908Y812794D01*
Y802637D01*
X1018447Y800098D01*
X1023525D01*
X1020986Y805177D02*
X1026065Y800098D01*
X1023525D02*
X1026065Y802637D01*
X1031143Y810255D02*
Y802637D01*
X1033682Y800098D01*
X1041300D01*
Y810255D01*
X1046378Y800098D02*
X1051457D01*
X1048917D01*
Y810255D01*
X1046378D01*
X1059074Y800098D02*
Y810255D01*
X1066692D01*
X1069231Y807716D01*
Y800098D01*
X1074309D02*
X1079388D01*
X1076848D01*
Y815333D01*
X1074309D01*
X1089544Y810255D02*
X1094622D01*
X1097162Y807716D01*
Y800098D01*
X1089544D01*
X1087005Y802637D01*
X1089544Y805177D01*
X1097162D01*
X1102240Y800098D02*
Y810255D01*
X1109858D01*
X1112397Y807716D01*
Y800098D01*
X1142867Y812794D02*
X1140328Y815333D01*
X1135249D01*
X1132710Y812794D01*
Y810255D01*
X1135249Y807716D01*
X1140328D01*
X1142867Y805177D01*
Y802637D01*
X1140328Y800098D01*
X1135249D01*
X1132710Y802637D01*
X1150484Y812794D02*
Y810255D01*
X1147945D01*
X1153024D01*
X1150484D01*
Y802637D01*
X1153024Y800098D01*
X1168259D02*
X1163180D01*
X1160641Y802637D01*
Y807716D01*
X1163180Y810255D01*
X1168259D01*
X1170798Y807716D01*
Y805177D01*
X1160641D01*
X1175876Y810255D02*
Y802637D01*
X1178415Y800098D01*
X1180955Y802637D01*
X1183494Y800098D01*
X1186033Y802637D01*
Y810255D01*
X1193651D02*
X1198729D01*
X1201268Y807716D01*
Y800098D01*
X1193651D01*
X1191111Y802637D01*
X1193651Y805177D01*
X1201268D01*
X1206346Y810255D02*
Y800098D01*
Y805177D01*
X1208886Y807716D01*
X1211425Y810255D01*
X1213964D01*
X1224121Y812794D02*
Y810255D01*
X1221581D01*
X1226660D01*
X1224121D01*
Y802637D01*
X1226660Y800098D01*
X1248410Y770888D02*
X1258567D01*
X1253488Y775967D02*
Y765810D01*
X1193800Y458472D02*
X1183643D01*
X1188722Y453393D02*
Y463550D01*
X1668272Y665983D02*
Y650748D01*
Y658365D01*
X1678429D01*
Y665983D01*
Y650748D01*
X1691125D02*
Y665983D01*
X1683507Y658365D01*
X1693664D01*
X255016Y664459D02*
Y649224D01*
Y656842D01*
X265173D01*
Y664459D01*
Y649224D01*
X270251Y661920D02*
X272790Y664459D01*
X277869D01*
X280408Y661920D01*
Y659381D01*
X277869Y656842D01*
X275329D01*
X277869D01*
X280408Y654302D01*
Y651763D01*
X277869Y649224D01*
X272790D01*
X270251Y651763D01*
X359156Y221483D02*
Y206248D01*
Y213866D01*
X369313D01*
Y221483D01*
Y206248D01*
X384548D02*
X374391D01*
X384548Y216405D01*
Y218944D01*
X382009Y221483D01*
X376930D01*
X374391Y218944D01*
X1564132Y221483D02*
Y206248D01*
Y213866D01*
X1574289D01*
Y221483D01*
Y206248D01*
X1579367D02*
X1584445D01*
X1581906D01*
Y221483D01*
X1579367Y218944D01*
X944115Y159254D02*
X941575Y161793D01*
X936497D01*
X933958Y159254D01*
Y156715D01*
X936497Y154176D01*
X941575D01*
X944115Y151636D01*
Y149097D01*
X941575Y146558D01*
X936497D01*
X933958Y149097D01*
X949193Y161793D02*
Y146558D01*
X954271Y151636D01*
X959350Y146558D01*
Y161793D01*
X1186187Y473713D02*
Y488947D01*
X1193804D01*
X1196343Y486408D01*
Y481330D01*
X1193804Y478791D01*
X1186187D01*
X1211578Y486408D02*
X1209039Y488947D01*
X1203961D01*
X1201422Y486408D01*
Y476252D01*
X1203961Y473713D01*
X1209039D01*
X1211578Y476252D01*
X1226813Y473713D02*
X1216657D01*
X1226813Y483869D01*
Y486408D01*
X1224274Y488947D01*
X1219196D01*
X1216657Y486408D01*
X1275086Y722633D02*
Y737868D01*
X1282703D01*
X1285242Y735328D01*
Y730250D01*
X1282703Y727711D01*
X1275086D01*
X1300478Y735328D02*
X1297938Y737868D01*
X1292860D01*
X1290321Y735328D01*
Y725172D01*
X1292860Y722633D01*
X1297938D01*
X1300478Y725172D01*
X1305556Y722633D02*
X1310634D01*
X1308095D01*
Y737868D01*
X1305556Y735328D01*
X970285Y478788D02*
X967745Y481328D01*
X962667D01*
X960128Y478788D01*
Y476249D01*
X962667Y473710D01*
X967745D01*
X970285Y471171D01*
Y468632D01*
X967745Y466092D01*
X962667D01*
X960128Y468632D01*
X975363Y481328D02*
Y466092D01*
X980441Y471171D01*
X985520Y466092D01*
Y481328D01*
X990598Y466092D02*
X995676D01*
X993137D01*
Y481328D01*
X990598Y478788D01*
X1003294Y466092D02*
X1008372D01*
X1005833D01*
Y481328D01*
X1003294Y478788D01*
X629923Y694688D02*
X627384Y697227D01*
X622306D01*
X619767Y694688D01*
Y692149D01*
X622306Y689610D01*
X627384D01*
X629923Y687071D01*
Y684532D01*
X627384Y681992D01*
X622306D01*
X619767Y684532D01*
X635002Y697227D02*
Y681992D01*
X640080Y687071D01*
X645158Y681992D01*
Y697227D01*
X650237Y684532D02*
X652776Y681992D01*
X657854D01*
X660393Y684532D01*
Y694688D01*
X657854Y697227D01*
X652776D01*
X650237Y694688D01*
Y692149D01*
X652776Y689610D01*
X660393D01*
X1304295Y694688D02*
X1301756Y697227D01*
X1296678D01*
X1294139Y694688D01*
Y692149D01*
X1296678Y689610D01*
X1301756D01*
X1304295Y687071D01*
Y684532D01*
X1301756Y681992D01*
X1296678D01*
X1294139Y684532D01*
X1309374Y697227D02*
Y681992D01*
X1314452Y687071D01*
X1319530Y681992D01*
Y697227D01*
X1324609Y681992D02*
X1329687D01*
X1327148D01*
Y697227D01*
X1324609Y694688D01*
X1337305D02*
X1339844Y697227D01*
X1344922D01*
X1347461Y694688D01*
Y684532D01*
X1344922Y681992D01*
X1339844D01*
X1337305Y684532D01*
Y694688D01*
X1371628Y111763D02*
Y126997D01*
X1379246D01*
X1381785Y124458D01*
Y119380D01*
X1379246Y116841D01*
X1371628D01*
X1376707D02*
X1381785Y111763D01*
X1386863Y126997D02*
X1391942D01*
X1389403D01*
Y111763D01*
X1386863D01*
X1391942D01*
X1409716Y124458D02*
X1407177Y126997D01*
X1402099D01*
X1399559Y124458D01*
Y114302D01*
X1402099Y111763D01*
X1407177D01*
X1409716Y114302D01*
Y119380D01*
X1404638D01*
X1414794Y126997D02*
Y111763D01*
Y119380D01*
X1424951D01*
Y126997D01*
Y111763D01*
X1430029Y126997D02*
X1440186D01*
X1435108D01*
Y111763D01*
X1460500D02*
Y121919D01*
X1465578Y126997D01*
X1470656Y121919D01*
Y111763D01*
Y119380D01*
X1460500D01*
X1475735Y111763D02*
Y126997D01*
X1485891Y111763D01*
Y126997D01*
X1490970Y111763D02*
Y121919D01*
X1496048Y126997D01*
X1501127Y121919D01*
Y111763D01*
Y119380D01*
X1490970D01*
X1506205Y126997D02*
Y111763D01*
X1516362D01*
X1529057Y126997D02*
X1523979D01*
X1521440Y124458D01*
Y114302D01*
X1523979Y111763D01*
X1529057D01*
X1531597Y114302D01*
Y124458D01*
X1529057Y126997D01*
X1546832Y124458D02*
X1544292Y126997D01*
X1539214D01*
X1536675Y124458D01*
Y114302D01*
X1539214Y111763D01*
X1544292D01*
X1546832Y114302D01*
Y119380D01*
X1541753D01*
X434366Y126997D02*
Y111763D01*
X444523D01*
X459758Y126997D02*
X449601D01*
Y111763D01*
X459758D01*
X449601Y119380D02*
X454680D01*
X474993Y126997D02*
X464836D01*
Y119380D01*
X469915D01*
X464836D01*
Y111763D01*
X480071Y126997D02*
X490228D01*
X485150D01*
Y111763D01*
X510542D02*
Y121919D01*
X515620Y126997D01*
X520698Y121919D01*
Y111763D01*
Y119380D01*
X510542D01*
X525777Y111763D02*
Y126997D01*
X535933Y111763D01*
Y126997D01*
X541012Y111763D02*
Y121919D01*
X546090Y126997D01*
X551169Y121919D01*
Y111763D01*
Y119380D01*
X541012D01*
X556247Y126997D02*
Y111763D01*
X566404D01*
X579100Y126997D02*
X574021D01*
X571482Y124458D01*
Y114302D01*
X574021Y111763D01*
X579100D01*
X581639Y114302D01*
Y124458D01*
X579100Y126997D01*
X596874Y124458D02*
X594334Y126997D01*
X589256D01*
X586717Y124458D01*
Y114302D01*
X589256Y111763D01*
X594334D01*
X596874Y114302D01*
Y119380D01*
X591795D01*
X326260Y719959D02*
X323721Y722498D01*
X318642D01*
X316103Y719959D01*
Y709802D01*
X318642Y707263D01*
X323721D01*
X326260Y709802D01*
X341495Y722498D02*
X331338D01*
Y714881D01*
X336416Y717420D01*
X338956D01*
X341495Y714881D01*
Y709802D01*
X338956Y707263D01*
X333877D01*
X331338Y709802D01*
X1633090Y707259D02*
X1630551Y709798D01*
X1625472D01*
X1622933Y707259D01*
Y697102D01*
X1625472Y694563D01*
X1630551D01*
X1633090Y697102D01*
X1648325Y709798D02*
X1643246Y707259D01*
X1638168Y702180D01*
Y697102D01*
X1640707Y694563D01*
X1645786D01*
X1648325Y697102D01*
Y699641D01*
X1645786Y702180D01*
X1638168D01*
X1368891Y726878D02*
X1366351Y729417D01*
X1361273D01*
X1358734Y726878D01*
Y724339D01*
X1361273Y721800D01*
X1366351D01*
X1368891Y719261D01*
Y716722D01*
X1366351Y714182D01*
X1361273D01*
X1358734Y716722D01*
X1373969Y726878D02*
X1376508Y729417D01*
X1381586D01*
X1384126Y726878D01*
Y724339D01*
X1381586Y721800D01*
X1379047D01*
X1381586D01*
X1384126Y719261D01*
Y716722D01*
X1381586Y714182D01*
X1376508D01*
X1373969Y716722D01*
X585641Y725608D02*
X583102Y728148D01*
X578023D01*
X575484Y725608D01*
Y723069D01*
X578023Y720530D01*
X583102D01*
X585641Y717991D01*
Y715452D01*
X583102Y712913D01*
X578023D01*
X575484Y715452D01*
X600876Y712913D02*
X590719D01*
X600876Y723069D01*
Y725608D01*
X598337Y728148D01*
X593258D01*
X590719Y725608D01*
X316983Y303528D02*
X314444Y306068D01*
X309365D01*
X306826Y303528D01*
Y293372D01*
X309365Y290833D01*
X314444D01*
X316983Y293372D01*
X329679Y290833D02*
Y306068D01*
X322061Y298450D01*
X332218D01*
X1684773Y299718D02*
X1682234Y302257D01*
X1677155D01*
X1674616Y299718D01*
Y289562D01*
X1677155Y287022D01*
X1682234D01*
X1684773Y289562D01*
X1689851Y299718D02*
X1692390Y302257D01*
X1697469D01*
X1700008Y299718D01*
Y297179D01*
X1697469Y294640D01*
X1694930D01*
X1697469D01*
X1700008Y292101D01*
Y289562D01*
X1697469Y287022D01*
X1692390D01*
X1689851Y289562D01*
X595113Y568958D02*
X592574Y571497D01*
X587495D01*
X584956Y568958D01*
Y558802D01*
X587495Y556263D01*
X592574D01*
X595113Y558802D01*
X610348Y556263D02*
X600191D01*
X610348Y566419D01*
Y568958D01*
X607809Y571497D01*
X602730D01*
X600191Y568958D01*
X1372352Y567688D02*
X1369813Y570228D01*
X1364735D01*
X1362195Y567688D01*
Y557532D01*
X1364735Y554992D01*
X1369813D01*
X1372352Y557532D01*
X1377431Y554992D02*
X1382509D01*
X1379970D01*
Y570228D01*
X1377431Y567688D01*
X536541Y470810D02*
X534002Y473349D01*
X528924D01*
X526384Y470810D01*
Y468271D01*
X528924Y465732D01*
X534002D01*
X536541Y463193D01*
Y460653D01*
X534002Y458114D01*
X528924D01*
X526384Y460653D01*
X541619Y473349D02*
Y458114D01*
X546698Y463193D01*
X551776Y458114D01*
Y473349D01*
X556855Y458114D02*
X561933D01*
X559394D01*
Y473349D01*
X556855Y470810D01*
X422326Y589348D02*
X419786Y591887D01*
X414708D01*
X412169Y589348D01*
Y586809D01*
X414708Y584270D01*
X419786D01*
X422326Y581731D01*
Y579192D01*
X419786Y576652D01*
X414708D01*
X412169Y579192D01*
X427404Y591887D02*
Y576652D01*
X432482Y581731D01*
X437561Y576652D01*
Y591887D01*
X452796Y576652D02*
X442639D01*
X452796Y586809D01*
Y589348D01*
X450257Y591887D01*
X445178D01*
X442639Y589348D01*
X299205Y471168D02*
X296666Y473708D01*
X291588D01*
X289049Y471168D01*
Y468629D01*
X291588Y466090D01*
X296666D01*
X299205Y463551D01*
Y461012D01*
X296666Y458473D01*
X291588D01*
X289049Y461012D01*
X304284Y473708D02*
Y458473D01*
X309362Y463551D01*
X314440Y458473D01*
Y473708D01*
X319519Y471168D02*
X322058Y473708D01*
X327136D01*
X329675Y471168D01*
Y468629D01*
X327136Y466090D01*
X324597D01*
X327136D01*
X329675Y463551D01*
Y461012D01*
X327136Y458473D01*
X322058D01*
X319519Y461012D01*
X414417Y355445D02*
X411878Y357984D01*
X406800D01*
X404261Y355445D01*
Y352906D01*
X406800Y350366D01*
X411878D01*
X414417Y347827D01*
Y345288D01*
X411878Y342749D01*
X406800D01*
X404261Y345288D01*
X419496Y357984D02*
Y342749D01*
X424574Y347827D01*
X429652Y342749D01*
Y357984D01*
X442348Y342749D02*
Y357984D01*
X434731Y350366D01*
X444888D01*
X741688Y487677D02*
X731532D01*
Y472443D01*
X741688D01*
X731532Y480060D02*
X736610D01*
X756923Y485138D02*
X754384Y487677D01*
X749306D01*
X746767Y485138D01*
Y482599D01*
X749306Y480060D01*
X754384D01*
X756923Y477521D01*
Y474982D01*
X754384Y472443D01*
X749306D01*
X746767Y474982D01*
X762002Y472443D02*
Y487677D01*
X769619D01*
X772158Y485138D01*
Y480060D01*
X769619Y477521D01*
X762002D01*
X777237Y485138D02*
X779776Y487677D01*
X784854D01*
X787393Y485138D01*
Y482599D01*
X784854Y480060D01*
X782315D01*
X784854D01*
X787393Y477521D01*
Y474982D01*
X784854Y472443D01*
X779776D01*
X777237Y474982D01*
X802628Y472443D02*
X792472D01*
X802628Y482599D01*
Y485138D01*
X800089Y487677D01*
X795011D01*
X792472Y485138D01*
X1518047Y355445D02*
X1515508Y357984D01*
X1510430D01*
X1507891Y355445D01*
Y352906D01*
X1510430Y350366D01*
X1515508D01*
X1518047Y347827D01*
Y345288D01*
X1515508Y342749D01*
X1510430D01*
X1507891Y345288D01*
X1523126Y357984D02*
Y342749D01*
X1528204Y347827D01*
X1533282Y342749D01*
Y357984D01*
X1538361Y355445D02*
X1540900Y357984D01*
X1545978D01*
X1548518Y355445D01*
Y352906D01*
X1545978Y350366D01*
X1548518Y347827D01*
Y345288D01*
X1545978Y342749D01*
X1540900D01*
X1538361Y345288D01*
Y347827D01*
X1540900Y350366D01*
X1538361Y352906D01*
Y355445D01*
X1540900Y350366D02*
X1545978D01*
X1402835Y471168D02*
X1400296Y473708D01*
X1395218D01*
X1392679Y471168D01*
Y468629D01*
X1395218Y466090D01*
X1400296D01*
X1402835Y463551D01*
Y461012D01*
X1400296Y458473D01*
X1395218D01*
X1392679Y461012D01*
X1407914Y473708D02*
Y458473D01*
X1412992Y463551D01*
X1418071Y458473D01*
Y473708D01*
X1423149D02*
X1433306D01*
Y471168D01*
X1423149Y461012D01*
Y458473D01*
X1525956Y589348D02*
X1523416Y591887D01*
X1518338D01*
X1515799Y589348D01*
Y586809D01*
X1518338Y584270D01*
X1523416D01*
X1525956Y581731D01*
Y579192D01*
X1523416Y576652D01*
X1518338D01*
X1515799Y579192D01*
X1531034Y591887D02*
Y576652D01*
X1536112Y581731D01*
X1541191Y576652D01*
Y591887D01*
X1556426D02*
X1551347Y589348D01*
X1546269Y584270D01*
Y579192D01*
X1548808Y576652D01*
X1553887D01*
X1556426Y579192D01*
Y581731D01*
X1553887Y584270D01*
X1546269D01*
X1637632Y470810D02*
X1635093Y473349D01*
X1630014D01*
X1627475Y470810D01*
Y468271D01*
X1630014Y465732D01*
X1635093D01*
X1637632Y463193D01*
Y460653D01*
X1635093Y458114D01*
X1630014D01*
X1627475Y460653D01*
X1642710Y473349D02*
Y458114D01*
X1647789Y463193D01*
X1652867Y458114D01*
Y473349D01*
X1668102D02*
X1657945D01*
Y465732D01*
X1663024Y468271D01*
X1665563D01*
X1668102Y465732D01*
Y460653D01*
X1665563Y458114D01*
X1660485D01*
X1657945Y460653D01*
D13*
X725480Y500320D02*
X1234980D01*
X725480D02*
Y785420D01*
X1234980Y500320D02*
Y785420D01*
X725480D02*
X1234980D01*
Y674730D02*
Y785420D01*
Y607620D02*
Y674730D01*
Y500320D02*
Y607620D01*
X725480Y785420D02*
X1234980D01*
X725480Y500320D02*
X1234980D01*
X725480Y731720D02*
Y785420D01*
Y554820D02*
Y731720D01*
Y500320D02*
Y554820D01*
X994250Y49380D02*
Y100380D01*
X974250Y49380D02*
X994250D01*
X974250D02*
Y100380D01*
X1005250D02*
Y103380D01*
X963250D02*
X1005250D01*
X963250Y100380D02*
Y103380D01*
X991250Y131380D02*
Y138380D01*
X977250Y131380D02*
X991250D01*
X977250D02*
Y138380D01*
X934250Y100380D02*
Y138380D01*
Y100380D02*
X963250D01*
X974250D01*
X994250D01*
X1005250D01*
X1034250D01*
Y138380D01*
X991250D02*
X1034250D01*
X977250D02*
X991250D01*
X934250D02*
X977250D01*
X650500Y306060D02*
X656700D01*
Y369060D01*
X765700D01*
Y306060D02*
Y369060D01*
Y306060D02*
X772000D01*
X790700Y267060D02*
X806200D01*
Y186060D02*
Y267060D01*
X790700Y186060D02*
X806200D01*
X790700Y174860D02*
Y186060D01*
X759700Y147060D02*
X772000D01*
X759700Y115060D02*
Y147060D01*
X662700Y115060D02*
Y147060D01*
X650500D02*
X662700D01*
X631700Y174360D02*
Y177060D01*
X600200D02*
X631700D01*
X600200D02*
Y275060D01*
X631700D01*
X1188980Y306060D02*
X1195180D01*
Y369060D01*
X1304180D01*
Y306060D02*
Y369060D01*
Y306060D02*
X1310480D01*
X1329180Y267060D02*
X1344680D01*
Y186060D02*
Y267060D01*
X1329180Y186060D02*
X1344680D01*
X1329180Y174860D02*
Y186060D01*
X1298180Y147060D02*
X1310480D01*
X1298180Y115060D02*
Y147060D01*
X1201180Y115060D02*
Y147060D01*
X1188980D02*
X1201180D01*
X1170180Y174360D02*
Y177060D01*
X1138680D02*
X1170180D01*
X1138680D02*
Y275060D01*
X1170180D01*
X1479940Y816580D02*
X1528940D01*
X1446940D02*
X1479940D01*
X1397940D02*
X1446940D01*
X1397940Y711280D02*
Y816580D01*
Y711280D02*
X1528940D01*
Y816580D01*
X513940D02*
X562940D01*
X480940D02*
X513940D01*
X431940D02*
X480940D01*
X431940Y711280D02*
Y816580D01*
Y711280D02*
X562940D01*
Y816580D01*
M02*
