G04*
G04 #@! TF.GenerationSoftware,Altium Limited,Altium Designer,23.7.1 (13)*
G04*
G04 Layer_Color=8388736*
%FSLAX44Y44*%
%MOMM*%
G71*
G04*
G04 #@! TF.SameCoordinates,F0151953-7860-4C4B-BC48-228A45E59CF9*
G04*
G04*
G04 #@! TF.FilePolarity,Negative*
G04*
G01*
G75*
%ADD14R,2.2032X2.2032*%
%ADD15C,2.2032*%
%ADD16C,3.2032*%
%ADD17C,4.3942*%
%ADD18C,1.9812*%
%ADD19C,1.5032*%
%ADD20C,2.4532*%
%ADD21P,2.6163X4X90.0*%
%ADD22C,1.8500*%
%ADD23C,1.8000*%
%ADD24C,1.6256*%
%ADD25C,1.7112*%
%ADD26C,1.7272*%
%ADD27C,2.3876*%
%ADD28R,1.8500X1.8500*%
%ADD29C,3.7192*%
%ADD30R,1.7112X1.7112*%
%ADD31P,2.1258X4X180.0*%
%ADD32R,1.5032X1.5032*%
%ADD33C,2.4892*%
%ADD34R,2.4532X2.4532*%
%ADD35R,1.7032X1.7032*%
%ADD36C,1.7032*%
%ADD37P,2.1258X4X270.0*%
%ADD38C,1.4732*%
D14*
X1135380Y769620D02*
D03*
D15*
X1109980D02*
D03*
X1084580D02*
D03*
X1059180D02*
D03*
X1033780D02*
D03*
X1008380D02*
D03*
X982980D02*
D03*
X957580D02*
D03*
X932180D02*
D03*
X906780D02*
D03*
X881380D02*
D03*
X855980D02*
D03*
X830580D02*
D03*
X805180D02*
D03*
X779780D02*
D03*
X1135380Y515620D02*
D03*
X1109980D02*
D03*
X1084580D02*
D03*
X1059180D02*
D03*
X1033780D02*
D03*
X1008380D02*
D03*
X982980D02*
D03*
X957580D02*
D03*
X932180D02*
D03*
X906780D02*
D03*
X881380D02*
D03*
X855980D02*
D03*
X830580D02*
D03*
X805180D02*
D03*
X779780D02*
D03*
D16*
X745480Y765420D02*
D03*
Y520320D02*
D03*
X1214980D02*
D03*
Y765420D02*
D03*
D17*
X274320Y619760D02*
D03*
X1687830Y621030D02*
D03*
X378460Y176530D02*
D03*
X1583690D02*
D03*
D18*
X679450Y353060D02*
D03*
X1217930D02*
D03*
X1249680Y124460D02*
D03*
X1148080Y226060D02*
D03*
X609600D02*
D03*
X711200Y124460D02*
D03*
X742950Y353060D02*
D03*
X679450Y302260D02*
D03*
X742950D02*
D03*
X685800Y124460D02*
D03*
X736600D02*
D03*
X609600Y251460D02*
D03*
Y200660D02*
D03*
X1281430Y353060D02*
D03*
X1217930Y302260D02*
D03*
X1281430D02*
D03*
X1224280Y124460D02*
D03*
X1275080D02*
D03*
X1148080Y251460D02*
D03*
Y200660D02*
D03*
D19*
X346710Y685800D02*
D03*
X1653540Y673100D02*
D03*
X286412Y349340D02*
D03*
X572252Y591820D02*
D03*
X1411940Y752280D02*
D03*
X1514940D02*
D03*
X445940D02*
D03*
X548940D02*
D03*
X404960D02*
D03*
X301960D02*
D03*
X1658920D02*
D03*
X1555920D02*
D03*
X1649122Y321220D02*
D03*
X1413082Y602070D02*
D03*
D20*
X1582420Y779780D02*
D03*
X328460D02*
D03*
X522440D02*
D03*
X1488440D02*
D03*
D21*
X484981Y439573D02*
D03*
X366870Y321464D02*
D03*
Y557684D02*
D03*
X1470500Y321464D02*
D03*
Y557684D02*
D03*
X1352390Y439573D02*
D03*
X1588611D02*
D03*
X248761D02*
D03*
D22*
X573369Y527962D02*
D03*
X520336Y404218D02*
D03*
X608724Y492607D02*
D03*
X1006710Y446040D02*
D03*
Y321040D02*
D03*
X956710Y446040D02*
D03*
X402226Y286108D02*
D03*
X455258Y409852D02*
D03*
X490614Y374497D02*
D03*
X490614Y610717D02*
D03*
X402226Y522328D02*
D03*
X455258Y646072D02*
D03*
X1558888Y409852D02*
D03*
X1505856Y286108D02*
D03*
X1594244Y374497D02*
D03*
X1558888Y646072D02*
D03*
X1505856Y522328D02*
D03*
X1594244Y610717D02*
D03*
X1440779Y527962D02*
D03*
X1387746Y404218D02*
D03*
X1476134Y492607D02*
D03*
X1676999Y527962D02*
D03*
X1623966Y404218D02*
D03*
X1712354Y492607D02*
D03*
X372504D02*
D03*
X284116Y404218D02*
D03*
X337149Y527962D02*
D03*
D23*
X515033Y497910D02*
D03*
X578672Y434270D02*
D03*
X1026710Y383540D02*
D03*
X936710D02*
D03*
X460562Y316160D02*
D03*
X396922Y379800D02*
D03*
X460562Y552380D02*
D03*
X396922Y616020D02*
D03*
X1500552Y379800D02*
D03*
X1564192Y316160D02*
D03*
X1500552Y616020D02*
D03*
X1564192Y552380D02*
D03*
X1382443Y497910D02*
D03*
X1446082Y434270D02*
D03*
X1618663Y497910D02*
D03*
X1682302Y434270D02*
D03*
X342452D02*
D03*
X278813Y497910D02*
D03*
D24*
X984250Y119380D02*
D03*
X964250D02*
D03*
X1003250D02*
D03*
D25*
X878840Y294640D02*
D03*
Y396240D02*
D03*
Y370840D02*
D03*
Y345440D02*
D03*
Y320040D02*
D03*
Y269240D02*
D03*
Y243840D02*
D03*
D26*
X1275080Y770890D02*
D03*
X1300480D02*
D03*
X1141730Y458470D02*
D03*
X1167130D02*
D03*
D27*
X943250Y119380D02*
D03*
X1026250D02*
D03*
D28*
X956710Y321040D02*
D03*
D29*
X891540Y115570D02*
D03*
X1069340D02*
D03*
D30*
X878840Y218440D02*
D03*
D31*
X304372Y331380D02*
D03*
X554291Y609780D02*
D03*
D32*
X321310Y685800D02*
D03*
X1628140Y673100D02*
D03*
D33*
X635000Y292735D02*
D03*
Y159385D02*
D03*
X787400D02*
D03*
Y292735D02*
D03*
X1173480D02*
D03*
Y159385D02*
D03*
X1325880D02*
D03*
Y292735D02*
D03*
D34*
X1438440Y779780D02*
D03*
X472440D02*
D03*
X378460D02*
D03*
X1632420D02*
D03*
D35*
X611390Y665120D02*
D03*
X1287030D02*
D03*
D36*
X676390D02*
D03*
Y620120D02*
D03*
X611390D02*
D03*
X1352030Y665120D02*
D03*
Y620120D02*
D03*
X1287030D02*
D03*
D37*
X1667082Y339180D02*
D03*
X1395122Y584110D02*
D03*
D38*
X1701800Y457200D02*
D03*
X1167892Y700278D02*
D03*
M02*
