G04*
G04 #@! TF.GenerationSoftware,Altium Limited,Altium Designer,23.7.1 (13)*
G04*
G04 Layer_Color=128*
%FSLAX44Y44*%
%MOMM*%
G71*
G04*
G04 #@! TF.SameCoordinates,53C910CC-7849-4C62-84ED-885E7FD34011*
G04*
G04*
G04 #@! TF.FilePolarity,Positive*
G04*
G01*
G75*
%ADD13C,0.1270*%
D13*
X1130280Y769620D02*
X1140480D01*
X1135380Y764520D02*
Y774720D01*
X1104880Y769620D02*
X1115080D01*
X1109980Y764520D02*
Y774720D01*
X1079480Y769620D02*
X1089680D01*
X1084580Y764520D02*
Y774720D01*
X1054080Y769620D02*
X1064280D01*
X1059180Y764520D02*
Y774720D01*
X1028680Y769620D02*
X1038880D01*
X1033780Y764520D02*
Y774720D01*
X1003280Y769620D02*
X1013480D01*
X1008380Y764520D02*
Y774720D01*
X977880Y769620D02*
X988080D01*
X982980Y764520D02*
Y774720D01*
X952480Y769620D02*
X962680D01*
X957580Y764520D02*
Y774720D01*
X927080Y769620D02*
X937280D01*
X932180Y764520D02*
Y774720D01*
X901680Y769620D02*
X911880D01*
X906780Y764520D02*
Y774720D01*
X876280Y769620D02*
X886480D01*
X881380Y764520D02*
Y774720D01*
X850880Y769620D02*
X861080D01*
X855980Y764520D02*
Y774720D01*
X825480Y769620D02*
X835680D01*
X830580Y764520D02*
Y774720D01*
X800080Y769620D02*
X810280D01*
X805180Y764520D02*
Y774720D01*
X774680Y769620D02*
X784880D01*
X779780Y764520D02*
Y774720D01*
X1130280Y515620D02*
X1140480D01*
X1135380Y510520D02*
Y520720D01*
X1104880Y515620D02*
X1115080D01*
X1109980Y510520D02*
Y520720D01*
X1079480Y515620D02*
X1089680D01*
X1084580Y510520D02*
Y520720D01*
X1054080Y515620D02*
X1064280D01*
X1059180Y510520D02*
Y520720D01*
X1028680Y515620D02*
X1038880D01*
X1033780Y510520D02*
Y520720D01*
X1003280Y515620D02*
X1013480D01*
X1008380Y510520D02*
Y520720D01*
X977880Y515620D02*
X988080D01*
X982980Y510520D02*
Y520720D01*
X952480Y515620D02*
X962680D01*
X957580Y510520D02*
Y520720D01*
X927080Y515620D02*
X937280D01*
X932180Y510520D02*
Y520720D01*
X901680Y515620D02*
X911880D01*
X906780Y510520D02*
Y520720D01*
X876280Y515620D02*
X886480D01*
X881380Y510520D02*
Y520720D01*
X850880Y515620D02*
X861080D01*
X855980Y510520D02*
Y520720D01*
X825480Y515620D02*
X835680D01*
X830580Y510520D02*
Y520720D01*
X800080Y515620D02*
X810280D01*
X805180Y510520D02*
Y520720D01*
X774680Y515620D02*
X784880D01*
X779780Y510520D02*
Y520720D01*
X730480Y765420D02*
X760480D01*
X745480Y750420D02*
Y780420D01*
X730480Y520320D02*
X760480D01*
X745480Y505320D02*
Y535320D01*
X1199980Y520320D02*
X1229980D01*
X1214980Y505320D02*
Y535320D01*
X1199980Y765420D02*
X1229980D01*
X1214980Y750420D02*
Y780420D01*
X259320Y619760D02*
X289320D01*
X274320Y604760D02*
Y634760D01*
X1672830Y621030D02*
X1702830D01*
X1687830Y606030D02*
Y636030D01*
X363460Y176530D02*
X393460D01*
X378460Y161530D02*
Y191530D01*
X1568690Y176530D02*
X1598690D01*
X1583690Y161530D02*
Y191530D01*
X674950Y353060D02*
X683950D01*
X679450Y348560D02*
Y357560D01*
X1213430Y353060D02*
X1222430D01*
X1217930Y348560D02*
Y357560D01*
X1245235Y124460D02*
X1254125D01*
X1249680Y120015D02*
Y128905D01*
X1143635Y226060D02*
X1152525D01*
X1148080Y221615D02*
Y230505D01*
X605155Y226060D02*
X614045D01*
X609600Y221615D02*
Y230505D01*
X706755Y124460D02*
X715645D01*
X711200Y120015D02*
Y128905D01*
X342710Y685800D02*
X350710D01*
X346710Y681800D02*
Y689800D01*
X1574920Y779780D02*
X1589920D01*
X1582420Y772280D02*
Y787280D01*
X320960Y779780D02*
X335960D01*
X328460Y772280D02*
Y787280D01*
X1649540Y673100D02*
X1657540D01*
X1653540Y669100D02*
Y677100D01*
X514940Y779780D02*
X529940D01*
X522440Y772280D02*
Y787280D01*
X1480940Y779780D02*
X1495940D01*
X1488440Y772280D02*
Y787280D01*
X478980Y439573D02*
X490980D01*
X484981Y433573D02*
Y445573D01*
X567369Y527962D02*
X579369D01*
X573369Y521962D02*
Y533962D01*
X514336Y404218D02*
X526336D01*
X520336Y398218D02*
Y410218D01*
X602724Y492607D02*
X614724D01*
X608724Y486607D02*
Y498607D01*
X506033Y497910D02*
X524033D01*
X515033Y488910D02*
Y506910D01*
X569672Y434270D02*
X587672D01*
X578672Y425270D02*
Y443270D01*
X980250Y119380D02*
X988250D01*
X984250Y115380D02*
Y123380D01*
X873840Y294640D02*
X883840D01*
X878840Y289640D02*
Y299640D01*
X960250Y119380D02*
X968250D01*
X964250Y115380D02*
Y123380D01*
X1270635Y770890D02*
X1279525D01*
X1275080Y766445D02*
Y775335D01*
X1296035Y770890D02*
X1304925D01*
X1300480Y766445D02*
Y775335D01*
X999250Y119380D02*
X1007250D01*
X1003250Y115380D02*
Y123380D01*
X935750Y119380D02*
X950750D01*
X943250Y111880D02*
Y126880D01*
X1018750Y119380D02*
X1033750D01*
X1026250Y111880D02*
Y126880D01*
X1137285Y458470D02*
X1146175D01*
X1141730Y454025D02*
Y462915D01*
X1162685Y458470D02*
X1171575D01*
X1167130Y454025D02*
Y462915D01*
X1017710Y383540D02*
X1035710D01*
X1026710Y374540D02*
Y392540D01*
X927710Y383540D02*
X945710D01*
X936710Y374540D02*
Y392540D01*
X1000710Y446040D02*
X1012710D01*
X1006710Y440040D02*
Y452040D01*
X1000710Y321040D02*
X1012710D01*
X1006710Y315040D02*
Y327040D01*
X950710Y446040D02*
X962710D01*
X956710Y440040D02*
Y452040D01*
X950710Y321040D02*
X962710D01*
X956710Y315040D02*
Y327040D01*
X879040Y115570D02*
X904040D01*
X891540Y103070D02*
Y128070D01*
X1056840Y115570D02*
X1081840D01*
X1069340Y103070D02*
Y128070D01*
X873840Y396240D02*
X883840D01*
X878840Y391240D02*
Y401240D01*
X873840Y370840D02*
X883840D01*
X878840Y365840D02*
Y375840D01*
X873840Y345440D02*
X883840D01*
X878840Y340440D02*
Y350440D01*
X873840Y320040D02*
X883840D01*
X878840Y315040D02*
Y325040D01*
X873840Y269240D02*
X883840D01*
X878840Y264240D02*
Y274240D01*
X873840Y243840D02*
X883840D01*
X878840Y238840D02*
Y248840D01*
X873840Y218440D02*
X883840D01*
X878840Y213440D02*
Y223440D01*
X300372Y331380D02*
X308372D01*
X304372Y327380D02*
Y335380D01*
X282412Y349340D02*
X290412D01*
X286412Y345340D02*
Y353340D01*
X550291Y609780D02*
X558292D01*
X554291Y605780D02*
Y613780D01*
X568252Y591820D02*
X576252D01*
X572252Y587820D02*
Y595820D01*
X317310Y685800D02*
X325310D01*
X321310Y681800D02*
Y689800D01*
X1624140Y673100D02*
X1632140D01*
X1628140Y669100D02*
Y677100D01*
X396226Y286108D02*
X408226D01*
X402226Y280108D02*
Y292108D01*
X449258Y409852D02*
X461258D01*
X455258Y403852D02*
Y415852D01*
X451562Y316160D02*
X469562D01*
X460562Y307160D02*
Y325160D01*
X387922Y379800D02*
X405922D01*
X396922Y370800D02*
Y388800D01*
X484614Y374497D02*
X496614D01*
X490614Y368497D02*
Y380497D01*
X360871Y321464D02*
X372870D01*
X366870Y315464D02*
Y327464D01*
X451562Y552380D02*
X469562D01*
X460562Y543380D02*
Y561380D01*
X387922Y616020D02*
X405922D01*
X396922Y607020D02*
Y625020D01*
X484614Y610717D02*
X496614D01*
X490614Y604717D02*
Y616717D01*
X396226Y522328D02*
X408226D01*
X402226Y516328D02*
Y528328D01*
X449258Y646072D02*
X461258D01*
X455258Y640072D02*
Y652072D01*
X360871Y557684D02*
X372870D01*
X366870Y551684D02*
Y563684D01*
X1464500Y321464D02*
X1476501D01*
X1470500Y315464D02*
Y327464D01*
X1552888Y409852D02*
X1564888D01*
X1558888Y403852D02*
Y415852D01*
X1499856Y286108D02*
X1511856D01*
X1505856Y280108D02*
Y292108D01*
X1588244Y374497D02*
X1600244D01*
X1594244Y368497D02*
Y380497D01*
X1491552Y379800D02*
X1509552D01*
X1500552Y370800D02*
Y388800D01*
X1555192Y316160D02*
X1573192D01*
X1564192Y307160D02*
Y325160D01*
X738450Y353060D02*
X747450D01*
X742950Y348560D02*
Y357560D01*
X674950Y302260D02*
X683950D01*
X679450Y297760D02*
Y306760D01*
X738450Y302260D02*
X747450D01*
X742950Y297760D02*
Y306760D01*
X681355Y124460D02*
X690245D01*
X685800Y120015D02*
Y128905D01*
X732155Y124460D02*
X741045D01*
X736600Y120015D02*
Y128905D01*
X628015Y292735D02*
X641985D01*
X635000Y285750D02*
Y299720D01*
X628015Y159385D02*
X641985D01*
X635000Y152400D02*
Y166370D01*
X780415Y159385D02*
X794385D01*
X787400Y152400D02*
Y166370D01*
X780415Y292735D02*
X794385D01*
X787400Y285750D02*
Y299720D01*
X605155Y251460D02*
X614045D01*
X609600Y247015D02*
Y255905D01*
X605155Y200660D02*
X614045D01*
X609600Y196215D02*
Y205105D01*
X1276930Y353060D02*
X1285930D01*
X1281430Y348560D02*
Y357560D01*
X1213430Y302260D02*
X1222430D01*
X1217930Y297760D02*
Y306760D01*
X1276930Y302260D02*
X1285930D01*
X1281430Y297760D02*
Y306760D01*
X1219835Y124460D02*
X1228725D01*
X1224280Y120015D02*
Y128905D01*
X1270635Y124460D02*
X1279525D01*
X1275080Y120015D02*
Y128905D01*
X1166495Y292735D02*
X1180465D01*
X1173480Y285750D02*
Y299720D01*
X1166495Y159385D02*
X1180465D01*
X1173480Y152400D02*
Y166370D01*
X1318895Y159385D02*
X1332865D01*
X1325880Y152400D02*
Y166370D01*
X1318895Y292735D02*
X1332865D01*
X1325880Y285750D02*
Y299720D01*
X1143635Y251460D02*
X1152525D01*
X1148080Y247015D02*
Y255905D01*
X1143635Y200660D02*
X1152525D01*
X1148080Y196215D02*
Y205105D01*
X1464500Y557684D02*
X1476501D01*
X1470500Y551684D02*
Y563684D01*
X1552888Y646072D02*
X1564888D01*
X1558888Y640072D02*
Y652072D01*
X1499856Y522328D02*
X1511856D01*
X1505856Y516328D02*
Y528328D01*
X1588244Y610717D02*
X1600244D01*
X1594244Y604717D02*
Y616717D01*
X1491552Y616020D02*
X1509552D01*
X1500552Y607020D02*
Y625020D01*
X1555192Y552380D02*
X1573192D01*
X1564192Y543380D02*
Y561380D01*
X1346391Y439573D02*
X1358391D01*
X1352390Y433573D02*
Y445573D01*
X1434779Y527962D02*
X1446779D01*
X1440779Y521962D02*
Y533962D01*
X1381746Y404218D02*
X1393746D01*
X1387746Y398218D02*
Y410218D01*
X1470134Y492607D02*
X1482134D01*
X1476134Y486607D02*
Y498607D01*
X1373443Y497910D02*
X1391443D01*
X1382443Y488910D02*
Y506910D01*
X1437082Y434270D02*
X1455082D01*
X1446082Y425270D02*
Y443270D01*
X1582610Y439573D02*
X1594610D01*
X1588611Y433573D02*
Y445573D01*
X1670999Y527962D02*
X1682999D01*
X1676999Y521962D02*
Y533962D01*
X1617966Y404218D02*
X1629966D01*
X1623966Y398218D02*
Y410218D01*
X1706354Y492607D02*
X1718354D01*
X1712354Y486607D02*
Y498607D01*
X1609663Y497910D02*
X1627663D01*
X1618663Y488910D02*
Y506910D01*
X1673302Y434270D02*
X1691302D01*
X1682302Y425270D02*
Y443270D01*
X1405440Y752280D02*
X1418440D01*
X1411940Y745780D02*
Y758780D01*
X1508440Y752280D02*
X1521440D01*
X1514940Y745780D02*
Y758780D01*
X1430940Y779780D02*
X1445940D01*
X1438440Y772280D02*
Y787280D01*
X439440Y752280D02*
X452440D01*
X445940Y745780D02*
Y758780D01*
X542440Y752280D02*
X555440D01*
X548940Y745780D02*
Y758780D01*
X464940Y779780D02*
X479940D01*
X472440Y772280D02*
Y787280D01*
X398460Y752280D02*
X411460D01*
X404960Y745780D02*
Y758780D01*
X295460Y752280D02*
X308460D01*
X301960Y745780D02*
Y758780D01*
X370960Y779780D02*
X385960D01*
X378460Y772280D02*
Y787280D01*
X1652420Y752280D02*
X1665420D01*
X1658920Y745780D02*
Y758780D01*
X1549420Y752280D02*
X1562420D01*
X1555920Y745780D02*
Y758780D01*
X1624920Y779780D02*
X1639920D01*
X1632420Y772280D02*
Y787280D01*
X606390Y665120D02*
X616390D01*
X611390Y660120D02*
Y670120D01*
X671390Y665120D02*
X681390D01*
X676390Y660120D02*
Y670120D01*
X671390Y620120D02*
X681390D01*
X676390Y615120D02*
Y625120D01*
X606390Y620120D02*
X616390D01*
X611390Y615120D02*
Y625120D01*
X1282030Y665120D02*
X1292030D01*
X1287030Y660120D02*
Y670120D01*
X1347030Y665120D02*
X1357030D01*
X1352030Y660120D02*
Y670120D01*
X1347030Y620120D02*
X1357030D01*
X1352030Y615120D02*
Y625120D01*
X1282030Y620120D02*
X1292030D01*
X1287030Y615120D02*
Y625120D01*
X333452Y434270D02*
X351452D01*
X342452Y425270D02*
Y443270D01*
X269813Y497910D02*
X287813D01*
X278813Y488910D02*
Y506910D01*
X366504Y492607D02*
X378504D01*
X372504Y486607D02*
Y498607D01*
X278116Y404218D02*
X290116D01*
X284116Y398218D02*
Y410218D01*
X331149Y527962D02*
X343149D01*
X337149Y521962D02*
Y533962D01*
X242761Y439573D02*
X254760D01*
X248761Y433573D02*
Y445573D01*
X1663082Y339180D02*
X1671082D01*
X1667082Y335180D02*
Y343180D01*
X1645122Y321220D02*
X1653122D01*
X1649122Y317220D02*
Y325220D01*
X1391122Y584110D02*
X1399122D01*
X1395122Y580110D02*
Y588110D01*
X1409082Y602070D02*
X1417082D01*
X1413082Y598070D02*
Y606070D01*
X1698244Y457200D02*
X1705356D01*
X1701800Y453644D02*
Y460756D01*
X1164336Y700278D02*
X1171448D01*
X1167892Y696722D02*
Y703834D01*
M02*
