M48
;Layer_Color=9474304
;FILE_FORMAT=4:4
METRIC,LZ
;TYPE=PLATED
T01F00S00C0.7112
T02F00S00C0.8000
T03F00S00C0.8890
T04F00S00C0.9000
T05F00S00C1.0000
T06F00S00C1.0200
T07F00S00C1.2000
T08F00S00C1.3970
T09F00S00C1.5000
T10F00S00C2.5000
T11F00S00C3.0000
;TYPE=NON_PLATED
T12F00S00C1.3000
T13F00S00C1.8000
T14F00S00C3.0000
%
T01
X017018Y004572
X01167892Y00700278
T02
X00304372Y0033138
X00286412Y0034934
X0096425Y0011938
X0098425
X0100325
X01649122Y0032122
X01667082Y0033918
X0165354Y006731
X0162814
X01413082Y0060207
X01395122Y0058411
X00572252Y0059182
X00554291Y0060978
X0034671Y006858
X0032131
T03
X006858Y0012446
X007112
X007366
X006096Y0020066
Y0022606
Y0025146
X0114808
Y0022606
Y0020066
X0122428Y0012446
X0124968
X0127508
Y0077089
X0130048
X0116713Y0045847
X0114173
T04
X0067945Y0030226
Y0035306
X0074295
Y0030226
X0121793
Y0035306
X0128143
Y0030226
T05
X0087884Y0021844
Y0024384
Y0026924
Y0029464
Y0032004
Y0034544
Y0037084
Y0039624
X0128703Y0062012
Y0066512
X0135203
Y0062012
X0067639
Y0066512
X0061139
Y0062012
T06
X0080518Y0051562
X0083058
X0085598
X0088138
X0090678
X0093218
X0095758
X0098298
X0100838
X0103378
X0105918
X0108458
X0110998
X0113538
Y0076962
X0110998
X0108458
X0105918
X0103378
X0100838
X0098298
X0095758
X0093218
X0090678
X0088138
X0085598
X0083058
X0080518
X0077978
Y0051562
T07
X0036687Y00321464
X00402226Y00286108
X00490614Y00374497
X0095671Y0032104
X0100671
X014705Y00321464
X01505856Y00286108
X01594244Y00374497
X01623966Y00404218
X01588611Y00439573
X01594244Y00610717
X01676999Y00527962
X01712354Y00492607
X01476134
X01505856Y00522328
X01440779Y00527962
X014705Y00557684
X01558888Y00646072
Y00409852
X01387746Y00404218
X0135239Y00439573
X0100671Y0044604
X0095671
X00608724Y00492607
X00573369Y00527962
X00490614Y00610717
X00455258Y00646072
X00402226Y00522328
X00455258Y00409852
X00484981Y00439573
X00520336Y00404218
X00372504Y00492607
X00337149Y00527962
X0036687Y00557684
X00248761Y00439573
X00284116Y00404218
T08
X00635Y00159385
Y00292735
X007874
Y00159385
X0117348
Y00292735
X0132588
Y00159385
T09
X0094325Y0011938
X0102625
X0163242Y0077978
X0158242
X0148844
X0143844
X0052244
X0047244
X0037846
X0032846
T10
X0089154Y0011557
X0106934
T11
X0037846Y0017653
X0158369
X0168783Y0062103
X0027432Y0061976
T12
X0165892Y0075228
X0155592
X0151494
X0141194
X0054894
X0044594
X0040496
X0030196
T13
X00460562Y0031616
X00396922Y003798
X0093671Y0038354
X0102671
X01500552Y003798
X01564192Y0031616
X01618663Y0049791
X01682302Y0043427
X01564192Y0055238
X01500552Y0061602
X01382443Y0049791
X01446082Y0043427
X00578672
X00515033Y0049791
X00460562Y0055238
X00396922Y0061602
X00342452Y0043427
X00278813Y0049791
T14
X0121498Y0052032
Y0076542
X0074548
Y0052032
M30
