G04*
G04 #@! TF.GenerationSoftware,Altium Limited,Altium Designer,23.7.1 (13)*
G04*
G04 Layer_Color=16711935*
%FSLAX44Y44*%
%MOMM*%
G71*
G04*
G04 #@! TF.SameCoordinates,53C910CC-7849-4C62-84ED-885E7FD34011*
G04*
G04*
G04 #@! TF.FilePolarity,Positive*
G04*
G01*
G75*
%ADD10C,0.2000*%
G36*
X559041Y478432D02*
X558484Y477875D01*
X554940Y481418D01*
Y481413D01*
Y481401D01*
X554938Y481380D01*
Y481351D01*
X554935Y481312D01*
X554932Y481268D01*
X554926Y481215D01*
X554920Y481156D01*
X554914Y481091D01*
X554902Y481021D01*
X554893Y480947D01*
X554879Y480868D01*
X554864Y480782D01*
X554846Y480694D01*
X554823Y480600D01*
X554799Y480505D01*
Y480499D01*
X554793Y480482D01*
X554784Y480455D01*
X554776Y480417D01*
X554764Y480376D01*
X554746Y480323D01*
X554731Y480267D01*
X554711Y480205D01*
X554690Y480137D01*
X554667Y480066D01*
X554613Y479919D01*
X554561Y479772D01*
X554499Y479633D01*
X553963Y480169D01*
X553965Y480178D01*
X553974Y480199D01*
X553983Y480237D01*
X554004Y480287D01*
X554021Y480352D01*
X554045Y480423D01*
X554069Y480505D01*
X554089Y480597D01*
X554116Y480694D01*
X554142Y480803D01*
X554163Y480912D01*
X554186Y481030D01*
X554222Y481271D01*
X554245Y481519D01*
Y481524D01*
Y481548D01*
X554248Y481580D01*
Y481628D01*
Y481686D01*
Y481751D01*
X554251Y481825D01*
X554248Y481904D01*
X554240Y481990D01*
X554234Y482078D01*
X554216Y482261D01*
X554201Y482352D01*
X554184Y482446D01*
X554163Y482532D01*
X554136Y482617D01*
X554496Y482977D01*
X559041Y478432D01*
D02*
G37*
G36*
X555370Y474762D02*
X554793Y474184D01*
X550390Y476679D01*
X550384Y476685D01*
X550366Y476691D01*
X550337Y476708D01*
X550301Y476732D01*
X550257Y476753D01*
X550210Y476782D01*
X550154Y476814D01*
X550098Y476847D01*
X549980Y476912D01*
X549924Y476944D01*
X549871Y476974D01*
X549824Y477003D01*
X549780Y477030D01*
X549745Y477053D01*
X549718Y477068D01*
X549721Y477065D01*
X549730Y477050D01*
X549742Y477033D01*
X549759Y477003D01*
X549780Y476971D01*
X549801Y476932D01*
X549830Y476891D01*
X549856Y476841D01*
X549918Y476738D01*
X549986Y476629D01*
X550054Y476514D01*
X550116Y476405D01*
X552602Y471993D01*
X551992Y471383D01*
X546263Y474709D01*
X546876Y475321D01*
X550534Y473041D01*
X550540Y473035D01*
X550560Y473027D01*
X550593Y473006D01*
X550631Y472979D01*
X550684Y472950D01*
X550743Y472909D01*
X550814Y472868D01*
X550887Y472817D01*
X550970Y472764D01*
X551061Y472709D01*
X551152Y472647D01*
X551247Y472582D01*
X551447Y472446D01*
X551650Y472308D01*
X551647Y472311D01*
X551644Y472320D01*
X551636Y472328D01*
X551627Y472349D01*
X551615Y472367D01*
X551600Y472393D01*
X551562Y472449D01*
X551521Y472520D01*
X551471Y472599D01*
X551421Y472685D01*
X551365Y472776D01*
X551256Y472956D01*
X551203Y473044D01*
X551150Y473127D01*
X551105Y473200D01*
X551070Y473265D01*
X551055Y473292D01*
X551038Y473315D01*
X551029Y473336D01*
X551020Y473351D01*
X548823Y477268D01*
X549547Y477993D01*
X552487Y476349D01*
X552490Y476346D01*
X552499Y476343D01*
X552513Y476334D01*
X552537Y476323D01*
X552563Y476308D01*
X552593Y476290D01*
X552631Y476270D01*
X552672Y476246D01*
X552719Y476217D01*
X552767Y476187D01*
X552823Y476155D01*
X552879Y476122D01*
X553005Y476049D01*
X553144Y475963D01*
X553291Y475875D01*
X553447Y475778D01*
X553606Y475672D01*
X553774Y475563D01*
X553942Y475454D01*
X554113Y475336D01*
X554278Y475218D01*
X554440Y475097D01*
X554434Y475103D01*
X554422Y475121D01*
X554404Y475150D01*
X554378Y475189D01*
X554348Y475236D01*
X554310Y475298D01*
X554266Y475365D01*
X554219Y475442D01*
X554163Y475527D01*
X554107Y475619D01*
X554042Y475719D01*
X553977Y475825D01*
X553907Y475937D01*
X553836Y476055D01*
X553759Y476178D01*
X553683Y476308D01*
X551482Y479928D01*
X552086Y480532D01*
X555370Y474762D01*
D02*
G37*
G36*
X545859Y473404D02*
X545960Y473392D01*
X546057Y473377D01*
X546063D01*
X546080Y473371D01*
X546110Y473365D01*
X546145Y473354D01*
X546192Y473342D01*
X546245Y473324D01*
X546304Y473301D01*
X546369Y473277D01*
X546440Y473247D01*
X546516Y473212D01*
X546593Y473171D01*
X546672Y473127D01*
X546755Y473074D01*
X546834Y473018D01*
X546914Y472956D01*
X546993Y472888D01*
X546463Y472270D01*
X546457Y472276D01*
X546443Y472284D01*
X546416Y472305D01*
X546381Y472328D01*
X546339Y472358D01*
X546287Y472387D01*
X546228Y472423D01*
X546166Y472455D01*
X546092Y472487D01*
X546018Y472520D01*
X545939Y472547D01*
X545857Y472570D01*
X545771Y472591D01*
X545683Y472602D01*
X545591Y472605D01*
X545500Y472602D01*
X545494D01*
X545480Y472599D01*
X545453Y472597D01*
X545415Y472588D01*
X545373Y472576D01*
X545317Y472561D01*
X545258Y472543D01*
X545191Y472517D01*
X545117Y472485D01*
X545041Y472443D01*
X544955Y472399D01*
X544870Y472343D01*
X544778Y472281D01*
X544684Y472211D01*
X544587Y472125D01*
X544490Y472034D01*
X544437Y471981D01*
X544404Y471943D01*
X544363Y471895D01*
X544316Y471837D01*
X544266Y471775D01*
X544210Y471707D01*
X544107Y471551D01*
X544057Y471471D01*
X544013Y471386D01*
X543968Y471301D01*
X543939Y471212D01*
X543913Y471127D01*
X543898Y471041D01*
Y471035D01*
X543895Y471021D01*
Y470997D01*
Y470968D01*
Y470932D01*
Y470885D01*
X543901Y470838D01*
X543907Y470785D01*
X543918Y470726D01*
X543933Y470670D01*
X543954Y470608D01*
X543974Y470546D01*
X544004Y470488D01*
X544039Y470429D01*
X544080Y470370D01*
X544130Y470314D01*
X544133Y470311D01*
X544142Y470302D01*
X544154Y470290D01*
X544175Y470275D01*
X544198Y470258D01*
X544225Y470237D01*
X544295Y470196D01*
X544381Y470152D01*
X544428Y470134D01*
X544475Y470116D01*
X544531Y470102D01*
X544587Y470093D01*
X544646Y470087D01*
X544708Y470090D01*
X544714D01*
X544723Y470093D01*
X544743Y470096D01*
X544772Y470102D01*
X544811Y470111D01*
X544858Y470122D01*
X544917Y470140D01*
X544985Y470167D01*
X545064Y470199D01*
X545153Y470234D01*
X545253Y470281D01*
X545365Y470340D01*
X545488Y470405D01*
X545553Y470440D01*
X545624Y470482D01*
X545695Y470523D01*
X545774Y470567D01*
X545851Y470614D01*
X545933Y470667D01*
X545936Y470670D01*
X545945Y470673D01*
X545954Y470682D01*
X545971Y470694D01*
X545995Y470705D01*
X546018Y470723D01*
X546045Y470738D01*
X546077Y470759D01*
X546151Y470803D01*
X546236Y470853D01*
X546331Y470912D01*
X546431Y470971D01*
X546537Y471030D01*
X546643Y471088D01*
X546752Y471150D01*
X546858Y471209D01*
X546958Y471262D01*
X547058Y471309D01*
X547147Y471351D01*
X547226Y471383D01*
X547235Y471386D01*
X547253Y471392D01*
X547282Y471404D01*
X547323Y471415D01*
X547373Y471430D01*
X547435Y471445D01*
X547500Y471463D01*
X547574Y471477D01*
X547653Y471492D01*
X547736Y471504D01*
X547821Y471519D01*
X547910Y471524D01*
X548001Y471527D01*
X548092Y471524D01*
X548184Y471516D01*
X548272Y471504D01*
X548278D01*
X548292Y471501D01*
X548319Y471492D01*
X548351Y471483D01*
X548393Y471471D01*
X548440Y471454D01*
X548493Y471436D01*
X548552Y471412D01*
X548614Y471386D01*
X548681Y471353D01*
X548749Y471315D01*
X548820Y471274D01*
X548890Y471227D01*
X548961Y471174D01*
X549032Y471115D01*
X549103Y471050D01*
X549105Y471047D01*
X549117Y471035D01*
X549138Y471015D01*
X549161Y470985D01*
X549191Y470950D01*
X549223Y470906D01*
X549259Y470859D01*
X549297Y470803D01*
X549335Y470741D01*
X549379Y470673D01*
X549418Y470600D01*
X549456Y470520D01*
X549491Y470438D01*
X549524Y470346D01*
X549553Y470258D01*
X549577Y470158D01*
Y470152D01*
X549583Y470134D01*
X549585Y470108D01*
X549591Y470066D01*
X549597Y470019D01*
X549600Y469963D01*
X549606Y469898D01*
Y469828D01*
Y469745D01*
X549600Y469663D01*
X549591Y469571D01*
X549580Y469477D01*
X549565Y469380D01*
X549544Y469277D01*
X549512Y469174D01*
X549477Y469068D01*
Y469062D01*
X549468Y469041D01*
X549456Y469012D01*
X549435Y468974D01*
X549415Y468923D01*
X549385Y468865D01*
X549350Y468800D01*
X549312Y468726D01*
X549267Y468647D01*
X549214Y468564D01*
X549158Y468479D01*
X549097Y468387D01*
X549026Y468299D01*
X548952Y468208D01*
X548870Y468113D01*
X548784Y468022D01*
X548725Y467963D01*
X548678Y467922D01*
X548622Y467872D01*
X548558Y467813D01*
X548484Y467751D01*
X548401Y467686D01*
X548313Y467616D01*
X548219Y467545D01*
X548119Y467474D01*
X548016Y467401D01*
X547910Y467336D01*
X547800Y467274D01*
X547689Y467215D01*
X547577Y467168D01*
X547568Y467165D01*
X547550Y467159D01*
X547518Y467144D01*
X547477Y467133D01*
X547421Y467118D01*
X547356Y467100D01*
X547285Y467082D01*
X547203Y467065D01*
X547117Y467050D01*
X547023Y467038D01*
X546923Y467026D01*
X546823Y467021D01*
X546717D01*
X546608Y467024D01*
X546496Y467035D01*
X546384Y467053D01*
X546378D01*
X546357Y467062D01*
X546328Y467068D01*
X546281Y467080D01*
X546231Y467094D01*
X546172Y467118D01*
X546101Y467141D01*
X546030Y467171D01*
X545948Y467206D01*
X545862Y467244D01*
X545774Y467292D01*
X545686Y467345D01*
X545591Y467404D01*
X545500Y467471D01*
X545412Y467542D01*
X545320Y467621D01*
X545839Y468234D01*
X545842Y468231D01*
X545857Y468222D01*
X545877Y468208D01*
X545904Y468187D01*
X545939Y468163D01*
X545977Y468137D01*
X546024Y468107D01*
X546074Y468075D01*
X546189Y468013D01*
X546313Y467954D01*
X546446Y467898D01*
X546581Y467863D01*
X546587D01*
X546596Y467860D01*
X546616Y467857D01*
X546643Y467854D01*
X546681Y467851D01*
X546720Y467848D01*
X546820D01*
X546876Y467851D01*
X546940Y467857D01*
X547008Y467866D01*
X547079Y467878D01*
X547152Y467892D01*
X547229Y467910D01*
X547309Y467937D01*
X547391Y467966D01*
X547394Y467969D01*
X547412Y467975D01*
X547435Y467987D01*
X547465Y467999D01*
X547503Y468019D01*
X547550Y468043D01*
X547603Y468072D01*
X547659Y468105D01*
X547724Y468140D01*
X547789Y468181D01*
X547856Y468225D01*
X547927Y468278D01*
X548001Y468334D01*
X548072Y468393D01*
X548145Y468461D01*
X548219Y468529D01*
X548251Y468561D01*
X548275Y468591D01*
X548304Y468620D01*
X548334Y468655D01*
X548372Y468700D01*
X548410Y468744D01*
X548451Y468797D01*
X548493Y468850D01*
X548575Y468968D01*
X548655Y469100D01*
X548722Y469233D01*
X548725Y469236D01*
X548728Y469250D01*
X548737Y469271D01*
X548749Y469295D01*
X548758Y469327D01*
X548773Y469365D01*
X548796Y469454D01*
X548820Y469560D01*
X548837Y469672D01*
X548843Y469790D01*
X548840Y469845D01*
X548834Y469904D01*
Y469910D01*
X548831Y469919D01*
X548829Y469934D01*
X548823Y469957D01*
X548817Y469981D01*
X548808Y470013D01*
X548784Y470084D01*
X548749Y470167D01*
X548705Y470252D01*
X548646Y470340D01*
X548614Y470384D01*
X548575Y470423D01*
X548572Y470426D01*
X548566Y470432D01*
X548555Y470443D01*
X548537Y470455D01*
X548519Y470473D01*
X548493Y470493D01*
X548434Y470535D01*
X548363Y470576D01*
X548275Y470617D01*
X548184Y470650D01*
X548080Y470670D01*
X548077Y470673D01*
X548069Y470670D01*
X548054Y470673D01*
X547971D01*
X547933Y470670D01*
X547889Y470667D01*
X547842Y470661D01*
X547792Y470653D01*
X547733Y470641D01*
X547677Y470626D01*
X547612Y470608D01*
X547547Y470585D01*
X547477Y470561D01*
X547403Y470529D01*
X547400Y470526D01*
X547391Y470523D01*
X547373Y470517D01*
X547350Y470505D01*
X547320Y470488D01*
X547285Y470470D01*
X547235Y470443D01*
X547182Y470414D01*
X547117Y470379D01*
X547043Y470340D01*
X546958Y470290D01*
X546864Y470237D01*
X546761Y470175D01*
X546646Y470108D01*
X546516Y470031D01*
X546378Y469946D01*
X546375Y469943D01*
X546369D01*
X546360Y469934D01*
X546345Y469925D01*
X546304Y469901D01*
X546251Y469872D01*
X546186Y469831D01*
X546110Y469790D01*
X546030Y469745D01*
X545942Y469692D01*
X545753Y469592D01*
X545562Y469495D01*
X545471Y469451D01*
X545379Y469412D01*
X545294Y469380D01*
X545220Y469353D01*
X545214D01*
X545197Y469348D01*
X545173Y469342D01*
X545138Y469330D01*
X545094Y469321D01*
X545041Y469309D01*
X544985Y469300D01*
X544920Y469289D01*
X544784Y469271D01*
X544628Y469262D01*
X544475Y469268D01*
X544395Y469277D01*
X544316Y469292D01*
X544310D01*
X544298Y469297D01*
X544275Y469303D01*
X544248Y469312D01*
X544213Y469324D01*
X544169Y469339D01*
X544122Y469356D01*
X544072Y469377D01*
X544016Y469404D01*
X543957Y469433D01*
X543898Y469468D01*
X543836Y469501D01*
X543712Y469589D01*
X543653Y469642D01*
X543591Y469698D01*
X543588Y469701D01*
X543577Y469713D01*
X543559Y469730D01*
X543535Y469760D01*
X543509Y469792D01*
X543479Y469834D01*
X543444Y469881D01*
X543406Y469931D01*
X543371Y469990D01*
X543332Y470052D01*
X543294Y470119D01*
X543259Y470196D01*
X543223Y470272D01*
X543194Y470355D01*
X543167Y470440D01*
X543147Y470532D01*
Y470538D01*
X543144Y470552D01*
X543138Y470582D01*
X543132Y470617D01*
X543129Y470661D01*
X543126Y470717D01*
Y470776D01*
X543123Y470844D01*
X543126Y470918D01*
X543129Y470997D01*
X543138Y471082D01*
X543153Y471168D01*
X543170Y471262D01*
X543194Y471357D01*
X543226Y471454D01*
X543264Y471551D01*
Y471557D01*
X543276Y471574D01*
X543288Y471604D01*
X543306Y471639D01*
X543329Y471686D01*
X543356Y471742D01*
X543391Y471807D01*
X543429Y471875D01*
X543476Y471946D01*
X543527Y472025D01*
X543580Y472108D01*
X543642Y472193D01*
X543706Y472276D01*
X543777Y472364D01*
X543857Y472449D01*
X543939Y472538D01*
X543989Y472588D01*
X544027Y472620D01*
X544075Y472661D01*
X544128Y472709D01*
X544189Y472758D01*
X544260Y472817D01*
X544337Y472876D01*
X544416Y472938D01*
X544593Y473056D01*
X544687Y473115D01*
X544787Y473168D01*
X544884Y473218D01*
X544988Y473262D01*
X544996Y473265D01*
X545014Y473271D01*
X545043Y473283D01*
X545082Y473298D01*
X545132Y473312D01*
X545188Y473327D01*
X545253Y473345D01*
X545326Y473359D01*
X545406Y473374D01*
X545491Y473389D01*
X545577Y473398D01*
X545671Y473404D01*
X545762Y473406D01*
X545859Y473404D01*
D02*
G37*
G36*
X981602Y405076D02*
X976591D01*
X976595Y405072D01*
X976603Y405064D01*
X976616Y405047D01*
X976636Y405026D01*
X976661Y404997D01*
X976691Y404964D01*
X976724Y404922D01*
X976761Y404876D01*
X976803Y404826D01*
X976845Y404768D01*
X976890Y404710D01*
X976936Y404643D01*
X976986Y404572D01*
X977036Y404497D01*
X977086Y404414D01*
X977136Y404330D01*
X977140Y404326D01*
X977149Y404310D01*
X977161Y404285D01*
X977182Y404251D01*
X977203Y404214D01*
X977228Y404164D01*
X977257Y404114D01*
X977286Y404055D01*
X977319Y403993D01*
X977353Y403926D01*
X977420Y403785D01*
X977486Y403643D01*
X977540Y403501D01*
X976782D01*
X976778Y403510D01*
X976770Y403531D01*
X976749Y403564D01*
X976728Y403614D01*
X976695Y403672D01*
X976661Y403739D01*
X976620Y403814D01*
X976570Y403893D01*
X976520Y403980D01*
X976461Y404076D01*
X976399Y404168D01*
X976332Y404268D01*
X976187Y404464D01*
X976028Y404655D01*
X976024Y404660D01*
X976007Y404676D01*
X975986Y404701D01*
X975953Y404734D01*
X975912Y404776D01*
X975866Y404822D01*
X975816Y404876D01*
X975757Y404930D01*
X975691Y404984D01*
X975624Y405043D01*
X975482Y405159D01*
X975407Y405214D01*
X975328Y405268D01*
X975253Y405313D01*
X975174Y405355D01*
Y405863D01*
X981602D01*
Y405076D01*
D02*
G37*
G36*
Y400098D02*
X976591D01*
X976595Y400094D01*
X976603Y400086D01*
X976616Y400069D01*
X976636Y400048D01*
X976661Y400019D01*
X976691Y399986D01*
X976724Y399944D01*
X976761Y399898D01*
X976803Y399848D01*
X976845Y399790D01*
X976890Y399732D01*
X976936Y399665D01*
X976986Y399594D01*
X977036Y399519D01*
X977086Y399436D01*
X977136Y399352D01*
X977140Y399348D01*
X977149Y399332D01*
X977161Y399307D01*
X977182Y399273D01*
X977203Y399236D01*
X977228Y399186D01*
X977257Y399136D01*
X977286Y399078D01*
X977319Y399015D01*
X977353Y398948D01*
X977420Y398807D01*
X977486Y398665D01*
X977540Y398523D01*
X976782D01*
X976778Y398532D01*
X976770Y398553D01*
X976749Y398586D01*
X976728Y398636D01*
X976695Y398694D01*
X976661Y398761D01*
X976620Y398836D01*
X976570Y398915D01*
X976520Y399003D01*
X976461Y399098D01*
X976399Y399190D01*
X976332Y399290D01*
X976187Y399486D01*
X976028Y399677D01*
X976024Y399682D01*
X976007Y399698D01*
X975986Y399723D01*
X975953Y399757D01*
X975912Y399798D01*
X975866Y399844D01*
X975816Y399898D01*
X975757Y399952D01*
X975691Y400006D01*
X975624Y400065D01*
X975482Y400181D01*
X975407Y400236D01*
X975328Y400290D01*
X975253Y400336D01*
X975174Y400377D01*
Y400885D01*
X981602D01*
Y400098D01*
D02*
G37*
G36*
Y395695D02*
Y394879D01*
X976724Y393529D01*
X976715D01*
X976699Y393521D01*
X976665Y393512D01*
X976624Y393504D01*
X976578Y393487D01*
X976524Y393475D01*
X976461Y393458D01*
X976399Y393442D01*
X976270Y393404D01*
X976207Y393387D01*
X976149Y393371D01*
X976095Y393358D01*
X976045Y393346D01*
X976003Y393337D01*
X975974Y393329D01*
X975978D01*
X975995Y393325D01*
X976016Y393321D01*
X976049Y393312D01*
X976087Y393304D01*
X976128Y393292D01*
X976178Y393283D01*
X976232Y393266D01*
X976349Y393237D01*
X976474Y393208D01*
X976603Y393175D01*
X976724Y393142D01*
X981602Y391779D01*
Y390917D01*
X975199Y389218D01*
Y390084D01*
X979398Y391059D01*
X979407D01*
X979427Y391067D01*
X979465Y391075D01*
X979511Y391084D01*
X979569Y391100D01*
X979640Y391113D01*
X979719Y391134D01*
X979806Y391150D01*
X979902Y391171D01*
X980006Y391196D01*
X980115Y391217D01*
X980227Y391238D01*
X980465Y391284D01*
X980706Y391329D01*
X980702D01*
X980694Y391334D01*
X980681D01*
X980660Y391342D01*
X980639Y391346D01*
X980610Y391354D01*
X980544Y391367D01*
X980465Y391388D01*
X980373Y391409D01*
X980277Y391434D01*
X980173Y391459D01*
X979969Y391509D01*
X979869Y391534D01*
X979773Y391554D01*
X979690Y391575D01*
X979619Y391596D01*
X979590Y391604D01*
X979561Y391609D01*
X979540Y391617D01*
X979523Y391621D01*
X975199Y392837D01*
Y393862D01*
X978440Y394779D01*
X978444D01*
X978453Y394783D01*
X978469Y394787D01*
X978494Y394795D01*
X978523Y394804D01*
X978557Y394812D01*
X978598Y394824D01*
X978644Y394837D01*
X978698Y394850D01*
X978753Y394862D01*
X978815Y394879D01*
X978877Y394895D01*
X979019Y394933D01*
X979177Y394970D01*
X979344Y395012D01*
X979523Y395054D01*
X979711Y395091D01*
X979906Y395133D01*
X980102Y395174D01*
X980306Y395212D01*
X980506Y395245D01*
X980706Y395274D01*
X980698D01*
X980677Y395279D01*
X980644Y395287D01*
X980598Y395295D01*
X980544Y395308D01*
X980473Y395324D01*
X980394Y395341D01*
X980306Y395362D01*
X980206Y395383D01*
X980102Y395408D01*
X979986Y395433D01*
X979865Y395462D01*
X979736Y395491D01*
X979602Y395524D01*
X979461Y395558D01*
X979315Y395595D01*
X975199Y396599D01*
Y397453D01*
X981602Y395695D01*
D02*
G37*
G36*
X979881Y388634D02*
X979927Y388630D01*
X979981Y388622D01*
X980040Y388614D01*
X980106Y388601D01*
X980177Y388584D01*
X980256Y388568D01*
X980335Y388543D01*
X980419Y388514D01*
X980502Y388480D01*
X980590Y388439D01*
X980673Y388397D01*
X980760Y388343D01*
X980764Y388339D01*
X980781Y388330D01*
X980802Y388314D01*
X980835Y388289D01*
X980873Y388260D01*
X980914Y388222D01*
X980964Y388180D01*
X981014Y388130D01*
X981073Y388072D01*
X981127Y388010D01*
X981185Y387939D01*
X981244Y387864D01*
X981302Y387785D01*
X981360Y387697D01*
X981410Y387601D01*
X981460Y387501D01*
X981464Y387497D01*
X981473Y387476D01*
X981485Y387447D01*
X981498Y387406D01*
X981518Y387356D01*
X981539Y387293D01*
X981560Y387222D01*
X981585Y387143D01*
X981610Y387056D01*
X981631Y386960D01*
X981652Y386860D01*
X981673Y386752D01*
X981685Y386639D01*
X981698Y386522D01*
X981706Y386398D01*
X981710Y386273D01*
Y386189D01*
X981706Y386127D01*
X981702Y386052D01*
X981698Y385964D01*
X981689Y385868D01*
X981677Y385764D01*
X981664Y385652D01*
X981648Y385535D01*
X981627Y385414D01*
X981606Y385289D01*
X981577Y385169D01*
X981544Y385048D01*
X981506Y384927D01*
X981460Y384814D01*
X981456Y384806D01*
X981448Y384790D01*
X981435Y384756D01*
X981414Y384719D01*
X981385Y384669D01*
X981352Y384610D01*
X981314Y384548D01*
X981268Y384477D01*
X981218Y384406D01*
X981160Y384331D01*
X981098Y384252D01*
X981031Y384177D01*
X980956Y384102D01*
X980877Y384027D01*
X980789Y383956D01*
X980698Y383890D01*
X980694Y383886D01*
X980673Y383877D01*
X980648Y383861D01*
X980606Y383836D01*
X980560Y383811D01*
X980502Y383786D01*
X980435Y383752D01*
X980365Y383723D01*
X980281Y383690D01*
X980194Y383657D01*
X980098Y383627D01*
X979998Y383602D01*
X979890Y383577D01*
X979777Y383561D01*
X979665Y383548D01*
X979544Y383540D01*
X979477Y384340D01*
X979482D01*
X979498Y384344D01*
X979523Y384348D01*
X979557Y384352D01*
X979598Y384361D01*
X979644Y384369D01*
X979698Y384381D01*
X979756Y384394D01*
X979881Y384431D01*
X980011Y384477D01*
X980144Y384531D01*
X980265Y384602D01*
X980269Y384606D01*
X980277Y384610D01*
X980294Y384623D01*
X980315Y384640D01*
X980344Y384665D01*
X980373Y384690D01*
X980406Y384723D01*
X980444Y384760D01*
X980481Y384802D01*
X980523Y384852D01*
X980564Y384906D01*
X980606Y384964D01*
X980648Y385027D01*
X980689Y385094D01*
X980727Y385169D01*
X980764Y385248D01*
Y385252D01*
X980773Y385269D01*
X980781Y385294D01*
X980794Y385323D01*
X980806Y385364D01*
X980823Y385414D01*
X980839Y385473D01*
X980856Y385535D01*
X980877Y385606D01*
X980894Y385681D01*
X980910Y385760D01*
X980923Y385848D01*
X980935Y385939D01*
X980944Y386031D01*
X980948Y386131D01*
X980952Y386231D01*
Y386277D01*
X980948Y386314D01*
Y386356D01*
X980944Y386402D01*
X980939Y386460D01*
X980935Y386518D01*
X980927Y386585D01*
X980919Y386652D01*
X980894Y386793D01*
X980856Y386943D01*
X980810Y387085D01*
Y387089D01*
X980802Y387102D01*
X980794Y387122D01*
X980785Y387147D01*
X980769Y387176D01*
X980752Y387214D01*
X980706Y387293D01*
X980648Y387385D01*
X980581Y387476D01*
X980502Y387564D01*
X980460Y387601D01*
X980415Y387639D01*
X980410Y387643D01*
X980402Y387647D01*
X980390Y387655D01*
X980369Y387668D01*
X980348Y387681D01*
X980319Y387697D01*
X980252Y387730D01*
X980169Y387764D01*
X980077Y387793D01*
X979973Y387814D01*
X979919Y387822D01*
X979865D01*
X979861D01*
X979852D01*
X979836D01*
X979815Y387818D01*
X979790D01*
X979756Y387814D01*
X979686Y387801D01*
X979606Y387780D01*
X979515Y387747D01*
X979427Y387705D01*
X979340Y387647D01*
X979336D01*
X979332Y387639D01*
X979319Y387631D01*
X979302Y387614D01*
X979281Y387593D01*
X979261Y387572D01*
X979236Y387543D01*
X979207Y387510D01*
X979177Y387472D01*
X979148Y387430D01*
X979115Y387381D01*
X979086Y387331D01*
X979052Y387272D01*
X979023Y387210D01*
X978990Y387143D01*
X978961Y387068D01*
Y387064D01*
X978957Y387056D01*
X978948Y387039D01*
X978940Y387014D01*
X978932Y386981D01*
X978919Y386943D01*
X978903Y386889D01*
X978886Y386831D01*
X978865Y386760D01*
X978840Y386681D01*
X978815Y386585D01*
X978786Y386481D01*
X978757Y386364D01*
X978723Y386235D01*
X978686Y386089D01*
X978648Y385931D01*
Y385927D01*
X978644Y385923D01*
Y385910D01*
X978640Y385893D01*
X978627Y385848D01*
X978611Y385789D01*
X978594Y385714D01*
X978569Y385631D01*
X978544Y385544D01*
X978519Y385444D01*
X978457Y385239D01*
X978390Y385035D01*
X978357Y384939D01*
X978319Y384848D01*
X978282Y384765D01*
X978249Y384694D01*
X978244Y384690D01*
X978236Y384673D01*
X978223Y384652D01*
X978207Y384619D01*
X978182Y384581D01*
X978153Y384535D01*
X978119Y384490D01*
X978082Y384436D01*
X977999Y384327D01*
X977894Y384211D01*
X977782Y384106D01*
X977719Y384056D01*
X977653Y384011D01*
X977649Y384006D01*
X977636Y384002D01*
X977615Y383990D01*
X977590Y383977D01*
X977557Y383961D01*
X977515Y383940D01*
X977469Y383919D01*
X977420Y383898D01*
X977361Y383877D01*
X977299Y383857D01*
X977232Y383840D01*
X977165Y383819D01*
X977015Y383794D01*
X976936Y383790D01*
X976853Y383786D01*
X976849D01*
X976832D01*
X976807D01*
X976770Y383790D01*
X976728Y383794D01*
X976678Y383802D01*
X976620Y383811D01*
X976557Y383819D01*
X976491Y383836D01*
X976420Y383852D01*
X976345Y383873D01*
X976266Y383902D01*
X976187Y383931D01*
X976107Y383969D01*
X976028Y384011D01*
X975949Y384061D01*
X975945Y384065D01*
X975932Y384073D01*
X975907Y384090D01*
X975878Y384111D01*
X975845Y384140D01*
X975803Y384177D01*
X975762Y384219D01*
X975712Y384265D01*
X975662Y384319D01*
X975608Y384377D01*
X975553Y384444D01*
X975503Y384515D01*
X975449Y384594D01*
X975399Y384677D01*
X975353Y384769D01*
X975312Y384865D01*
X975307Y384869D01*
X975303Y384889D01*
X975291Y384919D01*
X975278Y384956D01*
X975262Y385006D01*
X975241Y385065D01*
X975220Y385135D01*
X975199Y385210D01*
X975183Y385294D01*
X975162Y385385D01*
X975141Y385481D01*
X975124Y385585D01*
X975112Y385689D01*
X975099Y385802D01*
X975095Y385918D01*
X975091Y386039D01*
Y386110D01*
X975095Y386160D01*
X975099Y386222D01*
X975103Y386293D01*
X975112Y386372D01*
X975120Y386464D01*
X975133Y386560D01*
X975145Y386660D01*
X975187Y386868D01*
X975212Y386977D01*
X975245Y387085D01*
X975278Y387189D01*
X975320Y387293D01*
X975324Y387301D01*
X975332Y387318D01*
X975345Y387347D01*
X975362Y387385D01*
X975387Y387430D01*
X975416Y387481D01*
X975449Y387539D01*
X975491Y387601D01*
X975537Y387668D01*
X975587Y387739D01*
X975641Y387805D01*
X975703Y387876D01*
X975766Y387943D01*
X975837Y388010D01*
X975916Y388072D01*
X975995Y388130D01*
X975999Y388134D01*
X976016Y388143D01*
X976041Y388159D01*
X976074Y388176D01*
X976116Y388201D01*
X976166Y388226D01*
X976224Y388251D01*
X976286Y388280D01*
X976357Y388310D01*
X976436Y388339D01*
X976520Y388364D01*
X976607Y388389D01*
X976703Y388410D01*
X976799Y388426D01*
X976899Y388439D01*
X977003Y388447D01*
X977065Y387635D01*
X977057D01*
X977040Y387631D01*
X977007Y387626D01*
X976965Y387618D01*
X976916Y387610D01*
X976857Y387593D01*
X976790Y387576D01*
X976724Y387556D01*
X976649Y387526D01*
X976574Y387497D01*
X976499Y387460D01*
X976424Y387418D01*
X976349Y387372D01*
X976278Y387318D01*
X976211Y387256D01*
X976149Y387189D01*
X976145Y387185D01*
X976136Y387172D01*
X976120Y387151D01*
X976099Y387118D01*
X976078Y387081D01*
X976049Y387031D01*
X976020Y386977D01*
X975991Y386910D01*
X975962Y386835D01*
X975937Y386752D01*
X975907Y386660D01*
X975887Y386560D01*
X975866Y386452D01*
X975849Y386335D01*
X975841Y386206D01*
X975837Y386073D01*
Y385998D01*
X975841Y385948D01*
X975845Y385885D01*
X975853Y385810D01*
X975862Y385731D01*
X975870Y385644D01*
X975907Y385460D01*
X975928Y385369D01*
X975957Y385277D01*
X975986Y385185D01*
X976028Y385102D01*
X976070Y385023D01*
X976120Y384952D01*
X976124Y384948D01*
X976132Y384935D01*
X976149Y384919D01*
X976170Y384898D01*
X976195Y384873D01*
X976228Y384840D01*
X976266Y384810D01*
X976307Y384777D01*
X976357Y384744D01*
X976407Y384715D01*
X976466Y384685D01*
X976524Y384656D01*
X976586Y384635D01*
X976653Y384619D01*
X976724Y384606D01*
X976799Y384602D01*
X976803D01*
X976815D01*
X976832D01*
X976857Y384606D01*
X976886Y384610D01*
X976920Y384615D01*
X976999Y384635D01*
X977090Y384665D01*
X977136Y384685D01*
X977182Y384706D01*
X977232Y384735D01*
X977278Y384769D01*
X977324Y384806D01*
X977365Y384852D01*
X977370Y384856D01*
X977374Y384865D01*
X977386Y384881D01*
X977403Y384906D01*
X977424Y384939D01*
X977449Y384981D01*
X977478Y385035D01*
X977507Y385102D01*
X977540Y385181D01*
X977578Y385269D01*
X977615Y385373D01*
X977653Y385494D01*
X977694Y385627D01*
X977715Y385698D01*
X977736Y385777D01*
X977757Y385856D01*
X977782Y385943D01*
X977803Y386031D01*
X977824Y386127D01*
Y386131D01*
X977828Y386139D01*
Y386152D01*
X977832Y386172D01*
X977840Y386198D01*
X977844Y386227D01*
X977853Y386256D01*
X977861Y386293D01*
X977882Y386377D01*
X977907Y386473D01*
X977932Y386581D01*
X977961Y386693D01*
X977994Y386810D01*
X978028Y386926D01*
X978061Y387047D01*
X978094Y387164D01*
X978128Y387272D01*
X978165Y387376D01*
X978198Y387468D01*
X978232Y387547D01*
X978236Y387556D01*
X978244Y387572D01*
X978257Y387601D01*
X978278Y387639D01*
X978303Y387685D01*
X978336Y387739D01*
X978369Y387797D01*
X978411Y387860D01*
X978457Y387926D01*
X978507Y387993D01*
X978557Y388064D01*
X978615Y388130D01*
X978678Y388197D01*
X978744Y388260D01*
X978815Y388318D01*
X978886Y388372D01*
X978890Y388376D01*
X978903Y388385D01*
X978928Y388397D01*
X978957Y388414D01*
X978994Y388434D01*
X979040Y388455D01*
X979090Y388480D01*
X979148Y388505D01*
X979211Y388530D01*
X979281Y388555D01*
X979357Y388576D01*
X979436Y388597D01*
X979519Y388614D01*
X979606Y388626D01*
X979698Y388634D01*
X979794Y388639D01*
X979798D01*
X979815D01*
X979844D01*
X979881Y388634D01*
D02*
G37*
G36*
X439582Y362160D02*
X440191Y362769D01*
X440701Y362260D01*
X440091Y361650D01*
X441175Y360566D01*
X440619Y360009D01*
X439534Y361093D01*
X437570Y359129D01*
X437060Y359638D01*
X436191Y364637D01*
X436648Y365093D01*
X439582Y362160D01*
D02*
G37*
G36*
X437261Y356651D02*
X436683Y356074D01*
X432280Y358569D01*
X432274Y358575D01*
X432256Y358581D01*
X432227Y358599D01*
X432191Y358622D01*
X432147Y358643D01*
X432100Y358672D01*
X432044Y358704D01*
X431988Y358737D01*
X431870Y358802D01*
X431814Y358834D01*
X431761Y358863D01*
X431714Y358893D01*
X431670Y358919D01*
X431635Y358943D01*
X431608Y358958D01*
X431611Y358955D01*
X431620Y358940D01*
X431632Y358923D01*
X431649Y358893D01*
X431670Y358861D01*
X431691Y358822D01*
X431720Y358781D01*
X431747Y358731D01*
X431808Y358628D01*
X431876Y358519D01*
X431944Y358404D01*
X432006Y358295D01*
X434492Y353883D01*
X433882Y353273D01*
X428153Y356598D01*
X428766Y357211D01*
X432424Y354931D01*
X432430Y354925D01*
X432450Y354917D01*
X432483Y354896D01*
X432521Y354869D01*
X432574Y354840D01*
X432633Y354799D01*
X432704Y354757D01*
X432777Y354707D01*
X432860Y354654D01*
X432951Y354598D01*
X433043Y354537D01*
X433137Y354472D01*
X433337Y354336D01*
X433540Y354198D01*
X433537Y354201D01*
X433535Y354210D01*
X433526Y354218D01*
X433517Y354239D01*
X433505Y354257D01*
X433490Y354283D01*
X433452Y354339D01*
X433411Y354410D01*
X433361Y354490D01*
X433311Y354575D01*
X433255Y354666D01*
X433146Y354846D01*
X433093Y354934D01*
X433040Y355017D01*
X432995Y355090D01*
X432960Y355155D01*
X432945Y355182D01*
X432928Y355205D01*
X432919Y355226D01*
X432910Y355241D01*
X430713Y359158D01*
X431437Y359883D01*
X434377Y358239D01*
X434380Y358236D01*
X434389Y358233D01*
X434403Y358224D01*
X434427Y358213D01*
X434454Y358198D01*
X434483Y358180D01*
X434521Y358160D01*
X434562Y358136D01*
X434610Y358106D01*
X434657Y358077D01*
X434713Y358045D01*
X434769Y358012D01*
X434895Y357939D01*
X435034Y357853D01*
X435181Y357765D01*
X435337Y357668D01*
X435496Y357562D01*
X435664Y357453D01*
X435832Y357344D01*
X436003Y357226D01*
X436168Y357108D01*
X436330Y356987D01*
X436324Y356993D01*
X436312Y357011D01*
X436295Y357040D01*
X436268Y357079D01*
X436239Y357126D01*
X436200Y357188D01*
X436156Y357255D01*
X436109Y357332D01*
X436053Y357417D01*
X435997Y357509D01*
X435932Y357609D01*
X435867Y357715D01*
X435797Y357827D01*
X435726Y357944D01*
X435649Y358068D01*
X435573Y358198D01*
X433372Y361818D01*
X433976Y362422D01*
X437261Y356651D01*
D02*
G37*
G36*
X427749Y355294D02*
X427850Y355282D01*
X427947Y355267D01*
X427953D01*
X427970Y355261D01*
X428000Y355255D01*
X428035Y355243D01*
X428082Y355232D01*
X428135Y355214D01*
X428194Y355191D01*
X428259Y355167D01*
X428330Y355137D01*
X428406Y355102D01*
X428483Y355061D01*
X428562Y355017D01*
X428645Y354964D01*
X428724Y354908D01*
X428804Y354846D01*
X428884Y354778D01*
X428353Y354160D01*
X428347Y354165D01*
X428333Y354174D01*
X428306Y354195D01*
X428271Y354218D01*
X428230Y354248D01*
X428177Y354277D01*
X428118Y354313D01*
X428056Y354345D01*
X427982Y354378D01*
X427909Y354410D01*
X427829Y354436D01*
X427747Y354460D01*
X427661Y354481D01*
X427573Y354492D01*
X427481Y354495D01*
X427390Y354492D01*
X427384D01*
X427369Y354490D01*
X427343Y354487D01*
X427305Y354478D01*
X427263Y354466D01*
X427207Y354451D01*
X427149Y354434D01*
X427081Y354407D01*
X427007Y354375D01*
X426931Y354333D01*
X426845Y354289D01*
X426760Y354233D01*
X426669Y354171D01*
X426574Y354101D01*
X426477Y354015D01*
X426380Y353924D01*
X426327Y353871D01*
X426294Y353833D01*
X426253Y353786D01*
X426206Y353727D01*
X426156Y353665D01*
X426100Y353597D01*
X425997Y353441D01*
X425947Y353361D01*
X425903Y353276D01*
X425858Y353190D01*
X425829Y353102D01*
X425802Y353017D01*
X425788Y352931D01*
Y352925D01*
X425785Y352911D01*
Y352887D01*
Y352858D01*
Y352822D01*
Y352775D01*
X425791Y352728D01*
X425797Y352675D01*
X425808Y352616D01*
X425823Y352560D01*
X425844Y352498D01*
X425864Y352436D01*
X425894Y352378D01*
X425929Y352319D01*
X425970Y352260D01*
X426021Y352204D01*
X426023Y352201D01*
X426032Y352192D01*
X426044Y352180D01*
X426065Y352165D01*
X426088Y352148D01*
X426115Y352127D01*
X426185Y352086D01*
X426271Y352042D01*
X426318Y352024D01*
X426365Y352006D01*
X426421Y351992D01*
X426477Y351983D01*
X426536Y351977D01*
X426598Y351980D01*
X426604D01*
X426613Y351983D01*
X426633Y351986D01*
X426663Y351992D01*
X426701Y352001D01*
X426748Y352012D01*
X426807Y352030D01*
X426875Y352056D01*
X426954Y352089D01*
X427043Y352124D01*
X427143Y352171D01*
X427255Y352230D01*
X427378Y352295D01*
X427443Y352330D01*
X427514Y352372D01*
X427584Y352413D01*
X427664Y352457D01*
X427741Y352504D01*
X427823Y352557D01*
X427826Y352560D01*
X427835Y352563D01*
X427844Y352572D01*
X427861Y352584D01*
X427885Y352595D01*
X427909Y352613D01*
X427935Y352628D01*
X427967Y352649D01*
X428041Y352693D01*
X428126Y352743D01*
X428221Y352802D01*
X428321Y352861D01*
X428427Y352920D01*
X428533Y352978D01*
X428642Y353040D01*
X428748Y353099D01*
X428848Y353152D01*
X428948Y353199D01*
X429037Y353241D01*
X429116Y353273D01*
X429125Y353276D01*
X429143Y353282D01*
X429172Y353294D01*
X429213Y353305D01*
X429263Y353320D01*
X429325Y353335D01*
X429390Y353353D01*
X429464Y353367D01*
X429543Y353382D01*
X429626Y353394D01*
X429711Y353408D01*
X429800Y353414D01*
X429891Y353417D01*
X429982Y353414D01*
X430074Y353405D01*
X430162Y353394D01*
X430168D01*
X430182Y353391D01*
X430209Y353382D01*
X430241Y353373D01*
X430283Y353361D01*
X430330Y353344D01*
X430383Y353326D01*
X430442Y353302D01*
X430504Y353276D01*
X430571Y353243D01*
X430639Y353205D01*
X430710Y353164D01*
X430780Y353117D01*
X430851Y353064D01*
X430922Y353005D01*
X430993Y352940D01*
X430995Y352937D01*
X431007Y352925D01*
X431028Y352905D01*
X431051Y352875D01*
X431081Y352840D01*
X431113Y352796D01*
X431149Y352749D01*
X431187Y352693D01*
X431225Y352631D01*
X431269Y352563D01*
X431308Y352489D01*
X431346Y352410D01*
X431381Y352327D01*
X431414Y352236D01*
X431443Y352148D01*
X431467Y352048D01*
Y352042D01*
X431473Y352024D01*
X431476Y351997D01*
X431482Y351956D01*
X431487Y351909D01*
X431490Y351853D01*
X431496Y351788D01*
Y351718D01*
Y351635D01*
X431490Y351553D01*
X431482Y351461D01*
X431470Y351367D01*
X431455Y351270D01*
X431434Y351167D01*
X431402Y351064D01*
X431367Y350958D01*
Y350952D01*
X431358Y350931D01*
X431346Y350902D01*
X431325Y350863D01*
X431305Y350813D01*
X431275Y350755D01*
X431240Y350690D01*
X431202Y350616D01*
X431157Y350537D01*
X431104Y350454D01*
X431049Y350369D01*
X430987Y350277D01*
X430916Y350189D01*
X430842Y350098D01*
X430760Y350003D01*
X430674Y349912D01*
X430616Y349853D01*
X430568Y349812D01*
X430512Y349762D01*
X430448Y349703D01*
X430374Y349641D01*
X430291Y349576D01*
X430203Y349506D01*
X430109Y349435D01*
X430009Y349364D01*
X429906Y349291D01*
X429800Y349226D01*
X429691Y349164D01*
X429579Y349105D01*
X429467Y349058D01*
X429458Y349055D01*
X429440Y349049D01*
X429408Y349034D01*
X429367Y349023D01*
X429311Y349008D01*
X429246Y348990D01*
X429175Y348973D01*
X429093Y348955D01*
X429007Y348940D01*
X428913Y348928D01*
X428813Y348917D01*
X428713Y348911D01*
X428607D01*
X428498Y348914D01*
X428386Y348925D01*
X428274Y348943D01*
X428268D01*
X428247Y348952D01*
X428218Y348958D01*
X428171Y348969D01*
X428121Y348984D01*
X428062Y349008D01*
X427991Y349031D01*
X427920Y349061D01*
X427838Y349096D01*
X427752Y349134D01*
X427664Y349182D01*
X427576Y349235D01*
X427481Y349294D01*
X427390Y349361D01*
X427302Y349432D01*
X427210Y349511D01*
X427729Y350124D01*
X427732Y350121D01*
X427747Y350112D01*
X427767Y350098D01*
X427794Y350077D01*
X427829Y350053D01*
X427867Y350027D01*
X427914Y349997D01*
X427965Y349965D01*
X428079Y349903D01*
X428203Y349844D01*
X428336Y349788D01*
X428471Y349753D01*
X428477D01*
X428486Y349750D01*
X428507Y349747D01*
X428533Y349744D01*
X428571Y349741D01*
X428610Y349738D01*
X428710D01*
X428766Y349741D01*
X428830Y349747D01*
X428898Y349756D01*
X428969Y349768D01*
X429043Y349782D01*
X429119Y349800D01*
X429199Y349827D01*
X429281Y349856D01*
X429284Y349859D01*
X429302Y349865D01*
X429325Y349877D01*
X429355Y349889D01*
X429393Y349909D01*
X429440Y349933D01*
X429493Y349962D01*
X429549Y349995D01*
X429614Y350030D01*
X429679Y350071D01*
X429747Y350115D01*
X429817Y350168D01*
X429891Y350224D01*
X429962Y350283D01*
X430035Y350351D01*
X430109Y350419D01*
X430141Y350451D01*
X430165Y350481D01*
X430194Y350510D01*
X430224Y350545D01*
X430262Y350590D01*
X430300Y350634D01*
X430341Y350687D01*
X430383Y350740D01*
X430465Y350858D01*
X430545Y350990D01*
X430612Y351123D01*
X430616Y351126D01*
X430618Y351140D01*
X430627Y351161D01*
X430639Y351185D01*
X430648Y351217D01*
X430663Y351255D01*
X430686Y351344D01*
X430710Y351450D01*
X430727Y351562D01*
X430733Y351679D01*
X430730Y351735D01*
X430724Y351794D01*
Y351800D01*
X430722Y351809D01*
X430719Y351824D01*
X430713Y351847D01*
X430707Y351871D01*
X430698Y351903D01*
X430674Y351974D01*
X430639Y352056D01*
X430595Y352142D01*
X430536Y352230D01*
X430504Y352274D01*
X430465Y352313D01*
X430462Y352316D01*
X430456Y352322D01*
X430445Y352333D01*
X430427Y352345D01*
X430409Y352363D01*
X430383Y352383D01*
X430324Y352425D01*
X430253Y352466D01*
X430165Y352507D01*
X430074Y352539D01*
X429970Y352560D01*
X429967Y352563D01*
X429959Y352560D01*
X429944Y352563D01*
X429861D01*
X429823Y352560D01*
X429779Y352557D01*
X429732Y352551D01*
X429682Y352542D01*
X429623Y352531D01*
X429567Y352516D01*
X429502Y352498D01*
X429437Y352475D01*
X429367Y352451D01*
X429293Y352419D01*
X429290Y352416D01*
X429281Y352413D01*
X429263Y352407D01*
X429240Y352395D01*
X429211Y352378D01*
X429175Y352360D01*
X429125Y352333D01*
X429072Y352304D01*
X429007Y352268D01*
X428934Y352230D01*
X428848Y352180D01*
X428754Y352127D01*
X428651Y352065D01*
X428536Y351997D01*
X428406Y351921D01*
X428268Y351836D01*
X428265Y351833D01*
X428259D01*
X428250Y351824D01*
X428236Y351815D01*
X428194Y351791D01*
X428141Y351762D01*
X428076Y351721D01*
X428000Y351679D01*
X427920Y351635D01*
X427832Y351582D01*
X427643Y351482D01*
X427452Y351385D01*
X427361Y351341D01*
X427269Y351302D01*
X427184Y351270D01*
X427110Y351244D01*
X427104D01*
X427087Y351238D01*
X427063Y351232D01*
X427028Y351220D01*
X426984Y351211D01*
X426931Y351199D01*
X426875Y351190D01*
X426810Y351179D01*
X426674Y351161D01*
X426518Y351152D01*
X426365Y351158D01*
X426286Y351167D01*
X426206Y351182D01*
X426200D01*
X426188Y351188D01*
X426165Y351193D01*
X426138Y351202D01*
X426103Y351214D01*
X426059Y351229D01*
X426012Y351246D01*
X425962Y351267D01*
X425906Y351294D01*
X425847Y351323D01*
X425788Y351358D01*
X425726Y351391D01*
X425602Y351479D01*
X425543Y351532D01*
X425481Y351588D01*
X425479Y351591D01*
X425467Y351603D01*
X425449Y351620D01*
X425425Y351650D01*
X425399Y351682D01*
X425369Y351724D01*
X425334Y351771D01*
X425296Y351821D01*
X425261Y351880D01*
X425222Y351942D01*
X425184Y352009D01*
X425149Y352086D01*
X425113Y352163D01*
X425084Y352245D01*
X425057Y352330D01*
X425037Y352422D01*
Y352428D01*
X425034Y352442D01*
X425028Y352472D01*
X425022Y352507D01*
X425019Y352551D01*
X425016Y352607D01*
Y352666D01*
X425013Y352734D01*
X425016Y352808D01*
X425019Y352887D01*
X425028Y352972D01*
X425042Y353058D01*
X425060Y353152D01*
X425084Y353246D01*
X425116Y353344D01*
X425154Y353441D01*
Y353447D01*
X425166Y353464D01*
X425178Y353494D01*
X425196Y353529D01*
X425219Y353576D01*
X425246Y353632D01*
X425281Y353697D01*
X425319Y353765D01*
X425367Y353835D01*
X425417Y353915D01*
X425470Y353997D01*
X425532Y354083D01*
X425596Y354165D01*
X425667Y354254D01*
X425746Y354339D01*
X425829Y354428D01*
X425879Y354478D01*
X425917Y354510D01*
X425965Y354551D01*
X426017Y354598D01*
X426079Y354649D01*
X426150Y354707D01*
X426227Y354766D01*
X426306Y354828D01*
X426483Y354946D01*
X426577Y355005D01*
X426677Y355058D01*
X426774Y355108D01*
X426878Y355152D01*
X426886Y355155D01*
X426904Y355161D01*
X426934Y355173D01*
X426972Y355188D01*
X427022Y355202D01*
X427078Y355217D01*
X427143Y355235D01*
X427216Y355249D01*
X427296Y355264D01*
X427381Y355279D01*
X427467Y355288D01*
X427561Y355294D01*
X427652Y355297D01*
X427749Y355294D01*
D02*
G37*
G36*
X437314Y601160D02*
X437378Y601154D01*
X437452Y601146D01*
X437537Y601131D01*
X437629Y601110D01*
X437726Y601084D01*
X437826Y601048D01*
X437929Y601010D01*
X438038Y600960D01*
X438147Y600898D01*
X438253Y600827D01*
X438362Y600748D01*
X438462Y600654D01*
X438465Y600651D01*
X438474Y600642D01*
X438489Y600627D01*
X438507Y600603D01*
X438530Y600580D01*
X438557Y600547D01*
X438586Y600512D01*
X438618Y600468D01*
X438651Y600424D01*
X438686Y600377D01*
X438757Y600265D01*
X438828Y600141D01*
X438886Y600006D01*
X438889Y600003D01*
X438892Y599988D01*
X438901Y599967D01*
X438910Y599941D01*
X438925Y599902D01*
X438934Y599858D01*
X438948Y599808D01*
X438966Y599749D01*
X438981Y599687D01*
X438998Y599617D01*
X439010Y599540D01*
X439028Y599458D01*
X439040Y599369D01*
X439051Y599281D01*
X439063Y599181D01*
X439069Y599081D01*
Y599075D01*
X439072Y599054D01*
Y599025D01*
Y598978D01*
X439075Y598922D01*
Y598851D01*
Y598768D01*
X439072Y598671D01*
Y598559D01*
X439069Y598438D01*
X439063Y598303D01*
X439057Y598156D01*
X439048Y597994D01*
X439040Y597820D01*
X439028Y597631D01*
X439010Y597431D01*
Y597419D01*
X439007Y597393D01*
X439004Y597343D01*
X438998Y597284D01*
X438993Y597207D01*
X438987Y597125D01*
X438978Y597034D01*
X438972Y596933D01*
X438957Y596730D01*
X438951Y596630D01*
X438945Y596530D01*
X438940Y596436D01*
Y596353D01*
X438937Y596279D01*
Y596215D01*
Y596209D01*
Y596203D01*
Y596185D01*
X438940Y596165D01*
X438942Y596109D01*
X438948Y596038D01*
X438957Y595958D01*
X438969Y595864D01*
X438984Y595773D01*
X439004Y595681D01*
X441225Y597902D01*
X441758Y597369D01*
X438766Y594377D01*
X438763Y594380D01*
X438757Y594385D01*
X438745Y594397D01*
X438730Y594412D01*
X438713Y594430D01*
X438692Y594450D01*
X438648Y594506D01*
X438595Y594571D01*
X438542Y594648D01*
X438492Y594733D01*
X438445Y594827D01*
X438442Y594830D01*
X438436Y594848D01*
X438427Y594869D01*
X438412Y594901D01*
X438397Y594939D01*
X438383Y594989D01*
X438365Y595042D01*
X438344Y595104D01*
X438324Y595172D01*
X438303Y595246D01*
X438283Y595325D01*
X438262Y595410D01*
X438244Y595499D01*
X438230Y595590D01*
X438218Y595690D01*
X438206Y595790D01*
Y595796D01*
X438203Y595817D01*
Y595846D01*
X438200Y595891D01*
Y595944D01*
X438197Y596011D01*
Y596088D01*
X438194Y596173D01*
X438197Y596271D01*
Y596377D01*
X438203Y596494D01*
X438206Y596621D01*
X438212Y596757D01*
X438224Y596898D01*
X438236Y597051D01*
X438250Y597207D01*
Y597213D01*
X438253Y597222D01*
Y597240D01*
X438256Y597266D01*
X438259Y597299D01*
X438262Y597337D01*
X438265Y597381D01*
X438271Y597428D01*
X438280Y597537D01*
X438286Y597667D01*
X438294Y597805D01*
X438306Y597958D01*
X438312Y598117D01*
X438318Y598276D01*
X438321Y598438D01*
X438324Y598601D01*
X438321Y598757D01*
X438312Y598907D01*
X438303Y599045D01*
X438288Y599166D01*
Y599172D01*
X438286Y599193D01*
X438277Y599225D01*
X438271Y599266D01*
X438256Y599316D01*
X438241Y599378D01*
X438224Y599443D01*
X438203Y599511D01*
X438177Y599584D01*
X438147Y599661D01*
X438115Y599740D01*
X438076Y599814D01*
X438035Y599891D01*
X437985Y599964D01*
X437935Y600032D01*
X437879Y600094D01*
X437876Y600097D01*
X437864Y600109D01*
X437844Y600123D01*
X437820Y600147D01*
X437791Y600171D01*
X437749Y600200D01*
X437705Y600227D01*
X437655Y600259D01*
X437602Y600288D01*
X437540Y600315D01*
X437476Y600344D01*
X437405Y600368D01*
X437331Y600388D01*
X437252Y600403D01*
X437169Y600409D01*
X437084Y600412D01*
X437078D01*
X437063Y600409D01*
X437040D01*
X437007Y600406D01*
X436966Y600400D01*
X436919Y600388D01*
X436866Y600377D01*
X436804Y600362D01*
X436742Y600341D01*
X436674Y600315D01*
X436607Y600282D01*
X436533Y600244D01*
X436459Y600200D01*
X436386Y600150D01*
X436315Y600091D01*
X436241Y600023D01*
X436224Y600006D01*
X436206Y599982D01*
X436180Y599955D01*
X436147Y599917D01*
X436115Y599873D01*
X436079Y599820D01*
X436041Y599764D01*
X436006Y599699D01*
X435967Y599632D01*
X435935Y599558D01*
X435906Y599481D01*
X435879Y599402D01*
X435858Y599316D01*
X435847Y599228D01*
X435841Y599140D01*
Y599134D01*
X435844Y599119D01*
X435841Y599092D01*
X435847Y599057D01*
X435853Y599016D01*
X435864Y598963D01*
X435876Y598910D01*
X435894Y598845D01*
X435914Y598777D01*
X435944Y598707D01*
X435979Y598630D01*
X436017Y598550D01*
X436068Y598471D01*
X436124Y598391D01*
X436188Y598309D01*
X436262Y598229D01*
X435632Y597717D01*
X435629Y597720D01*
X435626Y597723D01*
X435620Y597734D01*
X435605Y597749D01*
X435593Y597767D01*
X435579Y597788D01*
X435540Y597838D01*
X435499Y597902D01*
X435449Y597976D01*
X435399Y598061D01*
X435346Y598156D01*
X435296Y598259D01*
X435246Y598368D01*
X435205Y598486D01*
X435163Y598609D01*
X435131Y598736D01*
X435110Y598863D01*
X435098Y598998D01*
X435102Y599131D01*
X435104Y599140D01*
Y599163D01*
X435107Y599201D01*
X435119Y599254D01*
X435134Y599316D01*
X435151Y599393D01*
X435175Y599475D01*
X435205Y599570D01*
X435243Y599673D01*
X435290Y599779D01*
X435346Y599894D01*
X435414Y600009D01*
X435490Y600132D01*
X435579Y600250D01*
X435679Y600374D01*
X435794Y600494D01*
X435838Y600539D01*
X435858Y600553D01*
X435909Y600598D01*
X435967Y600645D01*
X436038Y600704D01*
X436121Y600763D01*
X436212Y600824D01*
X436315Y600886D01*
X436421Y600945D01*
X436536Y601001D01*
X436660Y601054D01*
X436786Y601098D01*
X436916Y601134D01*
X437051Y601157D01*
X437190Y601166D01*
X437261D01*
X437314Y601160D01*
D02*
G37*
G36*
X437261Y592872D02*
X436683Y592294D01*
X432280Y594789D01*
X432274Y594795D01*
X432256Y594801D01*
X432227Y594818D01*
X432191Y594842D01*
X432147Y594863D01*
X432100Y594892D01*
X432044Y594925D01*
X431988Y594957D01*
X431870Y595022D01*
X431814Y595054D01*
X431761Y595084D01*
X431714Y595113D01*
X431670Y595140D01*
X431635Y595163D01*
X431608Y595178D01*
X431611Y595175D01*
X431620Y595160D01*
X431632Y595143D01*
X431649Y595113D01*
X431670Y595081D01*
X431691Y595042D01*
X431720Y595001D01*
X431746Y594951D01*
X431808Y594848D01*
X431876Y594739D01*
X431944Y594624D01*
X432006Y594515D01*
X434492Y590103D01*
X433882Y589493D01*
X428153Y592818D01*
X428766Y593431D01*
X432424Y591151D01*
X432430Y591145D01*
X432450Y591137D01*
X432483Y591116D01*
X432521Y591089D01*
X432574Y591060D01*
X432633Y591019D01*
X432704Y590978D01*
X432777Y590927D01*
X432860Y590874D01*
X432951Y590818D01*
X433042Y590757D01*
X433137Y590692D01*
X433337Y590556D01*
X433540Y590418D01*
X433537Y590421D01*
X433534Y590430D01*
X433526Y590438D01*
X433517Y590459D01*
X433505Y590477D01*
X433490Y590503D01*
X433452Y590559D01*
X433411Y590630D01*
X433361Y590709D01*
X433311Y590795D01*
X433255Y590886D01*
X433146Y591066D01*
X433093Y591154D01*
X433040Y591237D01*
X432995Y591310D01*
X432960Y591375D01*
X432945Y591402D01*
X432928Y591425D01*
X432919Y591446D01*
X432910Y591461D01*
X430713Y595378D01*
X431437Y596103D01*
X434377Y594459D01*
X434380Y594456D01*
X434389Y594453D01*
X434403Y594444D01*
X434427Y594433D01*
X434453Y594418D01*
X434483Y594400D01*
X434521Y594380D01*
X434562Y594356D01*
X434609Y594327D01*
X434657Y594297D01*
X434713Y594265D01*
X434769Y594232D01*
X434895Y594159D01*
X435034Y594073D01*
X435181Y593985D01*
X435337Y593888D01*
X435496Y593782D01*
X435664Y593673D01*
X435832Y593564D01*
X436003Y593446D01*
X436168Y593328D01*
X436330Y593207D01*
X436324Y593213D01*
X436312Y593231D01*
X436294Y593260D01*
X436268Y593299D01*
X436238Y593346D01*
X436200Y593408D01*
X436156Y593475D01*
X436109Y593552D01*
X436053Y593637D01*
X435997Y593729D01*
X435932Y593829D01*
X435867Y593935D01*
X435797Y594047D01*
X435726Y594165D01*
X435649Y594288D01*
X435573Y594418D01*
X433372Y598038D01*
X433976Y598642D01*
X437261Y592872D01*
D02*
G37*
G36*
X427749Y591514D02*
X427850Y591502D01*
X427947Y591487D01*
X427953D01*
X427970Y591481D01*
X428000Y591475D01*
X428035Y591464D01*
X428082Y591452D01*
X428135Y591434D01*
X428194Y591410D01*
X428259Y591387D01*
X428330Y591357D01*
X428406Y591322D01*
X428483Y591281D01*
X428562Y591237D01*
X428645Y591184D01*
X428724Y591128D01*
X428804Y591066D01*
X428883Y590998D01*
X428353Y590380D01*
X428347Y590386D01*
X428333Y590394D01*
X428306Y590415D01*
X428271Y590438D01*
X428229Y590468D01*
X428176Y590497D01*
X428118Y590533D01*
X428056Y590565D01*
X427982Y590597D01*
X427909Y590630D01*
X427829Y590657D01*
X427747Y590680D01*
X427661Y590701D01*
X427573Y590712D01*
X427481Y590715D01*
X427390Y590712D01*
X427384D01*
X427369Y590709D01*
X427343Y590706D01*
X427305Y590698D01*
X427263Y590686D01*
X427207Y590671D01*
X427149Y590653D01*
X427081Y590627D01*
X427007Y590595D01*
X426931Y590553D01*
X426845Y590509D01*
X426760Y590453D01*
X426668Y590391D01*
X426574Y590321D01*
X426477Y590235D01*
X426380Y590144D01*
X426327Y590091D01*
X426294Y590053D01*
X426253Y590005D01*
X426206Y589947D01*
X426156Y589885D01*
X426100Y589817D01*
X425997Y589661D01*
X425947Y589581D01*
X425903Y589496D01*
X425858Y589411D01*
X425829Y589322D01*
X425802Y589237D01*
X425788Y589151D01*
Y589145D01*
X425785Y589131D01*
Y589107D01*
Y589078D01*
Y589042D01*
Y588995D01*
X425791Y588948D01*
X425797Y588895D01*
X425808Y588836D01*
X425823Y588780D01*
X425844Y588718D01*
X425864Y588657D01*
X425894Y588597D01*
X425929Y588539D01*
X425970Y588480D01*
X426020Y588424D01*
X426023Y588421D01*
X426032Y588412D01*
X426044Y588400D01*
X426065Y588386D01*
X426088Y588368D01*
X426115Y588347D01*
X426185Y588306D01*
X426271Y588262D01*
X426318Y588244D01*
X426365Y588226D01*
X426421Y588212D01*
X426477Y588203D01*
X426536Y588197D01*
X426598Y588200D01*
X426604D01*
X426613Y588203D01*
X426633Y588206D01*
X426662Y588212D01*
X426701Y588220D01*
X426748Y588232D01*
X426807Y588250D01*
X426875Y588276D01*
X426954Y588309D01*
X427043Y588344D01*
X427143Y588391D01*
X427255Y588450D01*
X427378Y588515D01*
X427443Y588550D01*
X427514Y588592D01*
X427584Y588633D01*
X427664Y588677D01*
X427741Y588724D01*
X427823Y588777D01*
X427826Y588780D01*
X427835Y588783D01*
X427844Y588792D01*
X427861Y588804D01*
X427885Y588815D01*
X427909Y588833D01*
X427935Y588848D01*
X427967Y588868D01*
X428041Y588913D01*
X428126Y588963D01*
X428221Y589022D01*
X428321Y589081D01*
X428427Y589140D01*
X428533Y589198D01*
X428642Y589260D01*
X428748Y589319D01*
X428848Y589372D01*
X428948Y589419D01*
X429037Y589461D01*
X429116Y589493D01*
X429125Y589496D01*
X429143Y589502D01*
X429172Y589514D01*
X429213Y589525D01*
X429263Y589540D01*
X429325Y589555D01*
X429390Y589572D01*
X429464Y589587D01*
X429543Y589602D01*
X429626Y589614D01*
X429711Y589628D01*
X429799Y589634D01*
X429891Y589637D01*
X429982Y589634D01*
X430074Y589626D01*
X430162Y589614D01*
X430168D01*
X430182Y589611D01*
X430209Y589602D01*
X430241Y589593D01*
X430283Y589581D01*
X430330Y589564D01*
X430383Y589546D01*
X430442Y589522D01*
X430504Y589496D01*
X430571Y589464D01*
X430639Y589425D01*
X430710Y589384D01*
X430780Y589337D01*
X430851Y589284D01*
X430922Y589225D01*
X430993Y589160D01*
X430995Y589157D01*
X431007Y589145D01*
X431028Y589125D01*
X431051Y589095D01*
X431081Y589060D01*
X431113Y589016D01*
X431149Y588969D01*
X431187Y588913D01*
X431225Y588851D01*
X431269Y588783D01*
X431308Y588709D01*
X431346Y588630D01*
X431381Y588548D01*
X431414Y588456D01*
X431443Y588368D01*
X431467Y588268D01*
Y588262D01*
X431473Y588244D01*
X431475Y588218D01*
X431481Y588176D01*
X431487Y588129D01*
X431490Y588073D01*
X431496Y588008D01*
Y587938D01*
Y587855D01*
X431490Y587773D01*
X431481Y587682D01*
X431470Y587587D01*
X431455Y587490D01*
X431434Y587387D01*
X431402Y587284D01*
X431367Y587178D01*
Y587172D01*
X431358Y587151D01*
X431346Y587122D01*
X431325Y587084D01*
X431305Y587034D01*
X431275Y586974D01*
X431240Y586910D01*
X431202Y586836D01*
X431157Y586757D01*
X431104Y586674D01*
X431048Y586589D01*
X430987Y586497D01*
X430916Y586409D01*
X430842Y586318D01*
X430760Y586223D01*
X430674Y586132D01*
X430615Y586073D01*
X430568Y586032D01*
X430512Y585982D01*
X430448Y585923D01*
X430374Y585861D01*
X430291Y585796D01*
X430203Y585726D01*
X430109Y585655D01*
X430009Y585584D01*
X429906Y585511D01*
X429799Y585446D01*
X429691Y585384D01*
X429579Y585325D01*
X429467Y585278D01*
X429458Y585275D01*
X429440Y585269D01*
X429408Y585254D01*
X429366Y585243D01*
X429310Y585228D01*
X429246Y585210D01*
X429175Y585192D01*
X429093Y585175D01*
X429007Y585160D01*
X428913Y585148D01*
X428813Y585136D01*
X428713Y585131D01*
X428607D01*
X428498Y585134D01*
X428386Y585145D01*
X428274Y585163D01*
X428268D01*
X428247Y585172D01*
X428218Y585178D01*
X428171Y585190D01*
X428121Y585204D01*
X428062Y585228D01*
X427991Y585251D01*
X427920Y585281D01*
X427838Y585316D01*
X427752Y585354D01*
X427664Y585402D01*
X427576Y585455D01*
X427481Y585514D01*
X427390Y585581D01*
X427302Y585652D01*
X427210Y585732D01*
X427729Y586344D01*
X427732Y586341D01*
X427747Y586332D01*
X427767Y586318D01*
X427794Y586297D01*
X427829Y586273D01*
X427867Y586247D01*
X427914Y586217D01*
X427964Y586185D01*
X428079Y586123D01*
X428203Y586064D01*
X428336Y586008D01*
X428471Y585973D01*
X428477D01*
X428486Y585970D01*
X428506Y585967D01*
X428533Y585964D01*
X428571Y585961D01*
X428610Y585958D01*
X428710D01*
X428766Y585961D01*
X428830Y585967D01*
X428898Y585976D01*
X428969Y585988D01*
X429043Y586003D01*
X429119Y586020D01*
X429199Y586047D01*
X429281Y586076D01*
X429284Y586079D01*
X429302Y586085D01*
X429325Y586097D01*
X429355Y586109D01*
X429393Y586129D01*
X429440Y586153D01*
X429493Y586182D01*
X429549Y586215D01*
X429614Y586250D01*
X429679Y586291D01*
X429747Y586335D01*
X429817Y586388D01*
X429891Y586444D01*
X429962Y586503D01*
X430035Y586571D01*
X430109Y586639D01*
X430141Y586671D01*
X430165Y586701D01*
X430194Y586730D01*
X430224Y586765D01*
X430262Y586810D01*
X430300Y586854D01*
X430341Y586907D01*
X430383Y586960D01*
X430465Y587078D01*
X430545Y587210D01*
X430612Y587343D01*
X430615Y587346D01*
X430618Y587360D01*
X430627Y587381D01*
X430639Y587405D01*
X430648Y587437D01*
X430663Y587475D01*
X430686Y587564D01*
X430710Y587670D01*
X430727Y587782D01*
X430733Y587900D01*
X430730Y587955D01*
X430724Y588014D01*
Y588020D01*
X430722Y588029D01*
X430718Y588044D01*
X430713Y588067D01*
X430707Y588091D01*
X430698Y588123D01*
X430674Y588194D01*
X430639Y588276D01*
X430595Y588362D01*
X430536Y588450D01*
X430504Y588494D01*
X430465Y588533D01*
X430462Y588536D01*
X430456Y588542D01*
X430445Y588553D01*
X430427Y588565D01*
X430409Y588583D01*
X430383Y588603D01*
X430324Y588645D01*
X430253Y588686D01*
X430165Y588727D01*
X430074Y588760D01*
X429970Y588780D01*
X429967Y588783D01*
X429959Y588780D01*
X429944Y588783D01*
X429861D01*
X429823Y588780D01*
X429779Y588777D01*
X429732Y588771D01*
X429682Y588763D01*
X429623Y588751D01*
X429567Y588736D01*
X429502Y588718D01*
X429437Y588695D01*
X429366Y588671D01*
X429293Y588639D01*
X429290Y588636D01*
X429281Y588633D01*
X429263Y588627D01*
X429240Y588615D01*
X429210Y588597D01*
X429175Y588580D01*
X429125Y588553D01*
X429072Y588524D01*
X429007Y588489D01*
X428933Y588450D01*
X428848Y588400D01*
X428754Y588347D01*
X428651Y588285D01*
X428536Y588218D01*
X428406Y588141D01*
X428268Y588056D01*
X428265Y588053D01*
X428259D01*
X428250Y588044D01*
X428235Y588035D01*
X428194Y588011D01*
X428141Y587982D01*
X428076Y587941D01*
X428000Y587900D01*
X427920Y587855D01*
X427832Y587802D01*
X427643Y587702D01*
X427452Y587605D01*
X427361Y587561D01*
X427269Y587522D01*
X427184Y587490D01*
X427110Y587463D01*
X427104D01*
X427087Y587458D01*
X427063Y587452D01*
X427028Y587440D01*
X426984Y587431D01*
X426931Y587419D01*
X426875Y587411D01*
X426810Y587399D01*
X426674Y587381D01*
X426518Y587372D01*
X426365Y587378D01*
X426286Y587387D01*
X426206Y587402D01*
X426200D01*
X426188Y587407D01*
X426165Y587413D01*
X426138Y587422D01*
X426103Y587434D01*
X426059Y587449D01*
X426012Y587467D01*
X425961Y587487D01*
X425905Y587514D01*
X425847Y587543D01*
X425788Y587578D01*
X425726Y587611D01*
X425602Y587699D01*
X425543Y587752D01*
X425481Y587808D01*
X425478Y587811D01*
X425467Y587823D01*
X425449Y587840D01*
X425425Y587870D01*
X425399Y587902D01*
X425369Y587944D01*
X425334Y587991D01*
X425296Y588041D01*
X425261Y588100D01*
X425222Y588162D01*
X425184Y588229D01*
X425149Y588306D01*
X425113Y588382D01*
X425084Y588465D01*
X425057Y588550D01*
X425037Y588642D01*
Y588648D01*
X425034Y588662D01*
X425028Y588692D01*
X425022Y588727D01*
X425019Y588771D01*
X425016Y588827D01*
Y588886D01*
X425013Y588954D01*
X425016Y589028D01*
X425019Y589107D01*
X425028Y589193D01*
X425042Y589278D01*
X425060Y589372D01*
X425084Y589467D01*
X425116Y589564D01*
X425154Y589661D01*
Y589667D01*
X425166Y589684D01*
X425178Y589714D01*
X425196Y589749D01*
X425219Y589796D01*
X425246Y589852D01*
X425281Y589917D01*
X425319Y589985D01*
X425367Y590056D01*
X425417Y590135D01*
X425470Y590218D01*
X425532Y590303D01*
X425596Y590386D01*
X425667Y590474D01*
X425746Y590559D01*
X425829Y590648D01*
X425879Y590698D01*
X425917Y590730D01*
X425965Y590771D01*
X426017Y590818D01*
X426079Y590868D01*
X426150Y590927D01*
X426227Y590986D01*
X426306Y591048D01*
X426483Y591166D01*
X426577Y591225D01*
X426677Y591278D01*
X426774Y591328D01*
X426878Y591372D01*
X426886Y591375D01*
X426904Y591381D01*
X426934Y591393D01*
X426972Y591408D01*
X427022Y591422D01*
X427078Y591437D01*
X427143Y591455D01*
X427216Y591469D01*
X427296Y591484D01*
X427381Y591499D01*
X427467Y591508D01*
X427561Y591514D01*
X427652Y591516D01*
X427749Y591514D01*
D02*
G37*
G36*
X1540764Y364855D02*
X1540814Y364852D01*
X1540876Y364849D01*
X1540947Y364837D01*
X1541026Y364822D01*
X1541111Y364808D01*
X1541203Y364781D01*
X1541300Y364749D01*
X1541400Y364713D01*
X1541500Y364666D01*
X1541603Y364610D01*
X1541703Y364545D01*
X1541801Y364472D01*
X1541895Y364383D01*
X1541898Y364380D01*
X1541910Y364369D01*
X1541924Y364354D01*
X1541945Y364328D01*
X1541969Y364298D01*
X1541998Y364263D01*
X1542027Y364221D01*
X1542060Y364177D01*
X1542128Y364068D01*
X1542189Y363947D01*
X1542219Y363883D01*
X1542245Y363815D01*
X1542266Y363741D01*
X1542281Y363668D01*
Y363662D01*
Y363650D01*
X1542287Y363627D01*
Y363597D01*
X1542293Y363562D01*
X1542290Y363517D01*
X1542293Y363467D01*
X1542290Y363411D01*
X1542281Y363350D01*
X1542275Y363285D01*
X1542266Y363211D01*
X1542248Y363134D01*
X1542231Y363058D01*
X1542201Y362976D01*
X1542175Y362890D01*
X1542137Y362805D01*
X1542145Y362808D01*
X1542160Y362816D01*
X1542192Y362831D01*
X1542231Y362846D01*
X1542281Y362867D01*
X1542340Y362890D01*
X1542404Y362914D01*
X1542478Y362934D01*
X1542558Y362955D01*
X1542643Y362976D01*
X1542731Y362993D01*
X1542823Y363008D01*
X1542920Y363017D01*
X1543017Y363020D01*
X1543111Y363014D01*
X1543212Y363002D01*
X1543217D01*
X1543235Y362996D01*
X1543262Y362993D01*
X1543300Y362984D01*
X1543344Y362970D01*
X1543397Y362952D01*
X1543456Y362934D01*
X1543524Y362908D01*
X1543595Y362878D01*
X1543671Y362843D01*
X1543748Y362802D01*
X1543824Y362755D01*
X1543907Y362702D01*
X1543989Y362643D01*
X1544072Y362572D01*
X1544151Y362498D01*
X1544154Y362495D01*
X1544157Y362492D01*
X1544166Y362484D01*
X1544178Y362472D01*
X1544204Y362439D01*
X1544243Y362395D01*
X1544287Y362339D01*
X1544334Y362275D01*
X1544384Y362195D01*
X1544440Y362109D01*
X1544493Y362009D01*
X1544543Y361906D01*
X1544593Y361791D01*
X1544634Y361668D01*
X1544670Y361538D01*
X1544693Y361403D01*
X1544711Y361261D01*
X1544714Y361111D01*
X1544711Y361102D01*
X1544714Y361076D01*
X1544708Y361034D01*
X1544702Y360975D01*
X1544690Y360905D01*
X1544673Y360822D01*
X1544649Y360728D01*
X1544622Y360625D01*
X1544584Y360516D01*
X1544540Y360395D01*
X1544484Y360274D01*
X1544419Y360151D01*
X1544343Y360021D01*
X1544248Y359892D01*
X1544145Y359765D01*
X1544028Y359635D01*
X1543998Y359606D01*
X1543980Y359594D01*
X1543960Y359573D01*
X1543910Y359529D01*
X1543848Y359479D01*
X1543774Y359423D01*
X1543689Y359361D01*
X1543592Y359300D01*
X1543486Y359235D01*
X1543374Y359176D01*
X1543250Y359117D01*
X1543120Y359064D01*
X1542988Y359020D01*
X1542846Y358984D01*
X1542702Y358958D01*
X1542552Y358949D01*
X1542516D01*
X1542472Y358952D01*
X1542416Y358955D01*
X1542349Y358964D01*
X1542266Y358975D01*
X1542172Y358993D01*
X1542075Y359020D01*
X1541969Y359049D01*
X1541857Y359084D01*
X1541739Y359132D01*
X1541621Y359190D01*
X1541503Y359255D01*
X1541382Y359335D01*
X1541268Y359426D01*
X1541153Y359529D01*
X1541147Y359535D01*
X1541132Y359550D01*
X1541111Y359576D01*
X1541082Y359606D01*
X1541047Y359647D01*
X1541008Y359697D01*
X1540967Y359750D01*
X1540923Y359818D01*
X1540879Y359886D01*
X1540835Y359959D01*
X1540790Y360039D01*
X1540749Y360121D01*
X1540714Y360210D01*
X1540681Y360301D01*
X1540655Y360398D01*
X1540637Y360492D01*
Y360498D01*
Y360516D01*
X1540631Y360545D01*
X1540628Y360584D01*
Y360631D01*
Y360684D01*
X1540631Y360752D01*
X1540637Y360822D01*
X1540646Y360896D01*
X1540658Y360978D01*
X1540679Y361064D01*
X1540702Y361152D01*
X1540732Y361246D01*
X1540770Y361344D01*
X1540814Y361441D01*
X1540867Y361535D01*
X1540861D01*
X1540846Y361526D01*
X1540820Y361517D01*
X1540787Y361503D01*
X1540746Y361485D01*
X1540696Y361470D01*
X1540643Y361453D01*
X1540578Y361435D01*
X1540446Y361403D01*
X1540298Y361379D01*
X1540145Y361373D01*
X1540069D01*
X1539992Y361385D01*
X1539986D01*
X1539975Y361391D01*
X1539954Y361394D01*
X1539924Y361400D01*
X1539889Y361411D01*
X1539848Y361423D01*
X1539801Y361441D01*
X1539751Y361461D01*
X1539695Y361482D01*
X1539636Y361511D01*
X1539574Y361544D01*
X1539515Y361579D01*
X1539450Y361620D01*
X1539385Y361668D01*
X1539323Y361724D01*
X1539262Y361780D01*
X1539256Y361786D01*
X1539241Y361800D01*
X1539218Y361830D01*
X1539185Y361868D01*
X1539150Y361915D01*
X1539106Y361971D01*
X1539061Y362039D01*
X1539017Y362112D01*
X1538973Y362198D01*
X1538929Y362289D01*
X1538888Y362383D01*
X1538852Y362490D01*
X1538823Y362601D01*
X1538802Y362716D01*
X1538790Y362840D01*
X1538787Y362967D01*
Y362972D01*
X1538790Y362999D01*
X1538793Y363037D01*
X1538799Y363084D01*
X1538811Y363143D01*
X1538826Y363217D01*
X1538846Y363297D01*
X1538873Y363388D01*
X1538902Y363482D01*
X1538947Y363585D01*
X1538994Y363691D01*
X1539055Y363800D01*
X1539120Y363912D01*
X1539203Y364024D01*
X1539291Y364136D01*
X1539397Y364248D01*
X1539424Y364274D01*
X1539456Y364301D01*
X1539500Y364339D01*
X1539556Y364383D01*
X1539621Y364436D01*
X1539698Y364490D01*
X1539783Y364545D01*
X1539874Y364601D01*
X1539975Y364654D01*
X1540081Y364707D01*
X1540195Y364757D01*
X1540313Y364793D01*
X1540437Y364828D01*
X1540564Y364849D01*
X1540696Y364858D01*
X1540726D01*
X1540764Y364855D01*
D02*
G37*
G36*
X1540891Y356651D02*
X1540313Y356074D01*
X1535910Y358569D01*
X1535904Y358575D01*
X1535886Y358581D01*
X1535857Y358598D01*
X1535821Y358622D01*
X1535777Y358643D01*
X1535730Y358672D01*
X1535674Y358704D01*
X1535618Y358737D01*
X1535500Y358802D01*
X1535444Y358834D01*
X1535391Y358863D01*
X1535344Y358893D01*
X1535300Y358919D01*
X1535265Y358943D01*
X1535238Y358958D01*
X1535241Y358955D01*
X1535250Y358940D01*
X1535262Y358922D01*
X1535279Y358893D01*
X1535300Y358861D01*
X1535321Y358822D01*
X1535350Y358781D01*
X1535376Y358731D01*
X1535438Y358628D01*
X1535506Y358519D01*
X1535574Y358404D01*
X1535636Y358295D01*
X1538122Y353883D01*
X1537512Y353273D01*
X1531783Y356598D01*
X1532396Y357211D01*
X1536054Y354931D01*
X1536060Y354925D01*
X1536080Y354916D01*
X1536113Y354896D01*
X1536151Y354869D01*
X1536204Y354840D01*
X1536263Y354799D01*
X1536334Y354757D01*
X1536407Y354707D01*
X1536490Y354654D01*
X1536581Y354598D01*
X1536673Y354537D01*
X1536767Y354472D01*
X1536967Y354336D01*
X1537170Y354198D01*
X1537167Y354201D01*
X1537164Y354210D01*
X1537156Y354218D01*
X1537147Y354239D01*
X1537135Y354257D01*
X1537120Y354283D01*
X1537082Y354339D01*
X1537041Y354410D01*
X1536991Y354489D01*
X1536941Y354575D01*
X1536885Y354666D01*
X1536776Y354846D01*
X1536723Y354934D01*
X1536670Y355017D01*
X1536625Y355090D01*
X1536590Y355155D01*
X1536575Y355182D01*
X1536558Y355205D01*
X1536549Y355226D01*
X1536540Y355241D01*
X1534343Y359158D01*
X1535067Y359883D01*
X1538007Y358239D01*
X1538010Y358236D01*
X1538019Y358233D01*
X1538033Y358224D01*
X1538057Y358213D01*
X1538083Y358198D01*
X1538113Y358180D01*
X1538151Y358160D01*
X1538192Y358136D01*
X1538239Y358106D01*
X1538287Y358077D01*
X1538343Y358045D01*
X1538399Y358012D01*
X1538525Y357939D01*
X1538664Y357853D01*
X1538811Y357765D01*
X1538967Y357668D01*
X1539126Y357562D01*
X1539294Y357453D01*
X1539462Y357344D01*
X1539633Y357226D01*
X1539798Y357108D01*
X1539960Y356987D01*
X1539954Y356993D01*
X1539942Y357011D01*
X1539924Y357040D01*
X1539898Y357079D01*
X1539868Y357126D01*
X1539830Y357188D01*
X1539786Y357255D01*
X1539739Y357332D01*
X1539683Y357417D01*
X1539627Y357509D01*
X1539562Y357609D01*
X1539497Y357715D01*
X1539427Y357827D01*
X1539356Y357944D01*
X1539279Y358068D01*
X1539203Y358198D01*
X1537002Y361818D01*
X1537606Y362422D01*
X1540891Y356651D01*
D02*
G37*
G36*
X1531379Y355294D02*
X1531480Y355282D01*
X1531577Y355267D01*
X1531583D01*
X1531600Y355261D01*
X1531630Y355255D01*
X1531665Y355243D01*
X1531712Y355232D01*
X1531765Y355214D01*
X1531824Y355191D01*
X1531889Y355167D01*
X1531960Y355137D01*
X1532036Y355102D01*
X1532113Y355061D01*
X1532192Y355017D01*
X1532275Y354964D01*
X1532354Y354908D01*
X1532434Y354846D01*
X1532513Y354778D01*
X1531983Y354160D01*
X1531977Y354165D01*
X1531963Y354174D01*
X1531936Y354195D01*
X1531901Y354218D01*
X1531859Y354248D01*
X1531806Y354277D01*
X1531748Y354313D01*
X1531686Y354345D01*
X1531612Y354378D01*
X1531539Y354410D01*
X1531459Y354436D01*
X1531376Y354460D01*
X1531291Y354481D01*
X1531203Y354492D01*
X1531111Y354495D01*
X1531020Y354492D01*
X1531014D01*
X1530999Y354489D01*
X1530973Y354487D01*
X1530935Y354478D01*
X1530893Y354466D01*
X1530838Y354451D01*
X1530779Y354434D01*
X1530711Y354407D01*
X1530637Y354375D01*
X1530561Y354333D01*
X1530475Y354289D01*
X1530390Y354233D01*
X1530298Y354171D01*
X1530204Y354101D01*
X1530107Y354015D01*
X1530010Y353924D01*
X1529957Y353871D01*
X1529924Y353833D01*
X1529883Y353785D01*
X1529836Y353727D01*
X1529786Y353665D01*
X1529730Y353597D01*
X1529627Y353441D01*
X1529577Y353361D01*
X1529533Y353276D01*
X1529488Y353190D01*
X1529459Y353102D01*
X1529433Y353017D01*
X1529418Y352931D01*
Y352925D01*
X1529415Y352911D01*
Y352887D01*
Y352858D01*
Y352822D01*
Y352775D01*
X1529421Y352728D01*
X1529427Y352675D01*
X1529438Y352616D01*
X1529453Y352560D01*
X1529474Y352498D01*
X1529494Y352436D01*
X1529524Y352378D01*
X1529559Y352319D01*
X1529600Y352260D01*
X1529650Y352204D01*
X1529653Y352201D01*
X1529662Y352192D01*
X1529674Y352180D01*
X1529695Y352165D01*
X1529718Y352148D01*
X1529745Y352127D01*
X1529815Y352086D01*
X1529901Y352042D01*
X1529948Y352024D01*
X1529995Y352006D01*
X1530051Y351992D01*
X1530107Y351983D01*
X1530166Y351977D01*
X1530228Y351980D01*
X1530234D01*
X1530242Y351983D01*
X1530263Y351986D01*
X1530293Y351992D01*
X1530331Y352001D01*
X1530378Y352012D01*
X1530437Y352030D01*
X1530505Y352056D01*
X1530584Y352089D01*
X1530672Y352124D01*
X1530773Y352171D01*
X1530885Y352230D01*
X1531008Y352295D01*
X1531073Y352330D01*
X1531144Y352372D01*
X1531214Y352413D01*
X1531294Y352457D01*
X1531371Y352504D01*
X1531453Y352557D01*
X1531456Y352560D01*
X1531465Y352563D01*
X1531474Y352572D01*
X1531491Y352584D01*
X1531515Y352595D01*
X1531539Y352613D01*
X1531565Y352628D01*
X1531597Y352649D01*
X1531671Y352693D01*
X1531756Y352743D01*
X1531851Y352802D01*
X1531951Y352861D01*
X1532057Y352920D01*
X1532163Y352978D01*
X1532272Y353040D01*
X1532378Y353099D01*
X1532478Y353152D01*
X1532578Y353199D01*
X1532667Y353241D01*
X1532746Y353273D01*
X1532755Y353276D01*
X1532773Y353282D01*
X1532802Y353294D01*
X1532843Y353305D01*
X1532893Y353320D01*
X1532955Y353335D01*
X1533020Y353353D01*
X1533094Y353367D01*
X1533173Y353382D01*
X1533256Y353394D01*
X1533341Y353408D01*
X1533430Y353414D01*
X1533521Y353417D01*
X1533612Y353414D01*
X1533703Y353405D01*
X1533792Y353394D01*
X1533798D01*
X1533812Y353391D01*
X1533839Y353382D01*
X1533871Y353373D01*
X1533913Y353361D01*
X1533960Y353344D01*
X1534013Y353326D01*
X1534072Y353302D01*
X1534133Y353276D01*
X1534201Y353243D01*
X1534269Y353205D01*
X1534340Y353164D01*
X1534410Y353117D01*
X1534481Y353064D01*
X1534552Y353005D01*
X1534622Y352940D01*
X1534625Y352937D01*
X1534637Y352925D01*
X1534658Y352905D01*
X1534681Y352875D01*
X1534711Y352840D01*
X1534743Y352796D01*
X1534779Y352749D01*
X1534817Y352693D01*
X1534855Y352631D01*
X1534899Y352563D01*
X1534938Y352489D01*
X1534976Y352410D01*
X1535011Y352327D01*
X1535044Y352236D01*
X1535073Y352148D01*
X1535097Y352048D01*
Y352042D01*
X1535103Y352024D01*
X1535105Y351997D01*
X1535111Y351956D01*
X1535117Y351909D01*
X1535120Y351853D01*
X1535126Y351788D01*
Y351718D01*
Y351635D01*
X1535120Y351553D01*
X1535111Y351461D01*
X1535100Y351367D01*
X1535085Y351270D01*
X1535064Y351167D01*
X1535032Y351064D01*
X1534996Y350958D01*
Y350952D01*
X1534988Y350931D01*
X1534976Y350902D01*
X1534955Y350863D01*
X1534935Y350813D01*
X1534905Y350755D01*
X1534870Y350690D01*
X1534832Y350616D01*
X1534787Y350536D01*
X1534734Y350454D01*
X1534678Y350369D01*
X1534617Y350277D01*
X1534546Y350189D01*
X1534472Y350098D01*
X1534390Y350003D01*
X1534304Y349912D01*
X1534245Y349853D01*
X1534198Y349812D01*
X1534142Y349762D01*
X1534077Y349703D01*
X1534004Y349641D01*
X1533921Y349576D01*
X1533833Y349506D01*
X1533739Y349435D01*
X1533639Y349364D01*
X1533535Y349291D01*
X1533430Y349226D01*
X1533320Y349164D01*
X1533209Y349105D01*
X1533097Y349058D01*
X1533088Y349055D01*
X1533070Y349049D01*
X1533038Y349034D01*
X1532997Y349022D01*
X1532941Y349008D01*
X1532876Y348990D01*
X1532805Y348973D01*
X1532723Y348955D01*
X1532637Y348940D01*
X1532543Y348928D01*
X1532443Y348917D01*
X1532343Y348911D01*
X1532237D01*
X1532128Y348914D01*
X1532016Y348925D01*
X1531904Y348943D01*
X1531898D01*
X1531877Y348952D01*
X1531848Y348958D01*
X1531801Y348969D01*
X1531751Y348984D01*
X1531692Y349008D01*
X1531621Y349031D01*
X1531550Y349061D01*
X1531468Y349096D01*
X1531382Y349134D01*
X1531294Y349182D01*
X1531206Y349235D01*
X1531111Y349294D01*
X1531020Y349361D01*
X1530932Y349432D01*
X1530840Y349511D01*
X1531359Y350124D01*
X1531362Y350121D01*
X1531376Y350112D01*
X1531397Y350098D01*
X1531424Y350077D01*
X1531459Y350053D01*
X1531497Y350027D01*
X1531544Y349997D01*
X1531594Y349965D01*
X1531709Y349903D01*
X1531833Y349844D01*
X1531966Y349788D01*
X1532101Y349753D01*
X1532107D01*
X1532116Y349750D01*
X1532136Y349747D01*
X1532163Y349744D01*
X1532201Y349741D01*
X1532240Y349738D01*
X1532340D01*
X1532396Y349741D01*
X1532460Y349747D01*
X1532528Y349756D01*
X1532599Y349768D01*
X1532672Y349782D01*
X1532749Y349800D01*
X1532829Y349827D01*
X1532911Y349856D01*
X1532914Y349859D01*
X1532932Y349865D01*
X1532955Y349877D01*
X1532985Y349888D01*
X1533023Y349909D01*
X1533070Y349933D01*
X1533123Y349962D01*
X1533179Y349995D01*
X1533244Y350030D01*
X1533309Y350071D01*
X1533376Y350115D01*
X1533447Y350168D01*
X1533521Y350224D01*
X1533591Y350283D01*
X1533665Y350351D01*
X1533739Y350419D01*
X1533771Y350451D01*
X1533795Y350481D01*
X1533824Y350510D01*
X1533854Y350545D01*
X1533892Y350589D01*
X1533930Y350634D01*
X1533972Y350687D01*
X1534013Y350740D01*
X1534095Y350858D01*
X1534175Y350990D01*
X1534243Y351123D01*
X1534245Y351126D01*
X1534248Y351140D01*
X1534257Y351161D01*
X1534269Y351185D01*
X1534278Y351217D01*
X1534293Y351255D01*
X1534316Y351344D01*
X1534340Y351450D01*
X1534357Y351562D01*
X1534363Y351679D01*
X1534360Y351735D01*
X1534354Y351794D01*
Y351800D01*
X1534352Y351809D01*
X1534348Y351824D01*
X1534343Y351847D01*
X1534337Y351871D01*
X1534328Y351903D01*
X1534304Y351974D01*
X1534269Y352056D01*
X1534225Y352142D01*
X1534166Y352230D01*
X1534133Y352274D01*
X1534095Y352313D01*
X1534092Y352316D01*
X1534086Y352322D01*
X1534075Y352333D01*
X1534057Y352345D01*
X1534039Y352363D01*
X1534013Y352383D01*
X1533954Y352425D01*
X1533883Y352466D01*
X1533795Y352507D01*
X1533703Y352539D01*
X1533600Y352560D01*
X1533597Y352563D01*
X1533589Y352560D01*
X1533574Y352563D01*
X1533491D01*
X1533453Y352560D01*
X1533409Y352557D01*
X1533362Y352551D01*
X1533312Y352542D01*
X1533253Y352531D01*
X1533197Y352516D01*
X1533132Y352498D01*
X1533067Y352475D01*
X1532997Y352451D01*
X1532923Y352419D01*
X1532920Y352416D01*
X1532911Y352413D01*
X1532893Y352407D01*
X1532870Y352395D01*
X1532840Y352378D01*
X1532805Y352360D01*
X1532755Y352333D01*
X1532702Y352304D01*
X1532637Y352268D01*
X1532563Y352230D01*
X1532478Y352180D01*
X1532384Y352127D01*
X1532281Y352065D01*
X1532166Y351997D01*
X1532036Y351921D01*
X1531898Y351836D01*
X1531895Y351833D01*
X1531889D01*
X1531880Y351824D01*
X1531865Y351815D01*
X1531824Y351791D01*
X1531771Y351762D01*
X1531706Y351721D01*
X1531630Y351679D01*
X1531550Y351635D01*
X1531462Y351582D01*
X1531273Y351482D01*
X1531082Y351385D01*
X1530991Y351341D01*
X1530899Y351302D01*
X1530814Y351270D01*
X1530740Y351244D01*
X1530734D01*
X1530717Y351238D01*
X1530693Y351232D01*
X1530658Y351220D01*
X1530614Y351211D01*
X1530561Y351199D01*
X1530505Y351190D01*
X1530440Y351179D01*
X1530304Y351161D01*
X1530148Y351152D01*
X1529995Y351158D01*
X1529915Y351167D01*
X1529836Y351182D01*
X1529830D01*
X1529818Y351188D01*
X1529795Y351193D01*
X1529768Y351202D01*
X1529733Y351214D01*
X1529689Y351229D01*
X1529642Y351246D01*
X1529592Y351267D01*
X1529536Y351293D01*
X1529477Y351323D01*
X1529418Y351358D01*
X1529356Y351391D01*
X1529232Y351479D01*
X1529173Y351532D01*
X1529111Y351588D01*
X1529108Y351591D01*
X1529097Y351603D01*
X1529079Y351620D01*
X1529055Y351650D01*
X1529029Y351682D01*
X1528999Y351724D01*
X1528964Y351771D01*
X1528926Y351821D01*
X1528891Y351880D01*
X1528852Y351942D01*
X1528814Y352009D01*
X1528779Y352086D01*
X1528743Y352163D01*
X1528714Y352245D01*
X1528687Y352330D01*
X1528667Y352422D01*
Y352428D01*
X1528664Y352442D01*
X1528658Y352472D01*
X1528652Y352507D01*
X1528649Y352551D01*
X1528646Y352607D01*
Y352666D01*
X1528643Y352734D01*
X1528646Y352808D01*
X1528649Y352887D01*
X1528658Y352972D01*
X1528672Y353058D01*
X1528690Y353152D01*
X1528714Y353246D01*
X1528746Y353344D01*
X1528784Y353441D01*
Y353447D01*
X1528796Y353464D01*
X1528808Y353494D01*
X1528826Y353529D01*
X1528849Y353576D01*
X1528876Y353632D01*
X1528911Y353697D01*
X1528949Y353765D01*
X1528996Y353835D01*
X1529047Y353915D01*
X1529100Y353997D01*
X1529162Y354083D01*
X1529226Y354165D01*
X1529297Y354254D01*
X1529377Y354339D01*
X1529459Y354428D01*
X1529509Y354478D01*
X1529547Y354510D01*
X1529595Y354551D01*
X1529648Y354598D01*
X1529709Y354649D01*
X1529780Y354707D01*
X1529857Y354766D01*
X1529936Y354828D01*
X1530113Y354946D01*
X1530207Y355005D01*
X1530307Y355058D01*
X1530405Y355108D01*
X1530508Y355152D01*
X1530516Y355155D01*
X1530534Y355161D01*
X1530564Y355173D01*
X1530602Y355187D01*
X1530652Y355202D01*
X1530708Y355217D01*
X1530773Y355235D01*
X1530846Y355249D01*
X1530926Y355264D01*
X1531011Y355279D01*
X1531097Y355288D01*
X1531191Y355294D01*
X1531282Y355297D01*
X1531379Y355294D01*
D02*
G37*
G36*
X1540808Y601166D02*
X1540864Y601163D01*
X1540929Y601157D01*
X1541005Y601145D01*
X1541091Y601131D01*
X1541182Y601110D01*
X1541279Y601084D01*
X1541382Y601051D01*
X1541488Y601010D01*
X1541597Y600960D01*
X1541706Y600898D01*
X1541818Y600833D01*
X1541930Y600751D01*
X1541424Y600156D01*
X1541421Y600159D01*
X1541406Y600168D01*
X1541382Y600179D01*
X1541356Y600194D01*
X1541324Y600215D01*
X1541279Y600235D01*
X1541238Y600259D01*
X1541185Y600282D01*
X1541079Y600330D01*
X1540964Y600374D01*
X1540846Y600403D01*
X1540790Y600412D01*
X1540737Y600418D01*
X1540732D01*
X1540717Y600421D01*
X1540690Y600418D01*
X1540658Y600415D01*
X1540620Y600412D01*
X1540572Y600406D01*
X1540522Y600397D01*
X1540463Y600386D01*
X1540405Y600368D01*
X1540340Y600344D01*
X1540275Y600321D01*
X1540207Y600288D01*
X1540137Y600253D01*
X1540072Y600212D01*
X1540007Y600159D01*
X1539942Y600100D01*
X1539916Y600073D01*
X1539901Y600053D01*
X1539877Y600029D01*
X1539857Y599997D01*
X1539830Y599964D01*
X1539804Y599926D01*
X1539748Y599835D01*
X1539695Y599729D01*
X1539674Y599673D01*
X1539651Y599614D01*
X1539636Y599552D01*
X1539624Y599487D01*
Y599481D01*
X1539621Y599467D01*
X1539618Y599440D01*
X1539615Y599408D01*
Y599366D01*
X1539612Y599316D01*
Y599257D01*
X1539615Y599196D01*
X1539621Y599125D01*
X1539627Y599048D01*
X1539642Y598969D01*
X1539656Y598883D01*
X1539674Y598795D01*
X1539700Y598704D01*
X1539730Y598609D01*
X1539768Y598512D01*
Y598506D01*
X1539780Y598489D01*
X1539792Y598459D01*
X1539812Y598421D01*
X1539839Y598371D01*
X1539874Y598312D01*
X1539913Y598244D01*
X1539960Y598167D01*
X1540016Y598082D01*
X1540083Y597991D01*
X1540154Y597891D01*
X1540237Y597785D01*
X1540328Y597676D01*
X1540428Y597558D01*
X1540540Y597434D01*
X1540661Y597307D01*
Y597313D01*
X1540655Y597331D01*
X1540652Y597357D01*
X1540646Y597393D01*
X1540640Y597440D01*
X1540634Y597493D01*
X1540628Y597552D01*
X1540625Y597614D01*
X1540623Y597687D01*
Y597758D01*
X1540625Y597838D01*
X1540631Y597920D01*
X1540655Y598085D01*
X1540673Y598167D01*
X1540696Y598250D01*
Y598256D01*
X1540702Y598268D01*
X1540711Y598294D01*
X1540723Y598324D01*
X1540737Y598362D01*
X1540758Y598406D01*
X1540779Y598456D01*
X1540805Y598512D01*
X1540838Y598568D01*
X1540870Y598630D01*
X1540908Y598692D01*
X1540949Y598757D01*
X1541044Y598886D01*
X1541100Y598948D01*
X1541156Y599010D01*
X1541179Y599034D01*
X1541212Y599060D01*
X1541256Y599098D01*
X1541309Y599140D01*
X1541374Y599187D01*
X1541450Y599234D01*
X1541533Y599287D01*
X1541630Y599337D01*
X1541733Y599387D01*
X1541842Y599431D01*
X1541966Y599472D01*
X1542092Y599505D01*
X1542225Y599531D01*
X1542366Y599543D01*
X1542513Y599549D01*
X1542549D01*
X1542590Y599543D01*
X1542649Y599537D01*
X1542720Y599525D01*
X1542802Y599508D01*
X1542894Y599487D01*
X1542997Y599461D01*
X1543105Y599422D01*
X1543220Y599378D01*
X1543338Y599325D01*
X1543462Y599260D01*
X1543589Y599187D01*
X1543712Y599098D01*
X1543842Y598998D01*
X1543963Y598883D01*
X1543969Y598877D01*
X1543980Y598866D01*
X1544004Y598842D01*
X1544033Y598807D01*
X1544066Y598768D01*
X1544107Y598721D01*
X1544151Y598665D01*
X1544198Y598601D01*
X1544248Y598533D01*
X1544301Y598456D01*
X1544352Y598377D01*
X1544399Y598288D01*
X1544449Y598197D01*
X1544493Y598106D01*
X1544534Y598005D01*
X1544572Y597902D01*
Y597896D01*
X1544578Y597879D01*
X1544590Y597849D01*
X1544599Y597811D01*
X1544611Y597758D01*
X1544626Y597702D01*
X1544637Y597637D01*
X1544646Y597564D01*
X1544658Y597487D01*
X1544667Y597402D01*
X1544673Y597313D01*
Y597225D01*
X1544670Y597128D01*
X1544664Y597034D01*
X1544649Y596936D01*
X1544628Y596839D01*
Y596833D01*
X1544622Y596815D01*
X1544614Y596789D01*
X1544602Y596754D01*
X1544587Y596709D01*
X1544566Y596654D01*
X1544540Y596598D01*
X1544511Y596533D01*
X1544481Y596462D01*
X1544440Y596391D01*
X1544396Y596312D01*
X1544346Y596232D01*
X1544293Y596156D01*
X1544231Y596076D01*
X1544163Y595997D01*
X1544089Y595917D01*
X1544060Y595888D01*
X1544039Y595873D01*
X1544019Y595852D01*
X1543995Y595835D01*
X1543966Y595811D01*
X1543901Y595758D01*
X1543821Y595702D01*
X1543727Y595643D01*
X1543621Y595578D01*
X1543509Y595519D01*
X1543382Y595458D01*
X1543247Y595405D01*
X1543103Y595360D01*
X1542949Y595325D01*
X1542787Y595299D01*
X1542619Y595290D01*
X1542534Y595287D01*
X1542446Y595293D01*
X1542443Y595296D01*
X1542434Y595293D01*
X1542419Y595296D01*
X1542404Y595299D01*
X1542378Y595302D01*
X1542349Y595307D01*
X1542319Y595313D01*
X1542281Y595322D01*
X1542237Y595331D01*
X1542189Y595343D01*
X1542137Y595360D01*
X1542083Y595378D01*
X1542025Y595396D01*
X1541960Y595419D01*
X1541895Y595449D01*
X1541827Y595475D01*
X1541754Y595508D01*
X1541674Y595546D01*
X1541595Y595584D01*
X1541509Y595629D01*
X1541424Y595678D01*
X1541335Y595732D01*
X1541244Y595788D01*
X1541150Y595846D01*
X1541053Y595914D01*
X1540955Y595988D01*
X1540855Y596064D01*
X1540749Y596147D01*
X1540646Y596238D01*
X1540540Y596332D01*
X1540431Y596430D01*
X1540322Y596539D01*
X1540319Y596542D01*
X1540307Y596553D01*
X1540290Y596571D01*
X1540263Y596598D01*
X1540237Y596630D01*
X1540198Y596668D01*
X1540160Y596712D01*
X1540116Y596763D01*
X1540066Y596818D01*
X1540013Y596877D01*
X1539960Y596942D01*
X1539901Y597013D01*
X1539839Y597086D01*
X1539780Y597163D01*
X1539653Y597331D01*
X1539521Y597511D01*
X1539397Y597699D01*
X1539279Y597899D01*
X1539167Y598106D01*
X1539073Y598312D01*
X1538994Y598521D01*
X1538961Y598624D01*
X1538935Y598727D01*
X1538914Y598830D01*
X1538899Y598933D01*
X1538896Y598936D01*
X1538899Y598945D01*
X1538896Y598978D01*
Y599025D01*
X1538893Y599092D01*
X1538899Y599175D01*
X1538905Y599269D01*
X1538920Y599378D01*
X1538941Y599493D01*
X1538973Y599620D01*
X1539011Y599752D01*
X1539061Y599891D01*
X1539120Y600032D01*
X1539197Y600173D01*
X1539291Y600315D01*
X1539397Y600456D01*
X1539456Y600527D01*
X1539544Y600615D01*
X1539574Y600639D01*
X1539615Y600674D01*
X1539665Y600718D01*
X1539721Y600762D01*
X1539792Y600810D01*
X1539868Y600863D01*
X1539951Y600916D01*
X1540042Y600966D01*
X1540139Y601016D01*
X1540242Y601060D01*
X1540352Y601098D01*
X1540461Y601131D01*
X1540578Y601154D01*
X1540696Y601166D01*
X1540726D01*
X1540758Y601169D01*
X1540808Y601166D01*
D02*
G37*
G36*
X1540891Y592871D02*
X1540313Y592294D01*
X1535910Y594789D01*
X1535904Y594795D01*
X1535886Y594801D01*
X1535857Y594818D01*
X1535821Y594842D01*
X1535777Y594863D01*
X1535730Y594892D01*
X1535674Y594925D01*
X1535618Y594957D01*
X1535500Y595022D01*
X1535444Y595054D01*
X1535391Y595084D01*
X1535344Y595113D01*
X1535300Y595140D01*
X1535265Y595163D01*
X1535238Y595178D01*
X1535241Y595175D01*
X1535250Y595160D01*
X1535262Y595142D01*
X1535279Y595113D01*
X1535300Y595081D01*
X1535321Y595042D01*
X1535350Y595001D01*
X1535376Y594951D01*
X1535438Y594848D01*
X1535506Y594739D01*
X1535574Y594624D01*
X1535636Y594515D01*
X1538122Y590103D01*
X1537512Y589493D01*
X1531783Y592818D01*
X1532396Y593431D01*
X1536054Y591151D01*
X1536060Y591145D01*
X1536080Y591137D01*
X1536113Y591116D01*
X1536151Y591089D01*
X1536204Y591060D01*
X1536263Y591019D01*
X1536334Y590978D01*
X1536407Y590927D01*
X1536490Y590874D01*
X1536581Y590818D01*
X1536673Y590757D01*
X1536767Y590692D01*
X1536967Y590556D01*
X1537170Y590418D01*
X1537167Y590421D01*
X1537164Y590430D01*
X1537156Y590438D01*
X1537147Y590459D01*
X1537135Y590477D01*
X1537120Y590503D01*
X1537082Y590559D01*
X1537041Y590630D01*
X1536991Y590709D01*
X1536941Y590795D01*
X1536885Y590886D01*
X1536776Y591066D01*
X1536723Y591154D01*
X1536670Y591237D01*
X1536625Y591310D01*
X1536590Y591375D01*
X1536575Y591402D01*
X1536558Y591425D01*
X1536549Y591446D01*
X1536540Y591460D01*
X1534343Y595378D01*
X1535067Y596103D01*
X1538007Y594459D01*
X1538010Y594456D01*
X1538019Y594453D01*
X1538033Y594444D01*
X1538057Y594433D01*
X1538083Y594418D01*
X1538113Y594400D01*
X1538151Y594380D01*
X1538192Y594356D01*
X1538239Y594327D01*
X1538287Y594297D01*
X1538343Y594265D01*
X1538399Y594232D01*
X1538525Y594159D01*
X1538664Y594073D01*
X1538811Y593985D01*
X1538967Y593888D01*
X1539126Y593782D01*
X1539294Y593673D01*
X1539462Y593564D01*
X1539633Y593446D01*
X1539798Y593328D01*
X1539960Y593207D01*
X1539954Y593213D01*
X1539942Y593231D01*
X1539924Y593260D01*
X1539898Y593298D01*
X1539868Y593346D01*
X1539830Y593408D01*
X1539786Y593475D01*
X1539739Y593552D01*
X1539683Y593637D01*
X1539627Y593729D01*
X1539562Y593829D01*
X1539497Y593935D01*
X1539427Y594047D01*
X1539356Y594165D01*
X1539279Y594288D01*
X1539203Y594418D01*
X1537002Y598038D01*
X1537606Y598642D01*
X1540891Y592871D01*
D02*
G37*
G36*
X1531379Y591513D02*
X1531480Y591502D01*
X1531577Y591487D01*
X1531583D01*
X1531600Y591481D01*
X1531630Y591475D01*
X1531665Y591464D01*
X1531712Y591452D01*
X1531765Y591434D01*
X1531824Y591410D01*
X1531889Y591387D01*
X1531960Y591357D01*
X1532036Y591322D01*
X1532113Y591281D01*
X1532192Y591237D01*
X1532275Y591184D01*
X1532354Y591128D01*
X1532434Y591066D01*
X1532513Y590998D01*
X1531983Y590379D01*
X1531977Y590385D01*
X1531963Y590394D01*
X1531936Y590415D01*
X1531901Y590438D01*
X1531859Y590468D01*
X1531806Y590497D01*
X1531748Y590533D01*
X1531686Y590565D01*
X1531612Y590597D01*
X1531539Y590630D01*
X1531459Y590656D01*
X1531376Y590680D01*
X1531291Y590701D01*
X1531203Y590712D01*
X1531111Y590715D01*
X1531020Y590712D01*
X1531014D01*
X1530999Y590709D01*
X1530973Y590706D01*
X1530935Y590698D01*
X1530893Y590686D01*
X1530838Y590671D01*
X1530779Y590653D01*
X1530711Y590627D01*
X1530637Y590595D01*
X1530561Y590553D01*
X1530475Y590509D01*
X1530390Y590453D01*
X1530298Y590391D01*
X1530204Y590321D01*
X1530107Y590235D01*
X1530010Y590144D01*
X1529957Y590091D01*
X1529924Y590053D01*
X1529883Y590005D01*
X1529836Y589947D01*
X1529786Y589885D01*
X1529730Y589817D01*
X1529627Y589661D01*
X1529577Y589581D01*
X1529533Y589496D01*
X1529488Y589411D01*
X1529459Y589322D01*
X1529433Y589237D01*
X1529418Y589151D01*
Y589145D01*
X1529415Y589131D01*
Y589107D01*
Y589078D01*
Y589042D01*
Y588995D01*
X1529421Y588948D01*
X1529427Y588895D01*
X1529438Y588836D01*
X1529453Y588780D01*
X1529474Y588718D01*
X1529494Y588656D01*
X1529524Y588597D01*
X1529559Y588539D01*
X1529600Y588480D01*
X1529650Y588424D01*
X1529653Y588421D01*
X1529662Y588412D01*
X1529674Y588400D01*
X1529695Y588385D01*
X1529718Y588368D01*
X1529745Y588347D01*
X1529815Y588306D01*
X1529901Y588262D01*
X1529948Y588244D01*
X1529995Y588226D01*
X1530051Y588212D01*
X1530107Y588203D01*
X1530166Y588197D01*
X1530228Y588200D01*
X1530234D01*
X1530242Y588203D01*
X1530263Y588206D01*
X1530293Y588212D01*
X1530331Y588220D01*
X1530378Y588232D01*
X1530437Y588250D01*
X1530505Y588276D01*
X1530584Y588309D01*
X1530672Y588344D01*
X1530773Y588391D01*
X1530885Y588450D01*
X1531008Y588515D01*
X1531073Y588550D01*
X1531144Y588592D01*
X1531214Y588633D01*
X1531294Y588677D01*
X1531371Y588724D01*
X1531453Y588777D01*
X1531456Y588780D01*
X1531465Y588783D01*
X1531474Y588792D01*
X1531491Y588804D01*
X1531515Y588815D01*
X1531539Y588833D01*
X1531565Y588848D01*
X1531597Y588868D01*
X1531671Y588913D01*
X1531756Y588963D01*
X1531851Y589022D01*
X1531951Y589081D01*
X1532057Y589140D01*
X1532163Y589198D01*
X1532272Y589260D01*
X1532378Y589319D01*
X1532478Y589372D01*
X1532578Y589419D01*
X1532667Y589460D01*
X1532746Y589493D01*
X1532755Y589496D01*
X1532773Y589502D01*
X1532802Y589514D01*
X1532843Y589525D01*
X1532893Y589540D01*
X1532955Y589555D01*
X1533020Y589572D01*
X1533094Y589587D01*
X1533173Y589602D01*
X1533256Y589614D01*
X1533341Y589628D01*
X1533430Y589634D01*
X1533521Y589637D01*
X1533612Y589634D01*
X1533703Y589626D01*
X1533792Y589614D01*
X1533798D01*
X1533812Y589611D01*
X1533839Y589602D01*
X1533871Y589593D01*
X1533913Y589581D01*
X1533960Y589564D01*
X1534013Y589546D01*
X1534072Y589522D01*
X1534133Y589496D01*
X1534201Y589464D01*
X1534269Y589425D01*
X1534340Y589384D01*
X1534410Y589337D01*
X1534481Y589284D01*
X1534552Y589225D01*
X1534622Y589160D01*
X1534625Y589157D01*
X1534637Y589145D01*
X1534658Y589125D01*
X1534681Y589095D01*
X1534711Y589060D01*
X1534743Y589016D01*
X1534779Y588969D01*
X1534817Y588913D01*
X1534855Y588851D01*
X1534899Y588783D01*
X1534938Y588709D01*
X1534976Y588630D01*
X1535011Y588547D01*
X1535044Y588456D01*
X1535073Y588368D01*
X1535097Y588268D01*
Y588262D01*
X1535103Y588244D01*
X1535105Y588218D01*
X1535111Y588176D01*
X1535117Y588129D01*
X1535120Y588073D01*
X1535126Y588008D01*
Y587938D01*
Y587855D01*
X1535120Y587773D01*
X1535111Y587681D01*
X1535100Y587587D01*
X1535085Y587490D01*
X1535064Y587387D01*
X1535032Y587284D01*
X1534996Y587178D01*
Y587172D01*
X1534988Y587151D01*
X1534976Y587122D01*
X1534955Y587084D01*
X1534935Y587033D01*
X1534905Y586974D01*
X1534870Y586910D01*
X1534832Y586836D01*
X1534787Y586757D01*
X1534734Y586674D01*
X1534678Y586589D01*
X1534617Y586497D01*
X1534546Y586409D01*
X1534472Y586318D01*
X1534390Y586223D01*
X1534304Y586132D01*
X1534245Y586073D01*
X1534198Y586032D01*
X1534142Y585982D01*
X1534077Y585923D01*
X1534004Y585861D01*
X1533921Y585796D01*
X1533833Y585726D01*
X1533739Y585655D01*
X1533639Y585584D01*
X1533535Y585511D01*
X1533430Y585446D01*
X1533320Y585384D01*
X1533209Y585325D01*
X1533097Y585278D01*
X1533088Y585275D01*
X1533070Y585269D01*
X1533038Y585254D01*
X1532997Y585243D01*
X1532941Y585228D01*
X1532876Y585210D01*
X1532805Y585192D01*
X1532723Y585175D01*
X1532637Y585160D01*
X1532543Y585148D01*
X1532443Y585136D01*
X1532343Y585131D01*
X1532237D01*
X1532128Y585134D01*
X1532016Y585145D01*
X1531904Y585163D01*
X1531898D01*
X1531877Y585172D01*
X1531848Y585178D01*
X1531801Y585190D01*
X1531751Y585204D01*
X1531692Y585228D01*
X1531621Y585251D01*
X1531550Y585281D01*
X1531468Y585316D01*
X1531382Y585354D01*
X1531294Y585402D01*
X1531206Y585455D01*
X1531111Y585513D01*
X1531020Y585581D01*
X1530932Y585652D01*
X1530840Y585732D01*
X1531359Y586344D01*
X1531362Y586341D01*
X1531376Y586332D01*
X1531397Y586318D01*
X1531424Y586297D01*
X1531459Y586273D01*
X1531497Y586247D01*
X1531544Y586217D01*
X1531594Y586185D01*
X1531709Y586123D01*
X1531833Y586064D01*
X1531966Y586008D01*
X1532101Y585973D01*
X1532107D01*
X1532116Y585970D01*
X1532136Y585967D01*
X1532163Y585964D01*
X1532201Y585961D01*
X1532240Y585958D01*
X1532340D01*
X1532396Y585961D01*
X1532460Y585967D01*
X1532528Y585976D01*
X1532599Y585988D01*
X1532672Y586003D01*
X1532749Y586020D01*
X1532829Y586047D01*
X1532911Y586076D01*
X1532914Y586079D01*
X1532932Y586085D01*
X1532955Y586097D01*
X1532985Y586109D01*
X1533023Y586129D01*
X1533070Y586153D01*
X1533123Y586182D01*
X1533179Y586215D01*
X1533244Y586250D01*
X1533309Y586291D01*
X1533376Y586335D01*
X1533447Y586388D01*
X1533521Y586444D01*
X1533591Y586503D01*
X1533665Y586571D01*
X1533739Y586639D01*
X1533771Y586671D01*
X1533795Y586701D01*
X1533824Y586730D01*
X1533854Y586765D01*
X1533892Y586810D01*
X1533930Y586854D01*
X1533972Y586907D01*
X1534013Y586960D01*
X1534095Y587078D01*
X1534175Y587210D01*
X1534243Y587343D01*
X1534245Y587346D01*
X1534248Y587360D01*
X1534257Y587381D01*
X1534269Y587405D01*
X1534278Y587437D01*
X1534293Y587475D01*
X1534316Y587564D01*
X1534340Y587670D01*
X1534357Y587782D01*
X1534363Y587899D01*
X1534360Y587955D01*
X1534354Y588014D01*
Y588020D01*
X1534352Y588029D01*
X1534348Y588044D01*
X1534343Y588067D01*
X1534337Y588091D01*
X1534328Y588123D01*
X1534304Y588194D01*
X1534269Y588276D01*
X1534225Y588362D01*
X1534166Y588450D01*
X1534133Y588494D01*
X1534095Y588533D01*
X1534092Y588536D01*
X1534086Y588541D01*
X1534075Y588553D01*
X1534057Y588565D01*
X1534039Y588583D01*
X1534013Y588603D01*
X1533954Y588645D01*
X1533883Y588686D01*
X1533795Y588727D01*
X1533703Y588759D01*
X1533600Y588780D01*
X1533597Y588783D01*
X1533589Y588780D01*
X1533574Y588783D01*
X1533491D01*
X1533453Y588780D01*
X1533409Y588777D01*
X1533362Y588771D01*
X1533312Y588762D01*
X1533253Y588751D01*
X1533197Y588736D01*
X1533132Y588718D01*
X1533067Y588695D01*
X1532997Y588671D01*
X1532923Y588639D01*
X1532920Y588636D01*
X1532911Y588633D01*
X1532893Y588627D01*
X1532870Y588615D01*
X1532840Y588597D01*
X1532805Y588580D01*
X1532755Y588553D01*
X1532702Y588524D01*
X1532637Y588489D01*
X1532563Y588450D01*
X1532478Y588400D01*
X1532384Y588347D01*
X1532281Y588285D01*
X1532166Y588218D01*
X1532036Y588141D01*
X1531898Y588055D01*
X1531895Y588053D01*
X1531889D01*
X1531880Y588044D01*
X1531865Y588035D01*
X1531824Y588011D01*
X1531771Y587982D01*
X1531706Y587941D01*
X1531630Y587899D01*
X1531550Y587855D01*
X1531462Y587802D01*
X1531273Y587702D01*
X1531082Y587605D01*
X1530991Y587561D01*
X1530899Y587522D01*
X1530814Y587490D01*
X1530740Y587463D01*
X1530734D01*
X1530717Y587458D01*
X1530693Y587452D01*
X1530658Y587440D01*
X1530614Y587431D01*
X1530561Y587419D01*
X1530505Y587410D01*
X1530440Y587399D01*
X1530304Y587381D01*
X1530148Y587372D01*
X1529995Y587378D01*
X1529915Y587387D01*
X1529836Y587402D01*
X1529830D01*
X1529818Y587407D01*
X1529795Y587413D01*
X1529768Y587422D01*
X1529733Y587434D01*
X1529689Y587449D01*
X1529642Y587466D01*
X1529592Y587487D01*
X1529536Y587514D01*
X1529477Y587543D01*
X1529418Y587578D01*
X1529356Y587611D01*
X1529232Y587699D01*
X1529173Y587752D01*
X1529111Y587808D01*
X1529108Y587811D01*
X1529097Y587823D01*
X1529079Y587840D01*
X1529055Y587870D01*
X1529029Y587902D01*
X1528999Y587944D01*
X1528964Y587991D01*
X1528926Y588041D01*
X1528891Y588100D01*
X1528852Y588162D01*
X1528814Y588229D01*
X1528779Y588306D01*
X1528743Y588382D01*
X1528714Y588465D01*
X1528687Y588550D01*
X1528667Y588642D01*
Y588648D01*
X1528664Y588662D01*
X1528658Y588692D01*
X1528652Y588727D01*
X1528649Y588771D01*
X1528646Y588827D01*
Y588886D01*
X1528643Y588954D01*
X1528646Y589027D01*
X1528649Y589107D01*
X1528658Y589193D01*
X1528672Y589278D01*
X1528690Y589372D01*
X1528714Y589466D01*
X1528746Y589564D01*
X1528784Y589661D01*
Y589667D01*
X1528796Y589684D01*
X1528808Y589714D01*
X1528826Y589749D01*
X1528849Y589796D01*
X1528876Y589852D01*
X1528911Y589917D01*
X1528949Y589985D01*
X1528996Y590056D01*
X1529047Y590135D01*
X1529100Y590218D01*
X1529162Y590303D01*
X1529226Y590385D01*
X1529297Y590474D01*
X1529377Y590559D01*
X1529459Y590648D01*
X1529509Y590698D01*
X1529547Y590730D01*
X1529595Y590771D01*
X1529648Y590818D01*
X1529709Y590868D01*
X1529780Y590927D01*
X1529857Y590986D01*
X1529936Y591048D01*
X1530113Y591166D01*
X1530207Y591225D01*
X1530307Y591278D01*
X1530405Y591328D01*
X1530508Y591372D01*
X1530516Y591375D01*
X1530534Y591381D01*
X1530564Y591393D01*
X1530602Y591408D01*
X1530652Y591422D01*
X1530708Y591437D01*
X1530773Y591455D01*
X1530846Y591469D01*
X1530926Y591484D01*
X1531011Y591499D01*
X1531097Y591508D01*
X1531191Y591513D01*
X1531282Y591516D01*
X1531379Y591513D01*
D02*
G37*
G36*
X1423290Y483342D02*
Y483330D01*
Y483301D01*
X1423296Y483253D01*
X1423299Y483186D01*
X1423308Y483100D01*
X1423317Y482997D01*
X1423328Y482879D01*
X1423343Y482747D01*
X1423367Y482599D01*
X1423390Y482440D01*
X1423420Y482270D01*
X1423455Y482087D01*
X1423493Y481895D01*
X1423540Y481689D01*
X1423593Y481477D01*
X1423652Y481259D01*
X1423655Y481256D01*
Y481245D01*
X1423661Y481227D01*
X1423670Y481206D01*
X1423676Y481177D01*
X1423688Y481142D01*
X1423703Y481103D01*
X1423714Y481056D01*
X1423732Y481009D01*
X1423747Y480953D01*
X1423770Y480894D01*
X1423788Y480829D01*
X1423838Y480691D01*
X1423894Y480535D01*
X1423956Y480373D01*
X1424026Y480196D01*
X1424100Y480010D01*
X1424183Y479822D01*
X1424268Y479624D01*
X1424362Y479430D01*
X1424462Y479230D01*
X1424568Y479035D01*
X1424571Y479032D01*
Y479027D01*
X1424580Y479018D01*
X1424589Y479003D01*
X1424598Y478982D01*
X1424610Y478965D01*
X1424642Y478909D01*
X1424680Y478841D01*
X1424727Y478764D01*
X1424786Y478676D01*
X1424848Y478579D01*
X1424916Y478470D01*
X1424996Y478355D01*
X1425081Y478234D01*
X1425169Y478111D01*
X1425269Y477981D01*
X1425373Y477848D01*
X1425479Y477713D01*
X1425596Y477577D01*
X1425025Y477006D01*
X1425022Y477009D01*
X1425019Y477012D01*
X1425010Y477021D01*
X1425001Y477029D01*
X1424975Y477062D01*
X1424937Y477106D01*
X1424887Y477162D01*
X1424831Y477230D01*
X1424766Y477306D01*
X1424692Y477398D01*
X1424616Y477498D01*
X1424530Y477613D01*
X1424439Y477733D01*
X1424348Y477866D01*
X1424250Y478010D01*
X1424150Y478163D01*
X1424047Y478331D01*
X1423944Y478505D01*
X1423941Y478508D01*
X1423938Y478517D01*
X1423929Y478532D01*
X1423918Y478549D01*
X1423906Y478573D01*
X1423891Y478599D01*
X1423873Y478635D01*
X1423853Y478673D01*
X1423829Y478714D01*
X1423806Y478761D01*
X1423779Y478811D01*
X1423753Y478867D01*
X1423694Y478985D01*
X1423626Y479118D01*
X1423558Y479268D01*
X1423484Y479424D01*
X1423411Y479592D01*
X1423340Y479769D01*
X1423266Y479954D01*
X1423196Y480143D01*
X1423128Y480340D01*
X1423063Y480541D01*
X1423060Y480544D01*
Y480555D01*
X1423055Y480567D01*
X1423049Y480591D01*
X1423043Y480614D01*
X1423034Y480647D01*
X1423022Y480682D01*
X1423010Y480723D01*
X1422987Y480817D01*
X1422957Y480929D01*
X1422925Y481056D01*
X1422892Y481194D01*
X1422857Y481342D01*
X1422825Y481498D01*
X1422792Y481666D01*
X1422760Y481834D01*
X1422733Y482007D01*
X1422707Y482181D01*
X1422689Y482352D01*
X1422675Y482526D01*
X1420457Y480308D01*
X1419923Y480841D01*
X1422857Y483775D01*
X1423290Y483342D01*
D02*
G37*
G36*
X1422780Y474761D02*
X1422203Y474184D01*
X1417800Y476679D01*
X1417794Y476685D01*
X1417776Y476691D01*
X1417747Y476708D01*
X1417711Y476732D01*
X1417667Y476753D01*
X1417620Y476782D01*
X1417564Y476814D01*
X1417508Y476847D01*
X1417390Y476912D01*
X1417334Y476944D01*
X1417281Y476973D01*
X1417234Y477003D01*
X1417190Y477029D01*
X1417155Y477053D01*
X1417128Y477068D01*
X1417131Y477065D01*
X1417140Y477050D01*
X1417152Y477032D01*
X1417169Y477003D01*
X1417190Y476971D01*
X1417211Y476932D01*
X1417240Y476891D01*
X1417267Y476841D01*
X1417328Y476738D01*
X1417396Y476629D01*
X1417464Y476514D01*
X1417526Y476405D01*
X1420012Y471993D01*
X1419402Y471383D01*
X1413673Y474708D01*
X1414286Y475321D01*
X1417944Y473041D01*
X1417950Y473035D01*
X1417970Y473027D01*
X1418003Y473006D01*
X1418041Y472979D01*
X1418094Y472950D01*
X1418153Y472909D01*
X1418224Y472868D01*
X1418297Y472817D01*
X1418380Y472764D01*
X1418471Y472708D01*
X1418562Y472647D01*
X1418657Y472582D01*
X1418857Y472446D01*
X1419060Y472308D01*
X1419057Y472311D01*
X1419054Y472320D01*
X1419046Y472328D01*
X1419037Y472349D01*
X1419025Y472367D01*
X1419010Y472393D01*
X1418972Y472449D01*
X1418931Y472520D01*
X1418881Y472599D01*
X1418831Y472685D01*
X1418775Y472776D01*
X1418666Y472956D01*
X1418613Y473044D01*
X1418560Y473127D01*
X1418515Y473200D01*
X1418480Y473265D01*
X1418465Y473292D01*
X1418448Y473315D01*
X1418439Y473336D01*
X1418430Y473350D01*
X1416233Y477268D01*
X1416957Y477993D01*
X1419897Y476349D01*
X1419900Y476346D01*
X1419909Y476343D01*
X1419923Y476334D01*
X1419947Y476323D01*
X1419973Y476308D01*
X1420003Y476290D01*
X1420041Y476270D01*
X1420082Y476246D01*
X1420130Y476217D01*
X1420177Y476187D01*
X1420233Y476155D01*
X1420289Y476122D01*
X1420415Y476049D01*
X1420554Y475963D01*
X1420701Y475875D01*
X1420857Y475778D01*
X1421016Y475672D01*
X1421184Y475563D01*
X1421352Y475454D01*
X1421523Y475336D01*
X1421688Y475218D01*
X1421850Y475097D01*
X1421844Y475103D01*
X1421832Y475121D01*
X1421814Y475150D01*
X1421788Y475188D01*
X1421758Y475236D01*
X1421720Y475298D01*
X1421676Y475365D01*
X1421629Y475442D01*
X1421573Y475527D01*
X1421517Y475619D01*
X1421452Y475719D01*
X1421387Y475825D01*
X1421317Y475937D01*
X1421246Y476054D01*
X1421169Y476178D01*
X1421093Y476308D01*
X1418892Y479928D01*
X1419496Y480532D01*
X1422780Y474761D01*
D02*
G37*
G36*
X1413269Y473404D02*
X1413370Y473392D01*
X1413467Y473377D01*
X1413473D01*
X1413490Y473371D01*
X1413520Y473365D01*
X1413555Y473354D01*
X1413602Y473342D01*
X1413655Y473324D01*
X1413714Y473301D01*
X1413779Y473277D01*
X1413850Y473247D01*
X1413926Y473212D01*
X1414003Y473171D01*
X1414082Y473127D01*
X1414165Y473074D01*
X1414244Y473018D01*
X1414324Y472956D01*
X1414403Y472888D01*
X1413873Y472270D01*
X1413867Y472275D01*
X1413853Y472284D01*
X1413826Y472305D01*
X1413791Y472328D01*
X1413750Y472358D01*
X1413696Y472387D01*
X1413638Y472423D01*
X1413576Y472455D01*
X1413502Y472487D01*
X1413428Y472520D01*
X1413349Y472546D01*
X1413266Y472570D01*
X1413181Y472591D01*
X1413093Y472602D01*
X1413001Y472605D01*
X1412910Y472602D01*
X1412904D01*
X1412890Y472599D01*
X1412863Y472597D01*
X1412825Y472588D01*
X1412783Y472576D01*
X1412728Y472561D01*
X1412668Y472543D01*
X1412601Y472517D01*
X1412527Y472485D01*
X1412451Y472443D01*
X1412365Y472399D01*
X1412280Y472343D01*
X1412188Y472281D01*
X1412094Y472211D01*
X1411997Y472125D01*
X1411900Y472034D01*
X1411847Y471981D01*
X1411814Y471943D01*
X1411773Y471895D01*
X1411726Y471837D01*
X1411676Y471775D01*
X1411620Y471707D01*
X1411517Y471551D01*
X1411467Y471471D01*
X1411423Y471386D01*
X1411378Y471301D01*
X1411349Y471212D01*
X1411322Y471127D01*
X1411308Y471041D01*
Y471035D01*
X1411305Y471021D01*
Y470997D01*
Y470968D01*
Y470932D01*
Y470885D01*
X1411311Y470838D01*
X1411317Y470785D01*
X1411328Y470726D01*
X1411343Y470670D01*
X1411364Y470608D01*
X1411384Y470546D01*
X1411414Y470488D01*
X1411449Y470429D01*
X1411490Y470370D01*
X1411540Y470314D01*
X1411543Y470311D01*
X1411552Y470302D01*
X1411564Y470290D01*
X1411585Y470275D01*
X1411608Y470258D01*
X1411635Y470237D01*
X1411705Y470196D01*
X1411791Y470152D01*
X1411838Y470134D01*
X1411885Y470116D01*
X1411941Y470102D01*
X1411997Y470093D01*
X1412056Y470087D01*
X1412118Y470090D01*
X1412124D01*
X1412133Y470093D01*
X1412153Y470096D01*
X1412182Y470102D01*
X1412221Y470111D01*
X1412268Y470122D01*
X1412327Y470140D01*
X1412395Y470166D01*
X1412474Y470199D01*
X1412563Y470234D01*
X1412663Y470281D01*
X1412775Y470340D01*
X1412898Y470405D01*
X1412963Y470440D01*
X1413034Y470482D01*
X1413105Y470523D01*
X1413184Y470567D01*
X1413261Y470614D01*
X1413343Y470667D01*
X1413346Y470670D01*
X1413355Y470673D01*
X1413364Y470682D01*
X1413381Y470694D01*
X1413405Y470705D01*
X1413428Y470723D01*
X1413455Y470738D01*
X1413487Y470759D01*
X1413561Y470803D01*
X1413646Y470853D01*
X1413741Y470912D01*
X1413841Y470971D01*
X1413947Y471030D01*
X1414053Y471088D01*
X1414162Y471150D01*
X1414268Y471209D01*
X1414368Y471262D01*
X1414468Y471309D01*
X1414557Y471351D01*
X1414636Y471383D01*
X1414645Y471386D01*
X1414663Y471392D01*
X1414692Y471404D01*
X1414733Y471415D01*
X1414783Y471430D01*
X1414845Y471445D01*
X1414910Y471463D01*
X1414984Y471477D01*
X1415063Y471492D01*
X1415146Y471504D01*
X1415231Y471518D01*
X1415320Y471524D01*
X1415411Y471527D01*
X1415502Y471524D01*
X1415594Y471516D01*
X1415682Y471504D01*
X1415688D01*
X1415702Y471501D01*
X1415729Y471492D01*
X1415761Y471483D01*
X1415803Y471471D01*
X1415850Y471454D01*
X1415903Y471436D01*
X1415962Y471412D01*
X1416024Y471386D01*
X1416091Y471353D01*
X1416159Y471315D01*
X1416230Y471274D01*
X1416300Y471227D01*
X1416371Y471174D01*
X1416442Y471115D01*
X1416512Y471050D01*
X1416515Y471047D01*
X1416527Y471035D01*
X1416548Y471015D01*
X1416571Y470985D01*
X1416601Y470950D01*
X1416633Y470906D01*
X1416669Y470859D01*
X1416707Y470803D01*
X1416745Y470741D01*
X1416789Y470673D01*
X1416828Y470599D01*
X1416866Y470520D01*
X1416901Y470437D01*
X1416934Y470346D01*
X1416963Y470258D01*
X1416987Y470158D01*
Y470152D01*
X1416993Y470134D01*
X1416996Y470107D01*
X1417001Y470066D01*
X1417007Y470019D01*
X1417010Y469963D01*
X1417016Y469898D01*
Y469828D01*
Y469745D01*
X1417010Y469663D01*
X1417001Y469571D01*
X1416990Y469477D01*
X1416975Y469380D01*
X1416954Y469277D01*
X1416922Y469174D01*
X1416886Y469068D01*
Y469062D01*
X1416878Y469041D01*
X1416866Y469012D01*
X1416845Y468974D01*
X1416825Y468923D01*
X1416795Y468865D01*
X1416760Y468800D01*
X1416722Y468726D01*
X1416677Y468647D01*
X1416624Y468564D01*
X1416568Y468479D01*
X1416507Y468387D01*
X1416436Y468299D01*
X1416362Y468208D01*
X1416280Y468113D01*
X1416194Y468022D01*
X1416135Y467963D01*
X1416088Y467922D01*
X1416032Y467872D01*
X1415968Y467813D01*
X1415894Y467751D01*
X1415811Y467686D01*
X1415723Y467616D01*
X1415629Y467545D01*
X1415529Y467474D01*
X1415426Y467401D01*
X1415320Y467336D01*
X1415211Y467274D01*
X1415099Y467215D01*
X1414987Y467168D01*
X1414978Y467165D01*
X1414960Y467159D01*
X1414928Y467144D01*
X1414886Y467132D01*
X1414830Y467118D01*
X1414766Y467100D01*
X1414695Y467082D01*
X1414613Y467065D01*
X1414527Y467050D01*
X1414433Y467038D01*
X1414333Y467026D01*
X1414233Y467021D01*
X1414127D01*
X1414018Y467024D01*
X1413906Y467035D01*
X1413794Y467053D01*
X1413788D01*
X1413767Y467062D01*
X1413738Y467068D01*
X1413691Y467080D01*
X1413641Y467094D01*
X1413582Y467118D01*
X1413511Y467141D01*
X1413440Y467171D01*
X1413358Y467206D01*
X1413272Y467244D01*
X1413184Y467292D01*
X1413096Y467345D01*
X1413001Y467403D01*
X1412910Y467471D01*
X1412822Y467542D01*
X1412730Y467621D01*
X1413249Y468234D01*
X1413252Y468231D01*
X1413266Y468222D01*
X1413287Y468208D01*
X1413314Y468187D01*
X1413349Y468163D01*
X1413387Y468137D01*
X1413434Y468107D01*
X1413484Y468075D01*
X1413599Y468013D01*
X1413723Y467954D01*
X1413856Y467898D01*
X1413991Y467863D01*
X1413997D01*
X1414006Y467860D01*
X1414026Y467857D01*
X1414053Y467854D01*
X1414091Y467851D01*
X1414129Y467848D01*
X1414230D01*
X1414286Y467851D01*
X1414350Y467857D01*
X1414418Y467866D01*
X1414489Y467878D01*
X1414563Y467892D01*
X1414639Y467910D01*
X1414719Y467937D01*
X1414801Y467966D01*
X1414804Y467969D01*
X1414822Y467975D01*
X1414845Y467987D01*
X1414875Y467999D01*
X1414913Y468019D01*
X1414960Y468043D01*
X1415013Y468072D01*
X1415069Y468105D01*
X1415134Y468140D01*
X1415199Y468181D01*
X1415267Y468225D01*
X1415337Y468278D01*
X1415411Y468334D01*
X1415482Y468393D01*
X1415555Y468461D01*
X1415629Y468529D01*
X1415661Y468561D01*
X1415685Y468591D01*
X1415714Y468620D01*
X1415744Y468655D01*
X1415782Y468699D01*
X1415820Y468744D01*
X1415862Y468797D01*
X1415903Y468850D01*
X1415985Y468968D01*
X1416065Y469100D01*
X1416133Y469233D01*
X1416135Y469236D01*
X1416138Y469250D01*
X1416147Y469271D01*
X1416159Y469295D01*
X1416168Y469327D01*
X1416183Y469365D01*
X1416206Y469454D01*
X1416230Y469560D01*
X1416247Y469672D01*
X1416253Y469789D01*
X1416250Y469845D01*
X1416244Y469904D01*
Y469910D01*
X1416241Y469919D01*
X1416239Y469934D01*
X1416233Y469957D01*
X1416227Y469981D01*
X1416218Y470013D01*
X1416194Y470084D01*
X1416159Y470166D01*
X1416115Y470252D01*
X1416056Y470340D01*
X1416024Y470384D01*
X1415985Y470423D01*
X1415982Y470426D01*
X1415976Y470432D01*
X1415965Y470443D01*
X1415947Y470455D01*
X1415929Y470473D01*
X1415903Y470493D01*
X1415844Y470535D01*
X1415773Y470576D01*
X1415685Y470617D01*
X1415594Y470649D01*
X1415490Y470670D01*
X1415487Y470673D01*
X1415479Y470670D01*
X1415464Y470673D01*
X1415381D01*
X1415343Y470670D01*
X1415299Y470667D01*
X1415252Y470661D01*
X1415202Y470652D01*
X1415143Y470641D01*
X1415087Y470626D01*
X1415022Y470608D01*
X1414957Y470585D01*
X1414886Y470561D01*
X1414813Y470529D01*
X1414810Y470526D01*
X1414801Y470523D01*
X1414783Y470517D01*
X1414760Y470505D01*
X1414730Y470488D01*
X1414695Y470470D01*
X1414645Y470443D01*
X1414592Y470414D01*
X1414527Y470378D01*
X1414453Y470340D01*
X1414368Y470290D01*
X1414274Y470237D01*
X1414171Y470175D01*
X1414056Y470107D01*
X1413926Y470031D01*
X1413788Y469945D01*
X1413785Y469943D01*
X1413779D01*
X1413770Y469934D01*
X1413755Y469925D01*
X1413714Y469901D01*
X1413661Y469872D01*
X1413596Y469831D01*
X1413520Y469789D01*
X1413440Y469745D01*
X1413352Y469692D01*
X1413163Y469592D01*
X1412972Y469495D01*
X1412881Y469451D01*
X1412789Y469412D01*
X1412704Y469380D01*
X1412630Y469353D01*
X1412624D01*
X1412607Y469348D01*
X1412583Y469342D01*
X1412548Y469330D01*
X1412504Y469321D01*
X1412451Y469309D01*
X1412395Y469300D01*
X1412330Y469289D01*
X1412194Y469271D01*
X1412038Y469262D01*
X1411885Y469268D01*
X1411806Y469277D01*
X1411726Y469292D01*
X1411720D01*
X1411708Y469297D01*
X1411685Y469303D01*
X1411658Y469312D01*
X1411623Y469324D01*
X1411579Y469339D01*
X1411532Y469356D01*
X1411481Y469377D01*
X1411425Y469403D01*
X1411367Y469433D01*
X1411308Y469468D01*
X1411246Y469501D01*
X1411122Y469589D01*
X1411063Y469642D01*
X1411001Y469698D01*
X1410998Y469701D01*
X1410987Y469713D01*
X1410969Y469730D01*
X1410945Y469760D01*
X1410919Y469792D01*
X1410889Y469834D01*
X1410854Y469881D01*
X1410816Y469931D01*
X1410780Y469990D01*
X1410742Y470052D01*
X1410704Y470119D01*
X1410668Y470196D01*
X1410633Y470272D01*
X1410604Y470355D01*
X1410577Y470440D01*
X1410557Y470532D01*
Y470538D01*
X1410554Y470552D01*
X1410548Y470582D01*
X1410542Y470617D01*
X1410539Y470661D01*
X1410536Y470717D01*
Y470776D01*
X1410533Y470844D01*
X1410536Y470918D01*
X1410539Y470997D01*
X1410548Y471082D01*
X1410562Y471168D01*
X1410580Y471262D01*
X1410604Y471356D01*
X1410636Y471454D01*
X1410674Y471551D01*
Y471557D01*
X1410686Y471574D01*
X1410698Y471604D01*
X1410716Y471639D01*
X1410739Y471686D01*
X1410766Y471742D01*
X1410801Y471807D01*
X1410839Y471875D01*
X1410887Y471945D01*
X1410937Y472025D01*
X1410990Y472108D01*
X1411051Y472193D01*
X1411116Y472275D01*
X1411187Y472364D01*
X1411266Y472449D01*
X1411349Y472538D01*
X1411399Y472588D01*
X1411437Y472620D01*
X1411485Y472661D01*
X1411537Y472708D01*
X1411599Y472758D01*
X1411670Y472817D01*
X1411747Y472876D01*
X1411826Y472938D01*
X1412003Y473056D01*
X1412097Y473115D01*
X1412197Y473168D01*
X1412294Y473218D01*
X1412398Y473262D01*
X1412406Y473265D01*
X1412424Y473271D01*
X1412453Y473283D01*
X1412492Y473298D01*
X1412542Y473312D01*
X1412598Y473327D01*
X1412663Y473345D01*
X1412736Y473359D01*
X1412816Y473374D01*
X1412901Y473389D01*
X1412987Y473398D01*
X1413081Y473404D01*
X1413172Y473406D01*
X1413269Y473404D01*
D02*
G37*
G36*
X1659431Y483062D02*
X1657622Y481253D01*
X1658597Y479789D01*
X1658600Y479798D01*
X1658603Y479819D01*
X1658612Y479857D01*
X1658624Y479904D01*
X1658638Y479966D01*
X1658659Y480034D01*
X1658685Y480108D01*
X1658715Y480196D01*
X1658750Y480284D01*
X1658791Y480373D01*
X1658836Y480470D01*
X1658889Y480564D01*
X1658951Y480661D01*
X1659015Y480756D01*
X1659089Y480847D01*
X1659168Y480932D01*
X1659195Y480959D01*
X1659227Y480985D01*
X1659274Y481027D01*
X1659330Y481071D01*
X1659398Y481121D01*
X1659478Y481171D01*
X1659566Y481230D01*
X1659666Y481283D01*
X1659772Y481336D01*
X1659887Y481386D01*
X1660014Y481430D01*
X1660146Y481468D01*
X1660285Y481495D01*
X1660426Y481513D01*
X1660579Y481519D01*
X1660615D01*
X1660659Y481516D01*
X1660718Y481510D01*
X1660788Y481498D01*
X1660871Y481486D01*
X1660968Y481465D01*
X1661071Y481439D01*
X1661177Y481404D01*
X1661295Y481362D01*
X1661419Y481309D01*
X1661543Y481245D01*
X1661669Y481171D01*
X1661796Y481086D01*
X1661920Y480985D01*
X1662043Y480873D01*
X1662046Y480871D01*
X1662049Y480868D01*
X1662058Y480859D01*
X1662070Y480847D01*
X1662085Y480832D01*
X1662099Y480812D01*
X1662141Y480764D01*
X1662188Y480705D01*
X1662243Y480638D01*
X1662303Y480555D01*
X1662361Y480467D01*
X1662423Y480364D01*
X1662485Y480255D01*
X1662544Y480137D01*
X1662600Y480016D01*
X1662650Y479884D01*
X1662691Y479742D01*
X1662727Y479601D01*
X1662747Y479451D01*
X1662750Y479448D01*
X1662747Y479439D01*
X1662750Y479407D01*
X1662753Y479356D01*
Y479286D01*
X1662750Y479200D01*
X1662744Y479100D01*
X1662733Y478988D01*
X1662712Y478867D01*
X1662679Y478735D01*
X1662641Y478596D01*
X1662591Y478452D01*
X1662526Y478305D01*
X1662447Y478155D01*
X1662352Y478007D01*
X1662241Y477860D01*
X1662176Y477789D01*
X1662108Y477716D01*
X1662067Y477675D01*
X1662046Y477660D01*
X1661999Y477619D01*
X1661940Y477571D01*
X1661875Y477519D01*
X1661793Y477459D01*
X1661705Y477401D01*
X1661610Y477342D01*
X1661504Y477283D01*
X1661395Y477227D01*
X1661277Y477174D01*
X1661151Y477130D01*
X1661024Y477091D01*
X1660892Y477065D01*
X1660753Y477050D01*
X1660747D01*
X1660721Y477047D01*
X1660682Y477050D01*
X1660629D01*
X1660565Y477056D01*
X1660488Y477062D01*
X1660403Y477077D01*
X1660308Y477094D01*
X1660205Y477115D01*
X1660099Y477144D01*
X1659984Y477183D01*
X1659870Y477233D01*
X1659752Y477286D01*
X1659631Y477354D01*
X1659510Y477433D01*
X1659392Y477521D01*
X1659925Y478155D01*
X1659931Y478149D01*
X1659946Y478140D01*
X1659975Y478122D01*
X1660011Y478099D01*
X1660055Y478072D01*
X1660105Y478040D01*
X1660164Y478010D01*
X1660229Y477975D01*
X1660297Y477943D01*
X1660373Y477913D01*
X1660450Y477884D01*
X1660529Y477857D01*
X1660615Y477837D01*
X1660700Y477822D01*
X1660783Y477816D01*
X1660868Y477813D01*
X1660874D01*
X1660889Y477816D01*
X1660912D01*
X1660942Y477822D01*
X1660983Y477828D01*
X1661027Y477837D01*
X1661077Y477851D01*
X1661133Y477866D01*
X1661195Y477887D01*
X1661257Y477913D01*
X1661322Y477943D01*
X1661389Y477975D01*
X1661454Y478016D01*
X1661522Y478060D01*
X1661587Y478113D01*
X1661651Y478172D01*
X1661669Y478190D01*
X1661687Y478214D01*
X1661713Y478246D01*
X1661743Y478281D01*
X1661778Y478329D01*
X1661810Y478384D01*
X1661849Y478446D01*
X1661884Y478511D01*
X1661920Y478588D01*
X1661952Y478667D01*
X1661978Y478753D01*
X1662002Y478847D01*
X1662020Y478941D01*
X1662029Y479044D01*
Y479150D01*
Y479156D01*
X1662026Y479177D01*
X1662023Y479209D01*
X1662017Y479250D01*
X1662008Y479300D01*
X1661993Y479362D01*
X1661978Y479430D01*
X1661955Y479507D01*
X1661925Y479583D01*
X1661890Y479672D01*
X1661849Y479760D01*
X1661796Y479854D01*
X1661737Y479949D01*
X1661672Y480043D01*
X1661593Y480140D01*
X1661504Y480234D01*
X1661498Y480240D01*
X1661484Y480255D01*
X1661454Y480278D01*
X1661422Y480311D01*
X1661378Y480343D01*
X1661324Y480384D01*
X1661263Y480429D01*
X1661198Y480476D01*
X1661124Y480520D01*
X1661048Y480561D01*
X1660959Y480602D01*
X1660874Y480641D01*
X1660780Y480670D01*
X1660685Y480694D01*
X1660585Y480711D01*
X1660485Y480717D01*
X1660432D01*
X1660394Y480714D01*
X1660344Y480705D01*
X1660294Y480697D01*
X1660229Y480685D01*
X1660158Y480667D01*
X1660087Y480644D01*
X1660008Y480617D01*
X1659931Y480582D01*
X1659846Y480544D01*
X1659763Y480490D01*
X1659678Y480434D01*
X1659595Y480370D01*
X1659513Y480293D01*
X1659487Y480267D01*
X1659472Y480246D01*
X1659445Y480219D01*
X1659422Y480190D01*
X1659392Y480155D01*
X1659366Y480116D01*
X1659304Y480025D01*
X1659245Y479919D01*
X1659189Y479804D01*
X1659148Y479680D01*
X1659145Y479678D01*
Y479666D01*
X1659139Y479648D01*
X1659133Y479624D01*
X1659127Y479595D01*
X1659121Y479560D01*
X1659109Y479471D01*
X1659101Y479374D01*
X1659098Y479265D01*
X1659104Y479147D01*
X1659124Y479027D01*
X1658535Y478573D01*
X1656647Y481339D01*
X1658900Y483592D01*
X1659431Y483062D01*
D02*
G37*
G36*
X1659001Y474761D02*
X1658423Y474184D01*
X1654020Y476679D01*
X1654014Y476685D01*
X1653996Y476691D01*
X1653967Y476708D01*
X1653931Y476732D01*
X1653887Y476753D01*
X1653840Y476782D01*
X1653784Y476814D01*
X1653728Y476847D01*
X1653610Y476912D01*
X1653554Y476944D01*
X1653501Y476973D01*
X1653454Y477003D01*
X1653410Y477029D01*
X1653375Y477053D01*
X1653348Y477068D01*
X1653351Y477065D01*
X1653360Y477050D01*
X1653372Y477032D01*
X1653389Y477003D01*
X1653410Y476971D01*
X1653431Y476932D01*
X1653460Y476891D01*
X1653486Y476841D01*
X1653548Y476738D01*
X1653616Y476629D01*
X1653684Y476514D01*
X1653746Y476405D01*
X1656232Y471993D01*
X1655622Y471383D01*
X1649893Y474708D01*
X1650506Y475321D01*
X1654164Y473041D01*
X1654170Y473035D01*
X1654191Y473027D01*
X1654223Y473006D01*
X1654261Y472979D01*
X1654314Y472950D01*
X1654373Y472909D01*
X1654444Y472868D01*
X1654517Y472817D01*
X1654600Y472764D01*
X1654691Y472708D01*
X1654783Y472647D01*
X1654877Y472582D01*
X1655077Y472446D01*
X1655280Y472308D01*
X1655277Y472311D01*
X1655274Y472320D01*
X1655266Y472328D01*
X1655257Y472349D01*
X1655245Y472367D01*
X1655230Y472393D01*
X1655192Y472449D01*
X1655151Y472520D01*
X1655101Y472599D01*
X1655051Y472685D01*
X1654995Y472776D01*
X1654886Y472956D01*
X1654833Y473044D01*
X1654780Y473127D01*
X1654735Y473200D01*
X1654700Y473265D01*
X1654685Y473292D01*
X1654668Y473315D01*
X1654659Y473336D01*
X1654650Y473350D01*
X1652453Y477268D01*
X1653177Y477993D01*
X1656117Y476349D01*
X1656120Y476346D01*
X1656129Y476343D01*
X1656143Y476334D01*
X1656167Y476323D01*
X1656193Y476308D01*
X1656223Y476290D01*
X1656261Y476270D01*
X1656302Y476246D01*
X1656349Y476217D01*
X1656397Y476187D01*
X1656453Y476155D01*
X1656509Y476122D01*
X1656635Y476049D01*
X1656774Y475963D01*
X1656921Y475875D01*
X1657077Y475778D01*
X1657236Y475672D01*
X1657404Y475563D01*
X1657572Y475454D01*
X1657743Y475336D01*
X1657908Y475218D01*
X1658070Y475097D01*
X1658064Y475103D01*
X1658052Y475121D01*
X1658034Y475150D01*
X1658008Y475188D01*
X1657978Y475236D01*
X1657940Y475298D01*
X1657896Y475365D01*
X1657849Y475442D01*
X1657793Y475527D01*
X1657737Y475619D01*
X1657672Y475719D01*
X1657607Y475825D01*
X1657537Y475937D01*
X1657466Y476054D01*
X1657389Y476178D01*
X1657313Y476308D01*
X1655112Y479928D01*
X1655716Y480532D01*
X1659001Y474761D01*
D02*
G37*
G36*
X1649489Y473404D02*
X1649590Y473392D01*
X1649687Y473377D01*
X1649693D01*
X1649710Y473371D01*
X1649740Y473365D01*
X1649775Y473354D01*
X1649822Y473342D01*
X1649875Y473324D01*
X1649934Y473301D01*
X1649999Y473277D01*
X1650070Y473247D01*
X1650146Y473212D01*
X1650223Y473171D01*
X1650302Y473127D01*
X1650385Y473074D01*
X1650464Y473018D01*
X1650544Y472956D01*
X1650623Y472888D01*
X1650093Y472270D01*
X1650087Y472275D01*
X1650073Y472284D01*
X1650046Y472305D01*
X1650011Y472328D01*
X1649969Y472358D01*
X1649917Y472387D01*
X1649858Y472423D01*
X1649796Y472455D01*
X1649722Y472487D01*
X1649648Y472520D01*
X1649569Y472546D01*
X1649487Y472570D01*
X1649401Y472591D01*
X1649313Y472602D01*
X1649221Y472605D01*
X1649130Y472602D01*
X1649124D01*
X1649109Y472599D01*
X1649083Y472597D01*
X1649045Y472588D01*
X1649003Y472576D01*
X1648947Y472561D01*
X1648889Y472543D01*
X1648821Y472517D01*
X1648747Y472485D01*
X1648671Y472443D01*
X1648585Y472399D01*
X1648500Y472343D01*
X1648408Y472281D01*
X1648314Y472211D01*
X1648217Y472125D01*
X1648120Y472034D01*
X1648067Y471981D01*
X1648034Y471943D01*
X1647993Y471895D01*
X1647946Y471837D01*
X1647896Y471775D01*
X1647840Y471707D01*
X1647737Y471551D01*
X1647687Y471471D01*
X1647643Y471386D01*
X1647598Y471301D01*
X1647569Y471212D01*
X1647543Y471127D01*
X1647528Y471041D01*
Y471035D01*
X1647525Y471021D01*
Y470997D01*
Y470968D01*
Y470932D01*
Y470885D01*
X1647531Y470838D01*
X1647537Y470785D01*
X1647548Y470726D01*
X1647563Y470670D01*
X1647584Y470608D01*
X1647604Y470546D01*
X1647634Y470488D01*
X1647669Y470429D01*
X1647710Y470370D01*
X1647760Y470314D01*
X1647763Y470311D01*
X1647772Y470302D01*
X1647784Y470290D01*
X1647805Y470275D01*
X1647828Y470258D01*
X1647855Y470237D01*
X1647925Y470196D01*
X1648011Y470152D01*
X1648058Y470134D01*
X1648105Y470116D01*
X1648161Y470102D01*
X1648217Y470093D01*
X1648276Y470087D01*
X1648338Y470090D01*
X1648344D01*
X1648353Y470093D01*
X1648373Y470096D01*
X1648403Y470102D01*
X1648441Y470111D01*
X1648488Y470122D01*
X1648547Y470140D01*
X1648615Y470166D01*
X1648694Y470199D01*
X1648783Y470234D01*
X1648883Y470281D01*
X1648995Y470340D01*
X1649118Y470405D01*
X1649183Y470440D01*
X1649254Y470482D01*
X1649324Y470523D01*
X1649404Y470567D01*
X1649481Y470614D01*
X1649563Y470667D01*
X1649566Y470670D01*
X1649575Y470673D01*
X1649584Y470682D01*
X1649601Y470694D01*
X1649625Y470705D01*
X1649648Y470723D01*
X1649675Y470738D01*
X1649707Y470759D01*
X1649781Y470803D01*
X1649866Y470853D01*
X1649961Y470912D01*
X1650061Y470971D01*
X1650167Y471030D01*
X1650273Y471088D01*
X1650382Y471150D01*
X1650488Y471209D01*
X1650588Y471262D01*
X1650688Y471309D01*
X1650777Y471351D01*
X1650856Y471383D01*
X1650865Y471386D01*
X1650883Y471392D01*
X1650912Y471404D01*
X1650953Y471415D01*
X1651003Y471430D01*
X1651065Y471445D01*
X1651130Y471463D01*
X1651204Y471477D01*
X1651283Y471492D01*
X1651366Y471504D01*
X1651451Y471518D01*
X1651539Y471524D01*
X1651631Y471527D01*
X1651722Y471524D01*
X1651814Y471516D01*
X1651902Y471504D01*
X1651908D01*
X1651922Y471501D01*
X1651949Y471492D01*
X1651981Y471483D01*
X1652023Y471471D01*
X1652070Y471454D01*
X1652123Y471436D01*
X1652182Y471412D01*
X1652243Y471386D01*
X1652311Y471353D01*
X1652379Y471315D01*
X1652450Y471274D01*
X1652520Y471227D01*
X1652591Y471174D01*
X1652662Y471115D01*
X1652733Y471050D01*
X1652735Y471047D01*
X1652747Y471035D01*
X1652768Y471015D01*
X1652791Y470985D01*
X1652821Y470950D01*
X1652853Y470906D01*
X1652889Y470859D01*
X1652927Y470803D01*
X1652965Y470741D01*
X1653009Y470673D01*
X1653048Y470599D01*
X1653086Y470520D01*
X1653121Y470437D01*
X1653154Y470346D01*
X1653183Y470258D01*
X1653207Y470158D01*
Y470152D01*
X1653213Y470134D01*
X1653215Y470107D01*
X1653221Y470066D01*
X1653227Y470019D01*
X1653230Y469963D01*
X1653236Y469898D01*
Y469828D01*
Y469745D01*
X1653230Y469663D01*
X1653221Y469571D01*
X1653210Y469477D01*
X1653195Y469380D01*
X1653174Y469277D01*
X1653142Y469174D01*
X1653107Y469068D01*
Y469062D01*
X1653098Y469041D01*
X1653086Y469012D01*
X1653065Y468974D01*
X1653045Y468923D01*
X1653015Y468865D01*
X1652980Y468800D01*
X1652942Y468726D01*
X1652897Y468647D01*
X1652844Y468564D01*
X1652788Y468479D01*
X1652727Y468387D01*
X1652656Y468299D01*
X1652582Y468208D01*
X1652500Y468113D01*
X1652414Y468022D01*
X1652355Y467963D01*
X1652308Y467922D01*
X1652252Y467872D01*
X1652188Y467813D01*
X1652114Y467751D01*
X1652031Y467686D01*
X1651943Y467616D01*
X1651849Y467545D01*
X1651749Y467474D01*
X1651646Y467401D01*
X1651539Y467336D01*
X1651431Y467274D01*
X1651319Y467215D01*
X1651207Y467168D01*
X1651198Y467165D01*
X1651180Y467159D01*
X1651148Y467144D01*
X1651107Y467132D01*
X1651051Y467118D01*
X1650986Y467100D01*
X1650915Y467082D01*
X1650833Y467065D01*
X1650747Y467050D01*
X1650653Y467038D01*
X1650553Y467026D01*
X1650453Y467021D01*
X1650347D01*
X1650238Y467024D01*
X1650126Y467035D01*
X1650014Y467053D01*
X1650008D01*
X1649987Y467062D01*
X1649958Y467068D01*
X1649911Y467080D01*
X1649861Y467094D01*
X1649802Y467118D01*
X1649731Y467141D01*
X1649660Y467171D01*
X1649578Y467206D01*
X1649492Y467244D01*
X1649404Y467292D01*
X1649316Y467345D01*
X1649221Y467403D01*
X1649130Y467471D01*
X1649042Y467542D01*
X1648950Y467621D01*
X1649469Y468234D01*
X1649472Y468231D01*
X1649487Y468222D01*
X1649507Y468208D01*
X1649534Y468187D01*
X1649569Y468163D01*
X1649607Y468137D01*
X1649654Y468107D01*
X1649704Y468075D01*
X1649819Y468013D01*
X1649943Y467954D01*
X1650076Y467898D01*
X1650211Y467863D01*
X1650217D01*
X1650226Y467860D01*
X1650246Y467857D01*
X1650273Y467854D01*
X1650311Y467851D01*
X1650349Y467848D01*
X1650450D01*
X1650506Y467851D01*
X1650570Y467857D01*
X1650638Y467866D01*
X1650709Y467878D01*
X1650782Y467892D01*
X1650859Y467910D01*
X1650939Y467937D01*
X1651021Y467966D01*
X1651024Y467969D01*
X1651042Y467975D01*
X1651065Y467987D01*
X1651095Y467999D01*
X1651133Y468019D01*
X1651180Y468043D01*
X1651233Y468072D01*
X1651289Y468105D01*
X1651354Y468140D01*
X1651419Y468181D01*
X1651487Y468225D01*
X1651557Y468278D01*
X1651631Y468334D01*
X1651702Y468393D01*
X1651775Y468461D01*
X1651849Y468529D01*
X1651881Y468561D01*
X1651905Y468591D01*
X1651934Y468620D01*
X1651964Y468655D01*
X1652002Y468699D01*
X1652040Y468744D01*
X1652081Y468797D01*
X1652123Y468850D01*
X1652205Y468968D01*
X1652285Y469100D01*
X1652352Y469233D01*
X1652355Y469236D01*
X1652358Y469250D01*
X1652367Y469271D01*
X1652379Y469295D01*
X1652388Y469327D01*
X1652403Y469365D01*
X1652426Y469454D01*
X1652450Y469560D01*
X1652467Y469672D01*
X1652473Y469789D01*
X1652470Y469845D01*
X1652464Y469904D01*
Y469910D01*
X1652462Y469919D01*
X1652458Y469934D01*
X1652453Y469957D01*
X1652447Y469981D01*
X1652438Y470013D01*
X1652414Y470084D01*
X1652379Y470166D01*
X1652335Y470252D01*
X1652276Y470340D01*
X1652243Y470384D01*
X1652205Y470423D01*
X1652202Y470426D01*
X1652196Y470432D01*
X1652185Y470443D01*
X1652167Y470455D01*
X1652149Y470473D01*
X1652123Y470493D01*
X1652064Y470535D01*
X1651993Y470576D01*
X1651905Y470617D01*
X1651814Y470649D01*
X1651710Y470670D01*
X1651707Y470673D01*
X1651699Y470670D01*
X1651684Y470673D01*
X1651601D01*
X1651563Y470670D01*
X1651519Y470667D01*
X1651472Y470661D01*
X1651422Y470652D01*
X1651363Y470641D01*
X1651307Y470626D01*
X1651242Y470608D01*
X1651177Y470585D01*
X1651107Y470561D01*
X1651033Y470529D01*
X1651030Y470526D01*
X1651021Y470523D01*
X1651003Y470517D01*
X1650980Y470505D01*
X1650950Y470488D01*
X1650915Y470470D01*
X1650865Y470443D01*
X1650812Y470414D01*
X1650747Y470378D01*
X1650674Y470340D01*
X1650588Y470290D01*
X1650494Y470237D01*
X1650391Y470175D01*
X1650276Y470107D01*
X1650146Y470031D01*
X1650008Y469945D01*
X1650005Y469943D01*
X1649999D01*
X1649990Y469934D01*
X1649975Y469925D01*
X1649934Y469901D01*
X1649881Y469872D01*
X1649816Y469831D01*
X1649740Y469789D01*
X1649660Y469745D01*
X1649572Y469692D01*
X1649383Y469592D01*
X1649192Y469495D01*
X1649101Y469451D01*
X1649009Y469412D01*
X1648924Y469380D01*
X1648850Y469353D01*
X1648844D01*
X1648827Y469348D01*
X1648803Y469342D01*
X1648768Y469330D01*
X1648724Y469321D01*
X1648671Y469309D01*
X1648615Y469300D01*
X1648550Y469289D01*
X1648414Y469271D01*
X1648258Y469262D01*
X1648105Y469268D01*
X1648026Y469277D01*
X1647946Y469292D01*
X1647940D01*
X1647928Y469297D01*
X1647905Y469303D01*
X1647878Y469312D01*
X1647843Y469324D01*
X1647799Y469339D01*
X1647752Y469356D01*
X1647702Y469377D01*
X1647646Y469403D01*
X1647587Y469433D01*
X1647528Y469468D01*
X1647466Y469501D01*
X1647342Y469589D01*
X1647283Y469642D01*
X1647221Y469698D01*
X1647218Y469701D01*
X1647207Y469713D01*
X1647189Y469730D01*
X1647165Y469760D01*
X1647139Y469792D01*
X1647110Y469834D01*
X1647074Y469881D01*
X1647036Y469931D01*
X1647000Y469990D01*
X1646962Y470052D01*
X1646924Y470119D01*
X1646888Y470196D01*
X1646853Y470272D01*
X1646824Y470355D01*
X1646797Y470440D01*
X1646777Y470532D01*
Y470538D01*
X1646774Y470552D01*
X1646768Y470582D01*
X1646762Y470617D01*
X1646759Y470661D01*
X1646756Y470717D01*
Y470776D01*
X1646753Y470844D01*
X1646756Y470918D01*
X1646759Y470997D01*
X1646768Y471082D01*
X1646783Y471168D01*
X1646800Y471262D01*
X1646824Y471356D01*
X1646856Y471454D01*
X1646894Y471551D01*
Y471557D01*
X1646906Y471574D01*
X1646918Y471604D01*
X1646936Y471639D01*
X1646959Y471686D01*
X1646986Y471742D01*
X1647021Y471807D01*
X1647059Y471875D01*
X1647106Y471945D01*
X1647157Y472025D01*
X1647210Y472108D01*
X1647272Y472193D01*
X1647336Y472275D01*
X1647407Y472364D01*
X1647487Y472449D01*
X1647569Y472538D01*
X1647619Y472588D01*
X1647657Y472620D01*
X1647704Y472661D01*
X1647758Y472708D01*
X1647819Y472758D01*
X1647890Y472817D01*
X1647967Y472876D01*
X1648046Y472938D01*
X1648223Y473056D01*
X1648317Y473115D01*
X1648417Y473168D01*
X1648515Y473218D01*
X1648618Y473262D01*
X1648626Y473265D01*
X1648644Y473271D01*
X1648674Y473283D01*
X1648712Y473298D01*
X1648762Y473312D01*
X1648818Y473327D01*
X1648883Y473345D01*
X1648956Y473359D01*
X1649036Y473374D01*
X1649121Y473389D01*
X1649207Y473398D01*
X1649301Y473404D01*
X1649392Y473406D01*
X1649489Y473404D01*
D02*
G37*
G36*
X319103Y482909D02*
X319186Y482903D01*
X319268Y482891D01*
X319351Y482873D01*
X319357D01*
X319368Y482868D01*
X319392Y482862D01*
X319424Y482853D01*
X319463Y482838D01*
X319507Y482823D01*
X319557Y482803D01*
X319610Y482779D01*
X319666Y482753D01*
X319725Y482723D01*
X319852Y482650D01*
X319978Y482564D01*
X320037Y482511D01*
X320099Y482455D01*
X320102Y482452D01*
X320111Y482443D01*
X320128Y482426D01*
X320146Y482402D01*
X320170Y482373D01*
X320196Y482340D01*
X320229Y482302D01*
X320255Y482258D01*
X320320Y482158D01*
X320382Y482037D01*
X320411Y481972D01*
X320438Y481904D01*
X320458Y481837D01*
X320476Y481760D01*
Y481754D01*
X320482Y481742D01*
Y481719D01*
X320485Y481692D01*
X320491Y481657D01*
X320494Y481613D01*
X320497Y481563D01*
Y481504D01*
Y481445D01*
X320491Y481380D01*
X320485Y481309D01*
X320476Y481236D01*
X320464Y481159D01*
X320444Y481080D01*
X320420Y480997D01*
X320393Y480912D01*
X320399Y480918D01*
X320414Y480926D01*
X320441Y480941D01*
X320479Y480962D01*
X320523Y480982D01*
X320576Y481006D01*
X320638Y481032D01*
X320706Y481059D01*
X320779Y481086D01*
X320856Y481109D01*
X320941Y481130D01*
X321027Y481144D01*
X321118Y481159D01*
X321209Y481162D01*
X321304D01*
X321401Y481153D01*
X321407D01*
X321424Y481147D01*
X321451Y481144D01*
X321489Y481136D01*
X321533Y481127D01*
X321586Y481109D01*
X321648Y481088D01*
X321713Y481065D01*
X321784Y481035D01*
X321860Y481000D01*
X321937Y480959D01*
X322020Y480912D01*
X322105Y480856D01*
X322190Y480794D01*
X322273Y480723D01*
X322355Y480647D01*
X322358Y480644D01*
X322361Y480641D01*
X322370Y480632D01*
X322382Y480620D01*
X322411Y480585D01*
X322449Y480541D01*
X322494Y480485D01*
X322541Y480414D01*
X322597Y480334D01*
X322650Y480246D01*
X322706Y480143D01*
X322756Y480034D01*
X322806Y479913D01*
X322847Y479790D01*
X322882Y479654D01*
X322912Y479513D01*
X322927Y479362D01*
X322930Y479206D01*
Y479194D01*
X322927Y479168D01*
X322924Y479124D01*
X322918Y479065D01*
X322903Y478991D01*
X322888Y478906D01*
X322865Y478806D01*
X322832Y478703D01*
X322797Y478591D01*
X322753Y478470D01*
X322697Y478343D01*
X322629Y478217D01*
X322553Y478087D01*
X322464Y477957D01*
X322358Y477828D01*
X322243Y477701D01*
X322217Y477675D01*
X322184Y477648D01*
X322137Y477607D01*
X322081Y477563D01*
X322016Y477510D01*
X321940Y477457D01*
X321852Y477398D01*
X321757Y477339D01*
X321654Y477283D01*
X321542Y477230D01*
X321424Y477183D01*
X321304Y477138D01*
X321174Y477103D01*
X321039Y477080D01*
X320900Y477065D01*
X320830D01*
X320774Y477068D01*
X320709Y477074D01*
X320632Y477080D01*
X320544Y477091D01*
X320449Y477109D01*
X320349Y477133D01*
X320237Y477162D01*
X320126Y477203D01*
X320011Y477248D01*
X319890Y477304D01*
X319769Y477371D01*
X319651Y477448D01*
X319533Y477536D01*
X320011Y478167D01*
X320017Y478161D01*
X320037Y478152D01*
X320067Y478134D01*
X320105Y478108D01*
X320155Y478081D01*
X320217Y478049D01*
X320279Y478016D01*
X320349Y477981D01*
X320508Y477916D01*
X320679Y477857D01*
X320765Y477837D01*
X320853Y477819D01*
X320938Y477810D01*
X321027D01*
X321041Y477813D01*
X321062Y477816D01*
X321095Y477819D01*
X321133Y477828D01*
X321177Y477837D01*
X321224Y477848D01*
X321280Y477863D01*
X321336Y477884D01*
X321401Y477907D01*
X321466Y477937D01*
X321530Y477972D01*
X321595Y478007D01*
X321660Y478055D01*
X321725Y478108D01*
X321790Y478167D01*
X321807Y478184D01*
X321825Y478208D01*
X321852Y478234D01*
X321881Y478275D01*
X321913Y478320D01*
X321949Y478373D01*
X321984Y478432D01*
X322022Y478493D01*
X322058Y478564D01*
X322090Y478644D01*
X322120Y478726D01*
X322146Y478812D01*
X322161Y478903D01*
X322176Y479000D01*
X322178Y479097D01*
Y479103D01*
Y479121D01*
Y479150D01*
X322170Y479189D01*
X322164Y479236D01*
X322158Y479289D01*
X322143Y479351D01*
X322128Y479418D01*
X322108Y479492D01*
X322081Y479566D01*
X322049Y479645D01*
X322011Y479725D01*
X321966Y479804D01*
X321911Y479884D01*
X321849Y479963D01*
X321778Y480040D01*
X321772Y480046D01*
X321760Y480057D01*
X321737Y480075D01*
X321710Y480102D01*
X321672Y480128D01*
X321631Y480164D01*
X321581Y480196D01*
X321522Y480231D01*
X321460Y480270D01*
X321392Y480302D01*
X321318Y480334D01*
X321242Y480364D01*
X321159Y480387D01*
X321074Y480408D01*
X320986Y480420D01*
X320894Y480423D01*
X320871D01*
X320844Y480420D01*
X320812Y480417D01*
X320765Y480411D01*
X320715Y480402D01*
X320659Y480387D01*
X320597Y480373D01*
X320529Y480352D01*
X320461Y480326D01*
X320385Y480296D01*
X320311Y480258D01*
X320237Y480214D01*
X320161Y480161D01*
X320084Y480102D01*
X320011Y480034D01*
X319984Y480007D01*
X319969Y479987D01*
X319952Y479969D01*
X319934Y479946D01*
X319913Y479919D01*
X319860Y479854D01*
X319807Y479778D01*
X319746Y479686D01*
X319681Y479580D01*
X319254Y480131D01*
X319263Y480140D01*
X319277Y480149D01*
X319289Y480161D01*
X319321Y480187D01*
X319383Y480249D01*
X319404Y480275D01*
X319433Y480311D01*
X319466Y480349D01*
X319501Y480396D01*
X319539Y480452D01*
X319578Y480508D01*
X319616Y480570D01*
X319651Y480641D01*
X319690Y480714D01*
X319722Y480788D01*
X319754Y480868D01*
X319781Y480953D01*
X319802Y481038D01*
Y481044D01*
X319804Y481059D01*
X319807Y481086D01*
X319810Y481118D01*
X319813Y481162D01*
Y481209D01*
X319807Y481262D01*
X319804Y481324D01*
X319793Y481389D01*
X319775Y481454D01*
X319754Y481527D01*
X319725Y481598D01*
X319687Y481672D01*
X319639Y481748D01*
X319583Y481822D01*
X319516Y481895D01*
X319513Y481898D01*
X319501Y481910D01*
X319486Y481925D01*
X319463Y481943D01*
X319433Y481966D01*
X319395Y481993D01*
X319357Y482019D01*
X319310Y482049D01*
X319259Y482075D01*
X319207Y482105D01*
X319148Y482128D01*
X319086Y482149D01*
X319018Y482169D01*
X318947Y482181D01*
X318877Y482193D01*
X318782D01*
X318762Y482190D01*
X318729Y482187D01*
X318694Y482181D01*
X318653Y482175D01*
X318606Y482164D01*
X318556Y482149D01*
X318503Y482131D01*
X318441Y482110D01*
X318382Y482081D01*
X318320Y482049D01*
X318255Y482013D01*
X318193Y481969D01*
X318128Y481916D01*
X318067Y481860D01*
X318034Y481828D01*
X318016Y481804D01*
X317990Y481772D01*
X317964Y481734D01*
X317934Y481692D01*
X317905Y481645D01*
X317872Y481595D01*
X317843Y481536D01*
X317810Y481474D01*
X317787Y481409D01*
X317763Y481339D01*
X317745Y481268D01*
X317734Y481191D01*
X317728Y481115D01*
Y481109D01*
Y481097D01*
Y481074D01*
X317731Y481041D01*
X317734Y481003D01*
X317743Y480959D01*
X317754Y480906D01*
X317766Y480847D01*
X317784Y480782D01*
X317804Y480714D01*
X317831Y480641D01*
X317866Y480564D01*
X317905Y480485D01*
X317949Y480399D01*
X318005Y480314D01*
X318064Y480225D01*
X317410Y479772D01*
X317407Y479775D01*
X317404Y479778D01*
X317398Y479790D01*
X317392Y479801D01*
X317369Y479837D01*
X317339Y479884D01*
X317307Y479946D01*
X317265Y480016D01*
X317227Y480096D01*
X317186Y480184D01*
X317148Y480281D01*
X317109Y480384D01*
X317074Y480496D01*
X317047Y480611D01*
X317024Y480729D01*
X317006Y480853D01*
X317000Y480976D01*
X317006Y481100D01*
Y481106D01*
X317009Y481133D01*
X317015Y481168D01*
X317024Y481212D01*
X317036Y481271D01*
X317053Y481342D01*
X317074Y481415D01*
X317100Y481501D01*
X317133Y481592D01*
X317177Y481689D01*
X317224Y481790D01*
X317280Y481893D01*
X317345Y481993D01*
X317419Y482102D01*
X317504Y482205D01*
X317598Y482305D01*
X317634Y482340D01*
X317663Y482364D01*
X317698Y482393D01*
X317740Y482429D01*
X317787Y482470D01*
X317843Y482508D01*
X317905Y482552D01*
X317966Y482597D01*
X318111Y482682D01*
X318187Y482723D01*
X318270Y482765D01*
X318352Y482800D01*
X318441Y482829D01*
X318447D01*
X318461Y482838D01*
X318488Y482841D01*
X318520Y482850D01*
X318561Y482862D01*
X318615Y482873D01*
X318670Y482882D01*
X318732Y482891D01*
X318800Y482900D01*
X318871Y482906D01*
X318947Y482912D01*
X319024D01*
X319103Y482909D01*
D02*
G37*
G36*
X319148Y474764D02*
X318570Y474187D01*
X314167Y476682D01*
X314161Y476688D01*
X314143Y476694D01*
X314114Y476711D01*
X314078Y476735D01*
X314034Y476756D01*
X313987Y476785D01*
X313931Y476817D01*
X313875Y476850D01*
X313757Y476915D01*
X313701Y476947D01*
X313648Y476977D01*
X313601Y477006D01*
X313557Y477033D01*
X313522Y477056D01*
X313495Y477071D01*
X313498Y477068D01*
X313507Y477053D01*
X313519Y477035D01*
X313536Y477006D01*
X313557Y476973D01*
X313578Y476935D01*
X313607Y476894D01*
X313634Y476844D01*
X313695Y476741D01*
X313763Y476632D01*
X313831Y476517D01*
X313893Y476408D01*
X316379Y471996D01*
X315769Y471386D01*
X310040Y474711D01*
X310653Y475324D01*
X314311Y473044D01*
X314317Y473038D01*
X314338Y473030D01*
X314370Y473009D01*
X314408Y472982D01*
X314461Y472953D01*
X314520Y472912D01*
X314591Y472870D01*
X314664Y472820D01*
X314747Y472767D01*
X314838Y472711D01*
X314930Y472649D01*
X315024Y472585D01*
X315224Y472449D01*
X315427Y472311D01*
X315424Y472314D01*
X315422Y472323D01*
X315413Y472331D01*
X315404Y472352D01*
X315392Y472370D01*
X315377Y472396D01*
X315339Y472452D01*
X315298Y472523D01*
X315248Y472602D01*
X315198Y472688D01*
X315142Y472779D01*
X315033Y472959D01*
X314980Y473047D01*
X314927Y473130D01*
X314883Y473203D01*
X314847Y473268D01*
X314832Y473295D01*
X314815Y473318D01*
X314806Y473339D01*
X314797Y473354D01*
X312600Y477271D01*
X313324Y477996D01*
X316264Y476352D01*
X316267Y476349D01*
X316276Y476346D01*
X316290Y476337D01*
X316314Y476325D01*
X316341Y476311D01*
X316370Y476293D01*
X316408Y476273D01*
X316450Y476249D01*
X316497Y476219D01*
X316544Y476190D01*
X316600Y476158D01*
X316656Y476125D01*
X316782Y476052D01*
X316921Y475966D01*
X317068Y475878D01*
X317224Y475781D01*
X317383Y475675D01*
X317551Y475566D01*
X317719Y475457D01*
X317890Y475339D01*
X318055Y475221D01*
X318217Y475100D01*
X318211Y475106D01*
X318199Y475124D01*
X318181Y475153D01*
X318155Y475191D01*
X318125Y475239D01*
X318087Y475300D01*
X318043Y475368D01*
X317996Y475445D01*
X317940Y475530D01*
X317884Y475622D01*
X317819Y475722D01*
X317754Y475828D01*
X317684Y475940D01*
X317613Y476058D01*
X317536Y476181D01*
X317460Y476311D01*
X315259Y479931D01*
X315863Y480535D01*
X319148Y474764D01*
D02*
G37*
G36*
X309636Y473406D02*
X309737Y473395D01*
X309834Y473380D01*
X309840D01*
X309857Y473374D01*
X309887Y473368D01*
X309922Y473357D01*
X309969Y473345D01*
X310022Y473327D01*
X310081Y473303D01*
X310146Y473280D01*
X310217Y473250D01*
X310293Y473215D01*
X310370Y473174D01*
X310449Y473130D01*
X310532Y473077D01*
X310611Y473021D01*
X310691Y472959D01*
X310770Y472891D01*
X310240Y472272D01*
X310234Y472278D01*
X310220Y472287D01*
X310193Y472308D01*
X310158Y472331D01*
X310117Y472361D01*
X310064Y472390D01*
X310005Y472426D01*
X309943Y472458D01*
X309869Y472491D01*
X309795Y472523D01*
X309716Y472549D01*
X309634Y472573D01*
X309548Y472594D01*
X309460Y472605D01*
X309368Y472608D01*
X309277Y472605D01*
X309271D01*
X309256Y472602D01*
X309230Y472599D01*
X309192Y472591D01*
X309151Y472579D01*
X309095Y472564D01*
X309036Y472546D01*
X308968Y472520D01*
X308894Y472487D01*
X308818Y472446D01*
X308732Y472402D01*
X308647Y472346D01*
X308556Y472284D01*
X308461Y472214D01*
X308364Y472128D01*
X308267Y472037D01*
X308214Y471984D01*
X308181Y471945D01*
X308140Y471898D01*
X308093Y471839D01*
X308043Y471778D01*
X307987Y471710D01*
X307884Y471554D01*
X307834Y471474D01*
X307790Y471389D01*
X307745Y471303D01*
X307716Y471215D01*
X307689Y471130D01*
X307675Y471044D01*
Y471038D01*
X307672Y471024D01*
Y471000D01*
Y470971D01*
Y470935D01*
Y470888D01*
X307678Y470841D01*
X307684Y470788D01*
X307695Y470729D01*
X307710Y470673D01*
X307731Y470611D01*
X307751Y470549D01*
X307781Y470490D01*
X307816Y470432D01*
X307857Y470373D01*
X307908Y470317D01*
X307910Y470314D01*
X307919Y470305D01*
X307931Y470293D01*
X307952Y470278D01*
X307975Y470261D01*
X308002Y470240D01*
X308072Y470199D01*
X308158Y470155D01*
X308205Y470137D01*
X308252Y470119D01*
X308308Y470105D01*
X308364Y470096D01*
X308423Y470090D01*
X308485Y470093D01*
X308491D01*
X308500Y470096D01*
X308520Y470099D01*
X308550Y470105D01*
X308588Y470113D01*
X308635Y470125D01*
X308694Y470143D01*
X308762Y470169D01*
X308841Y470202D01*
X308930Y470237D01*
X309030Y470284D01*
X309142Y470343D01*
X309265Y470408D01*
X309330Y470443D01*
X309401Y470485D01*
X309471Y470526D01*
X309551Y470570D01*
X309628Y470617D01*
X309710Y470670D01*
X309713Y470673D01*
X309722Y470676D01*
X309731Y470685D01*
X309748Y470697D01*
X309772Y470708D01*
X309795Y470726D01*
X309822Y470741D01*
X309854Y470761D01*
X309928Y470806D01*
X310014Y470856D01*
X310108Y470915D01*
X310208Y470974D01*
X310314Y471032D01*
X310420Y471091D01*
X310529Y471153D01*
X310635Y471212D01*
X310735Y471265D01*
X310835Y471312D01*
X310924Y471353D01*
X311003Y471386D01*
X311012Y471389D01*
X311030Y471395D01*
X311059Y471407D01*
X311100Y471418D01*
X311150Y471433D01*
X311212Y471448D01*
X311277Y471465D01*
X311351Y471480D01*
X311430Y471495D01*
X311513Y471507D01*
X311598Y471521D01*
X311687Y471527D01*
X311778Y471530D01*
X311869Y471527D01*
X311961Y471518D01*
X312049Y471507D01*
X312055D01*
X312069Y471504D01*
X312096Y471495D01*
X312128Y471486D01*
X312170Y471474D01*
X312217Y471457D01*
X312270Y471439D01*
X312329Y471415D01*
X312390Y471389D01*
X312458Y471356D01*
X312526Y471318D01*
X312597Y471277D01*
X312667Y471230D01*
X312738Y471177D01*
X312809Y471118D01*
X312880Y471053D01*
X312882Y471050D01*
X312894Y471038D01*
X312915Y471018D01*
X312938Y470988D01*
X312968Y470953D01*
X313000Y470909D01*
X313036Y470862D01*
X313074Y470806D01*
X313112Y470744D01*
X313156Y470676D01*
X313195Y470602D01*
X313233Y470523D01*
X313268Y470440D01*
X313301Y470349D01*
X313330Y470261D01*
X313354Y470161D01*
Y470155D01*
X313360Y470137D01*
X313363Y470111D01*
X313368Y470069D01*
X313374Y470022D01*
X313377Y469966D01*
X313383Y469901D01*
Y469831D01*
Y469748D01*
X313377Y469666D01*
X313368Y469574D01*
X313357Y469480D01*
X313342Y469383D01*
X313321Y469280D01*
X313289Y469177D01*
X313254Y469071D01*
Y469065D01*
X313245Y469044D01*
X313233Y469015D01*
X313212Y468977D01*
X313192Y468926D01*
X313162Y468867D01*
X313127Y468803D01*
X313089Y468729D01*
X313044Y468649D01*
X312991Y468567D01*
X312936Y468482D01*
X312874Y468390D01*
X312803Y468302D01*
X312729Y468211D01*
X312647Y468116D01*
X312561Y468025D01*
X312502Y467966D01*
X312455Y467925D01*
X312399Y467875D01*
X312335Y467816D01*
X312261Y467754D01*
X312178Y467689D01*
X312090Y467619D01*
X311996Y467548D01*
X311896Y467477D01*
X311793Y467404D01*
X311687Y467339D01*
X311578Y467277D01*
X311466Y467218D01*
X311354Y467171D01*
X311345Y467168D01*
X311327Y467162D01*
X311295Y467147D01*
X311254Y467136D01*
X311198Y467121D01*
X311133Y467103D01*
X311062Y467085D01*
X310980Y467068D01*
X310894Y467053D01*
X310800Y467041D01*
X310700Y467029D01*
X310600Y467024D01*
X310494D01*
X310385Y467026D01*
X310273Y467038D01*
X310161Y467056D01*
X310155D01*
X310134Y467065D01*
X310105Y467071D01*
X310058Y467082D01*
X310008Y467097D01*
X309949Y467121D01*
X309878Y467144D01*
X309807Y467174D01*
X309725Y467209D01*
X309639Y467247D01*
X309551Y467295D01*
X309463Y467348D01*
X309368Y467407D01*
X309277Y467474D01*
X309189Y467545D01*
X309097Y467625D01*
X309616Y468237D01*
X309619Y468234D01*
X309634Y468225D01*
X309654Y468211D01*
X309681Y468190D01*
X309716Y468166D01*
X309754Y468140D01*
X309801Y468111D01*
X309851Y468078D01*
X309966Y468016D01*
X310090Y467957D01*
X310223Y467901D01*
X310358Y467866D01*
X310364D01*
X310373Y467863D01*
X310394Y467860D01*
X310420Y467857D01*
X310458Y467854D01*
X310497Y467851D01*
X310597D01*
X310653Y467854D01*
X310718Y467860D01*
X310785Y467869D01*
X310856Y467881D01*
X310930Y467896D01*
X311006Y467913D01*
X311086Y467940D01*
X311168Y467969D01*
X311171Y467972D01*
X311189Y467978D01*
X311212Y467990D01*
X311242Y468002D01*
X311280Y468022D01*
X311327Y468046D01*
X311380Y468075D01*
X311436Y468107D01*
X311501Y468143D01*
X311566Y468184D01*
X311633Y468228D01*
X311704Y468281D01*
X311778Y468337D01*
X311849Y468396D01*
X311922Y468464D01*
X311996Y468532D01*
X312028Y468564D01*
X312052Y468594D01*
X312081Y468623D01*
X312111Y468658D01*
X312149Y468703D01*
X312187Y468747D01*
X312229Y468800D01*
X312270Y468853D01*
X312352Y468971D01*
X312432Y469103D01*
X312500Y469236D01*
X312502Y469239D01*
X312505Y469253D01*
X312514Y469274D01*
X312526Y469297D01*
X312535Y469330D01*
X312550Y469368D01*
X312573Y469457D01*
X312597Y469563D01*
X312614Y469674D01*
X312620Y469792D01*
X312617Y469848D01*
X312612Y469907D01*
Y469913D01*
X312609Y469922D01*
X312606Y469937D01*
X312600Y469960D01*
X312594Y469984D01*
X312585Y470016D01*
X312561Y470087D01*
X312526Y470169D01*
X312482Y470255D01*
X312423Y470343D01*
X312390Y470387D01*
X312352Y470426D01*
X312349Y470429D01*
X312343Y470434D01*
X312332Y470446D01*
X312314Y470458D01*
X312296Y470476D01*
X312270Y470496D01*
X312211Y470538D01*
X312140Y470579D01*
X312052Y470620D01*
X311961Y470653D01*
X311857Y470673D01*
X311854Y470676D01*
X311846Y470673D01*
X311831Y470676D01*
X311748D01*
X311710Y470673D01*
X311666Y470670D01*
X311619Y470664D01*
X311569Y470655D01*
X311510Y470644D01*
X311454Y470629D01*
X311389Y470611D01*
X311324Y470588D01*
X311254Y470564D01*
X311180Y470532D01*
X311177Y470529D01*
X311168Y470526D01*
X311150Y470520D01*
X311127Y470508D01*
X311098Y470490D01*
X311062Y470473D01*
X311012Y470446D01*
X310959Y470417D01*
X310894Y470382D01*
X310821Y470343D01*
X310735Y470293D01*
X310641Y470240D01*
X310538Y470178D01*
X310423Y470111D01*
X310293Y470034D01*
X310155Y469949D01*
X310152Y469945D01*
X310146D01*
X310137Y469937D01*
X310123Y469928D01*
X310081Y469904D01*
X310028Y469875D01*
X309963Y469834D01*
X309887Y469792D01*
X309807Y469748D01*
X309719Y469695D01*
X309530Y469595D01*
X309339Y469498D01*
X309248Y469454D01*
X309156Y469415D01*
X309071Y469383D01*
X308997Y469356D01*
X308991D01*
X308974Y469351D01*
X308950Y469345D01*
X308915Y469333D01*
X308871Y469324D01*
X308818Y469312D01*
X308762Y469303D01*
X308697Y469292D01*
X308561Y469274D01*
X308405Y469265D01*
X308252Y469271D01*
X308173Y469280D01*
X308093Y469295D01*
X308087D01*
X308075Y469300D01*
X308052Y469306D01*
X308025Y469315D01*
X307990Y469327D01*
X307946Y469342D01*
X307899Y469359D01*
X307849Y469380D01*
X307793Y469407D01*
X307734Y469436D01*
X307675Y469471D01*
X307613Y469504D01*
X307489Y469592D01*
X307430Y469645D01*
X307368Y469701D01*
X307365Y469704D01*
X307354Y469716D01*
X307336Y469734D01*
X307313Y469763D01*
X307286Y469795D01*
X307257Y469837D01*
X307221Y469884D01*
X307183Y469934D01*
X307148Y469993D01*
X307109Y470055D01*
X307071Y470122D01*
X307036Y470199D01*
X307000Y470275D01*
X306971Y470358D01*
X306944Y470443D01*
X306924Y470535D01*
Y470541D01*
X306921Y470555D01*
X306915Y470585D01*
X306909Y470620D01*
X306906Y470664D01*
X306903Y470720D01*
Y470779D01*
X306900Y470847D01*
X306903Y470920D01*
X306906Y471000D01*
X306915Y471085D01*
X306929Y471171D01*
X306947Y471265D01*
X306971Y471359D01*
X307003Y471457D01*
X307041Y471554D01*
Y471560D01*
X307053Y471577D01*
X307065Y471607D01*
X307083Y471642D01*
X307106Y471689D01*
X307133Y471745D01*
X307168Y471810D01*
X307206Y471878D01*
X307254Y471949D01*
X307304Y472028D01*
X307357Y472110D01*
X307418Y472196D01*
X307483Y472278D01*
X307554Y472367D01*
X307633Y472452D01*
X307716Y472541D01*
X307766Y472591D01*
X307804Y472623D01*
X307852Y472664D01*
X307904Y472711D01*
X307966Y472761D01*
X308037Y472820D01*
X308114Y472879D01*
X308193Y472941D01*
X308370Y473059D01*
X308464Y473118D01*
X308564Y473171D01*
X308661Y473221D01*
X308765Y473265D01*
X308773Y473268D01*
X308791Y473274D01*
X308821Y473286D01*
X308859Y473301D01*
X308909Y473315D01*
X308965Y473330D01*
X309030Y473348D01*
X309103Y473362D01*
X309183Y473377D01*
X309268Y473392D01*
X309354Y473401D01*
X309448Y473406D01*
X309539Y473410D01*
X309636Y473406D01*
D02*
G37*
%LPC*%
G36*
X436984Y363644D02*
X437605Y360183D01*
X439025Y361603D01*
X436984Y363644D01*
D02*
G37*
G36*
X1540673Y364115D02*
X1540555D01*
X1540525Y364109D01*
X1540490Y364104D01*
X1540449Y364098D01*
X1540399Y364089D01*
X1540346Y364077D01*
X1540290Y364057D01*
X1540231Y364039D01*
X1540169Y364012D01*
X1540107Y363980D01*
X1540045Y363942D01*
X1539980Y363900D01*
X1539922Y363853D01*
X1539860Y363797D01*
X1539830Y363768D01*
X1539810Y363741D01*
X1539786Y363712D01*
X1539760Y363674D01*
X1539730Y363632D01*
X1539700Y363585D01*
X1539668Y363535D01*
X1539642Y363479D01*
X1539612Y363420D01*
X1539589Y363355D01*
X1539565Y363285D01*
X1539547Y363214D01*
X1539539Y363140D01*
X1539533Y363064D01*
Y363058D01*
Y363046D01*
Y363023D01*
X1539536Y362996D01*
X1539541Y362961D01*
X1539547Y362920D01*
X1539553Y362872D01*
X1539568Y362822D01*
X1539580Y362769D01*
X1539597Y362710D01*
X1539618Y362654D01*
X1539648Y362595D01*
X1539683Y362537D01*
X1539718Y362478D01*
X1539762Y362422D01*
X1539812Y362366D01*
X1539815Y362363D01*
X1539827Y362351D01*
X1539842Y362336D01*
X1539868Y362316D01*
X1539898Y362292D01*
X1539936Y362266D01*
X1539977Y362236D01*
X1540025Y362207D01*
X1540075Y362174D01*
X1540131Y362148D01*
X1540192Y362121D01*
X1540257Y362098D01*
X1540325Y362077D01*
X1540396Y362059D01*
X1540469Y362051D01*
X1540543Y362048D01*
X1540561D01*
X1540581Y362051D01*
X1540614Y362053D01*
X1540649Y362059D01*
X1540690Y362065D01*
X1540737Y362077D01*
X1540790Y362095D01*
X1540846Y362109D01*
X1540905Y362133D01*
X1540967Y362160D01*
X1541029Y362192D01*
X1541097Y362230D01*
X1541159Y362275D01*
X1541223Y362327D01*
X1541285Y362383D01*
X1541318Y362416D01*
X1541335Y362439D01*
X1541359Y362469D01*
X1541385Y362507D01*
X1541415Y362548D01*
X1541444Y362595D01*
X1541506Y362705D01*
X1541533Y362761D01*
X1541559Y362828D01*
X1541580Y362896D01*
X1541595Y362964D01*
X1541606Y363034D01*
X1541612Y363111D01*
Y363117D01*
Y363129D01*
X1541609Y363149D01*
Y363179D01*
X1541603Y363214D01*
X1541597Y363255D01*
X1541592Y363302D01*
X1541577Y363353D01*
X1541562Y363409D01*
X1541541Y363464D01*
X1541518Y363523D01*
X1541491Y363579D01*
X1541459Y363641D01*
X1541418Y363700D01*
X1541371Y363759D01*
X1541321Y363815D01*
X1541318Y363818D01*
X1541306Y363830D01*
X1541291Y363844D01*
X1541268Y363862D01*
X1541238Y363886D01*
X1541200Y363912D01*
X1541161Y363939D01*
X1541114Y363968D01*
X1541064Y363995D01*
X1541008Y364021D01*
X1540949Y364051D01*
X1540888Y364071D01*
X1540817Y364089D01*
X1540749Y364104D01*
X1540673Y364115D01*
D02*
G37*
G36*
X1542658Y362319D02*
X1542634D01*
X1542608Y362316D01*
X1542569Y362313D01*
X1542522Y362307D01*
X1542466Y362298D01*
X1542408Y362286D01*
X1542343Y362269D01*
X1542272Y362245D01*
X1542195Y362221D01*
X1542119Y362186D01*
X1542039Y362148D01*
X1541957Y362101D01*
X1541880Y362048D01*
X1541801Y361986D01*
X1541724Y361915D01*
X1541706Y361897D01*
X1541689Y361874D01*
X1541662Y361847D01*
X1541633Y361806D01*
X1541600Y361762D01*
X1541565Y361715D01*
X1541530Y361656D01*
X1541491Y361588D01*
X1541459Y361520D01*
X1541424Y361444D01*
X1541397Y361364D01*
X1541371Y361279D01*
X1541353Y361190D01*
X1541338Y361099D01*
X1541335Y361002D01*
Y360996D01*
Y360978D01*
X1541338Y360952D01*
X1541341Y360914D01*
X1541347Y360872D01*
X1541359Y360819D01*
X1541371Y360760D01*
X1541385Y360699D01*
X1541406Y360625D01*
X1541432Y360557D01*
X1541462Y360481D01*
X1541503Y360404D01*
X1541547Y360325D01*
X1541600Y360248D01*
X1541659Y360171D01*
X1541727Y360098D01*
X1541730Y360095D01*
X1541739Y360086D01*
X1541751Y360074D01*
X1541771Y360059D01*
X1541792Y360039D01*
X1541821Y360015D01*
X1541851Y359992D01*
X1541889Y359965D01*
X1541971Y359906D01*
X1542069Y359850D01*
X1542178Y359794D01*
X1542301Y359747D01*
X1542304Y359744D01*
X1542316D01*
X1542334Y359738D01*
X1542357Y359733D01*
X1542390Y359724D01*
X1542425Y359718D01*
X1542511Y359703D01*
X1542611Y359697D01*
X1542728D01*
X1542849Y359712D01*
X1542976Y359738D01*
X1542979Y359741D01*
X1542991D01*
X1543011Y359750D01*
X1543032Y359759D01*
X1543061Y359771D01*
X1543100Y359785D01*
X1543138Y359800D01*
X1543179Y359824D01*
X1543226Y359847D01*
X1543273Y359871D01*
X1543376Y359933D01*
X1543477Y360009D01*
X1543577Y360098D01*
X1543595Y360115D01*
X1543612Y360139D01*
X1543642Y360168D01*
X1543668Y360207D01*
X1543703Y360254D01*
X1543742Y360304D01*
X1543777Y360363D01*
X1543813Y360428D01*
X1543851Y360495D01*
X1543886Y360572D01*
X1543916Y360654D01*
X1543942Y360740D01*
X1543963Y360825D01*
X1543974Y360919D01*
X1543980Y361014D01*
Y361020D01*
Y361037D01*
X1543977Y361064D01*
X1543974Y361102D01*
X1543969Y361143D01*
X1543960Y361199D01*
X1543948Y361258D01*
X1543933Y361320D01*
X1543913Y361388D01*
X1543886Y361461D01*
X1543857Y361538D01*
X1543815Y361615D01*
X1543771Y361694D01*
X1543718Y361771D01*
X1543659Y361847D01*
X1543589Y361924D01*
X1543583Y361930D01*
X1543571Y361942D01*
X1543547Y361959D01*
X1543518Y361989D01*
X1543480Y362015D01*
X1543432Y362051D01*
X1543380Y362086D01*
X1543324Y362124D01*
X1543256Y362163D01*
X1543185Y362198D01*
X1543109Y362227D01*
X1543029Y362260D01*
X1542941Y362283D01*
X1542849Y362304D01*
X1542755Y362316D01*
X1542658Y362319D01*
D02*
G37*
G36*
X1542440Y598768D02*
X1542387D01*
X1542354Y598765D01*
X1542307Y598759D01*
X1542254Y598754D01*
X1542198Y598745D01*
X1542131Y598730D01*
X1542063Y598715D01*
X1541989Y598689D01*
X1541916Y598662D01*
X1541839Y598627D01*
X1541762Y598586D01*
X1541686Y598533D01*
X1541612Y598477D01*
X1541539Y598409D01*
X1541521Y598391D01*
X1541506Y598371D01*
X1541480Y598344D01*
X1541453Y598306D01*
X1541421Y598262D01*
X1541385Y598209D01*
X1541350Y598156D01*
X1541315Y598091D01*
X1541282Y598023D01*
X1541250Y597944D01*
X1541223Y597864D01*
X1541200Y597782D01*
X1541182Y597687D01*
X1541170Y597593D01*
X1541167Y597496D01*
Y597490D01*
Y597472D01*
X1541170Y597446D01*
X1541176Y597405D01*
X1541182Y597357D01*
X1541194Y597304D01*
X1541206Y597245D01*
X1541226Y597178D01*
X1541247Y597104D01*
X1541279Y597025D01*
X1541315Y596948D01*
X1541359Y596863D01*
X1541406Y596780D01*
X1541468Y596695D01*
X1541536Y596609D01*
X1541612Y596527D01*
X1541615Y596524D01*
X1541624Y596515D01*
X1541642Y596497D01*
X1541665Y596480D01*
X1541689Y596456D01*
X1541724Y596427D01*
X1541759Y596397D01*
X1541804Y596365D01*
X1541851Y596329D01*
X1541904Y596294D01*
X1542016Y596223D01*
X1542142Y596156D01*
X1542284Y596097D01*
X1542290D01*
X1542301Y596091D01*
X1542319Y596085D01*
X1542352Y596076D01*
X1542384Y596067D01*
X1542425Y596056D01*
X1542519Y596038D01*
X1542634Y596023D01*
X1542761Y596014D01*
X1542894Y596017D01*
X1543026Y596038D01*
X1543029Y596041D01*
X1543041D01*
X1543058Y596047D01*
X1543085Y596056D01*
X1543117Y596064D01*
X1543153Y596076D01*
X1543191Y596091D01*
X1543235Y596111D01*
X1543327Y596156D01*
X1543430Y596212D01*
X1543530Y596282D01*
X1543577Y596324D01*
X1543624Y596365D01*
X1543639Y596380D01*
X1543656Y596403D01*
X1543677Y596430D01*
X1543703Y596462D01*
X1543736Y596506D01*
X1543765Y596553D01*
X1543798Y596609D01*
X1543830Y596671D01*
X1543860Y596736D01*
X1543886Y596810D01*
X1543910Y596892D01*
X1543927Y596974D01*
X1543942Y597060D01*
X1543951Y597157D01*
X1543948Y597254D01*
Y597260D01*
Y597278D01*
X1543942Y597307D01*
X1543933Y597346D01*
X1543927Y597393D01*
X1543913Y597449D01*
X1543895Y597514D01*
X1543871Y597584D01*
X1543842Y597661D01*
X1543810Y597740D01*
X1543765Y597826D01*
X1543718Y597914D01*
X1543659Y598003D01*
X1543592Y598094D01*
X1543515Y598188D01*
X1543430Y598279D01*
X1543424Y598285D01*
X1543409Y598300D01*
X1543382Y598321D01*
X1543350Y598353D01*
X1543303Y598388D01*
X1543256Y598430D01*
X1543194Y598474D01*
X1543129Y598515D01*
X1543058Y598562D01*
X1542979Y598606D01*
X1542899Y598645D01*
X1542814Y598683D01*
X1542723Y598715D01*
X1542631Y598742D01*
X1542537Y598759D01*
X1542440Y598768D01*
D02*
G37*
%LPD*%
D10*
X451570Y458489D02*
X554454Y561372D01*
X642135Y473691D01*
X539251Y370807D02*
X642135Y473691D01*
X451570Y458489D02*
X539251Y370807D01*
X919710Y310790D02*
X1043710D01*
Y456290D01*
X919710D02*
X1043710D01*
X919710Y310790D02*
Y456290D01*
X421141Y252698D02*
X524025Y355582D01*
X436344Y443263D02*
X524025Y355582D01*
X333459Y340379D02*
X421141Y252698D01*
X333459Y340379D02*
X436344Y443263D01*
X333459Y576599D02*
X421141Y488918D01*
X524025Y591802D01*
X436344Y679483D02*
X524025Y591802D01*
X333459Y576599D02*
X436344Y679483D01*
X1437089Y340379D02*
X1539974Y443263D01*
X1627655Y355582D01*
X1524771Y252698D02*
X1627655Y355582D01*
X1437089Y340379D02*
X1524771Y252698D01*
X1437089Y576599D02*
X1539974Y679483D01*
X1627655Y591802D01*
X1524771Y488918D02*
X1627655Y591802D01*
X1437089Y576599D02*
X1524771Y488918D01*
X1318980Y458489D02*
X1421864Y561372D01*
X1509545Y473691D01*
X1406661Y370807D02*
X1509545Y473691D01*
X1318980Y458489D02*
X1406661Y370807D01*
X1555200Y458489D02*
X1658084Y561372D01*
X1745765Y473691D01*
X1642881Y370807D02*
X1745765Y473691D01*
X1555200Y458489D02*
X1642881Y370807D01*
X215350Y458489D02*
X303031Y370807D01*
X405915Y473691D01*
X318234Y561372D02*
X405915Y473691D01*
X215350Y458489D02*
X318234Y561372D01*
M02*
