G04*
G04 #@! TF.GenerationSoftware,Altium Limited,Altium Designer,23.7.1 (13)*
G04*
G04 Layer_Color=16711935*
%FSLAX44Y44*%
%MOMM*%
G71*
G04*
G04 #@! TF.SameCoordinates,53C910CC-7849-4C62-84ED-885E7FD34011*
G04*
G04*
G04 #@! TF.FilePolarity,Positive*
G04*
G01*
G75*
%ADD10C,0.2000*%
%ADD13C,0.1270*%
%ADD63C,0.1000*%
D10*
X1136380Y791120D02*
G03*
X1136380Y791120I-1000J0D01*
G01*
X651700Y359560D02*
G03*
X651700Y359560I-1000J0D01*
G01*
X1190180D02*
G03*
X1190180Y359560I-1000J0D01*
G01*
X1392450Y779780D02*
G03*
X1392450Y779780I-1000J0D01*
G01*
X426450Y779780D02*
G03*
X426450Y779780I-1000J0D01*
G01*
X460585Y466090D02*
X546852Y552357D01*
X633119Y466090D01*
X546852Y379823D02*
X633119Y466090D01*
X460585D02*
X546852Y379823D01*
X920710Y322540D02*
X1042710D01*
Y444540D01*
X920710D02*
X1042710D01*
X920710Y322540D02*
Y444540D01*
X342475Y347980D02*
X428742Y261713D01*
X515009Y347980D01*
X428742Y434247D02*
X515009Y347980D01*
X342475D02*
X428742Y434247D01*
X342475Y584200D02*
X428742Y497933D01*
X515009Y584200D01*
X428742Y670467D02*
X515009Y584200D01*
X342475D02*
X428742Y670467D01*
X1446105Y347980D02*
X1532372Y434247D01*
X1618639Y347980D01*
X1532372Y261713D02*
X1618639Y347980D01*
X1446105D02*
X1532372Y261713D01*
X1446105Y584200D02*
X1532372Y670467D01*
X1618639Y584200D01*
X1532372Y497933D02*
X1618639Y584200D01*
X1446105D02*
X1532372Y497933D01*
X1327995Y466090D02*
X1414262Y552357D01*
X1500529Y466090D01*
X1414262Y379823D02*
X1500529Y466090D01*
X1327995D02*
X1414262Y379823D01*
X1564215Y466090D02*
X1650482Y552357D01*
X1736749Y466090D01*
X1650482Y379823D02*
X1736749Y466090D01*
X1564215D02*
X1650482Y379823D01*
X224365Y466090D02*
X310632Y379823D01*
X396899Y466090D01*
X310632Y552357D02*
X396899Y466090D01*
X224365D02*
X310632Y552357D01*
D13*
X657268Y347814D02*
G03*
X765132Y347814I53932J-121133D01*
G01*
X1195748D02*
G03*
X1303612Y347814I53932J-121133D01*
G01*
X1234980Y674730D02*
Y785420D01*
Y607620D02*
Y674730D01*
Y500320D02*
Y607620D01*
X725480Y785420D02*
X1234980D01*
X725480Y500320D02*
X1234980D01*
X725480Y731720D02*
Y785420D01*
Y554820D02*
Y731720D01*
Y500320D02*
Y554820D01*
X1196080Y607620D02*
X1234980D01*
X1196080D02*
Y674730D01*
X1234980D01*
X656700Y369060D02*
X765700D01*
X662700Y115060D02*
X759700D01*
Y147060D01*
X662700Y115060D02*
Y147060D01*
X759700D02*
X790700D01*
X631700D02*
X662700D01*
X806200Y186060D02*
Y267060D01*
X790700D02*
Y306060D01*
Y147060D02*
Y186060D01*
Y267060D02*
X806200D01*
X790700Y186060D02*
X806200D01*
X765700Y306060D02*
X790700D01*
X631700D02*
X656700D01*
X765700D02*
Y369060D01*
X656700Y306060D02*
Y369060D01*
X600200Y275060D02*
X631700D01*
X600200Y177060D02*
X631700D01*
X600200D02*
Y275060D01*
X631700D02*
Y306060D01*
Y147060D02*
Y177060D01*
X1195180Y369060D02*
X1304180D01*
X1201180Y115060D02*
X1298180D01*
Y147060D01*
X1201180Y115060D02*
Y147060D01*
X1298180D02*
X1329180D01*
X1170180D02*
X1201180D01*
X1344680Y186060D02*
Y267060D01*
X1329180D02*
Y306060D01*
Y147060D02*
Y186060D01*
Y267060D02*
X1344680D01*
X1329180Y186060D02*
X1344680D01*
X1304180Y306060D02*
X1329180D01*
X1170180D02*
X1195180D01*
X1304180D02*
Y369060D01*
X1195180Y306060D02*
Y369060D01*
X1138680Y275060D02*
X1170180D01*
X1138680Y177060D02*
X1170180D01*
X1138680D02*
Y275060D01*
X1170180D02*
Y306060D01*
Y147060D02*
Y177060D01*
X1446940Y816580D02*
Y844280D01*
X1479940D01*
Y816580D02*
Y844280D01*
Y816580D02*
X1528940D01*
X1446940D02*
X1479940D01*
X1397940D02*
X1446940D01*
X1397940Y711280D02*
Y816580D01*
Y711280D02*
X1528940D01*
Y816580D01*
X480940D02*
Y844280D01*
X513940D01*
Y816580D02*
Y844280D01*
Y816580D02*
X562940D01*
X480940D02*
X513940D01*
X431940D02*
X480940D01*
X431940Y711280D02*
Y816580D01*
Y711280D02*
X562940D01*
Y816580D01*
D63*
X272941Y344850D02*
X299882Y317909D01*
X290902Y362811D02*
X317843Y335870D01*
X299882Y317909D02*
X317843Y335870D01*
X272941Y344850D02*
X290902Y362811D01*
X558782Y623251D02*
X585723Y596310D01*
X540821Y605291D02*
X567762Y578350D01*
X540821Y605291D02*
X558782Y623251D01*
X567762Y578350D02*
X585723Y596310D01*
X353060Y673100D02*
Y698500D01*
X314960Y673100D02*
Y698500D01*
Y673100D02*
X353060D01*
X314960Y698500D02*
X353060D01*
X1659890Y660400D02*
Y685800D01*
X1621790Y660400D02*
Y685800D01*
Y660400D02*
X1659890D01*
X1621790Y685800D02*
X1659890D01*
X613890Y612620D02*
X673890D01*
X613890Y672620D02*
X673890D01*
Y612620D02*
Y672620D01*
X613890Y612620D02*
Y672620D01*
X1289530Y612620D02*
X1349530D01*
X1289530Y672620D02*
X1349530D01*
Y612620D02*
Y672620D01*
X1289530Y612620D02*
Y672620D01*
X1653612Y307749D02*
X1680553Y334690D01*
X1635651Y325710D02*
X1662592Y352651D01*
X1680553Y334690D01*
X1635651Y325710D02*
X1653612Y307749D01*
X1381651Y588600D02*
X1408592Y615541D01*
X1399612Y570639D02*
X1426553Y597580D01*
X1381651Y588600D02*
X1399612Y570639D01*
X1408592Y615541D02*
X1426553Y597580D01*
M02*
