  0
SECTION
  2
HEADER
  9
$EXTMIN
 10
449.580000
 20
508.838200
  9
$EXTMAX
 10
635.304800
 20
632.002800
  9
$LIMMIN
 10
449.580000
 20
508.838200
  9
$LIMMAX
 10
635.304800
 20
632.002800
  9
$FILLMODE
 70
  1
  0
ENDSEC
  0
SECTION
  2
TABLES
  0
TABLE
  2
LTYPE
 70
  1
  0
LTYPE
  2
CONTINUOUS
 70
 64
  3
Solid line
 72
 65
 73
  0
 40
0.0
  0
ENDTAB
  0
TABLE
  2
LAYER
 70
 1
  0
LAYER
  2
0
 70
  0
 62
7
  6
CONTINUOUS
  0
LAYER
  2
gko
 70
  0
 62
1
  6
CONTINUOUS
  0
ENDTAB
  0
TABLE
  2
STYLE
 70
  1
  0
STYLE
  2
STANDARD
 70
  0
 40
0.0
 41
1.0
 50
0.0
 71
  0
 42
0.2
  3
txt
  4

  0
ENDTAB
  0
ENDSEC
  0
SECTION
  2
BLOCKS
  0
BLOCK
  8
0
  2
D10
 70
64
 10
0.0
 20
0.0
  3
D10
  0
CIRCLE
  8
0
 10
0.000000
 20
0.000000
 40
0.127000
 0
ENDBLK
  8
0
  0
ENDSEC
  0
SECTION
  2
ENTITIES
  0
POLYLINE
  8
gko
 62
1
 40
0.000000
 41
0.000000
 66
  1
  0
VERTEX
  8
gko
 10
542.286935
 20
551.387393
  0
VERTEX
  8
gko
 10
543.224046
 20
551.389503
  0
SEQEND
  8
gko
  0
POLYLINE
  8
gko
 62
1
 40
0.000000
 41
0.000000
 66
  1
  0
VERTEX
  8
gko
 10
635.174590
 20
545.032050
  0
VERTEX
  8
gko
 10
635.120520
 20
549.923290
  0
VERTEX
  8
gko
 10
634.959180
 20
554.210918
  0
VERTEX
  8
gko
 10
634.686429
 20
557.974036
  0
VERTEX
  8
gko
 10
634.315619
 20
561.166972
  0
SEQEND
  8
gko
  0
POLYLINE
  8
gko
 62
1
 40
0.000000
 41
0.000000
 66
  1
  0
VERTEX
  8
gko
 10
577.284675
 20
551.990774
  0
VERTEX
  8
gko
 10
575.471671
 20
551.570503
  0
SEQEND
  8
gko
  0
POLYLINE
  8
gko
 62
1
 40
0.000000
 41
0.000000
 66
  1
  0
VERTEX
  8
gko
 10
543.224046
 20
551.389503
  0
VERTEX
  8
gko
 10
574.485039
 20
551.458773
  0
SEQEND
  8
gko
  0
POLYLINE
  8
gko
 62
1
 40
0.000000
 41
0.000000
 66
  1
  0
VERTEX
  8
gko
 10
574.485039
 20
551.458773
  0
VERTEX
  8
gko
 10
575.471671
 20
551.570503
  0
SEQEND
  8
gko
  0
POLYLINE
  8
gko
 62
1
 40
0.000000
 41
0.000000
 66
  1
  0
VERTEX
  8
gko
 10
509.100808
 20
551.801624
  0
VERTEX
  8
gko
 10
510.123260
 20
551.616783
  0
VERTEX
  8
gko
 10
511.191842
 20
551.509753
  0
VERTEX
  8
gko
 10
514.954100
 20
551.392853
  0
VERTEX
  8
gko
 10
523.353587
 20
551.356763
  0
VERTEX
  8
gko
 10
542.286935
 20
551.387393
  0
SEQEND
  8
gko
  0
POLYLINE
  8
gko
 62
1
 40
0.000000
 41
0.000000
 66
  1
  0
VERTEX
  8
gko
 10
595.130320
 20
540.259481
  0
VERTEX
  8
gko
 10
595.194430
 20
540.108250
  0
SEQEND
  8
gko
  0
POLYLINE
  8
gko
 62
1
 40
0.000000
 41
0.000000
 66
  1
  0
VERTEX
  8
gko
 10
590.583131
 20
548.251837
  0
VERTEX
  8
gko
 10
590.694481
 20
548.141066
  0
SEQEND
  8
gko
  0
POLYLINE
  8
gko
 62
1
 40
0.000000
 41
0.000000
 66
  1
  0
VERTEX
  8
gko
 10
484.988490
 20
527.647775
  0
VERTEX
  8
gko
 10
485.096640
 20
527.970476
  0
SEQEND
  8
gko
  0
POLYLINE
  8
gko
 62
1
 40
0.000000
 41
0.000000
 66
  1
  0
VERTEX
  8
gko
 10
450.895502
 20
528.270607
  0
VERTEX
  8
gko
 10
450.943732
 20
528.084956
  0
SEQEND
  8
gko
  0
POLYLINE
  8
gko
 62
1
 40
0.000000
 41
0.000000
 66
  1
  0
VERTEX
  8
gko
 10
453.196616
 20
577.082364
  0
VERTEX
  8
gko
 10
453.152856
 20
576.865144
  0
SEQEND
  8
gko
  0
POLYLINE
  8
gko
 62
1
 40
0.000000
 41
0.000000
 66
  1
  0
VERTEX
  8
gko
 10
461.138042
 20
604.089278
  0
VERTEX
  8
gko
 10
461.048682
 20
603.849298
  0
SEQEND
  8
gko
  0
POLYLINE
  8
gko
 62
1
 40
0.000000
 41
0.000000
 66
  1
  0
VERTEX
  8
gko
 10
479.838910
 20
630.197070
  0
VERTEX
  8
gko
 10
479.660469
 20
630.130400
  0
SEQEND
  8
gko
  0
POLYLINE
  8
gko
 62
1
 40
0.000000
 41
0.000000
 66
  1
  0
VERTEX
  8
gko
 10
490.602531
 20
631.777494
  0
VERTEX
  8
gko
 10
490.767992
 20
631.777314
  0
SEQEND
  8
gko
  0
POLYLINE
  8
gko
 62
1
 40
0.000000
 41
0.000000
 66
  1
  0
VERTEX
  8
gko
 10
501.551103
 20
627.819346
  0
VERTEX
  8
gko
 10
501.734413
 20
627.846506
  0
SEQEND
  8
gko
  0
POLYLINE
  8
gko
 62
1
 40
0.000000
 41
0.000000
 66
  1
  0
VERTEX
  8
gko
 10
516.023182
 20
629.523189
  0
VERTEX
  8
gko
 10
516.277543
 20
629.545819
  0
SEQEND
  8
gko
  0
POLYLINE
  8
gko
 62
1
 40
0.000000
 41
0.000000
 66
  1
  0
VERTEX
  8
gko
 10
542.474345
 20
630.453791
  0
VERTEX
  8
gko
 10
542.848126
 20
630.453741
  0
SEQEND
  8
gko
  0
POLYLINE
  8
gko
 62
1
 40
0.000000
 41
0.000000
 66
  1
  0
VERTEX
  8
gko
 10
567.551555
 20
629.641749
  0
VERTEX
  8
gko
 10
567.701745
 20
629.628599
  0
SEQEND
  8
gko
  0
POLYLINE
  8
gko
 62
1
 40
0.000000
 41
0.000000
 66
  1
  0
VERTEX
  8
gko
 10
618.973248
 20
615.778382
  0
VERTEX
  8
gko
 10
618.912978
 20
615.911702
  0
SEQEND
  8
gko
  0
POLYLINE
  8
gko
 62
1
 40
0.000000
 41
0.000000
 66
  1
  0
VERTEX
  8
gko
 10
625.773862
 20
598.320747
  0
VERTEX
  8
gko
 10
625.671041
 20
598.621507
  0
SEQEND
  8
gko
  0
POLYLINE
  8
gko
 62
1
 40
0.000000
 41
0.000000
 66
  1
  0
VERTEX
  8
gko
 10
635.174590
 20
545.032050
  0
VERTEX
  8
gko
 10
635.174590
 20
544.791000
  0
SEQEND
  8
gko
  0
POLYLINE
  8
gko
 62
1
 40
0.000000
 41
0.000000
 66
  1
  0
VERTEX
  8
gko
 10
633.795448
 20
527.825806
  0
VERTEX
  8
gko
 10
633.847418
 20
528.084956
  0
SEQEND
  8
gko
  0
POLYLINE
  8
gko
 62
1
 40
0.000000
 41
0.000000
 66
  1
  0
VERTEX
  8
gko
 10
600.294181
 20
526.383843
  0
VERTEX
  8
gko
 10
600.379371
 20
526.138352
  0
SEQEND
  8
gko
  0
POLYLINE
  8
gko
 62
1
 40
0.000000
 41
0.000000
 66
  1
  0
VERTEX
  8
gko
 10
633.847418
 20
528.084956
  0
VERTEX
  8
gko
 10
634.498289
 20
531.830654
  0
VERTEX
  8
gko
 10
634.893800
 20
535.360981
  0
VERTEX
  8
gko
 10
635.105510
 20
539.350899
  0
VERTEX
  8
gko
 10
635.174590
 20
544.791000
  0
SEQEND
  8
gko
  0
POLYLINE
  8
gko
 62
1
 40
0.000000
 41
0.000000
 66
  1
  0
VERTEX
  8
gko
 10
634.297759
 20
561.292123
  0
VERTEX
  8
gko
 10
633.522857
 20
566.960624
  0
SEQEND
  8
gko
  0
POLYLINE
  8
gko
 62
1
 40
0.000000
 41
0.000000
 66
  1
  0
VERTEX
  8
gko
 10
633.515417
 20
567.017474
  0
VERTEX
  8
gko
 10
633.033196
 20
570.169410
  0
VERTEX
  8
gko
 10
632.316705
 20
573.994308
  0
VERTEX
  8
gko
 10
631.500143
 20
577.806676
  0
VERTEX
  8
gko
 10
630.474091
 20
582.133854
  0
VERTEX
  8
gko
 10
629.328979
 20
586.553693
  0
VERTEX
  8
gko
 10
628.191076
 20
590.616151
  0
VERTEX
  8
gko
 10
626.998574
 20
594.568729
  0
VERTEX
  8
gko
 10
625.773862
 20
598.320747
  0
SEQEND
  8
gko
  0
POLYLINE
  8
gko
 62
1
 40
0.000000
 41
0.000000
 66
  1
  0
VERTEX
  8
gko
 10
625.671041
 20
598.621507
  0
VERTEX
  8
gko
 10
624.131768
 20
602.944906
  0
VERTEX
  8
gko
 10
622.373605
 20
607.585615
  0
VERTEX
  8
gko
 10
620.604541
 20
611.990524
  0
VERTEX
  8
gko
 10
618.973248
 20
615.778382
  0
SEQEND
  8
gko
  0
POLYLINE
  8
gko
 62
1
 40
0.000000
 41
0.000000
 66
  1
  0
VERTEX
  8
gko
 10
618.912978
 20
615.911702
  0
VERTEX
  8
gko
 10
616.898094
 20
620.181050
  0
VERTEX
  8
gko
 10
616.229232
 20
621.452773
  0
VERTEX
  8
gko
 10
615.865472
 20
622.000834
  0
SEQEND
  8
gko
  0
POLYLINE
  8
gko
 62
1
 40
0.000000
 41
0.000000
 66
  1
  0
VERTEX
  8
gko
 10
615.856912
 20
622.007974
  0
VERTEX
  8
gko
 10
615.636521
 20
622.137894
  0
VERTEX
  8
gko
 10
615.278101
 20
622.302285
  0
VERTEX
  8
gko
 10
614.364919
 20
622.643965
  0
SEQEND
  8
gko
  0
POLYLINE
  8
gko
 62
1
 40
0.000000
 41
0.000000
 66
  1
  0
VERTEX
  8
gko
 10
614.345439
 20
622.650335
  0
VERTEX
  8
gko
 10
613.885058
 20
622.815796
  0
VERTEX
  8
gko
 10
613.453947
 20
623.000576
  0
VERTEX
  8
gko
 10
613.107696
 20
623.182726
  0
VERTEX
  8
gko
 10
612.925366
 20
623.320387
  0
SEQEND
  8
gko
  0
POLYLINE
  8
gko
 62
1
 40
0.000000
 41
0.000000
 66
  1
  0
VERTEX
  8
gko
 10
612.921276
 20
623.325167
  0
VERTEX
  8
gko
 10
612.828746
 20
623.526337
  0
VERTEX
  8
gko
 10
612.739945
 20
623.904668
  0
VERTEX
  8
gko
 10
612.673095
 20
624.393439
  0
VERTEX
  8
gko
 10
612.640735
 20
624.871550
  0
SEQEND
  8
gko
  0
POLYLINE
  8
gko
 62
1
 40
0.000000
 41
0.000000
 66
  1
  0
VERTEX
  8
gko
 10
612.640105
 20
624.892710
  0
VERTEX
  8
gko
 10
612.588895
 20
625.675481
  0
VERTEX
  8
gko
 10
612.459405
 20
626.102792
  0
VERTEX
  8
gko
 10
612.191384
 20
626.437663
  0
VERTEX
  8
gko
 10
611.575253
 20
626.926484
  0
SEQEND
  8
gko
  0
POLYLINE
  8
gko
 62
1
 40
0.000000
 41
0.000000
 66
  1
  0
VERTEX
  8
gko
 10
611.544983
 20
626.948894
  0
VERTEX
  8
gko
 10
610.332281
 20
627.786536
  0
VERTEX
  8
gko
 10
609.112868
 20
628.499187
  0
VERTEX
  8
gko
 10
607.832586
 20
629.120848
  0
VERTEX
  8
gko
 10
606.276833
 20
629.760570
  0
SEQEND
  8
gko
  0
POLYLINE
  8
gko
 62
1
 40
0.000000
 41
0.000000
 66
  1
  0
VERTEX
  8
gko
 10
606.208372
 20
629.786790
  0
VERTEX
  8
gko
 10
604.035728
 20
630.541121
  0
VERTEX
  8
gko
 10
601.945184
 20
631.082292
  0
VERTEX
  8
gko
 10
599.777740
 20
631.451813
  0
VERTEX
  8
gko
 10
597.105404
 20
631.733043
  0
SEQEND
  8
gko
  0
POLYLINE
  8
gko
 62
1
 40
0.000000
 41
0.000000
 66
  1
  0
VERTEX
  8
gko
 10
588.511297
 20
631.158442
  0
VERTEX
  8
gko
 10
588.075866
 20
630.938092
  0
VERTEX
  8
gko
 10
587.950106
 20
630.826362
  0
VERTEX
  8
gko
 10
587.870096
 20
630.713431
  0
VERTEX
  8
gko
 10
587.797686
 20
630.543101
  0
VERTEX
  8
gko
 10
587.744595
 20
630.322571
  0
VERTEX
  8
gko
 10
587.663245
 20
629.611809
  0
SEQEND
  8
gko
  0
POLYLINE
  8
gko
 62
1
 40
0.000000
 41
0.000000
 66
  1
  0
VERTEX
  8
gko
 10
596.986104
 20
631.742773
  0
VERTEX
  8
gko
 10
594.311529
 20
631.874624
  0
VERTEX
  8
gko
 10
591.951224
 20
631.817244
  0
VERTEX
  8
gko
 10
589.989660
 20
631.576573
  0
VERTEX
  8
gko
 10
589.214528
 20
631.397683
  0
VERTEX
  8
gko
 10
588.560167
 20
631.178532
  0
SEQEND
  8
gko
  0
POLYLINE
  8
gko
 62
1
 40
0.000000
 41
0.000000
 66
  1
  0
VERTEX
  8
gko
 10
587.660245
 20
629.576749
  0
VERTEX
  8
gko
 10
587.597505
 20
629.006188
  0
VERTEX
  8
gko
 10
587.507465
 20
628.551407
  0
VERTEX
  8
gko
 10
587.391485
 20
628.224146
  0
VERTEX
  8
gko
 10
587.235964
 20
627.976246
  0
VERTEX
  8
gko
 10
587.033194
 20
627.798396
  0
VERTEX
  8
gko
 10
586.775234
 20
627.681305
  0
VERTEX
  8
gko
 10
586.454373
 20
627.615695
  0
VERTEX
  8
gko
 10
586.026612
 20
627.592015
  0
SEQEND
  8
gko
  0
POLYLINE
  8
gko
 62
1
 40
0.000000
 41
0.000000
 66
  1
  0
VERTEX
  8
gko
 10
585.990042
 20
627.591895
  0
VERTEX
  8
gko
 10
582.089354
 20
627.994226
  0
VERTEX
  8
gko
 10
577.834106
 20
628.607387
  0
SEQEND
  8
gko
  0
POLYLINE
  8
gko
 62
1
 40
0.000000
 41
0.000000
 66
  1
  0
VERTEX
  8
gko
 10
577.798266
 20
628.615207
  0
VERTEX
  8
gko
 10
574.362299
 20
629.007058
  0
VERTEX
  8
gko
 10
567.701745
 20
629.628599
  0
SEQEND
  8
gko
  0
POLYLINE
  8
gko
 62
1
 40
0.000000
 41
0.000000
 66
  1
  0
VERTEX
  8
gko
 10
567.551555
 20
629.641749
  0
VERTEX
  8
gko
 10
562.090294
 20
630.052400
  0
VERTEX
  8
gko
 10
556.957324
 20
630.288591
  0
VERTEX
  8
gko
 10
550.928422
 20
630.413791
  0
VERTEX
  8
gko
 10
542.848126
 20
630.453741
  0
SEQEND
  8
gko
  0
POLYLINE
  8
gko
 62
1
 40
0.000000
 41
0.000000
 66
  1
  0
VERTEX
  8
gko
 10
542.474345
 20
630.453791
  0
VERTEX
  8
gko
 10
533.718507
 20
630.412361
  0
VERTEX
  8
gko
 10
527.526385
 20
630.274391
  0
VERTEX
  8
gko
 10
522.127884
 20
630.004640
  0
VERTEX
  8
gko
 10
516.277543
 20
629.545819
  0
SEQEND
  8
gko
  0
POLYLINE
  8
gko
 62
1
 40
0.000000
 41
0.000000
 66
  1
  0
VERTEX
  8
gko
 10
516.023182
 20
629.523189
  0
VERTEX
  8
gko
 10
508.594407
 20
628.790088
  0
VERTEX
  8
gko
 10
501.734413
 20
627.846506
  0
SEQEND
  8
gko
  0
POLYLINE
  8
gko
 62
1
 40
0.000000
 41
0.000000
 66
  1
  0
VERTEX
  8
gko
 10
501.551103
 20
627.819346
  0
VERTEX
  8
gko
 10
499.375609
 20
627.593135
  0
VERTEX
  8
gko
 10
498.667047
 20
627.610485
  0
VERTEX
  8
gko
 10
498.121836
 20
627.711935
  0
VERTEX
  8
gko
 10
497.723485
 20
627.902686
  0
VERTEX
  8
gko
 10
497.455085
 20
628.187826
  0
VERTEX
  8
gko
 10
497.300195
 20
628.572537
  0
VERTEX
  8
gko
 10
497.241044
 20
629.107638
  0
SEQEND
  8
gko
  0
POLYLINE
  8
gko
 62
1
 40
0.000000
 41
0.000000
 66
  1
  0
VERTEX
  8
gko
 10
497.240664
 20
629.154098
  0
VERTEX
  8
gko
 10
497.165124
 20
629.976300
  0
VERTEX
  8
gko
 10
496.958264
 20
630.531921
  0
VERTEX
  8
gko
 10
496.582593
 20
630.964642
  0
VERTEX
  8
gko
 10
496.002792
 20
631.288593
  0
VERTEX
  8
gko
 10
495.183230
 20
631.517673
  0
VERTEX
  8
gko
 10
494.088488
 20
631.666063
  0
VERTEX
  8
gko
 10
492.682795
 20
631.747793
  0
VERTEX
  8
gko
 10
490.767992
 20
631.777314
  0
SEQEND
  8
gko
  0
POLYLINE
  8
gko
 62
1
 40
0.000000
 41
0.000000
 66
  1
  0
VERTEX
  8
gko
 10
490.602531
 20
631.777494
  0
VERTEX
  8
gko
 10
487.512495
 20
631.696083
  0
VERTEX
  8
gko
 10
484.833220
 20
631.426813
  0
VERTEX
  8
gko
 10
482.446125
 20
630.961922
  0
VERTEX
  8
gko
 10
479.942340
 20
630.231920
  0
SEQEND
  8
gko
  0
POLYLINE
  8
gko
 62
1
 40
0.000000
 41
0.000000
 66
  1
  0
VERTEX
  8
gko
 10
479.838910
 20
630.197070
  0
VERTEX
  8
gko
 10
478.016506
 20
629.516129
  0
VERTEX
  8
gko
 10
476.336473
 20
628.753488
  0
VERTEX
  8
gko
 10
474.790270
 20
627.904976
  0
VERTEX
  8
gko
 10
473.423767
 20
627.005504
  0
SEQEND
  8
gko
  0
POLYLINE
  8
gko
 62
1
 40
0.000000
 41
0.000000
 66
  1
  0
VERTEX
  8
gko
 10
473.369207
 20
626.966184
  0
VERTEX
  8
gko
 10
472.707035
 20
626.459683
  0
VERTEX
  8
gko
 10
472.543205
 20
626.293593
  0
VERTEX
  8
gko
 10
472.419555
 20
626.110312
  0
VERTEX
  8
gko
 10
472.306195
 20
625.698551
  0
VERTEX
  8
gko
 10
472.281405
 20
624.891460
  0
SEQEND
  8
gko
  0
POLYLINE
  8
gko
 62
1
 40
0.000000
 41
0.000000
 66
  1
  0
VERTEX
  8
gko
 10
472.281405
 20
624.852270
  0
VERTEX
  8
gko
 10
472.232664
 20
623.902308
  0
VERTEX
  8
gko
 10
472.153414
 20
623.618717
  0
VERTEX
  8
gko
 10
472.031614
 20
623.410787
  0
VERTEX
  8
gko
 10
471.850774
 20
623.237836
  0
VERTEX
  8
gko
 10
471.572843
 20
623.072026
  0
VERTEX
  8
gko
 10
470.612031
 20
622.707085
  0
SEQEND
  8
gko
  0
POLYLINE
  8
gko
 62
1
 40
0.000000
 41
0.000000
 66
  1
  0
VERTEX
  8
gko
 10
470.563801
 20
622.690975
  0
VERTEX
  8
gko
 10
469.644269
 20
622.337515
  0
VERTEX
  8
gko
 10
469.047978
 20
622.027754
  0
SEQEND
  8
gko
  0
POLYLINE
  8
gko
 62
1
 40
0.000000
 41
0.000000
 66
  1
  0
VERTEX
  8
gko
 10
469.041648
 20
622.022984
  0
VERTEX
  8
gko
 10
468.608047
 20
621.430323
  0
VERTEX
  8
gko
 10
467.929836
 20
620.174210
  0
VERTEX
  8
gko
 10
465.940942
 20
615.903452
  0
VERTEX
  8
gko
 10
463.433477
 20
609.969790
  0
VERTEX
  8
gko
 10
461.138042
 20
604.089278
  0
SEQEND
  8
gko
  0
POLYLINE
  8
gko
 62
1
 40
0.000000
 41
0.000000
 66
  1
  0
VERTEX
  8
gko
 10
461.048682
 20
603.849298
  0
VERTEX
  8
gko
 10
459.915870
 20
600.698041
  0
VERTEX
  8
gko
 10
458.695347
 20
597.085464
  0
VERTEX
  8
gko
 10
456.465833
 20
589.892480
  0
VERTEX
  8
gko
 10
454.553819
 20
582.931896
  0
VERTEX
  8
gko
 10
453.805638
 20
579.867580
  0
VERTEX
  8
gko
 10
453.196616
 20
577.082364
  0
SEQEND
  8
gko
  0
POLYLINE
  8
gko
 62
1
 40
0.000000
 41
0.000000
 66
  1
  0
VERTEX
  8
gko
 10
453.152856
 20
576.865144
  0
VERTEX
  8
gko
 10
452.283005
 20
572.653235
  0
SEQEND
  8
gko
  0
POLYLINE
  8
gko
 62
1
 40
0.000000
 41
0.000000
 66
  1
  0
VERTEX
  8
gko
 10
452.277545
 20
572.628365
  0
VERTEX
  8
gko
 10
451.574823
 20
568.437057
  0
SEQEND
  8
gko
  0
POLYLINE
  8
gko
 62
1
 40
0.000000
 41
0.000000
 66
  1
  0
VERTEX
  8
gko
 10
451.568443
 20
568.391537
  0
VERTEX
  8
gko
 10
450.859402
 20
563.708147
  0
SEQEND
  8
gko
  0
POLYLINE
  8
gko
 62
1
 40
0.000000
 41
0.000000
 66
  1
  0
VERTEX
  8
gko
 10
450.853892
 20
563.675407
  0
VERTEX
  8
gko
 10
450.354121
 20
559.861740
  0
VERTEX
  8
gko
 10
449.995020
 20
555.381831
  0
VERTEX
  8
gko
 10
449.775810
 20
550.492251
  0
VERTEX
  8
gko
 10
449.695499
 20
545.030370
  0
VERTEX
  8
gko
 10
449.777920
 20
539.714849
  0
VERTEX
  8
gko
 10
450.022170
 20
534.871850
  0
VERTEX
  8
gko
 10
450.390521
 20
531.102762
  0
VERTEX
  8
gko
 10
450.625981
 20
529.553509
  0
VERTEX
  8
gko
 10
450.895502
 20
528.270607
  0
SEQEND
  8
gko
  0
POLYLINE
  8
gko
 62
1
 40
0.000000
 41
0.000000
 66
  1
  0
VERTEX
  8
gko
 10
450.943732
 20
528.084956
  0
VERTEX
  8
gko
 10
451.677463
 20
525.029260
  0
SEQEND
  8
gko
  0
POLYLINE
  8
gko
 62
1
 40
0.000000
 41
0.000000
 66
  1
  0
VERTEX
  8
gko
 10
451.685643
 20
524.993290
  0
VERTEX
  8
gko
 10
452.301675
 20
522.690245
  0
VERTEX
  8
gko
 10
453.062736
 20
520.522551
  0
VERTEX
  8
gko
 10
453.955648
 20
518.511067
  0
VERTEX
  8
gko
 10
455.056430
 20
516.532453
  0
VERTEX
  8
gko
 10
456.279473
 20
514.788180
  0
VERTEX
  8
gko
 10
457.502485
 20
513.408987
  0
VERTEX
  8
gko
 10
458.252137
 20
512.715385
  0
VERTEX
  8
gko
 10
458.913508
 20
512.189834
  0
VERTEX
  8
gko
 10
460.281171
 20
511.340633
  0
SEQEND
  8
gko
  0
POLYLINE
  8
gko
 62
1
 40
0.000000
 41
0.000000
 66
  1
  0
VERTEX
  8
gko
 10
460.397561
 20
511.282543
  0
VERTEX
  8
gko
 10
461.289913
 20
510.889552
  0
VERTEX
  8
gko
 10
462.065984
 20
510.659811
  0
VERTEX
  8
gko
 10
463.068726
 20
510.492631
  0
VERTEX
  8
gko
 10
464.615189
 20
510.342621
  0
SEQEND
  8
gko
  0
POLYLINE
  8
gko
 62
1
 40
0.000000
 41
0.000000
 66
  1
  0
VERTEX
  8
gko
 10
464.687679
 20
510.336721
  0
VERTEX
  8
gko
 10
466.745583
 20
510.137310
  0
VERTEX
  8
gko
 10
467.720495
 20
509.980590
  0
SEQEND
  8
gko
  0
POLYLINE
  8
gko
 62
1
 40
0.000000
 41
0.000000
 66
  1
  0
VERTEX
  8
gko
 10
467.724325
 20
509.978430
  0
VERTEX
  8
gko
 10
468.688797
 20
509.769080
  0
VERTEX
  8
gko
 10
470.961412
 20
509.433269
  0
VERTEX
  8
gko
 10
473.485157
 20
509.125878
  0
VERTEX
  8
gko
 10
475.135170
 20
508.987548
  0
SEQEND
  8
gko
  0
POLYLINE
  8
gko
 62
1
 40
0.000000
 41
0.000000
 66
  1
  0
VERTEX
  8
gko
 10
475.177080
 20
508.986478
  0
VERTEX
  8
gko
 10
475.824862
 20
508.999998
  0
VERTEX
  8
gko
 10
476.261053
 20
509.083408
  0
VERTEX
  8
gko
 10
476.623723
 20
509.261689
  0
VERTEX
  8
gko
 10
477.008554
 20
509.576269
  0
SEQEND
  8
gko
  0
POLYLINE
  8
gko
 62
1
 40
0.000000
 41
0.000000
 66
  1
  0
VERTEX
  8
gko
 10
477.025424
 20
509.592019
  0
VERTEX
  8
gko
 10
477.806396
 20
510.499001
  0
VERTEX
  8
gko
 10
478.587747
 20
511.705273
  0
VERTEX
  8
gko
 10
479.432359
 20
513.277207
  0
VERTEX
  8
gko
 10
480.345031
 20
515.225930
  0
VERTEX
  8
gko
 10
481.330653
 20
517.562605
  0
VERTEX
  8
gko
 10
482.486305
 20
520.544701
  0
VERTEX
  8
gko
 10
484.988490
 20
527.647775
  0
SEQEND
  8
gko
  0
POLYLINE
  8
gko
 62
1
 40
0.000000
 41
0.000000
 66
  1
  0
VERTEX
  8
gko
 10
485.096640
 20
527.970476
  0
VERTEX
  8
gko
 10
487.149474
 20
533.774978
  0
VERTEX
  8
gko
 10
489.310589
 20
539.260299
  0
VERTEX
  8
gko
 10
490.387601
 20
541.753104
  0
VERTEX
  8
gko
 10
491.400883
 20
543.924888
  0
VERTEX
  8
gko
 10
492.259125
 20
545.594991
  0
VERTEX
  8
gko
 10
493.023616
 20
546.897484
  0
SEQEND
  8
gko
  0
POLYLINE
  8
gko
 62
1
 40
0.000000
 41
0.000000
 66
  1
  0
VERTEX
  8
gko
 10
493.082516
 20
546.988034
  0
VERTEX
  8
gko
 10
493.721737
 20
547.822396
  0
VERTEX
  8
gko
 10
494.515999
 20
548.629407
  0
VERTEX
  8
gko
 10
495.441321
 20
549.394459
  0
VERTEX
  8
gko
 10
496.563753
 20
550.158870
  0
VERTEX
  8
gko
 10
497.780916
 20
550.838142
  0
VERTEX
  8
gko
 10
498.962348
 20
551.373633
  0
VERTEX
  8
gko
 10
500.276141
 20
551.837104
  0
VERTEX
  8
gko
 10
501.494303
 20
552.141524
  0
SEQEND
  8
gko
  0
POLYLINE
  8
gko
 62
1
 40
0.000000
 41
0.000000
 66
  1
  0
VERTEX
  8
gko
 10
501.595243
 20
552.161054
  0
VERTEX
  8
gko
 10
503.244136
 20
552.384675
  0
VERTEX
  8
gko
 10
504.915870
 20
552.405505
  0
VERTEX
  8
gko
 10
506.721533
 20
552.226034
  0
VERTEX
  8
gko
 10
508.998598
 20
551.822524
  0
SEQEND
  8
gko
  0
POLYLINE
  8
gko
 62
1
 40
0.000000
 41
0.000000
 66
  1
  0
VERTEX
  8
gko
 10
577.284675
 20
551.990774
  0
VERTEX
  8
gko
 10
579.101498
 20
552.309265
  0
VERTEX
  8
gko
 10
580.870072
 20
552.412515
  0
VERTEX
  8
gko
 10
582.726965
 20
552.282775
  0
VERTEX
  8
gko
 10
584.382189
 20
551.941294
  0
VERTEX
  8
gko
 10
586.106982
 20
551.332333
  0
VERTEX
  8
gko
 10
587.631715
 20
550.550971
  0
VERTEX
  8
gko
 10
589.205968
 20
549.468199
  0
VERTEX
  8
gko
 10
590.583131
 20
548.251837
  0
SEQEND
  8
gko
  0
POLYLINE
  8
gko
 62
1
 40
0.000000
 41
0.000000
 66
  1
  0
VERTEX
  8
gko
 10
590.694481
 20
548.141066
  0
VERTEX
  8
gko
 10
591.802634
 20
546.877894
  0
VERTEX
  8
gko
 10
592.731695
 20
545.433401
  0
VERTEX
  8
gko
 10
593.758868
 20
543.385827
  0
VERTEX
  8
gko
 10
595.130320
 20
540.259481
  0
SEQEND
  8
gko
  0
POLYLINE
  8
gko
 62
1
 40
0.000000
 41
0.000000
 66
  1
  0
VERTEX
  8
gko
 10
595.194430
 20
540.108250
  0
VERTEX
  8
gko
 10
596.316353
 20
537.393065
  0
VERTEX
  8
gko
 10
597.268245
 20
534.920340
  0
VERTEX
  8
gko
 10
600.294181
 20
526.383843
  0
SEQEND
  8
gko
  0
POLYLINE
  8
gko
 62
1
 40
0.000000
 41
0.000000
 66
  1
  0
VERTEX
  8
gko
 10
600.379371
 20
526.138352
  0
VERTEX
  8
gko
 10
602.716865
 20
519.652019
  0
VERTEX
  8
gko
 10
604.551179
 20
515.110460
  0
VERTEX
  8
gko
 10
605.348511
 20
513.389457
  0
VERTEX
  8
gko
 10
606.140892
 20
511.896824
  0
VERTEX
  8
gko
 10
606.819194
 20
510.833012
  0
VERTEX
  8
gko
 10
607.510995
 20
509.988230
  0
SEQEND
  8
gko
  0
POLYLINE
  8
gko
 62
1
 40
0.000000
 41
0.000000
 66
  1
  0
VERTEX
  8
gko
 10
607.562705
 20
509.935580
  0
VERTEX
  8
gko
 10
608.122046
 20
509.411319
  0
VERTEX
  8
gko
 10
608.534687
 20
509.132758
  0
VERTEX
  8
gko
 10
608.948658
 20
509.001238
  0
VERTEX
  8
gko
 10
609.487069
 20
508.968118
  0
SEQEND
  8
gko
  0
POLYLINE
  8
gko
 62
1
 40
0.000000
 41
0.000000
 66
  1
  0
VERTEX
  8
gko
 10
609.512489
 20
508.968198
  0
VERTEX
  8
gko
 10
612.519325
 20
509.268449
  0
VERTEX
  8
gko
 10
618.149246
 20
510.056260
  0
SEQEND
  8
gko
  0
POLYLINE
  8
gko
 62
1
 40
0.000000
 41
0.000000
 66
  1
  0
VERTEX
  8
gko
 10
618.278357
 20
510.075710
  0
VERTEX
  8
gko
 10
621.780794
 20
510.549681
  0
SEQEND
  8
gko
  0
POLYLINE
  8
gko
 62
1
 40
0.000000
 41
0.000000
 66
  1
  0
VERTEX
  8
gko
 10
621.812774
 20
510.553591
  0
VERTEX
  8
gko
 10
622.805096
 20
510.702791
  0
VERTEX
  8
gko
 10
623.576657
 20
510.887702
  0
VERTEX
  8
gko
 10
624.256919
 20
511.139852
  0
VERTEX
  8
gko
 10
624.989530
 20
511.518923
  0
SEQEND
  8
gko
  0
POLYLINE
  8
gko
 62
1
 40
0.000000
 41
0.000000
 66
  1
  0
VERTEX
  8
gko
 10
625.019040
 20
511.536163
  0
VERTEX
  8
gko
 10
625.886842
 20
512.099234
  0
VERTEX
  8
gko
 10
626.599593
 20
512.650895
  0
VERTEX
  8
gko
 10
627.939666
 20
513.947058
  0
VERTEX
  8
gko
 10
629.167508
 20
515.503501
  0
VERTEX
  8
gko
 10
630.373151
 20
517.487325
  0
VERTEX
  8
gko
 10
631.373273
 20
519.597329
  0
VERTEX
  8
gko
 10
632.266975
 20
521.978404
  0
VERTEX
  8
gko
 10
633.117296
 20
524.868220
  0
VERTEX
  8
gko
 10
633.795448
 20
527.825806
  0
SEQEND
  8
gko
  0
ENDSEC
  0
EOF
